<svg fill="none" height="457" viewBox="0 0 463 457" width="463" xmlns="http://www.w3.org/2000/svg"><g fill="#013a51" opacity=".2"><path d="m47.5859 272.303c1.1197.558 1.1197 1.674 0 2.232s-2.7993.558-3.919 0-1.1197-1.674 0-2.232 2.7993-.558 3.919 0z"/><path d="m55.9858 268.955c1.546 0 2.7993-.749 2.7993-1.674 0-.924-1.2533-1.674-2.7993-1.674s-2.7993.75-2.7993 1.674c0 .925 1.2533 1.674 2.7993 1.674z"/><path d="m66.6206 262.817c1.5459 0 2.7992-.75 2.7992-1.674 0-.925-1.2533-1.674-2.7992-1.674-1.546 0-2.7993.749-2.7993 1.674 0 .924 1.2533 1.674 2.7993 1.674z"/><path d="m79.498 253.889c1.1197.558 1.1197 1.674 0 2.232s-2.7993.558-3.919 0-1.1197-1.674 0-2.232c.5599-.558 2.7993-.558 3.919 0z"/><path d="m90.1367 247.751c1.1197.558 1.1197 1.674 0 2.232s-2.7993.558-3.919 0-1.1197-1.674 0-2.232c.5599-.558 2.7993-.558 3.919 0z"/><path d="m36.9502 266.165c1.1197.558 1.1197 1.674 0 2.232s-2.7993.558-3.919 0-1.1197-1.674 0-2.232 2.7993-.558 3.919 0z"/><path d="m47.5859 260.028c1.1197.558 1.1197 1.674 0 2.232s-2.7993.558-3.919 0-1.1197-1.674 0-2.232c.5599-.558 2.7993-.558 3.919 0z"/><path d="m55.9858 256.679c1.546 0 2.7993-.749 2.7993-1.674 0-.924-1.2533-1.674-2.7993-1.674s-2.7993.75-2.7993 1.674c0 .925 1.2533 1.674 2.7993 1.674z"/><path d="m68.8633 247.751c1.1197.558 1.1197 1.674 0 2.232-1.1198.558-2.7993.558-3.919 0s-1.1197-1.674 0-2.232c.5598-.558 2.7992-.558 3.919 0z"/><path d="m79.498 241.613c1.1197.558 1.1197 1.674 0 2.232s-2.7993.558-3.919 0-1.1197-1.674 0-2.232c.5599-.558 2.7993-.558 3.919 0z"/><path d="m26.3115 260.028c1.1197.558 1.1197 1.674 0 2.232s-2.7993.558-3.919 0-1.1197-1.674 0-2.232 2.7993-.558 3.919 0z"/><path d="m36.9502 253.889c1.1197.558 1.1197 1.674 0 2.232s-2.7993.558-3.919 0-1.1197-1.674 0-2.232 2.7993-.558 3.919 0z"/><path d="m47.5859 247.751c1.1197.558 1.1197 1.674 0 2.232s-2.7993.558-3.919 0-1.1197-1.674 0-2.232c.5599-.558 2.7993-.558 3.919 0z"/><path d="m58.2246 241.613c1.1197.558 1.1197 1.674 0 2.232s-2.7993.558-3.919 0-1.1197-1.674 0-2.232c.5599-.558 2.7993-.558 3.919 0z"/><path d="m68.8633 235.475c1.1197.558 1.1197 1.674 0 2.232-1.1198.558-2.7993.558-3.919 0s-1.1197-1.674 0-2.232c.5598-.558 2.7992-.558 3.919 0z"/><path d="m15.6767 253.889c1.1197.558 1.1197 1.674 0 2.232s-2.7992.558-3.9189 0c-1.1198-.558-1.1198-1.674 0-2.232 1.1197-.558 2.7992-.558 3.9189 0z"/><path d="m26.3115 247.751c1.1197.558 1.1197 1.674 0 2.232s-2.7993.558-3.919 0-1.1197-1.674 0-2.232 2.7993-.558 3.919 0z"/><path d="m36.9502 241.613c1.1197.558 1.1197 1.674 0 2.232s-2.7993.558-3.919 0-1.1197-1.674 0-2.232 2.7993-.558 3.919 0z"/><path d="m47.5859 235.475c1.1197.558 1.1197 1.674 0 2.232s-2.7993.558-3.919 0-1.1197-1.674 0-2.232c.5599-.558 2.7993-.558 3.919 0z"/><path d="m5.03806 247.751c1.11971.558 1.11971 1.674 0 2.232s-2.79927.558-3.91898 0c-1.11971059-.558-1.11971059-1.674 0-2.232 1.11971-.558 2.79927-.558 3.91898 0z"/><path d="m15.6767 241.613c1.1197.558 1.1197 1.674 0 2.232s-2.7992.558-3.9189 0c-1.1198-.558-1.1198-1.674 0-2.232 1.1197-.558 2.7992-.558 3.9189 0z"/><path d="m26.3115 235.475c1.1197.558 1.1197 1.674 0 2.232s-2.7993.558-3.919 0-1.1197-1.674 0-2.232 2.7993-.558 3.919 0z"/><path d="m36.9502 229.338c1.1197.558 1.1197 1.674 0 2.232s-2.7993.558-3.919 0-1.1197-1.674 0-2.232 2.7993-.558 3.919 0z"/><path d="m5.03806 235.475c1.11971.558 1.11971 1.674 0 2.232s-2.79927.558-3.91898 0c-1.11971059-.558-1.11971059-1.674 0-2.232 1.11971-.558 2.79927-.558 3.91898 0z"/><path d="m15.6767 229.338c1.1197.558 1.1197 1.674 0 2.232s-2.7992.558-3.9189 0c-1.1198-.558-1.1198-1.674 0-2.232.5598-.558 2.7992-.558 3.9189 0z"/><path d="m26.3115 223.199c1.1197.558 1.1197 1.674 0 2.232s-2.7993.558-3.919 0-1.1197-1.674 0-2.232c.5599-.558 2.7993-.558 3.919 0s-1.1197-.558 0 0z"/><path d="m5.03806 223.199c1.11971.558 1.11971 1.674 0 2.232s-2.79927.558-3.91898 0c-1.11971059-.558-1.11971059-1.674 0-2.232 1.11971-.558 2.79927-.558 3.91898 0z"/><path d="m15.6767 219.851c-1.1197.558-2.7992.558-3.9189 0-1.1198-.558-1.1198-1.674 0-2.232.5598-1.116 5.0386 1.116 3.9189 2.232z"/><path d="m100.771 449.188c1.12.558 1.12 1.674 0 2.232-1.1192.558-2.7988.558-3.9185 0s-1.1197-1.674 0-2.232 2.7993-.558 3.9185 0z"/><path d="m111.41 443.05c1.12.558 1.12 1.674 0 2.232s-2.799.558-3.919 0-1.12-1.674 0-2.232 2.799-.558 3.919 0z"/><path d="m90.1367 443.05c1.1197.558 1.1197 1.674 0 2.232s-2.7993.558-3.919 0-1.1197-1.674 0-2.232 2.7993-.558 3.919 0z"/><path d="m100.771 436.913c1.12.558 1.12 1.674 0 2.232-1.1192.558-2.7988.558-3.9185 0s-1.1197-1.674 0-2.232 2.7993-.558 3.9185 0z"/><path d="m79.498 436.913c1.1197.558 1.1197 1.674 0 2.232s-2.7993.558-3.919 0-1.1197-1.674 0-2.232 2.7993-.558 3.919 0z"/><path d="m90.1367 430.774c1.1197.558 1.1197 1.674 0 2.232s-2.7993.558-3.919 0-1.1197-1.674 0-2.232 2.7993-.558 3.919 0z"/><path d="m68.8633 430.774c1.1197.558 1.1197 1.674 0 2.232-1.1198.558-2.7993.558-3.919 0s-1.1197-1.674 0-2.232 2.7992-.558 3.919 0z"/><path d="m79.498 424.637c1.1197.558 1.1197 1.674 0 2.232s-2.7993.558-3.919 0-1.1197-1.674 0-2.232 2.7993-.558 3.919 0z"/><path d="m58.2246 424.637c1.1197.558 1.1197 1.674 0 2.232s-2.7993.558-3.919 0-1.1197-1.674 0-2.232 2.7993-.558 3.919 0z"/><path d="m68.8633 418.499c1.1197.558 1.1197 1.674 0 2.232-1.1198.558-2.7993.558-3.919 0s-1.1197-1.674 0-2.232 2.7992-.558 3.919 0z"/><path d="m58.2246 412.36c1.1197.558 1.1197 1.674 0 2.232s-2.7993.558-3.919 0-1.1197-1.674 0-2.232 2.7993-.558 3.919 0z"/><path d="m132.685 454.21c1.119.558 1.119 1.674 0 2.232-1.12.558-2.8.558-3.919 0-1.12-.558-1.12-1.674 0-2.232 1.119-.558 2.799-.558 3.919 0z"/><path d="m111.969 454.21c1.119.558 1.119 1.674 0 2.232-1.12.558-2.8.558-3.919 0-1.12-.558-1.12-1.674 0-2.232.56-.558 2.799-.558 3.919 0z"/><path d="m122.607 448.072c1.12.558 1.12 1.674 0 2.232-1.119.558-2.799.558-3.919 0-1.119-.558-1.119-1.674 0-2.232.56-.558 2.8-.558 3.919 0z"/><path d="m122.049 436.913c1.12.558 1.12 1.674 0 2.232s-2.799.558-3.919 0-1.12-1.674 0-2.232 2.799-.558 3.919 0z"/><path d="m132.685 430.774c1.119.558 1.119 1.674 0 2.232-1.12.558-2.8.558-3.919 0-1.12-.558-1.12-1.674 0-2.232 1.119-.558 2.799-.558 3.919 0z"/><path d="m143.323 424.637c1.12.558 1.12 1.674 0 2.232-1.119.558-2.799.558-3.919 0-1.119-.558-1.119-1.674 0-2.232 1.12-.558 2.8-.558 3.919 0z"/><path d="m151.719 421.289c1.546 0 2.799-.75 2.799-1.674 0-.925-1.253-1.674-2.799-1.674s-2.799.749-2.799 1.674c0 .924 1.253 1.674 2.799 1.674z"/><path d="m164.597 412.36c1.119.558 1.119 1.674 0 2.232-1.12.558-2.8.558-3.919 0-1.12-.558-1.12-1.674 0-2.232.56-.558 2.799-.558 3.919 0z"/><path d="m175.235 406.223c1.12.558 1.12 1.674 0 2.232-1.119.558-2.799.558-3.919 0-1.119-.558-1.119-1.674 0-2.232.56-.558 2.8-.558 3.919 0z"/><path d="m185.871 400.084c1.12.558 1.12 1.674 0 2.232s-2.799.558-3.919 0-1.12-1.674 0-2.232c.56-.558 2.799-.558 3.919 0z"/><path d="m196.509 393.947c1.119.558 1.119 1.674 0 2.232-1.12.558-2.8.558-3.919 0-1.12-.558-1.12-1.674 0-2.232.56-.558 2.799-.558 3.919 0z"/><path d="m207.144 388.366c1.12.558 1.12 1.674 0 2.232-1.119.558-2.799.558-3.918 0-1.12-.558-1.12-1.674 0-2.232.559-1.116 2.799-1.116 3.918 0z"/><path d="m217.225 382.229c1.119.558 1.119 1.674 0 2.232-1.12.558-2.8.558-3.919 0-1.12-.558-1.12-1.674 0-2.232 1.119-1.116 2.799-1.116 3.919 0z"/><path d="m227.859 376.09c1.12.558 1.12 1.674 0 2.232-1.119.558-2.799.558-3.919 0-1.119-.558-1.119-1.674 0-2.232 1.12-1.116 2.8-1.116 3.919 0z"/><path d="m238.498 369.953c1.12.558 1.12 1.674 0 2.232s-2.799.558-3.919 0-1.12-1.674 0-2.232 2.799-.558 3.919 0z"/><path d="m249.133 363.814c1.12.558 1.12 1.674 0 2.232-1.119.558-2.799.558-3.919 0-1.119-.558-1.119-1.674 0-2.232 1.12-.558 2.8-.558 3.919 0z"/><path d="m258.092 360.467c1.546 0 2.799-.75 2.799-1.674 0-.925-1.253-1.674-2.799-1.674s-2.8.749-2.8 1.674c0 .924 1.254 1.674 2.8 1.674z"/><path d="m270.411 351.539c1.119.558 1.119 1.674 0 2.232-1.12.558-2.8.558-3.919 0-1.12-.558-1.12-1.674 0-2.232 1.119-.558 2.799-.558 3.919 0z"/><path d="m281.045 345.4c1.12.558 1.12 1.674 0 2.232-1.119.558-2.799.558-3.919 0-1.119-.558-1.119-1.674 0-2.232 1.12-.558 2.8-.558 3.919 0z"/><path d="m107.491 430.774c1.12-.558 2.799-.558 3.919 0s1.12 1.674 0 2.232-2.799.558-3.919 0-1.12-1.674 0-2.232z"/><path d="m122.049 424.637c1.12.558 1.12 1.674 0 2.232s-2.799.558-3.919 0-1.12-1.674 0-2.232 2.799-.558 3.919 0z"/><path d="m132.685 418.499c1.119.558 1.119 1.674 0 2.232-1.12.558-2.8.558-3.919 0-1.12-.558-1.12-1.674 0-2.232 1.119-.558 2.799-.558 3.919 0z"/><path d="m143.323 412.36c1.12.558 1.12 1.674 0 2.232-1.119.558-2.799.558-3.919 0-1.119-.558-1.119-1.674 0-2.232 1.12-.558 2.8-.558 3.919 0z"/><path d="m153.958 406.223c1.12.558 1.12 1.674 0 2.232s-2.799.558-3.919 0-1.12-1.674 0-2.232 2.799-.558 3.919 0z"/><path d="m164.597 400.084c1.119.558 1.119 1.674 0 2.232-1.12.558-2.8.558-3.919 0-1.12-.558-1.12-1.674 0-2.232.56-.558 2.799-.558 3.919 0z"/><path d="m175.235 393.947c1.12.558 1.12 1.674 0 2.232-1.119.558-2.799.558-3.919 0-1.119-.558-1.119-1.674 0-2.232.56-.558 2.8-.558 3.919 0z"/><path d="m185.871 388.366c1.12.558 1.12 1.674 0 2.232s-2.799.558-3.919 0-1.12-1.674 0-2.232c.56-1.116 2.799-1.116 3.919 0z"/><path d="m196.509 382.229c1.119.558 1.119 1.674 0 2.232-1.12.558-2.8.558-3.919 0-1.12-.558-1.12-1.674 0-2.232.56-1.116 2.799-1.116 3.919 0z"/><path d="m207.144 376.09c1.12.558 1.12 1.674 0 2.232-1.119.558-2.799.558-3.918 0-1.12-.558-1.12-1.674 0-2.232.559-1.116 2.799-1.116 3.918 0z"/><path d="m217.225 369.953c1.119.558 1.119 1.674 0 2.232-1.12.558-2.8.558-3.919 0-1.12-.558-1.12-1.674 0-2.232 1.119-.558 2.799-.558 3.919 0z"/><path d="m227.859 363.814c1.12.558 1.12 1.674 0 2.232-1.119.558-2.799.558-3.919 0-1.119-.558-1.119-1.674 0-2.232 1.12-.558 2.8-.558 3.919 0z"/><path d="m238.498 357.677c1.12.558 1.12 1.674 0 2.232s-2.799.558-3.919 0-1.12-1.674 0-2.232 2.799-.558 3.919 0z"/><path d="m247.456 354.329c1.546 0 2.8-.749 2.8-1.674 0-.924-1.254-1.674-2.8-1.674s-2.799.75-2.799 1.674c0 .925 1.253 1.674 2.799 1.674z"/><path d="m259.772 345.4c1.12.558 1.12 1.674 0 2.232s-2.799.558-3.919 0-1.12-1.674 0-2.232 2.799-.558 3.919 0z"/><path d="m270.411 339.263c1.119.558 1.119 1.674 0 2.232-1.12.558-2.8.558-3.919 0-1.12-.558-1.12-1.674 0-2.232 1.119-.558 2.799-.558 3.919 0z"/><path d="m96.8525 424.637c1.1197-.558 2.7993-.558 3.9185 0 1.12.558 1.12 1.674 0 2.232-1.1192.558-2.7988.558-3.9185 0s-1.1197-1.674 0-2.232z"/><path d="m111.41 418.499c1.12.558 1.12 1.674 0 2.232s-2.799.558-3.919 0-1.12-1.674 0-2.232 2.799-.558 3.919 0z"/><path d="m122.049 412.36c1.12.558 1.12 1.674 0 2.232s-2.799.558-3.919 0-1.12-1.674 0-2.232 2.799-.558 3.919 0z"/><path d="m132.685 406.223c1.119.558 1.119 1.674 0 2.232-1.12.558-2.8.558-3.919 0-1.12-.558-1.12-1.674 0-2.232 1.119-.558 2.799-.558 3.919 0z"/><path d="m143.323 400.084c1.12.558 1.12 1.674 0 2.232-1.119.558-2.799.558-3.919 0-1.119-.558-1.119-1.674 0-2.232 1.12-.558 2.8-.558 3.919 0z"/><path d="m153.958 393.947c1.12.558 1.12 1.674 0 2.232s-2.799.558-3.919 0-1.12-1.674 0-2.232 2.799-.558 3.919 0z"/><path d="m164.597 388.366c1.119.558 1.119 1.674 0 2.232-1.12.558-2.8.558-3.919 0-1.12-.558-1.12-1.674 0-2.232.56-1.116 2.799-1.116 3.919 0z"/><path d="m175.235 382.229c1.12.558 1.12 1.674 0 2.232-1.119.558-2.799.558-3.919 0-1.119-.558-1.119-1.674 0-2.232.56-1.116 2.8-1.116 3.919 0z"/><path d="m185.871 376.09c1.12.558 1.12 1.674 0 2.232s-2.799.558-3.919 0-1.12-1.674 0-2.232c.56-1.116 2.799-1.116 3.919 0z"/><path d="m196.509 369.953c1.119.558 1.119 1.674 0 2.232-1.12.558-2.8.558-3.919 0-1.12-.558-1.12-1.674 0-2.232.56-.558 2.799-.558 3.919 0z"/><path d="m207.144 363.814c1.12.558 1.12 1.674 0 2.232-1.119.558-2.799.558-3.918 0-1.12-.558-1.12-1.674 0-2.232.559-.558 2.799-.558 3.918 0z"/><path d="m217.225 357.677c1.119.558 1.119 1.674 0 2.232-1.12.558-2.8.558-3.919 0-1.12-.558-1.12-1.674 0-2.232 1.119-.558 2.799-.558 3.919 0z"/><path d="m227.859 351.539c1.12.558 1.12 1.674 0 2.232-1.119.558-2.799.558-3.919 0-1.119-.558-1.119-1.674 0-2.232 1.12-.558 2.8-.558 3.919 0z"/><path d="m238.498 345.4c1.12.558 1.12 1.674 0 2.232s-2.799.558-3.919 0-1.12-1.674 0-2.232 2.799-.558 3.919 0z"/><path d="m249.133 339.263c1.12.558 1.12 1.674 0 2.232-1.119.558-2.799.558-3.919 0-1.119-.558-1.119-1.674 0-2.232 1.12-.558 2.8-.558 3.919 0z"/><path d="m259.772 333.125c1.12.558 1.12 1.674 0 2.232s-2.799.558-3.919 0-1.12-1.674 0-2.232 2.799-.558 3.919 0z"/><path d="m86.2177 418.499c1.1197-.558 2.7993-.558 3.919 0s1.1197 1.674 0 2.232-2.7993.558-3.919 0-1.1197-1.674 0-2.232z"/><path d="m100.771 412.36c1.12.558 1.12 1.674 0 2.232-1.1192.558-2.7988.558-3.9185 0s-1.1197-1.674 0-2.232 2.7993-.558 3.9185 0z"/><path d="m111.41 406.223c1.12.558 1.12 1.674 0 2.232s-2.799.558-3.919 0-1.12-1.674 0-2.232 2.799-.558 3.919 0z"/><path d="m119.807 403.432c1.546 0 2.799-.749 2.799-1.674 0-.924-1.253-1.674-2.799-1.674s-2.799.75-2.799 1.674c0 .925 1.253 1.674 2.799 1.674z"/><path d="m132.685 393.947c1.119.558 1.119 1.674 0 2.232-1.12.558-2.8.558-3.919 0-1.12-.558-1.12-1.674 0-2.232 1.119-.558 2.799-.558 3.919 0z"/><path d="m143.323 388.366c1.12.558 1.12 1.674 0 2.232-1.119.558-2.799.558-3.919 0-1.119-.558-1.119-1.674 0-2.232 1.12-1.116 2.8-1.116 3.919 0z"/><path d="m153.958 382.229c1.12.558 1.12 1.674 0 2.232s-2.799.558-3.919 0-1.12-1.674 0-2.232c1.12-1.116 2.799-1.116 3.919 0z"/><path d="m164.597 376.09c1.119.558 1.119 1.674 0 2.232-1.12.558-2.8.558-3.919 0-1.12-.558-1.12-1.674 0-2.232.56-1.116 2.799-1.116 3.919 0z"/><path d="m172.993 372.742c1.546 0 2.799-.749 2.799-1.674 0-.924-1.253-1.674-2.799-1.674s-2.8.75-2.8 1.674c0 .925 1.254 1.674 2.8 1.674z"/><path d="m185.871 363.814c1.12.558 1.12 1.674 0 2.232s-2.799.558-3.919 0-1.12-1.674 0-2.232c.56-.558 2.799-.558 3.919 0z"/><path d="m196.509 357.677c1.119.558 1.119 1.674 0 2.232-1.12.558-2.8.558-3.919 0-1.12-.558-1.12-1.674 0-2.232.56-.558 2.799-.558 3.919 0z"/><path d="m207.144 351.539c1.12.558 1.12 1.674 0 2.232-1.119.558-2.799.558-3.918 0-1.12-.558-1.12-1.674 0-2.232.559-.558 2.799-.558 3.918 0z"/><path d="m217.225 345.4c1.119.558 1.119 1.674 0 2.232-1.12.558-2.8.558-3.919 0-1.12-.558-1.12-1.674 0-2.232 1.119-.558 2.799-.558 3.919 0z"/><path d="m227.859 339.263c1.12.558 1.12 1.674 0 2.232-1.119.558-2.799.558-3.919 0-1.119-.558-1.119-1.674 0-2.232 1.12-.558 2.8-.558 3.919 0z"/><path d="m238.498 333.125c1.12.558 1.12 1.674 0 2.232s-2.799.558-3.919 0-1.12-1.674 0-2.232 2.799-.558 3.919 0z"/><path d="m249.133 326.987c1.12.558 1.12 1.674 0 2.232-1.119.558-2.799.558-3.919 0-1.119-.558-1.119-1.674 0-2.232 1.12-.558 2.8-.558 3.919 0z"/><path d="m75.579 412.36c1.1197-.558 2.7993-.558 3.919 0s1.1197 1.674 0 2.232-2.7993.558-3.919 0-1.1197-1.674 0-2.232z"/><path d="m90.1367 406.223c1.1197.558 1.1197 1.674 0 2.232s-2.7993.558-3.919 0-1.1197-1.674 0-2.232 2.7993-.558 3.919 0z"/><path d="m100.771 400.084c1.12.558 1.12 1.674 0 2.232-1.1192.558-2.7988.558-3.9185 0s-1.1197-1.674 0-2.232 2.7993-.558 3.9185 0z"/><path d="m111.41 393.947c1.12.558 1.12 1.674 0 2.232s-2.799.558-3.919 0-1.12-1.674 0-2.232 2.799-.558 3.919 0z"/><path d="m122.049 388.366c1.12.558 1.12 1.674 0 2.232s-2.799.558-3.919 0-1.12-1.674 0-2.232c1.12-1.116 2.799-1.116 3.919 0z"/><path d="m132.685 382.229c1.119.558 1.119 1.674 0 2.232-1.12.558-2.8.558-3.919 0-1.12-.558-1.12-1.674 0-2.232 1.119-1.116 2.799-1.116 3.919 0z"/><path d="m143.323 376.09c1.12.558 1.12 1.674 0 2.232-1.119.558-2.799.558-3.919 0-1.119-.558-1.119-1.674 0-2.232 1.12-1.116 2.8-1.116 3.919 0z"/><path d="m153.958 369.953c1.12.558 1.12 1.674 0 2.232s-2.799.558-3.919 0-1.12-1.674 0-2.232 2.799-.558 3.919 0z"/><path d="m164.597 363.814c1.119.558 1.119 1.674 0 2.232-1.12.558-2.8.558-3.919 0-1.12-.558-1.12-1.674 0-2.232.56-.558 2.799-.558 3.919 0z"/><path d="m175.235 357.677c1.12.558 1.12 1.674 0 2.232-1.119.558-2.799.558-3.919 0-1.119-.558-1.119-1.674 0-2.232.56-.558 2.8-.558 3.919 0z"/><path d="m185.871 351.539c1.12.558 1.12 1.674 0 2.232s-2.799.558-3.919 0-1.12-1.674 0-2.232c.56-.558 2.799-.558 3.919 0z"/><path d="m196.509 345.4c1.119.558 1.119 1.674 0 2.232-1.12.558-2.8.558-3.919 0-1.12-.558-1.12-1.674 0-2.232.56-.558 2.799-.558 3.919 0z"/><path d="m207.144 339.263c1.12.558 1.12 1.674 0 2.232-1.119.558-2.799.558-3.918 0-1.12-.558-1.12-1.674 0-2.232 1.119-.558 2.799-.558 3.918 0z"/><path d="m217.225 333.125c1.119.558 1.119 1.674 0 2.232-1.12.558-2.8.558-3.919 0-1.12-.558-1.12-1.674 0-2.232 1.119-.558 2.799-.558 3.919 0z"/><path d="m227.859 326.987c1.12.558 1.12 1.674 0 2.232-1.119.558-2.799.558-3.919 0-1.119-.558-1.119-1.674 0-2.232 1.12-.558 2.8-.558 3.919 0z"/><path d="m238.498 320.849c1.12.558 1.12 1.674 0 2.232s-2.799.558-3.919 0-1.12-1.674 0-2.232 2.799-.558 3.919 0z"/><path d="m64.9443 406.223c1.1197-.558 2.7992-.558 3.919 0 1.1197.558 1.1197 1.674 0 2.232-1.1198.558-2.7993.558-3.919 0s-1.1197-1.674 0-2.232z"/><path d="m79.498 400.084c1.1197.558 1.1197 1.674 0 2.232s-2.7993.558-3.919 0-1.1197-1.674 0-2.232 2.7993-.558 3.919 0z"/><path d="m90.1367 393.947c1.1197.558 1.1197 1.674 0 2.232s-2.7993.558-3.919 0-1.1197-1.674 0-2.232 2.7993-.558 3.919 0z"/><path d="m100.771 387.809c1.12.558 1.12 1.674 0 2.232-1.1192.558-2.7988.558-3.9185 0s-1.1197-1.674 0-2.232 2.7993-.558 3.9185 0z"/><path d="m111.41 381.67c1.12.558 1.12 1.674 0 2.232s-2.799.558-3.919 0-1.12-1.674 0-2.232 2.799-.558 3.919 0z"/><path d="m119.807 378.881c1.546 0 2.799-.75 2.799-1.674 0-.925-1.253-1.674-2.799-1.674s-2.799.749-2.799 1.674c0 .924 1.253 1.674 2.799 1.674z"/><path d="m132.685 369.953c1.119.558 1.119 1.674 0 2.232-1.12.558-2.8.558-3.919 0-1.12-.558-1.12-1.674 0-2.232.559-1.116 2.799-1.116 3.919 0z"/><path d="m143.323 363.815c1.12.558 1.12 1.674 0 2.232-1.119.558-2.799.558-3.919 0-1.119-.558-1.119-1.674 0-2.232.56-1.116 2.8-1.116 3.919 0z"/><path d="m153.958 357.677c1.12.558 1.12 1.674 0 2.232s-2.799.558-3.919 0-1.12-1.674 0-2.232c.56-.558 2.799-.558 3.919 0z"/><path d="m164.597 351.539c1.119.558 1.119 1.674 0 2.232-1.12.558-2.8.558-3.919 0-1.12-.558-1.12-1.674 0-2.232.56-.558 2.799-.558 3.919 0z"/><path d="m172.993 348.191c1.546 0 2.799-.75 2.799-1.674 0-.925-1.253-1.674-2.799-1.674s-2.8.749-2.8 1.674c0 .924 1.254 1.674 2.8 1.674z"/><path d="m185.312 339.263c1.12.558 1.12 1.674 0 2.232-1.119.558-2.799.558-3.919 0-1.119-.558-1.119-1.674 0-2.232 1.12-.558 2.8-.558 3.919 0z"/><path d="m195.947 333.125c1.12.558 1.12 1.674 0 2.232-1.119.558-2.799.558-3.919 0-1.119-.558-1.119-1.674 0-2.232 1.12-.558 2.8-.558 3.919 0z"/><path d="m206.586 326.987c1.12.558 1.12 1.674 0 2.232s-2.799.558-3.919 0-1.12-1.674 0-2.232 2.799-.558 3.919 0z"/><path d="m217.225 320.849c1.119.558 1.119 1.674 0 2.232-1.12.558-2.8.558-3.919 0-1.12-.558-1.12-1.674 0-2.232 1.119-.558 2.799-.558 3.919 0z"/><path d="m227.859 314.71c1.12.558 1.12 1.674 0 2.232-1.119.558-2.799.558-3.919 0-1.119-.558-1.119-1.674 0-2.232 1.12-.558 2.8-.558 3.919 0z"/><path d="m54.3056 400.084c1.1197-.558 2.7993-.558 3.919 0s1.1197 1.674 0 2.232-2.7993.558-3.919 0-1.1197-1.674 0-2.232z"/><path d="m68.8633 393.947c1.1197.558 1.1197 1.674 0 2.232-1.1198.558-2.7993.558-3.919 0s-1.1197-1.674 0-2.232 2.7992-.558 3.919 0z"/><path d="m79.498 387.809c1.1197.558 1.1197 1.674 0 2.232s-2.7993.558-3.919 0-1.1197-1.674 0-2.232 2.7993-.558 3.919 0z"/><path d="m90.1366 381.671c1.1197.558 1.1197 1.674 0 2.232s-2.7993.558-3.919 0c-1.1197 0 2.7993-2.79 3.919-2.232z"/><path d="m100.771 376.09c1.12.558 1.12 1.674 0 2.232-1.1192.558-2.7988.558-3.9185 0s-1.1197-1.674 0-2.232c1.1197-1.116 2.7993-1.116 3.9185 0z"/><path d="m111.41 369.953c1.12.558 1.12 1.674 0 2.232s-2.799.558-3.919 0-1.12-1.674 0-2.232c1.12-1.116 2.799-1.116 3.919 0z"/><path d="m122.049 363.815c1.12.558 1.12 1.674 0 2.232s-2.799.558-3.919 0-1.12-1.674 0-2.232c1.12-1.116 2.799-1.116 3.919 0z"/><path d="m132.685 357.677c1.119.558 1.119 1.674 0 2.232-1.12.558-2.8.558-3.919 0-1.12-.558-1.12-1.674 0-2.232.559-.558 2.799-.558 3.919 0z"/><path d="m143.323 351.539c1.12.558 1.12 1.674 0 2.232-1.119.558-2.799.558-3.919 0-1.119-.558-1.119-1.674 0-2.232.56-.558 2.8-.558 3.919 0z"/><path d="m153.958 345.4c1.12.558 1.12 1.674 0 2.232s-2.799.558-3.919 0-1.12-1.674 0-2.232c.56-.558 2.799-.558 3.919 0z"/><path d="m164.597 339.263c1.119.558 1.119 1.674 0 2.232-1.12.558-2.8.558-3.919 0-1.12-.558-1.12-1.674 0-2.232.56-.558 2.799-.558 3.919 0z"/><path d="m175.235 333.125c1.12.558 1.12 1.674 0 2.232-1.119.558-2.799.558-3.919 0-1.119-.558-1.119-1.674 0-2.232.56-.558 2.8-.558 3.919 0z"/><path d="m185.312 326.987c1.12.558 1.12 1.674 0 2.232-1.119.558-2.799.558-3.919 0-1.119-.558-1.119-1.674 0-2.232 1.12-.558 2.8-.558 3.919 0z"/><path d="m195.947 320.849c1.12.558 1.12 1.674 0 2.232-1.119.558-2.799.558-3.919 0-1.119-.558-1.119-1.674 0-2.232 1.12-.558 2.8-.558 3.919 0z"/><path d="m206.586 314.71c1.12.558 1.12 1.674 0 2.232s-2.799.558-3.919 0-1.12-1.674 0-2.232 2.799-.558 3.919 0z"/><path d="m217.225 308.573c1.119.558 1.119 1.674 0 2.232-1.12.558-2.8.558-3.919 0-1.12-.558-1.12-1.674 0-2.232 1.119-.558 2.799-.558 3.919 0z"/><path d="m109.171 360.467c1.546 0 2.8-.75 2.8-1.674 0-.925-1.254-1.674-2.8-1.674s-2.799.749-2.799 1.674c0 .924 1.253 1.674 2.799 1.674z"/><path d="m122.049 351.539c1.12.558 1.12 1.674 0 2.232s-2.799.558-3.919 0-1.12-1.674 0-2.232 2.799-.558 3.919 0z"/><path d="m132.685 345.4c1.119.558 1.119 1.674 0 2.232-1.12.558-2.8.558-3.919 0-1.12-.558-1.12-1.674 0-2.232.559-.558 2.799-.558 3.919 0z"/><path d="m143.323 339.263c1.12.558 1.12 1.674 0 2.232-1.119.558-2.799.558-3.919 0-1.119-.558-1.119-1.674 0-2.232.56-.558 2.8-.558 3.919 0z"/><path d="m153.958 333.125c1.12.558 1.12 1.674 0 2.232s-2.799.558-3.919 0-1.12-1.674 0-2.232c.56-.558 2.799-.558 3.919 0z"/><path d="m164.597 326.987c1.119.558 1.119 1.674 0 2.232-1.12.558-2.8.558-3.919 0-1.12-.558-1.12-1.674 0-2.232.56-.558 2.799-.558 3.919 0z"/><path d="m172.993 323.639c1.546 0 2.799-.749 2.799-1.674 0-.924-1.253-1.674-2.799-1.674s-2.8.75-2.8 1.674c0 .925 1.254 1.674 2.8 1.674z"/><path d="m185.312 314.71c1.12.558 1.12 1.674 0 2.232-1.119.558-2.799.558-3.919 0-1.119-.558-1.119-1.674 0-2.232 1.12-.558 2.8-.558 3.919 0z"/><path d="m195.947 308.573c1.12.558 1.12 1.674 0 2.232-1.119.558-2.799.558-3.919 0-1.119-.558-1.119-1.674 0-2.232 1.12-.558 2.8-.558 3.919 0z"/><path d="m206.586 302.435c1.12.558 1.12 1.674 0 2.232s-2.799.558-3.919 0-1.12-1.674 0-2.232 2.799-.558 3.919 0z"/><path d="m107.491 345.4c1.12-.558 2.799-.558 3.919 0s1.12 1.674 0 2.232-2.799.558-3.919 0-1.12-1.674 0-2.232z"/><path d="m122.049 339.263c1.12.558 1.12 1.674 0 2.232s-2.799.558-3.919 0-1.12-1.674 0-2.232 2.799-.558 3.919 0z"/><path d="m132.685 333.125c1.119.558 1.119 1.674 0 2.232-1.12.558-2.8.558-3.919 0-1.12-.558-1.12-1.674 0-2.232.559-.558 2.799-.558 3.919 0z"/><path d="m143.323 326.987c1.12.558 1.12 1.674 0 2.232-1.119.558-2.799.558-3.919 0-1.119-.558-1.119-1.674 0-2.232.56-.558 2.8-.558 3.919 0z"/><path d="m153.958 320.849c1.12.558 1.12 1.674 0 2.232s-2.799.558-3.919 0-1.12-1.674 0-2.232c.56-.558 2.799-.558 3.919 0z"/><path d="m164.597 314.71c1.119.558 1.119 1.674 0 2.232-1.12.558-2.8.558-3.919 0-1.12-.558-1.12-1.674 0-2.232.56-.558 2.799-.558 3.919 0z"/><path d="m172.993 311.362c1.546 0 2.799-.749 2.799-1.674 0-.924-1.253-1.674-2.799-1.674s-2.8.75-2.8 1.674c0 .925 1.254 1.674 2.8 1.674z"/><path d="m109.171 335.915c1.546 0 2.8-.75 2.8-1.674 0-.925-1.254-1.674-2.8-1.674s-2.799.749-2.799 1.674c0 .924 1.253 1.674 2.799 1.674z"/><path d="m122.049 326.987c1.12.558 1.12 1.674 0 2.232s-2.799.558-3.919 0-1.12-1.674 0-2.232 2.799-.558 3.919 0z"/><path d="m132.685 320.849c1.119.558 1.119 1.674 0 2.232-1.12.558-2.8.558-3.919 0-1.12-.558-1.12-1.674 0-2.232.559-.558 2.799-.558 3.919 0z"/><path d="m185.312 302.435c1.12.558 1.12 1.674 0 2.232-1.119.558-2.799.558-3.919 0-1.119-.558-1.119-1.674 0-2.232 1.12-.558 2.8-.558 3.919 0z"/><path d="m195.947 296.297c1.12.558 1.12 1.674 0 2.232-1.119.558-2.799.558-3.919 0-1.119-.558-1.119-1.674 0-2.232 1.12-.558 2.8-.558 3.919 0z"/><path d="m141.084 317.501c1.546 0 2.8-.75 2.8-1.674 0-.925-1.254-1.674-2.8-1.674s-2.799.749-2.799 1.674c0 .924 1.253 1.674 2.799 1.674z"/><path d="m153.958 308.573c1.12.558 1.12 1.674 0 2.232s-2.799.558-3.919 0-1.12-1.674 0-2.232c.56-.558 2.799-.558 3.919 0z"/><path d="m164.597 302.435c1.119.558 1.119 1.674 0 2.232-1.12.558-2.8.558-3.919 0-1.12-.558-1.12-1.674 0-2.232.56-.558 2.799-.558 3.919 0z"/><path d="m111.41 320.849c1.12.558 1.12 1.674 0 2.232s-2.799.558-3.919 0-1.12-1.674 0-2.232 2.799-.558 3.919 0z"/><path d="m122.049 314.71c1.12.558 1.12 1.674 0 2.232s-2.799.558-3.919 0-1.12-1.674 0-2.232 2.799-.558 3.919 0z"/><path d="m132.685 308.573c1.119.558 1.119 1.674 0 2.232-1.12.558-2.8.558-3.919 0-1.12-.558-1.12-1.674 0-2.232.559-.558 2.799-.558 3.919 0z"/><path d="m175.235 296.297c1.12.558 1.12 1.674 0 2.232-1.119.558-2.799.558-3.919 0-1.119-.558-1.119-1.674 0-2.232.56-.558 2.8-.558 3.919 0z"/><path d="m185.312 290.159c1.12.558 1.12 1.674 0 2.232-1.119.558-2.799.558-3.919 0-1.119-.558-1.119-1.674 0-2.232 1.12-.558 2.8-.558 3.919 0z"/><path d="m143.323 302.435c1.12.558 1.12 1.674 0 2.232-1.119.558-2.799.558-3.919 0-1.119-.558-1.119-1.674 0-2.232.56-.558 2.8-.558 3.919 0z"/><path d="m153.958 296.297c1.12.558 1.12 1.674 0 2.232s-2.799.558-3.919 0-1.12-1.674 0-2.232c.56-.558 2.799-.558 3.919 0z"/><path d="m96.8525 314.71c1.1197-.558 2.7993-.558 3.9185 0 1.12.558 1.12 1.674 0 2.232-1.1192.558-2.7988.558-3.9185 0s-1.1197-1.674 0-2.232z"/><path d="m109.171 311.362c1.546 0 2.8-.749 2.8-1.674 0-.924-1.254-1.674-2.8-1.674s-2.799.75-2.799 1.674c0 .925 1.253 1.674 2.799 1.674z"/><path d="m122.049 302.435c1.12.558 1.12 1.674 0 2.232s-2.799.558-3.919 0-1.12-1.674 0-2.232 2.799-.558 3.919 0z"/><path d="m132.685 296.297c1.119.558 1.119 1.674 0 2.232-1.12.558-2.8.558-3.919 0-1.12-.558-1.12-1.674 0-2.232.559-.558 2.799-.558 3.919 0z"/><path d="m162.358 292.949c1.546 0 2.799-.749 2.799-1.674 0-.924-1.253-1.674-2.799-1.674s-2.799.75-2.799 1.674c0 .925 1.253 1.674 2.799 1.674z"/><path d="m172.993 286.811c1.546 0 2.799-.75 2.799-1.674 0-.925-1.253-1.674-2.799-1.674s-2.8.749-2.8 1.674c0 .924 1.254 1.674 2.8 1.674z"/><path d="m143.323 290.159c1.12.558 1.12 1.674 0 2.232-1.119.558-2.799.558-3.919 0-1.119-.558-1.119-1.674 0-2.232.56-.558 2.8-.558 3.919 0z"/><path d="m86.2176 308.573c1.1197-.558 2.7993-.558 3.919 0s1.1197 1.674 0 2.232c-1.1197 1.116-5.0387-1.674-3.919-2.232z"/><path d="m100.771 302.435c1.12.558 1.12 1.674 0 2.232-1.1192.558-2.7988.558-3.9185 0s-1.1197-1.674 0-2.232 2.7993-.558 3.9185 0z"/><path d="m111.41 296.297c1.12.558 1.12 1.674 0 2.232s-2.799.558-3.919 0-1.12-1.674 0-2.232 2.799-.558 3.919 0z"/><path d="m119.807 292.949c1.546 0 2.799-.749 2.799-1.674 0-.924-1.253-1.674-2.799-1.674s-2.799.75-2.799 1.674c0 .925 1.253 1.674 2.799 1.674z"/><path d="m132.685 284.021c1.119.558 1.119 1.674 0 2.232-1.12.558-2.8.558-3.919 0-1.12-.558-1.12-1.674 0-2.232.559-.558 2.799-.558 3.919 0z"/><path d="m153.958 284.021c1.12.558 1.12 1.674 0 2.232s-2.799.558-3.919 0-1.12-1.674 0-2.232c.56-.558 2.799-.558 3.919 0z"/><path d="m164.597 277.883c1.119.558 1.119 1.674 0 2.232-1.12.558-2.8.558-3.919 0-1.12-.558-1.12-1.674 0-2.232.56-.558 2.799-.558 3.919 0z"/><path d="m90.1367 296.297c1.1197.558 1.1197 1.674 0 2.232s-2.7993.558-3.919 0-1.1197-1.674 0-2.232c.5599-.558 2.7993-.558 3.919 0z"/><path d="m100.771 290.159c1.12.558 1.12 1.674 0 2.232-1.1192.558-2.7988.558-3.9185 0s-1.1197-1.674 0-2.232c.5598-.558 2.7993-.558 3.9185 0z"/><path d="m111.41 284.021c1.12.558 1.12 1.674 0 2.232s-2.799.558-3.919 0-1.12-1.674 0-2.232c.56-.558 2.799-.558 3.919 0z"/><path d="m122.049 277.883c1.12.558 1.12 1.674 0 2.232s-2.799.558-3.919 0-1.12-1.674 0-2.232c.56-.558 2.799-.558 3.919 0z"/><path d="m132.685 271.745c1.119.558 1.119 1.674 0 2.232-1.12.558-2.8.558-3.919 0-1.12-.558-1.12-1.674 0-2.232.559-.558 2.799-.558 3.919 0z"/><path d="m143.323 277.883c1.12.558 1.12 1.674 0 2.232-1.119.558-2.799.558-3.919 0-1.119-.558-1.119-1.674 0-2.232.56-.558 2.8-.558 3.919 0z"/><path d="m79.498 290.159c1.1197.558 1.1197 1.674 0 2.232s-2.7993.558-3.919 0-1.1197-1.674 0-2.232 2.7993-.558 3.919 0z"/><path d="m90.1367 284.021c1.1197.558 1.1197 1.674 0 2.232s-2.7993.558-3.919 0-1.1197-1.674 0-2.232c.5599-.558 2.7993-.558 3.919 0z"/><path d="m100.771 277.883c1.12.558 1.12 1.674 0 2.232-1.1192.558-2.7988.558-3.9185 0s-1.1197-1.674 0-2.232c.5598-.558 2.7993-.558 3.9185 0z"/><path d="m111.41 271.745c1.12.558 1.12 1.674 0 2.232s-2.799.558-3.919 0-1.12-1.674 0-2.232c.56-.558 2.799-.558 3.919 0z"/><path d="m122.049 265.607c1.12.558 1.12 1.674 0 2.232s-2.799.558-3.919 0-1.12-1.674 0-2.232c.56-.558 2.799-.558 3.919 0z"/><path d="m130.446 262.817c1.546 0 2.799-.75 2.799-1.674 0-.925-1.253-1.674-2.799-1.674s-2.8.749-2.8 1.674c0 .924 1.254 1.674 2.8 1.674z"/><path d="m68.8633 284.021c1.1197.558 1.1197 1.674 0 2.232-1.1198.558-2.7993.558-3.919 0s-1.1197-1.674 0-2.232 2.7992-.558 3.919 0z"/><path d="m79.498 277.883c1.1197.558 1.1197 1.674 0 2.232s-2.7993.558-3.919 0-1.1197-1.674 0-2.232 2.7993-.558 3.919 0z"/><path d="m87.8979 274.535c1.546 0 2.7993-.749 2.7993-1.674 0-.924-1.2533-1.674-2.7993-1.674s-2.7993.75-2.7993 1.674c0 .925 1.2533 1.674 2.7993 1.674z"/><path d="m100.771 265.607c1.12.558 1.12 1.674 0 2.232-1.1192.558-2.7988.558-3.9185 0s-1.1197-1.674 0-2.232c.5598-.558 2.7993-.558 3.9185 0z"/><path d="m111.41 260.027c1.12.558 1.12 1.674 0 2.232s-2.799.558-3.919 0-1.12-1.674 0-2.232c.56-1.116 2.799-1.116 3.919 0z"/><path d="m122.049 253.889c1.12.558 1.12 1.674 0 2.232s-2.799.558-3.919 0-1.12-1.674 0-2.232c.56-1.116 2.799-1.116 3.919 0z"/><path d="m58.2246 277.883c1.1197.558 1.1197 1.674 0 2.232s-2.7993.558-3.919 0-1.1197-1.674 0-2.232 2.7993-.558 3.919 0z"/><path d="m68.8633 271.745c1.1197.558 1.1197 1.674 0 2.232-1.1198.558-2.7993.558-3.919 0s-1.1197-1.674 0-2.232 2.7992-.558 3.919 0z"/><path d="m79.498 265.607c1.1197.558 1.1197 1.674 0 2.232s-2.7993.558-3.919 0-1.1197-1.674 0-2.232 2.7993-.558 3.919 0z"/><path d="m90.1367 260.027c1.1197.558 1.1197 1.674 0 2.232s-2.7993.558-3.919 0-1.1197-1.674 0-2.232c.5599-1.116 2.7993-1.116 3.919 0z"/><path d="m100.771 253.889c1.12.558 1.12 1.674 0 2.232-1.1192.558-2.7988.558-3.9185 0s-1.1197-1.674 0-2.232c.5598-1.116 2.7993-1.116 3.9185 0z"/><path d="m111.41 247.751c1.12.558 1.12 1.674 0 2.232s-2.799.558-3.919 0-1.12-1.674 0-2.232c.56-1.116 2.799-1.116 3.919 0z"/><path d="m153.958 272.304c1.12.558 1.12 1.674 0 2.232s-2.799.558-3.919 0-1.12-1.674 0-2.232c.56-1.116 2.799-1.116 3.919 0z"/><path d="m142.761 265.607c1.119.558 1.119 1.674 0 2.232-1.12.558-2.8.558-3.919 0-1.12-.558-1.12-1.674 0-2.232 1.119-.558 2.799-.558 3.919 0z"/><path d="m292.243 399.527c1.12.558 1.12 1.674 0 2.232s-2.799.558-3.919 0-1.12-1.674 0-2.232 2.799-.558 3.919 0z"/><path d="m302.882 393.388c1.12.558 1.12 1.674 0 2.232-1.12.559-2.799.559-3.919 0-1.12-.558-1.12-1.674 0-2.232s2.799-.558 3.919 0z"/><path d="m313.517 387.25c1.119.558 1.119 1.674 0 2.232-1.12.558-2.8.558-3.919 0-1.12-.558-1.12-1.674 0-2.232 1.119-.558 2.799-.558 3.919 0z"/><path d="m321.917 383.902c1.546 0 2.799-.749 2.799-1.674 0-.924-1.253-1.674-2.799-1.674s-2.799.75-2.799 1.674c0 .925 1.253 1.674 2.799 1.674z"/><path d="m334.794 374.974c1.12.558 1.12 1.674 0 2.232s-2.799.558-3.919 0-1.12-1.674 0-2.232 2.799-.558 3.919 0z"/><path d="m270.969 399.527c1.12.558 1.12 1.674 0 2.232-1.119.558-2.799.558-3.919 0-1.119-.558-1.119-1.674 0-2.232 1.12-.558 2.8-.558 3.919 0z"/><path d="m281.608 393.388c1.12.558 1.12 1.674 0 2.232-1.12.559-2.799.559-3.919 0-1.12-.558-1.12-1.674 0-2.232s2.799-.558 3.919 0z"/><path d="m292.243 387.25c1.12.558 1.12 1.674 0 2.232s-2.799.558-3.919 0-1.12-1.674 0-2.232 2.799-.558 3.919 0z"/><path d="m302.882 381.113c1.12.558 1.12 1.674 0 2.232s-2.799.558-3.919 0-1.12-1.674 0-2.232 2.799-.558 3.919 0z"/><path d="m313.517 374.974c1.119.558 1.119 1.674 0 2.232-1.12.558-2.8.558-3.919 0-1.12-.558-1.12-1.674 0-2.232 1.119-.558 2.799-.558 3.919 0z"/><path d="m324.155 368.837c1.12.558 1.12 1.674 0 2.232-1.119.558-2.799.558-3.919 0-1.119-.558-1.119-1.674 0-2.232.56-.558 2.8-.558 3.919 0z"/><path d="m150.039 454.21c1.12-.558 2.799-.558 3.919 0s1.12 1.674 0 2.232-2.799.558-3.919 0-1.12-1.674 0-2.232z"/><path d="m162.916 450.862c1.546 0 2.8-.75 2.8-1.674 0-.925-1.254-1.674-2.8-1.674s-2.799.749-2.799 1.674c0 .924 1.253 1.674 2.799 1.674z"/><path d="m175.235 441.934c1.12.558 1.12 1.674 0 2.232-1.119.558-2.799.558-3.919 0-1.119-.558-1.119-1.674 0-2.232 1.12-.558 2.8-.558 3.919 0z"/><path d="m185.871 435.797c1.12.558 1.12 1.674 0 2.232s-2.799.558-3.919 0-1.12-1.674 0-2.232 2.799-.558 3.919 0z"/><path d="m194.83 432.449c1.546 0 2.799-.75 2.799-1.674 0-.925-1.253-1.674-2.799-1.674s-2.8.749-2.8 1.674c0 .924 1.254 1.674 2.8 1.674z"/><path d="m207.144 423.52c1.12.558 1.12 1.674 0 2.232-1.119.558-2.799.558-3.918 0-1.12-.558-1.12-1.674 0-2.232 1.119-.558 2.799-.558 3.918 0z"/><path d="m217.783 417.383c1.12.558 1.12 1.674 0 2.232s-2.799.558-3.919 0-1.12-1.674 0-2.232 2.799-.558 3.919 0z"/><path d="m228.422 411.803c1.12.558 1.12 1.674 0 2.232s-2.799.558-3.919 0-1.12-1.674 0-2.232c1.12-1.116 2.799-1.116 3.919 0z"/><path d="m239.057 405.664c1.12.558 1.12 1.674 0 2.232s-2.799.558-3.919 0-1.12-1.674 0-2.232c1.12-1.116 2.799-1.116 3.919 0z"/><path d="m249.696 399.527c1.119.558 1.119 1.674 0 2.232-1.12.558-2.8.558-3.919 0-1.12-.558-1.12-1.674 0-2.232 1.119-.558 2.799-.558 3.919 0z"/><path d="m260.331 393.388c1.119.558 1.119 1.674 0 2.232-1.12.559-2.8.559-3.919 0-1.12-.558-1.12-1.674 0-2.232 1.119-.558 2.799-.558 3.919 0z"/><path d="m270.969 387.25c1.12.558 1.12 1.674 0 2.232-1.119.558-2.799.558-3.919 0-1.119-.558-1.119-1.674 0-2.232 1.12-.558 2.8-.558 3.919 0z"/><path d="m281.608 381.113c1.12.558 1.12 1.674 0 2.232s-2.799.558-3.919 0-1.12-1.674 0-2.232 2.799-.558 3.919 0z"/><path d="m292.243 374.974c1.12.558 1.12 1.674 0 2.232s-2.799.558-3.919 0-1.12-1.674 0-2.232 2.799-.558 3.919 0z"/><path d="m302.882 368.837c1.12.558 1.12 1.674 0 2.232s-2.799.558-3.919 0-1.12-1.674 0-2.232 2.799-.558 3.919 0z"/><path d="m313.517 362.699c1.119.558 1.119 1.674 0 2.232-1.12.558-2.8.558-3.919 0-1.12-.558-1.12-1.674 0-2.232 1.119-.558 2.799-.558 3.919 0z"/><path d="m139.404 448.072c1.12-.558 2.8-.558 3.919 0 1.12.558 1.12 1.674 0 2.232-1.119.558-2.799.558-3.919 0-1.119-.558-1.119-1.674 0-2.232z"/><path d="m154.52 441.934c1.12.558 1.12 1.674 0 2.232-1.119.558-2.799.558-3.918 0-1.12-.558-1.12-1.674 0-2.232.559-.558 2.799-.558 3.918 0z"/><path d="m164.597 435.797c1.119.558 1.119 1.674 0 2.232-1.12.558-2.8.558-3.919 0-1.12-.558-1.12-1.674 0-2.232 1.119-.558 2.799-.558 3.919 0z"/><path d="m175.235 429.658c1.12.558 1.12 1.674 0 2.232-1.119.558-2.799.558-3.919 0-1.119-.558-1.119-1.674 0-2.232 1.12-.558 2.8-.558 3.919 0z"/><path d="m185.871 423.52c1.12.558 1.12 1.674 0 2.232s-2.799.558-3.919 0-1.12-1.674 0-2.232 2.799-.558 3.919 0z"/><path d="m196.509 417.383c1.119.558 1.119 1.674 0 2.232-1.12.558-2.8.558-3.919 0-1.12-.558-1.12-1.674 0-2.232 1.119-.558 2.799-.558 3.919 0z"/><path d="m207.144 411.803c1.12.558 1.12 1.674 0 2.232-1.119.558-2.799.558-3.918 0-1.12-.558-1.12-1.674 0-2.232 1.119-1.116 2.799-1.116 3.918 0z"/><path d="m217.783 405.664c1.12.558 1.12 1.674 0 2.232s-2.799.558-3.919 0-1.12-1.674 0-2.232c1.12-1.116 2.799-1.116 3.919 0z"/><path d="m228.422 399.527c1.12.558 1.12 1.674 0 2.232s-2.799.558-3.919 0-1.12-1.674 0-2.232 2.799-.558 3.919 0z"/><path d="m239.057 393.388c1.12.558 1.12 1.674 0 2.232-1.12.559-2.799.559-3.919 0-1.12-.558-1.12-1.674 0-2.232s2.799-.558 3.919 0z"/><path d="m249.696 387.25c1.119.558 1.119 1.674 0 2.232-1.12.558-2.8.558-3.919 0-1.12-.558-1.12-1.674 0-2.232 1.119-.558 2.799-.558 3.919 0z"/><path d="m260.331 381.113c1.119.558 1.119 1.674 0 2.232-1.12.558-2.8.558-3.919 0-1.12-.558-1.12-1.674 0-2.232 1.119-.558 2.799-.558 3.919 0z"/><path d="m270.969 374.974c1.12.558 1.12 1.674 0 2.232-1.119.558-2.799.558-3.919 0-1.119-.558-1.119-1.674 0-2.232 1.12-.558 2.8-.558 3.919 0z"/><path d="m281.608 368.837c1.12.558 1.12 1.674 0 2.232s-2.799.558-3.919 0-1.12-1.674 0-2.232 2.799-.558 3.919 0z"/><path d="m292.243 362.699c1.12.558 1.12 1.674 0 2.232s-2.799.558-3.919 0-1.12-1.674 0-2.232 2.799-.558 3.919 0z"/><path d="m302.882 356.56c1.12.558 1.12 1.674 0 2.232s-2.799.558-3.919 0-1.12-1.674 0-2.232 2.799-.558 3.919 0z"/><path d="m128.766 441.934c1.119-.558 2.799-.558 3.919 0 1.119.558 1.119 1.674 0 2.232-1.12.558-2.8.558-3.919 0-1.12-.558-1.12-1.674 0-2.232z"/><path d="m143.882 435.797c1.12.558 1.12 1.674 0 2.232s-2.799.558-3.919 0-1.12-1.674 0-2.232c.56-.558 2.799-.558 3.919 0z"/><path d="m154.52 429.658c1.12.558 1.12 1.674 0 2.232-1.119.558-2.799.558-3.918 0-1.12-.558-1.12-1.674 0-2.232.559-.558 2.799-.558 3.918 0z"/><path d="m164.597 423.52c1.119.558 1.119 1.674 0 2.232-1.12.558-2.8.558-3.919 0-1.12-.558-1.12-1.674 0-2.232 1.119-.558 2.799-.558 3.919 0z"/><path d="m175.235 417.383c1.12.558 1.12 1.674 0 2.232-1.119.558-2.799.558-3.919 0-1.119-.558-1.119-1.674 0-2.232 1.12-.558 2.8-.558 3.919 0z"/><path d="m185.871 411.803c1.12.558 1.12 1.674 0 2.232s-2.799.558-3.919 0-1.12-1.674 0-2.232c1.12-1.116 2.799-1.116 3.919 0z"/><path d="m194.83 408.454c1.546 0 2.799-.749 2.799-1.674 0-.924-1.253-1.674-2.799-1.674s-2.8.75-2.8 1.674c0 .925 1.254 1.674 2.8 1.674z"/><path d="m207.144 399.527c1.12.558 1.12 1.674 0 2.232-1.119.558-2.799.558-3.918 0-1.12-.558-1.12-1.674 0-2.232 1.119-.558 2.799-.558 3.918 0z"/><path d="m217.783 393.388c1.12.558 1.12 1.674 0 2.232-1.12.559-2.799.559-3.919 0-1.12-.558-1.12-1.674 0-2.232s2.799-.558 3.919 0z"/><path d="m228.422 387.25c1.12.558 1.12 1.674 0 2.232s-2.799.558-3.919 0-1.12-1.674 0-2.232 2.799-.558 3.919 0z"/><path d="m239.057 381.113c1.12.558 1.12 1.674 0 2.232s-2.799.558-3.919 0-1.12-1.674 0-2.232 2.799-.558 3.919 0z"/><path d="m249.696 374.974c1.119.558 1.119 1.674 0 2.232-1.12.558-2.8.558-3.919 0-1.12-.558-1.12-1.674 0-2.232 1.119-.558 2.799-.558 3.919 0z"/><path d="m260.331 368.837c1.119.558 1.119 1.674 0 2.232-1.12.558-2.8.558-3.919 0-1.12-.558-1.12-1.674 0-2.232 1.119-.558 2.799-.558 3.919 0z"/><path d="m270.969 362.699c1.12.558 1.12 1.674 0 2.232-1.119.558-2.799.558-3.919 0-1.119-.558-1.119-1.674 0-2.232 1.12-.558 2.8-.558 3.919 0z"/><path d="m281.608 356.56c1.12.558 1.12 1.674 0 2.232s-2.799.558-3.919 0-1.12-1.674 0-2.232 2.799-.558 3.919 0z"/><path d="m292.243 350.423c1.12.558 1.12 1.674 0 2.232s-2.799.558-3.919 0-1.12-1.674 0-2.232 2.799-.558 3.919 0z"/><path d="m291.684 339.263c1.12.558 1.12 1.674 0 2.232s-2.799.558-3.919 0-1.12-1.674 0-2.232 2.799-.558 3.919 0z"/><path d="m302.32 333.125c1.12.558 1.12 1.674 0 2.232s-2.799.558-3.919 0-1.12-1.674 0-2.232 2.799-.558 3.919 0z"/><path d="m312.958 326.987c1.12.558 1.12 1.674 0 2.232-1.119.558-2.799.558-3.919 0-1.119-.558-1.119-1.674 0-2.232 1.12-.558 2.8-.558 3.919 0z"/><path d="m323.597 320.849c1.119.558 1.119 1.674 0 2.232-1.12.558-2.8.558-3.919 0-1.12-.558-1.12-1.674 0-2.232 1.119-.558 2.799-.558 3.919 0z"/><path d="m334.232 314.71c1.12.558 1.12 1.674 0 2.232-1.119.558-2.799.558-3.919 0-1.119-.558-1.119-1.674 0-2.232 1.12-.558 2.8-.558 3.919 0z"/><path d="m344.871 308.573c1.12.558 1.12 1.674 0 2.232s-2.799.558-3.919 0-1.12-1.674 0-2.232 2.799-.558 3.919 0z"/><path d="m355.506 302.435c1.12.558 1.12 1.674 0 2.232s-2.799.558-3.919 0-1.12-1.674 0-2.232 2.799-.558 3.919 0z"/><path d="m366.145 296.297c1.119.558 1.119 1.674 0 2.232-1.12.558-2.8.558-3.919 0-1.12-.558-1.12-1.674 0-2.232 1.119-.558 2.799-.558 3.919 0z"/><path d="m376.783 290.159c1.12.558 1.12 1.674 0 2.232s-2.799.558-3.919 0-1.12-1.674 0-2.232 2.799-.558 3.919 0z"/><path d="m387.418 284.021c1.12.558 1.12 1.674 0 2.232-1.119.558-2.799.558-3.919 0-1.119-.558-1.119-1.674 0-2.232.56-.558 2.8-.558 3.919 0z"/><path d="m398.057 278.441c1.12.558 1.12 1.674 0 2.232s-2.799.558-3.919 0-1.12-1.674 0-2.232c.56-1.116 2.799-1.116 3.919 0z"/><path d="m408.692 272.304c1.12.558 1.12 1.674 0 2.232-1.119.558-2.799.558-3.919 0-1.119-.558-1.119-1.674 0-2.232.56-1.116 2.8-1.116 3.919 0z"/><path d="m281.045 333.125c1.12.558 1.12 1.674 0 2.232-1.119.558-2.799.558-3.919 0-1.119-.558-1.119-1.674 0-2.232 1.12-.558 2.8-.558 3.919 0z"/><path d="m291.684 326.987c1.12.558 1.12 1.674 0 2.232s-2.799.558-3.919 0-1.12-1.674 0-2.232 2.799-.558 3.919 0z"/><path d="m302.32 320.849c1.12.558 1.12 1.674 0 2.232s-2.799.558-3.919 0-1.12-1.674 0-2.232 2.799-.558 3.919 0z"/><path d="m312.958 314.71c1.12.558 1.12 1.674 0 2.232-1.119.558-2.799.558-3.919 0-1.119-.558-1.119-1.674 0-2.232 1.12-.558 2.8-.558 3.919 0z"/><path d="m323.597 308.573c1.119.558 1.119 1.674 0 2.232-1.12.558-2.8.558-3.919 0-1.12-.558-1.12-1.674 0-2.232 1.119-.558 2.799-.558 3.919 0z"/><path d="m334.232 302.435c1.12.558 1.12 1.674 0 2.232-1.119.558-2.799.558-3.919 0-1.119-.558-1.119-1.674 0-2.232 1.12-.558 2.8-.558 3.919 0z"/><path d="m344.871 296.297c1.12.558 1.12 1.674 0 2.232s-2.799.558-3.919 0-1.12-1.674 0-2.232 2.799-.558 3.919 0z"/><path d="m355.506 290.159c1.12.558 1.12 1.674 0 2.232s-2.799.558-3.919 0-1.12-1.674 0-2.232 2.799-.558 3.919 0z"/><path d="m366.145 284.021c1.119.558 1.119 1.674 0 2.232-1.12.558-2.8.558-3.919 0-1.12-.558-1.12-1.674 0-2.232 1.119-.558 2.799-.558 3.919 0z"/><path d="m376.783 278.441c1.12.558 1.12 1.674 0 2.232s-2.799.558-3.919 0-1.12-1.674 0-2.232c1.12-1.116 2.799-1.116 3.919 0z"/><path d="m387.418 272.304c1.12.558 1.12 1.674 0 2.232-1.119.558-2.799.558-3.919 0-1.119-.558-1.119-1.674 0-2.232.56-1.116 2.8-1.116 3.919 0z"/><path d="m398.057 266.165c1.12.558 1.12 1.674 0 2.232s-2.799.558-3.919 0-1.12-1.674 0-2.232c.56-1.116 2.799-1.116 3.919 0z"/><path d="m268.731 329.777c1.546 0 2.799-.75 2.799-1.674 0-.925-1.253-1.674-2.799-1.674s-2.799.749-2.799 1.674c0 .924 1.253 1.674 2.799 1.674z"/><path d="m281.045 320.849c1.12.558 1.12 1.674 0 2.232-1.119.558-2.799.558-3.919 0-1.119-.558-1.119-1.674 0-2.232 1.12-.558 2.8-.558 3.919 0z"/><path d="m291.684 314.71c1.12.558 1.12 1.674 0 2.232s-2.799.558-3.919 0-1.12-1.674 0-2.232 2.799-.558 3.919 0z"/><path d="m302.32 308.573c1.12.558 1.12 1.674 0 2.232s-2.799.558-3.919 0-1.12-1.674 0-2.232 2.799-.558 3.919 0z"/><path d="m312.958 302.435c1.12.558 1.12 1.674 0 2.232-1.119.558-2.799.558-3.919 0-1.119-.558-1.119-1.674 0-2.232 1.12-.558 2.8-.558 3.919 0z"/><path d="m323.597 296.297c1.119.558 1.119 1.674 0 2.232-1.12.558-2.8.558-3.919 0-1.12-.558-1.12-1.674 0-2.232 1.119-.558 2.799-.558 3.919 0z"/><path d="m334.232 290.159c1.12.558 1.12 1.674 0 2.232-1.119.558-2.799.558-3.919 0-1.119-.558-1.119-1.674 0-2.232 1.12-.558 2.8-.558 3.919 0z"/><path d="m344.871 284.021c1.12.558 1.12 1.674 0 2.232s-2.799.558-3.919 0-1.12-1.674 0-2.232 2.799-.558 3.919 0z"/><path d="m355.506 278.441c1.12.558 1.12 1.674 0 2.232s-2.799.558-3.919 0-1.12-1.674 0-2.232c1.12-1.116 2.799-1.116 3.919 0z"/><path d="m366.145 272.304c1.119.558 1.119 1.674 0 2.232-1.12.558-2.8.558-3.919 0-1.12-.558-1.12-1.674 0-2.232 1.119-1.116 2.799-1.116 3.919 0z"/><path d="m376.783 266.165c1.12.558 1.12 1.674 0 2.232s-2.799.558-3.919 0-1.12-1.674 0-2.232c1.12-1.116 2.799-1.116 3.919 0z"/><path d="m259.772 320.849c1.12.558 1.12 1.674 0 2.232s-2.799.558-3.919 0-1.12-1.674 0-2.232 2.799-.558 3.919 0z"/><path d="m270.411 314.71c1.119.558 1.119 1.674 0 2.232-1.12.558-2.8.558-3.919 0-1.12-.558-1.12-1.674 0-2.232 1.119-.558 2.799-.558 3.919 0z"/><path d="m281.045 308.573c1.12.558 1.12 1.674 0 2.232-1.119.558-2.799.558-3.919 0-1.119-.558-1.119-1.674 0-2.232 1.12-.558 2.8-.558 3.919 0z"/><path d="m291.684 302.435c1.12.558 1.12 1.674 0 2.232s-2.799.558-3.919 0-1.12-1.674 0-2.232 2.799-.558 3.919 0z"/><path d="m302.32 296.297c1.12.558 1.12 1.674 0 2.232s-2.799.558-3.919 0-1.12-1.674 0-2.232 2.799-.558 3.919 0z"/><path d="m310.719 292.949c1.546 0 2.799-.749 2.799-1.674 0-.924-1.253-1.674-2.799-1.674s-2.799.75-2.799 1.674c0 .925 1.253 1.674 2.799 1.674z"/><path d="m323.597 284.021c1.119.558 1.119 1.674 0 2.232-1.12.558-2.8.558-3.919 0-1.12-.558-1.12-1.674 0-2.232 1.119-.558 2.799-.558 3.919 0z"/><path d="m334.232 278.441c1.12.558 1.12 1.674 0 2.232-1.119.558-2.799.558-3.919 0-1.119-.558-1.119-1.674 0-2.232 1.12-1.116 2.8-1.116 3.919 0z"/><path d="m344.871 272.304c1.12.558 1.12 1.674 0 2.232s-2.799.558-3.919 0-1.12-1.674 0-2.232c1.12-1.116 2.799-1.116 3.919 0z"/><path d="m355.506 266.165c1.12.558 1.12 1.674 0 2.232s-2.799.558-3.919 0-1.12-1.674 0-2.232c1.12-1.116 2.799-1.116 3.919 0z"/><path d="m366.145 260.028c1.119.558 1.119 1.674 0 2.232-1.12.558-2.8.558-3.919 0-1.12-.558-1.12-1.674 0-2.232 1.119-.558 2.799-.558 3.919 0z"/><path d="m249.133 314.71c1.12.558 1.12 1.674 0 2.232-1.119.558-2.799.558-3.919 0-1.119-.558-1.119-1.674 0-2.232 1.12-.558 2.8-.558 3.919 0z"/><path d="m259.772 308.573c1.12.558 1.12 1.674 0 2.232s-2.799.558-3.919 0-1.12-1.674 0-2.232 2.799-.558 3.919 0z"/><path d="m270.411 302.435c1.119.558 1.119 1.674 0 2.232-1.12.558-2.8.558-3.919 0-1.12-.558-1.12-1.674 0-2.232 1.119-.558 2.799-.558 3.919 0z"/><path d="m281.045 296.297c1.12.558 1.12 1.674 0 2.232-1.119.558-2.799.558-3.919 0-1.119-.558-1.119-1.674 0-2.232 1.12-.558 2.8-.558 3.919 0z"/><path d="m291.684 290.159c1.12.558 1.12 1.674 0 2.232s-2.799.558-3.919 0-1.12-1.674 0-2.232 2.799-.558 3.919 0z"/><path d="m302.32 284.021c1.12.558 1.12 1.674 0 2.232s-2.799.558-3.919 0-1.12-1.674 0-2.232 2.799-.558 3.919 0z"/><path d="m312.958 278.441c1.12.558 1.12 1.674 0 2.232-1.119.558-2.799.558-3.919 0-1.119-.558-1.119-1.674 0-2.232 1.12-1.116 2.8-1.116 3.919 0z"/><path d="m323.597 272.304c1.119.558 1.119 1.674 0 2.232-1.12.558-2.8.558-3.919 0-1.12-.558-1.12-1.674 0-2.232 1.119-1.116 2.799-1.116 3.919 0z"/><path d="m334.232 266.165c1.12.558 1.12 1.674 0 2.232-1.119.558-2.799.558-3.919 0-1.119-.558-1.119-1.674 0-2.232 1.12-1.116 2.8-1.116 3.919 0z"/><path d="m344.871 260.028c1.12.558 1.12 1.674 0 2.232s-2.799.558-3.919 0-1.12-1.674 0-2.232 2.799-.558 3.919 0z"/><path d="m355.506 253.889c1.12.558 1.12 1.674 0 2.232s-2.799.558-3.919 0-1.12-1.674 0-2.232 2.799-.558 3.919 0z"/><path d="m238.498 308.573c1.12.558 1.12 1.674 0 2.232s-2.799.558-3.919 0-1.12-1.674 0-2.232 2.799-.558 3.919 0z"/><path d="m249.133 302.435c1.12.558 1.12 1.674 0 2.232-1.119.558-2.799.558-3.919 0-1.119-.558-1.119-1.674 0-2.232 1.12-.558 2.8-.558 3.919 0z"/><path d="m259.772 296.297c1.12.558 1.12 1.674 0 2.232s-2.799.558-3.919 0-1.12-1.674 0-2.232 2.799-.558 3.919 0z"/><path d="m270.411 290.159c1.119.558 1.119 1.674 0 2.232-1.12.558-2.8.558-3.919 0-1.12-.558-1.12-1.674 0-2.232 1.119-.558 2.799-.558 3.919 0z"/><path d="m281.045 284.021c1.12.558 1.12 1.674 0 2.232-1.119.558-2.799.558-3.919 0-1.119-.558-1.119-1.674 0-2.232 1.12-.558 2.8-.558 3.919 0z"/><path d="m291.684 277.883c1.12.558 1.12 1.674 0 2.232s-2.799.558-3.919 0-1.12-1.674 0-2.232 2.799-.558 3.919 0z"/><path d="m302.32 271.745c1.12.558 1.12 1.674 0 2.232s-2.799.558-3.919 0-1.12-1.674 0-2.232 2.799-.558 3.919 0z"/><path d="m312.958 266.165c1.12.558 1.12 1.674 0 2.232-1.119.558-2.799.558-3.919 0-1.119-.558-1.119-1.674 0-2.232 1.12-1.116 2.8-1.116 3.919 0z"/><path d="m323.597 260.027c1.119.558 1.119 1.674 0 2.232-1.12.558-2.8.558-3.919 0-1.12-.558-1.12-1.674 0-2.232 1.119-1.116 2.799-1.116 3.919 0z"/><path d="m334.232 253.889c1.12.558 1.12 1.674 0 2.232-1.119.558-2.799.558-3.919 0-1.119-.558-1.119-1.674 0-2.232 1.12-1.116 2.8-1.116 3.919 0z"/><path d="m344.871 247.751c1.12.558 1.12 1.674 0 2.232s-2.799.558-3.919 0-1.12-1.674 0-2.232 2.799-.558 3.919 0z"/><path d="m227.859 302.435c1.12.558 1.12 1.674 0 2.232-1.119.558-2.799.558-3.919 0-1.119-.558-1.119-1.674 0-2.232 1.12-.558 2.8-.558 3.919 0z"/><path d="m238.498 296.297c1.12.558 1.12 1.674 0 2.232s-2.799.558-3.919 0-1.12-1.674 0-2.232 2.799-.558 3.919 0z"/><path d="m249.133 290.159c1.12.558 1.12 1.674 0 2.232-1.119.558-2.799.558-3.919 0-1.119-.558-1.119-1.674 0-2.232 1.12-.558 2.8-.558 3.919 0z"/><path d="m259.772 284.021c1.12.558 1.12 1.674 0 2.232s-2.799.558-3.919 0-1.12-1.674 0-2.232 2.799-.558 3.919 0z"/><path d="m270.411 277.883c1.119.558 1.119 1.674 0 2.232-1.12.558-2.8.558-3.919 0-1.12-.558-1.12-1.674 0-2.232 1.119-.558 2.799-.558 3.919 0z"/><path d="m281.045 271.745c1.12.558 1.12 1.674 0 2.232-1.119.558-2.799.558-3.919 0-1.119-.558-1.119-1.674 0-2.232 1.12-.558 2.8-.558 3.919 0z"/><path d="m291.684 266.165c1.12.558 1.12 1.674 0 2.232s-2.799.558-3.919 0-1.12-1.674 0-2.232c1.12-1.116 2.799-1.116 3.919 0z"/><path d="m302.32 260.027c1.12.558 1.12 1.674 0 2.232s-2.799.558-3.919 0-1.12-1.674 0-2.232c1.12-1.116 2.799-1.116 3.919 0z"/><path d="m312.958 253.889c1.12.558 1.12 1.674 0 2.232-1.119.558-2.799.558-3.919 0-1.119-.558-1.119-1.674 0-2.232 1.12-1.116 2.8-1.116 3.919 0z"/><path d="m323.597 247.751c1.119.558 1.119 1.674 0 2.232-1.12.558-2.8.558-3.919 0-1.12-.558-1.12-1.674 0-2.232 1.119-.558 2.799-.558 3.919 0z"/><path d="m217.225 296.297c1.119.558 1.119 1.674 0 2.232-1.12.558-2.8.558-3.919 0-1.12-.558-1.12-1.674 0-2.232 1.119-.558 2.799-.558 3.919 0z"/><path d="m227.859 290.159c1.12.558 1.12 1.674 0 2.232-1.119.558-2.799.558-3.919 0-1.119-.558-1.119-1.674 0-2.232 1.12-.558 2.8-.558 3.919 0z"/><path d="m238.498 284.021c1.12.558 1.12 1.674 0 2.232s-2.799.558-3.919 0-1.12-1.674 0-2.232 2.799-.558 3.919 0z"/><path d="m249.133 277.883c1.12.558 1.12 1.674 0 2.232-1.119.558-2.799.558-3.919 0-1.119-.558-1.119-1.674 0-2.232 1.12-.558 2.8-.558 3.919 0z"/><path d="m259.772 271.745c1.12.558 1.12 1.674 0 2.232s-2.799.558-3.919 0-1.12-1.674 0-2.232 2.799-.558 3.919 0z"/><path d="m270.411 266.165c1.119.558 1.119 1.674 0 2.232-1.12.558-2.8.558-3.919 0-1.12-.558-1.12-1.674 0-2.232 1.119-1.116 2.799-1.116 3.919 0z"/><path d="m281.045 260.027c1.12.558 1.12 1.674 0 2.232-1.119.558-2.799.558-3.919 0-1.119-.558-1.119-1.674 0-2.232 1.12-1.116 2.8-1.116 3.919 0z"/><path d="m291.684 253.889c1.12.558 1.12 1.674 0 2.232s-2.799.558-3.919 0-1.12-1.674 0-2.232c1.12-1.116 2.799-1.116 3.919 0z"/><path d="m302.32 247.751c1.12.558 1.12 1.674 0 2.232s-2.799.558-3.919 0-1.12-1.674 0-2.232 2.799-.558 3.919 0z"/><path d="m206.586 290.159c1.12.558 1.12 1.674 0 2.232s-2.799.558-3.919 0-1.12-1.674 0-2.232 2.799-.558 3.919 0z"/><path d="m217.225 284.021c1.119.558 1.119 1.674 0 2.232-1.12.558-2.8.558-3.919 0-1.12-.558-1.12-1.674 0-2.232 1.119-.558 2.799-.558 3.919 0z"/><path d="m226.179 280.673c1.546 0 2.799-.75 2.799-1.674 0-.925-1.253-1.674-2.799-1.674s-2.799.749-2.799 1.674c0 .924 1.253 1.674 2.799 1.674z"/><path d="m238.498 271.745c1.12.558 1.12 1.674 0 2.232s-2.799.558-3.919 0-1.12-1.674 0-2.232 2.799-.558 3.919 0z"/><path d="m249.133 266.165c1.12.558 1.12 1.674 0 2.232-1.119.558-2.799.558-3.919 0-1.119-.558-1.119-1.674 0-2.232 1.12-1.116 2.8-1.116 3.919 0z"/><path d="m259.772 260.027c1.12.558 1.12 1.674 0 2.232s-2.799.558-3.919 0-1.12-1.674 0-2.232c1.12-1.116 2.799-1.116 3.919 0z"/><path d="m266.492 253.889c1.119-.558 2.799-.558 3.919 0 1.119.558 1.119 1.674 0 2.232-1.12.558-2.8.558-3.919 0-1.12-.558-1.12-1.674 0-2.232 1.119-.558-1.12.558 0 0z"/><path d="m195.947 284.021c1.12.558 1.12 1.674 0 2.232-1.119.558-2.799.558-3.919 0-1.119-.558-1.119-1.674 0-2.232 1.12-.558 2.8-.558 3.919 0z"/><path d="m206.586 277.883c1.12.558 1.12 1.674 0 2.232s-2.799.558-3.919 0-1.12-1.674 0-2.232 2.799-.558 3.919 0z"/><path d="m217.225 271.745c1.119.558 1.119 1.674 0 2.232-1.12.558-2.8.558-3.919 0-1.12-.558-1.12-1.674 0-2.232 1.119-.558 2.799-.558 3.919 0z"/><path d="m226.179 268.955c1.546 0 2.799-.749 2.799-1.674 0-.924-1.253-1.674-2.799-1.674s-2.799.75-2.799 1.674c0 .925 1.253 1.674 2.799 1.674z"/><path d="m238.498 260.027c1.12.558 1.12 1.674 0 2.232s-2.799.558-3.919 0-1.12-1.674 0-2.232c1.12-1.116 2.799-1.116 3.919 0z"/><path d="m185.312 277.883c1.12.558 1.12 1.674 0 2.232-1.119.558-2.799.558-3.919 0-1.119-.558-1.119-1.674 0-2.232 1.12-.558 2.8-.558 3.919 0z"/><path d="m195.947 271.745c1.12.558 1.12 1.674 0 2.232-1.119.558-2.799.558-3.919 0-1.119-.558-1.119-1.674 0-2.232 1.12-.558 2.8-.558 3.919 0z"/><path d="m206.586 266.165c1.12.558 1.12 1.674 0 2.232s-2.799.558-3.919 0-1.12-1.674 0-2.232c1.12-1.116 2.799-1.116 3.919 0z"/><path d="m217.225 260.027c1.119.558 1.119 1.674 0 2.232-1.12.558-2.8.558-3.919 0-1.12-.558-1.12-1.674 0-2.232 1.119-1.116 2.799-1.116 3.919 0z"/><path d="m175.235 271.745c1.12.558 1.12 1.674 0 2.232-1.119.558-2.799.558-3.919 0-1.119-.558-1.119-1.674 0-2.232.56-.558 2.8-.558 3.919 0z"/><path d="m185.312 266.165c1.12.558 1.12 1.674 0 2.232-1.119.558-2.799.558-3.919 0-1.119-.558-1.119-1.674 0-2.232 1.12-1.116 2.8-1.116 3.919 0z"/><path d="m195.947 260.027c1.12.558 1.12 1.674 0 2.232-1.119.558-2.799.558-3.919 0-1.119-.558-1.119-1.674 0-2.232 1.12-1.116 2.8-1.116 3.919 0z"/><path d="m164.597 266.165c1.119.558 1.119 1.674 0 2.232-1.12.558-2.8.558-3.919 0-1.12-.558-1.12-1.674 0-2.232.56-1.116 2.799-1.116 3.919 0z"/><path d="m175.235 260.027c1.12.558 1.12 1.674 0 2.232-1.119.558-2.799.558-3.919 0-1.119-.558-1.119-1.674 0-2.232.56-1.116 2.8-1.116 3.919 0z"/><path d="m153.399 259.469c1.12.558 1.12 1.674 0 2.232-1.119.558-2.799.558-3.919 0-1.119-.558-1.119-1.674 0-2.232 1.12-.558 2.8-.558 3.919 0z"/><path d="m164.038 256.122c-1.12.558-2.799.558-3.919 0s-1.12-1.674 0-2.232c1.12-1.116 5.039 1.674 3.919 2.232z"/><path d="m142.761 253.889c1.119.558 1.119 1.674 0 2.232-1.12.558-2.8.558-3.919 0-1.12-.558-1.12-1.674 0-2.232 1.119-1.116 2.799-1.116 3.919 0z"/><path d="m345.429 368.837c1.12.558 1.12 1.674 0 2.232s-2.799.558-3.919 0-1.12-1.674 0-2.232 2.799-.558 3.919 0z"/><path d="m356.068 362.699c1.12.558 1.12 1.674 0 2.232s-2.799.558-3.919 0-1.12-1.674 0-2.232 2.799-.558 3.919 0z"/><path d="m366.703 356.56c1.12.558 1.12 1.674 0 2.232s-2.799.558-3.919 0-1.12-1.674 0-2.232c.56-.558 2.799-.558 3.919 0z"/><path d="m377.342 350.423c1.119.558 1.119 1.674 0 2.232-1.12.558-2.8.558-3.919 0-1.12-.558-1.12-1.674 0-2.232.56-.558 2.799-.558 3.919 0z"/><path d="m387.98 344.284c1.12.558 1.12 1.674 0 2.232-1.119.558-2.799.558-3.919 0-1.119-.558-1.119-1.674 0-2.232.56-.558 2.8-.558 3.919 0z"/><path d="m398.615 338.147c1.12.558 1.12 1.674 0 2.232s-2.799.558-3.919 0c-1.119-.558-1.119-1.674 0-2.232.56-.558 2.799-.558 3.919 0z"/><path d="m409.254 332.009c1.12.558 1.12 1.674 0 2.232s-2.799.558-3.919 0-1.12-1.674 0-2.232c.56-.558 2.799-.558 3.919 0z"/><path d="m419.331 325.87c1.12.558 1.12 1.674 0 2.232s-2.799.558-3.919 0-1.12-1.674 0-2.232 2.799-.558 3.919 0z"/><path d="m429.97 319.733c1.119.558 1.119 1.674 0 2.232-1.12.558-2.8.558-3.919 0-1.12-.558-1.12-1.674 0-2.232 1.119-.558 2.799-.558 3.919 0z"/><path d="m440.604 314.153c1.12.558 1.12 1.674 0 2.232-1.119.558-2.799.558-3.919 0-1.119-.558-1.119-1.674 0-2.232 1.12-1.116 2.8-1.116 3.919 0z"/><path d="m451.243 308.015c1.12.558 1.12 1.674 0 2.232s-2.799.558-3.919 0-1.12-1.674 0-2.232c1.12-1.116 2.799-1.116 3.919 0z"/><path d="m461.878 301.877c1.12.558 1.12 1.674 0 2.232-1.119.558-2.799.558-3.919 0-1.119-.558-1.119-1.674 0-2.232 1.12-1.116 2.8-1.116 3.919 0z"/><path d="m332.552 365.489c1.546 0 2.799-.749 2.799-1.674 0-.924-1.253-1.674-2.799-1.674s-2.8.75-2.8 1.674c0 .925 1.254 1.674 2.8 1.674z"/><path d="m343.19 359.351c1.546 0 2.8-.75 2.8-1.674 0-.925-1.254-1.674-2.8-1.674s-2.799.749-2.799 1.674c0 .924 1.253 1.674 2.799 1.674z"/><path d="m356.068 350.423c1.12.558 1.12 1.674 0 2.232s-2.799.558-3.919 0-1.12-1.674 0-2.232c.56-.558 2.799-.558 3.919 0z"/><path d="m366.703 344.284c1.12.558 1.12 1.674 0 2.232s-2.799.558-3.919 0-1.12-1.674 0-2.232c.56-.558 2.799-.558 3.919 0z"/><path d="m376.783 338.147c1.12.558 1.12 1.674 0 2.232s-2.799.558-3.919 0-1.12-1.674 0-2.232 2.799-.558 3.919 0z"/><path d="m387.418 332.009c1.12.558 1.12 1.674 0 2.232-1.119.558-2.799.558-3.919 0-1.119-.558-1.119-1.674 0-2.232 1.12-.558 2.8-.558 3.919 0z"/><path d="m398.057 325.87c1.12.558 1.12 1.674 0 2.232s-2.799.558-3.919 0-1.12-1.674 0-2.232 2.799-.558 3.919 0z"/><path d="m407.016 322.523c1.546 0 2.799-.75 2.799-1.674 0-.925-1.253-1.674-2.799-1.674s-2.8.749-2.8 1.674c0 .924 1.254 1.674 2.8 1.674z"/><path d="m419.331 313.595c1.12.558 1.12 1.674 0 2.232s-2.799.558-3.919 0-1.12-1.674 0-2.232 2.799-.558 3.919 0z"/><path d="m429.97 307.457c1.119.558 1.119 1.674 0 2.232-1.12.558-2.8.558-3.919 0-1.12-.558-1.12-1.674 0-2.232 1.119-.558 2.799-.558 3.919 0z"/><path d="m440.604 301.877c1.12.558 1.12 1.674 0 2.232-1.119.558-2.799.558-3.919 0-1.119-.558-1.119-1.674 0-2.232 1.12-1.116 2.8-1.116 3.919 0z"/><path d="m451.243 295.739c1.12.558 1.12 1.674 0 2.232s-2.799.558-3.919 0-1.12-1.674 0-2.232c1.12-1.116 2.799-1.116 3.919 0z"/><path d="m461.878 289.601c1.12.558 1.12 1.674 0 2.232-1.119.558-2.799.558-3.919 0-1.119-.558-1.119-1.674 0-2.232 1.12-1.116 2.8-1.116 3.919 0z"/><path d="m324.155 356.56c1.12.558 1.12 1.674 0 2.232-1.119.558-2.799.558-3.919 0-1.119-.558-1.119-1.674 0-2.232.56-.558 2.8-.558 3.919 0z"/><path d="m332.552 353.212c1.546 0 2.799-.749 2.799-1.674 0-.924-1.253-1.673-2.799-1.673s-2.8.749-2.8 1.673c0 .925 1.254 1.674 2.8 1.674z"/><path d="m343.19 347.075c1.546 0 2.8-.749 2.8-1.674 0-.924-1.254-1.674-2.8-1.674s-2.799.75-2.799 1.674c0 .925 1.253 1.674 2.799 1.674z"/><path d="m356.068 338.147c1.12.558 1.12 1.674 0 2.232s-2.799.558-3.919 0-1.12-1.674 0-2.232c.56-.558 2.799-.558 3.919 0z"/><path d="m366.703 332.009c1.12.558 1.12 1.674 0 2.232s-2.799.558-3.919 0-1.12-1.674 0-2.232c.56-.558 2.799-.558 3.919 0z"/><path d="m376.783 325.87c1.12.558 1.12 1.674 0 2.232s-2.799.558-3.919 0-1.12-1.674 0-2.232 2.799-.558 3.919 0z"/><path d="m387.418 319.733c1.12.558 1.12 1.674 0 2.232-1.119.558-2.799.558-3.919 0-1.119-.558-1.119-1.674 0-2.232 1.12-.558 2.8-.558 3.919 0z"/><path d="m398.057 313.595c1.12.558 1.12 1.674 0 2.232s-2.799.558-3.919 0-1.12-1.674 0-2.232 2.799-.558 3.919 0z"/><path d="m408.692 307.457c1.12.558 1.12 1.674 0 2.232-1.119.558-2.799.558-3.919 0-1.119-.558-1.119-1.674 0-2.232 1.12-.558 2.8-.558 3.919 0z"/><path d="m419.331 301.877c1.12.558 1.12 1.674 0 2.232s-2.799.558-3.919 0-1.12-1.674 0-2.232c1.12-1.116 2.799-1.116 3.919 0z"/><path d="m429.97 295.739c1.119.558 1.119 1.674 0 2.232-1.12.558-2.8.558-3.919 0-1.12-.558-1.12-1.674 0-2.232 1.119-1.116 2.799-1.116 3.919 0z"/><path d="m440.604 289.601c1.12.558 1.12 1.674 0 2.232-1.119.558-2.799.558-3.919 0-1.119-.558-1.119-1.674 0-2.232 1.12-1.116 2.8-1.116 3.919 0z"/><path d="m451.243 283.463c1.12.558 1.12 1.674 0 2.232s-2.799.558-3.919 0-1.12-1.674 0-2.232 2.799-.558 3.919 0z"/><path d="m313.517 350.423c1.119.558 1.119 1.674 0 2.232-1.12.558-2.8.558-3.919 0-1.12-.558-1.12-1.674 0-2.232 1.119-.558 2.799-.558 3.919 0z"/><path d="m324.155 344.284c1.12.558 1.12 1.674 0 2.232-1.119.558-2.799.558-3.919 0-1.119-.558-1.119-1.674 0-2.232.56-.558 2.8-.558 3.919 0z"/><path d="m332.552 340.937c1.546 0 2.799-.75 2.799-1.674 0-.925-1.253-1.674-2.799-1.674s-2.8.749-2.8 1.674c0 .924 1.254 1.674 2.8 1.674z"/><path d="m345.429 332.009c1.12.558 1.12 1.674 0 2.232s-2.799.558-3.919 0-1.12-1.674 0-2.232c.56-.558 2.799-.558 3.919 0z"/><path d="m356.068 325.87c1.12.558 1.12 1.674 0 2.232s-2.799.558-3.919 0-1.12-1.674 0-2.232c.56-.558 2.799-.558 3.919 0z"/><path d="m366.703 319.733c1.12.558 1.12 1.674 0 2.232s-2.799.558-3.919 0-1.12-1.674 0-2.232c.56-.558 2.799-.558 3.919 0z"/><path d="m376.783 313.595c1.12.558 1.12 1.674 0 2.232s-2.799.558-3.919 0-1.12-1.674 0-2.232 2.799-.558 3.919 0z"/><path d="m387.418 307.457c1.12.558 1.12 1.674 0 2.232-1.119.558-2.799.558-3.919 0-1.119-.558-1.119-1.674 0-2.232 1.12-.558 2.8-.558 3.919 0z"/><path d="m398.057 301.877c1.12.558 1.12 1.674 0 2.232s-2.799.558-3.919 0-1.12-1.674 0-2.232c1.12-1.116 2.799-1.116 3.919 0z"/><path d="m408.692 295.739c1.12.558 1.12 1.674 0 2.232-1.119.558-2.799.558-3.919 0-1.119-.558-1.119-1.674 0-2.232 1.12-1.116 2.8-1.116 3.919 0z"/><path d="m419.331 289.601c1.12.558 1.12 1.674 0 2.232s-2.799.558-3.919 0-1.12-1.674 0-2.232c1.12-1.116 2.799-1.116 3.919 0z"/><path d="m429.97 283.463c1.119.558 1.119 1.674 0 2.232-1.12.558-2.8.558-3.919 0-1.12-.558-1.12-1.674 0-2.232 1.119-.558 2.799-.558 3.919 0z"/><path d="m440.604 277.325c1.12.558 1.12 1.674 0 2.232-1.119.558-2.799.558-3.919 0-1.119-.558-1.119-1.674 0-2.232 1.12-.558 2.8-.558 3.919 0 1.12.558-1.119-.558 0 0z"/><path d="m302.882 344.284c1.12.558 1.12 1.674 0 2.232s-2.799.558-3.919 0-1.12-1.674 0-2.232 2.799-.558 3.919 0z"/><path d="m313.517 338.147c1.119.558 1.119 1.674 0 2.232-1.12.558-2.8.558-3.919 0-1.12-.558-1.12-1.674 0-2.232 1.119-.558 2.799-.558 3.919 0z"/><path d="m324.155 332.009c1.12.558 1.12 1.674 0 2.232-1.119.558-2.799.558-3.919 0-1.119-.558-1.119-1.674 0-2.232.56-.558 2.8-.558 3.919 0z"/><path d="m334.794 325.87c1.12.558 1.12 1.674 0 2.232s-2.799.558-3.919 0-1.12-1.674 0-2.232c.56-.558 2.799-.558 3.919 0z"/><path d="m345.429 319.733c1.12.558 1.12 1.674 0 2.232s-2.799.558-3.919 0-1.12-1.674 0-2.232c.56-.558 2.799-.558 3.919 0z"/><path d="m356.068 313.595c1.12.558 1.12 1.674 0 2.232s-2.799.558-3.919 0-1.12-1.674 0-2.232c.56-.558 2.799-.558 3.919 0z"/><path d="m366.703 307.457c1.12.558 1.12 1.674 0 2.232s-2.799.558-3.919 0-1.12-1.674 0-2.232c.56-.558 2.799-.558 3.919 0z"/><path d="m376.783 301.877c1.12.558 1.12 1.674 0 2.232s-2.799.558-3.919 0-1.12-1.674 0-2.232c1.12-1.116 2.799-1.116 3.919 0z"/><path d="m387.418 295.739c1.12.558 1.12 1.674 0 2.232-1.119.558-2.799.558-3.919 0-1.119-.558-1.119-1.674 0-2.232 1.12-1.116 2.8-1.116 3.919 0z"/><path d="m398.057 289.601c1.12.558 1.12 1.674 0 2.232s-2.799.558-3.919 0-1.12-1.674 0-2.232c1.12-1.116 2.799-1.116 3.919 0z"/><path d="m408.692 283.463c1.12.558 1.12 1.674 0 2.232-1.119.558-2.799.558-3.919 0-1.119-.558-1.119-1.674 0-2.232 1.12-.558 2.8-.558 3.919 0z"/><path d="m419.331 277.325c1.12.558 1.12 1.674 0 2.232s-2.799.558-3.919 0-1.12-1.674 0-2.232 2.799-.558 3.919 0z"/><path d="m429.97 271.187c1.119.558 1.119 1.674 0 2.232-1.12.558-2.8.558-3.919 0-1.12-.558-1.12-1.674 0-2.232 1.119-.558 2.799-.558 3.919 0z"/></g><path d="m140.521 124.434v15.066l273.21 156.797v-15.066z" fill="#b1cccf"/><path d="m413.731 281.231-273.21-156.798 33.032-18.414 272.649 156.798z" fill="#b1cccf"/><path d="m413.731 281.231-267.611-153.449 27.433-15.624 267.611 154.007z" fill="#e2edf0"/><path d="m447.883 263.933v-2.232l-2.24-1.116-271.529-156.24-.56-1.116-32.472 18.972-2.239 1.116v2.232 15.066l272.649 156.24 2.24 1.116 2.239-1.116 32.472-18.972v-13.95zm-5.599-1.116-7.838 4.464-20.714 11.718-96.855-55.8-171.876-98.766 28.553-16.74zm-299.522-124.434v-10.602l268.73 154.566v10.044z" fill="#2a424b"/><path d="m96.2959 148.428v15.066l272.6491 156.239v-14.508z" fill="#b1cccf"/><path d="m368.945 305.224-272.6491-156.797 32.4711-18.972 272.65 157.355z" fill="#b1cccf"/><path d="m368.945 305.225-267.05-153.45 26.873-16.181 268.17 154.565z" fill="#e2edf0"/><path d="m403.654 287.927v-2.232l-2.239-1.116-271.53-156.239-1.119-1.116-32.4719 18.972-2.2394 1.116v2.232 15.065l272.6493 156.24 2.24 1.116 2.239-1.116 32.471-18.972zm-6.158-1.116-7.838 4.464-20.714 11.718-96.855-55.8-171.876-98.765 28.553-16.74zm-299.5223-124.434v-10.601l268.7303 154.565v10.044z" fill="#2a424b"/><path d="m51.5029 174.095v15.066l272.6491 156.239v-14.508z" fill="#b1cccf"/><path d="m324.152 330.893-272.6491-156.798 33.0315-18.972 272.6496 157.356z" fill="#b1cccf"/><path d="m324.152 330.892-267.0504-153.449 27.4329-16.182 267.6105 154.565z" fill="#e2edf0"/><path d="m358.864 313.595v-2.232l-2.239-1.116-271.5299-156.24-1.1197-.558-32.4716 18.972-1.6796.558v2.232 15.066l272.6498 156.239 2.239 1.116 2.239-1.116 32.472-18.972v-13.949zm-5.598-1.116-7.838 4.464-20.715 11.717-96.855-55.799-172.4352-98.766 28.5526-16.74zm-299.5228-124.434v-10.602l268.7308 154.565v10.044z" fill="#2a424b"/><path d="m7.27734 199.763v15.066l272.64966 156.239v-14.507z" fill="#b1cccf"/><path d="m279.927 356.56-272.64966-156.798 32.47156-18.971 272.6491 157.355z" fill="#b1cccf"/><path d="m279.924 356.561-267.6105-153.45 27.4329-15.624 268.1706 154.008z" fill="#e2edf0"/><path d="m314.636 339.262v-2.232l-2.24-1.116-271.5292-156.239-1.1197-1.116-32.47155 18.972-2.23942 1.116v2.232 15.066l272.64887 156.239 2.24 1.674 2.239-1.116 32.472-18.972zm-6.159-1.116-7.838 4.464-20.714 11.718-96.855-55.799-171.8755-98.766 28.5526-16.74zm-299.52188-124.433v-10.602l268.72988 154.565v10.044z" fill="#2a424b"/><path d="m140.521 77.0039v15.0659l273.21 156.7972v-14.508z" fill="#b1cccf"/><path d="m413.731 234.359-273.21-157.3555 33.032-18.4139 272.649 156.7974z" fill="#b1cccf"/><path d="m413.731 234.359-267.611-154.007 27.433-15.624 267.611 154.007z" fill="#e2edf0"/><path d="m447.883 216.503v-2.231l-2.24-1.116-271.529-156.2399-.56-.5579-32.472 18.9719-2.239 1.116v1.674 15.0659l272.649 156.239 2.24 1.116 2.239-1.116 32.472-18.972v-13.95zm-5.599-1.116-7.838 4.464-20.714 11.718-96.855-55.799-171.876-98.7659 28.553-16.74zm-299.522-124.433v-10.6019l268.73 154.5649v10.602z" fill="#2a424b"/><path d="m96.2959 100.998v15.066l272.6491 156.239v-14.508z" fill="#b1cccf"/><path d="m368.945 257.795-272.6491-156.798 32.4711-18.9716 272.65 157.3556z" fill="#b1cccf"/><path d="m368.945 257.795-267.05-153.449 26.873-15.6238 268.17 154.0068z" fill="#e2edf0"/><path d="m403.654 240.497v-2.232l-2.239-1.116-271.53-156.2391-1.119-1.116-32.4719 18.972-2.2394 1.116v2.2321 15.066l272.6493 156.239 2.24 1.116 2.239-1.116 32.471-18.972zm-6.158-1.116-7.838 4.464-20.714 11.718-96.855-55.8-171.876-98.765 28.553-16.7401zm-299.5223-124.433v-10.602l268.7303 154.565v10.044z" fill="#2a424b"/><path d="m51.5078 126.666v15.066l272.6492 156.24v-14.508z" fill="#b1cccf"/><path d="m324.157 283.463-272.6492-156.797 33.0315-18.972 272.6497 157.355z" fill="#b1cccf"/><path d="m324.157 283.464-267.0506-153.45 27.4329-15.624 267.6107 154.008z" fill="#e2edf0"/><path d="m358.866 266.165v-2.232l-1.679-1.674-272.0897-156.239-1.1197-.558-32.4716 18.972-2.2394 1.116v2.232 15.066l272.6494 156.239 2.239 1.116 2.24-1.116 32.471-18.972zm-5.598-1.116-7.838 4.464-20.715 11.718-96.855-55.799-172.435-98.766 28.5526-16.74zm-299.5226-124.433v-10.602l268.7306 154.565v10.044z" fill="#2a424b"/><path d="m7.27734 152.333v15.066l272.64966 156.798v-15.066z" fill="#b1cccf"/><path d="m279.927 309.13-272.64966-156.797 32.47156-18.414 272.6491 156.798z" fill="#b1cccf"/><path d="m279.924 309.131-267.6105-153.449 27.4329-15.624 268.1706 154.007z" fill="#e2edf0"/><path d="m314.636 291.833v-2.232l-2.24-1.116-271.5292-156.239-1.1197-.558-32.47155 18.972-2.23942 1.116v2.232 15.066l272.64887 156.239 2.24 1.116 2.239-1.116 32.472-18.972zm-6.159-1.116-7.838 4.464-20.714 11.718-96.855-55.8-171.8755-98.765 28.5526-16.74zm-299.52188-124.433v-10.602l268.72988 154.565v10.044z" fill="#2a424b"/><path d="m206.025 314.711v-33.48l41.43 23.994v32.922z" fill="#b1cccf"/><path d="m276.008 321.407-26.313-15.066v-2.232l-45.348-26.226v37.386l45.348 25.668v-4.464zm-30.792 13.392-37.51-21.204v-28.458l37.51 21.762z" fill="#2a424b"/><path d="m35.8281 215.946v-31.806l41.4293 23.994v31.806z" fill="#b1cccf"/><path d="m105.811 223.758-26.3133-15.066v-1.674l-45.3483-26.226v36.828l45.3483 26.226v-4.464zm-30.2323 12.834-37.5103-21.762v-27.342l37.5103 21.762z" fill="#2a424b"/><path d="m119.248 263.934v-32.364l40.869 23.994v32.364z" fill="#b1cccf"/><path d="m188.668 271.746-26.313-15.624v-1.674l-45.348-26.226v36.828l45.348 26.226v-4.464zm-30.232 12.834-37.51-21.762v-27.342l37.51 21.762z" fill="#2a424b"/><path d="m158.439 187.487-75.5806-43.524v-87.0475l75.5806 43.5235z" fill="#a5cfd4"/><path d="m234.019 56.9152-75.58 43.5238-75.5806-43.5238 75.5806-43.5238z" fill="#a5cfd4"/><path d="m234.016 71.9821-61.584 35.7119-76.14-44.0819 62.144-35.1538z" fill="#d9e8ed"/><path d="m158.437 11.1599-75.5804 43.5238-2.2394 1.116v89.8373l75.5808 43.524 2.239 1.116 2.239-1.116 75.581-43.524v-87.0473-2.79zm0 5.022 71.102 40.7338-35.831 20.6459-35.271 20.6459-11.197-6.6959-59.9045-34.5959zm-73.341 126.6651v-82.0253l71.102 40.7343v82.583z" fill="#013a51"/><path d="m398.055 73.6555-123.168-70.86571-123.168 70.86571v141.1735l123.168 70.866v-141.174z" fill="#d9e8ed"/><path d="m151.719 214.829 123.168 70.308v-140.615l-123.168-71.4241z" fill="#a5cfd4"/><path d="m400.292 71.9817-125.407-71.9817-124.848 71.9817h-.559v2.79 141.7313l123.168 70.866 2.239 1.674 2.239-1.674 121.489-70.308 1.12-.558v-141.7313zm-125.407-66.40172 57.665 33.47982-118.129 67.5182-57.665-33.4803zm-2.239 276.20902-118.13-68.076v-135.5933l118.13 68.0753zm52.066-169.073-49.827 29.015-57.665-33.479 118.129-68.0762 57.665 33.4799z" fill="#013a51"/><path d="m226.177 144.521-22.955-13.392c-2.799-1.674-5.038-1.674-7.278-.558-2.239 1.116-3.919 4.464-3.919 7.812 0 6.138 3.919 13.392 8.398 15.624l22.954 13.392c1.12.558 2.8 1.116 3.919 1.116 1.12 0 2.24 0 3.359-.558 2.24-1.116 3.919-4.464 3.919-7.812 0-6.138-3.919-12.834-8.397-15.624zm2.239 19.53c-.56.558-1.68 0-2.239-.558l-22.955-12.834c-3.359-1.674-6.158-7.254-6.158-11.718 0-2.232.56-3.348 1.12-3.906s1.679 0 2.239.558l1.68 1.116c.56 5.58 3.919 11.16 7.838 13.392l19.595 11.16c0 1.674-.56 2.79-1.12 2.79z" fill="#013a51"/><path d="m130.446 432.448-75.5808-43.524v-87.048l75.5808 43.524z" fill="#a5cfd4"/><path d="m206.026 301.876-75.58 43.524-75.5808-43.524 75.5808-43.524z" fill="#a5cfd4"/><path d="m206.023 316.943-62.144 35.712-75.5802-44.082 62.1442-35.154z" fill="#d9e8ed"/><g fill="#013a51"><path d="m130.444 256.121-75.5806 43.523-2.2394 1.116v89.838l75.58 43.524 2.24 1.116 2.239-1.116 75.581-43.524v-87.048-2.79zm0 5.022 71.101 40.733-35.83 20.646-35.271 20.646-11.197-6.696-59.9047-34.596zm-73.3411 126.665v-82.026l71.1011 40.734v82.026z"/><path d="m111.968 406.78-11.197-6.696c-1.6793-1.116-3.3589-3.906-3.3589-6.138v-12.276c0-2.232 1.6796-3.348 3.3589-2.79l11.757 6.696c1.68 1.116 3.359 3.906 3.359 6.138v12.276c-.56 2.79-2.239 3.906-3.919 2.79z"/></g></svg>