<svg fill="none" height="413" viewBox="0 0 461 413" width="461" xmlns="http://www.w3.org/2000/svg" xmlns:xlink="http://www.w3.org/1999/xlink"><clipPath id="a"><path d="m0 .130859h461v412.794h-461z"/></clipPath><g clip-path="url(#a)"><g fill="#013a51" opacity=".3"><path d="m213.375 405.516c1.053.529 1.053 1.588 0 2.117-1.054.529-2.635.529-3.688 0-1.054-.529-1.054-1.588 0-2.117.527-.529 2.107-.529 3.688 0z"/><path d="m203.367 399.694c1.054.529 1.054 1.588 0 2.117s-2.634.529-3.688 0-1.054-1.588 0-2.117c.527-.529 2.634-.529 3.688 0z"/><path d="m193.354 393.872c1.054.529 1.054 1.588 0 2.117-1.053.529-2.634.529-3.688 0-1.053-.529-1.053-1.588 0-2.117.527-.529 2.635-.529 3.688 0z"/><path d="m183.343 388.051c1.053.529 1.053 1.588 0 2.117-1.054.529-2.635.529-3.688 0-1.054-.529-1.054-1.588 0-2.117.526-.529 2.634-.529 3.688 0z"/><path d="m173.335 382.229c1.053.53 1.053 1.588 0 2.117-1.054.53-2.635.53-3.688 0-1.054-.529-1.054-1.587 0-2.117.527-.529 2.634-.529 3.688 0z"/><path d="m163.323 376.409c1.054.529 1.054 1.587 0 2.117-1.054.529-2.634.529-3.688 0-1.054-.53-1.054-1.588 0-2.117.527-.53 2.634-.53 3.688 0z"/><path d="m153.315 370.587c1.054.529 1.054 1.588 0 2.117s-2.634.529-3.688 0-1.054-1.588 0-2.117c.527-.529 2.634-.529 3.688 0z"/><path d="m143.303 364.765c1.054.529 1.054 1.588 0 2.117-1.053.529-2.634.529-3.688 0-1.053-.529-1.053-1.588 0-2.117.527-.529 2.635-.529 3.688 0z"/><path d="m133.291 358.944c1.053.529 1.053 1.588 0 2.117-1.054.529-2.635.529-3.688 0-1.054-.529-1.054-1.588 0-2.117.527-.529 2.634-.529 3.688 0z"/><path d="m123.283 353.122c1.054.529 1.054 1.588 0 2.117s-2.634.529-3.688 0-1.054-1.588 0-2.117 2.634-.529 3.688 0z"/><path d="m113.271 347.301c1.054.53 1.054 1.588 0 2.117-1.053.53-2.634.53-3.688 0-1.053-.529-1.053-1.587 0-2.117 1.054-.529 2.635-.529 3.688 0z"/><path d="m101.153 344.655c1.455 0 2.634-.711 2.634-1.588s-1.179-1.588-2.634-1.588-2.6344.711-2.6344 1.588 1.1794 1.588 2.6344 1.588z"/><path d="m93.2517 336.188c1.0537.529 1.0537 1.587 0 2.117-1.0537.529-2.6343.529-3.688 0-1.0537-.53-1.0537-1.588 0-2.117 1.0537-1.059 2.6343-1.059 3.688 0z"/><path d="m223.386 410.279c1.054.529 1.054 1.587 0 2.116-1.053.53-2.634.53-3.688 0-1.053-.529-1.053-1.587 0-2.116 1.054-.53 2.635-.53 3.688 0z"/><path d="m223.386 399.694c1.054.529 1.054 1.588 0 2.117-1.053.529-2.634.529-3.688 0-1.053-.529-1.053-1.588 0-2.117.527-.529 2.635-.529 3.688 0z"/><path d="m232.869 393.872c1.054.529 1.054 1.588 0 2.117s-2.634.529-3.688 0-1.054-1.588 0-2.117 2.634-.529 3.688 0z"/><path d="m242.881 388.051c1.053.529 1.053 1.588 0 2.117-1.054.529-2.635.529-3.688 0-1.054-.529-1.054-1.588 0-2.117 1.053-.529 2.634-.529 3.688 0z"/><path d="m252.888 382.229c1.054.53 1.054 1.588 0 2.117-1.053.53-2.634.53-3.688 0-1.053-.529-1.053-1.587 0-2.117 1.054-.529 2.635-.529 3.688 0z"/><path d="m262.9 376.409c1.054.529 1.054 1.587 0 2.117-1.054.529-2.634.529-3.688 0-1.054-.53-1.054-1.588 0-2.117 1.054-.53 2.634-.53 3.688 0z"/><path d="m272.908 370.587c1.054.529 1.054 1.588 0 2.117s-2.634.529-3.688 0-1.054-1.588 0-2.117 2.634-.529 3.688 0z"/><path d="m281.338 367.941c1.455 0 2.635-.711 2.635-1.588s-1.18-1.587-2.635-1.587c-1.454 0-2.634.71-2.634 1.587s1.18 1.588 2.634 1.588z"/><path d="m292.932 359.473c1.054.529 1.054 1.588 0 2.117-1.053.529-2.634.529-3.688 0-1.053-.529-1.053-1.588 0-2.117 1.054-1.058 2.635-1.058 3.688 0z"/><path d="m302.94 353.652c1.054.529 1.054 1.588 0 2.117s-2.634.529-3.688 0-1.054-1.588 0-2.117c1.054-1.058 2.634-1.058 3.688 0z"/><path d="m310.845 350.477c1.455 0 2.635-.711 2.635-1.588s-1.18-1.588-2.635-1.588-2.634.711-2.634 1.588 1.179 1.588 2.634 1.588z"/><path d="m322.96 342.009c1.053.529 1.053 1.588 0 2.117-1.054.529-2.635.529-3.688 0-1.054-.529-1.054-1.588 0-2.117 1.053-.529 2.634-.529 3.688 0z"/><path d="m332.971 336.187c1.054.529 1.054 1.588 0 2.117-1.053.529-2.634.529-3.688 0-1.053-.529-1.053-1.588 0-2.117 1.054-.529 2.635-.529 3.688 0z"/><path d="m342.984 330.365c1.054.53 1.054 1.588 0 2.117-1.054.53-2.634.53-3.688 0-1.054-.529-1.054-1.587 0-2.117 1.054-.529 2.634-.529 3.688 0z"/><path d="m352.992 324.545c1.054.529 1.054 1.587 0 2.116-1.054.53-2.634.53-3.688 0-1.054-.529-1.054-1.587 0-2.116 1.054-.53 2.634-.53 3.688 0z"/><path d="m363.004 318.723c1.053.529 1.053 1.587 0 2.116-1.054.53-2.635.53-3.688 0-1.054-.529-1.054-1.587 0-2.116 1.053-.53 2.634-.53 3.688 0z"/><path d="m370.905 315.547c1.455 0 2.634-.71 2.634-1.587s-1.179-1.588-2.634-1.588-2.634.711-2.634 1.588 1.179 1.587 2.634 1.587z"/><path d="m209.161 393.872c1.054-.529 2.635-.529 3.688 0 1.054.529 1.054 1.588 0 2.117-1.053.529-2.634.529-3.688 0-1.053-.529-1.053-1.588 0-2.117z"/><path d="m223.386 388.051c1.054.529 1.054 1.588 0 2.117-1.053.529-2.634.529-3.688 0-1.053-.529-1.053-1.588 0-2.117.527-.529 2.635-.529 3.688 0z"/><path d="m232.869 382.229c1.054.53 1.054 1.588 0 2.117-1.054.53-2.634.53-3.688 0-1.054-.529-1.054-1.587 0-2.117 1.054-.529 2.634-.529 3.688 0z"/><path d="m242.881 376.409c1.053.529 1.053 1.587 0 2.117-1.054.529-2.635.529-3.688 0-1.054-.53-1.054-1.588 0-2.117 1.053-.53 2.634-.53 3.688 0z"/><path d="m251.307 373.762c1.455 0 2.634-.711 2.634-1.588s-1.179-1.588-2.634-1.588-2.634.711-2.634 1.588 1.179 1.588 2.634 1.588z"/><path d="m262.9 364.765c1.054.529 1.054 1.588 0 2.117s-2.634.529-3.688 0-1.054-1.588 0-2.117 2.634-.529 3.688 0z"/><path d="m272.908 359.473c1.054.529 1.054 1.588 0 2.117s-2.634.529-3.688 0-1.054-1.588 0-2.117c1.054-1.058 2.634-1.058 3.688 0z"/><path d="m282.921 353.652c1.053.529 1.053 1.588 0 2.117-1.054.529-2.635.529-3.688 0-1.054-.529-1.054-1.588 0-2.117 1.053-1.058 2.634-1.058 3.688 0z"/><path d="m292.932 347.83c1.054.529 1.054 1.588 0 2.117-1.053.529-2.634.529-3.688 0-1.053-.529-1.053-1.588 0-2.117 1.054-.529 2.635-.529 3.688 0z"/><path d="m302.94 342.009c1.054.529 1.054 1.588 0 2.117s-2.634.529-3.688 0-1.054-1.588 0-2.117 2.634-.529 3.688 0z"/><path d="m312.952 336.187c1.054.529 1.054 1.588 0 2.117s-2.634.529-3.688 0-1.054-1.588 0-2.117 2.634-.529 3.688 0z"/><path d="m322.96 330.365c1.053.53 1.053 1.588 0 2.117-1.054.53-2.635.53-3.688 0-1.054-.529-1.054-1.587 0-2.117 1.053-.529 2.634-.529 3.688 0z"/><path d="m332.971 324.545c1.054.529 1.054 1.587 0 2.116-1.053.53-2.634.53-3.688 0-1.053-.529-1.053-1.587 0-2.116 1.054-.53 2.635-.53 3.688 0z"/><path d="m339.296 318.723c1.054-.53 2.634-.53 3.688 0 1.054.529 1.054 1.587 0 2.116-1.054.53-2.634.53-3.688 0-1.054-.529-1.054-1.587 0-2.116 1.054-.53-1.054.529 0 0z"/><path d="m352.991 312.902c1.053.529 1.053 1.588 0 2.117-1.054.529-2.635.529-3.688 0-1.054-.529 2.634-2.646 3.688-2.117z"/><path d="m359.316 307.08c1.053-.529 2.634-.529 3.688 0 1.053.529 1.053 1.588 0 2.117-1.054.529-2.635.529-3.688 0-1.054-.529-1.054-1.588 0-2.117z"/><path d="m199.149 388.051c1.053-.529 2.634-.529 3.688 0 1.053.529 1.053 1.588 0 2.117-1.054.529-2.635.529-3.688 0-1.054-.529-1.054-1.588 0-2.117z"/><path d="m213.375 382.229c1.053.53 1.053 1.588 0 2.117-1.054.53-2.635.53-3.688 0-1.054-.529-1.054-1.587 0-2.117.527-.529 2.634-.529 3.688 0z"/><path d="m223.386 376.409c1.054.529 1.054 1.587 0 2.117-1.053.529-2.634.529-3.688 0-1.053-.53-1.053-1.588 0-2.117.527-.53 2.635-.53 3.688 0z"/><path d="m232.869 370.587c1.054.529 1.054 1.588 0 2.117s-2.634.529-3.688 0-1.054-1.588 0-2.117 2.634-.529 3.688 0z"/><path d="m241.299 367.941c1.455 0 2.635-.711 2.635-1.588s-1.18-1.587-2.635-1.587-2.634.71-2.634 1.587 1.179 1.588 2.634 1.588z"/><path d="m252.888 359.473c1.054.529 1.054 1.588 0 2.117-1.053.529-2.634.529-3.688 0-1.053-.529-1.053-1.588 0-2.117 1.054-1.058 2.635-1.058 3.688 0z"/><path d="m262.9 353.652c1.054.529 1.054 1.588 0 2.117s-2.634.529-3.688 0-1.054-1.588 0-2.117c1.054-1.058 2.634-1.058 3.688 0z"/><path d="m271.332 350.477c1.454 0 2.634-.711 2.634-1.588s-1.18-1.588-2.634-1.588c-1.455 0-2.635.711-2.635 1.588s1.18 1.588 2.635 1.588z"/><path d="m282.921 342.009c1.053.529 1.053 1.588 0 2.117-1.054.529-2.635.529-3.688 0-1.054-.529-1.054-1.588 0-2.117 1.053-.529 2.634-.529 3.688 0z"/><path d="m292.932 336.187c1.054.529 1.054 1.588 0 2.117-1.053.529-2.634.529-3.688 0-1.053-.529-1.053-1.588 0-2.117 1.054-.529 2.635-.529 3.688 0z"/><path d="m302.94 330.365c1.054.53 1.054 1.588 0 2.117-1.054.53-2.634.53-3.688 0-1.054-.529-1.054-1.587 0-2.117 1.054-.529 2.634-.529 3.688 0z"/><path d="m312.952 324.545c1.054.529 1.054 1.587 0 2.116-1.054.53-2.634.53-3.688 0-1.054-.529-1.054-1.587 0-2.116 1.054-.53 2.634-.53 3.688 0z"/><path d="m322.96 318.723c1.053.529 1.053 1.587 0 2.116-1.054.53-2.635.53-3.688 0-1.054-.529-1.054-1.587 0-2.116 1.053-.53 2.634-.53 3.688 0z"/><path d="m189.142 382.229c1.054-.529 2.634-.529 3.688 0 1.054.53 1.054 1.588 0 2.117-1.054.53-2.634.53-3.688 0-1.054-.529-1.054-1.587 0-2.117z"/><path d="m203.367 376.409c1.054.529 1.054 1.587 0 2.117-1.054.529-2.634.529-3.688 0-1.054-.53-1.054-1.588 0-2.117.527-.53 2.634-.53 3.688 0z"/><path d="m213.375 370.587c1.053.529 1.053 1.588 0 2.117-1.054.529-2.635.529-3.688 0-1.054-.529-1.054-1.588 0-2.117.527-.529 2.634-.529 3.688 0z"/><path d="m223.386 364.765c1.054.529 1.054 1.588 0 2.117-1.053.529-2.634.529-3.688 0-1.053-.529-1.053-1.588 0-2.117.527-.529 2.635-.529 3.688 0z"/><path d="m232.869 359.473c1.054.529 1.054 1.588 0 2.117s-2.634.529-3.688 0-1.054-1.588 0-2.117c1.054-1.058 2.634-1.058 3.688 0z"/><path d="m241.299 356.297c1.455 0 2.635-.71 2.635-1.587s-1.18-1.588-2.635-1.588-2.634.711-2.634 1.588 1.179 1.587 2.634 1.587z"/><path d="m252.888 347.83c1.054.529 1.054 1.588 0 2.117-1.053.529-2.634.529-3.688 0-1.053-.529-1.053-1.588 0-2.117 1.054-.529 2.635-.529 3.688 0z"/><path d="m262.9 342.009c1.054.529 1.054 1.588 0 2.117s-2.634.529-3.688 0-1.054-1.588 0-2.117 2.634-.529 3.688 0z"/><path d="m272.908 336.187c1.054.529 1.054 1.588 0 2.117s-2.634.529-3.688 0-1.054-1.588 0-2.117 2.634-.529 3.688 0z"/><path d="m282.921 330.365c1.053.53 1.053 1.588 0 2.117-1.054.53-2.635.53-3.688 0-1.054-.529-1.054-1.587 0-2.117 1.053-.529 2.634-.529 3.688 0z"/><path d="m292.932 324.545c1.054.529 1.054 1.587 0 2.116-1.053.53-2.634.53-3.688 0-1.053-.529-1.053-1.587 0-2.116 1.054-.53 2.635-.53 3.688 0z"/><path d="m302.94 318.723c1.054.529 1.054 1.587 0 2.116-1.054.53-2.634.53-3.688 0-1.054-.529-1.054-1.587 0-2.116 1.054-.53 2.634-.53 3.688 0z"/><path d="m179.129 376.409c1.054-.53 2.634-.53 3.688 0 1.054.529 1.054 1.587 0 2.117-1.054.529-2.634.529-3.688 0-1.054-.53-1.054-1.059 0-2.117z"/><path d="m193.354 370.587c1.054.529 1.054 1.588 0 2.117-1.053.529-2.634.529-3.688 0-1.053-.529-1.053-1.588 0-2.117.527-.529 2.635-.529 3.688 0z"/><path d="m203.367 364.765c1.054.529 1.054 1.588 0 2.117s-2.634.529-3.688 0-1.054-1.588 0-2.117c.527-.529 2.634-.529 3.688 0z"/><path d="m211.268 362.119c1.455 0 2.634-.711 2.634-1.588 0-.876-1.179-1.587-2.634-1.587s-2.634.711-2.634 1.587c0 .877 1.179 1.588 2.634 1.588z"/><path d="m223.386 353.652c1.054.529 1.054 1.588 0 2.117-1.053.529-2.634.529-3.688 0-1.053-.529-1.053-1.588 0-2.117.527-1.058 2.635-1.058 3.688 0z"/><path d="m232.869 347.83c1.054.529 1.054 1.588 0 2.117s-2.634.529-3.688 0-1.054-1.588 0-2.117 2.634-.529 3.688 0z"/><path d="m242.881 342.009c1.053.529 1.053 1.588 0 2.117-1.054.529-2.635.529-3.688 0-1.054-.529-1.054-1.588 0-2.117 1.053-.529 2.634-.529 3.688 0z"/><path d="m252.888 336.187c1.054.529 1.054 1.588 0 2.117-1.053.529-2.634.529-3.688 0-1.053-.529-1.053-1.588 0-2.117 1.054-.529 2.635-.529 3.688 0z"/><path d="m262.9 330.365c1.054.53 1.054 1.588 0 2.117-1.054.53-2.634.53-3.688 0-1.054-.529-1.054-1.587 0-2.117 1.054-.529 2.634-.529 3.688 0z"/><path d="m271.332 327.19c1.454 0 2.634-.711 2.634-1.587 0-.877-1.18-1.588-2.634-1.588-1.455 0-2.635.711-2.635 1.588 0 .876 1.18 1.587 2.635 1.587z"/><path d="m282.921 318.723c1.053.529 1.053 1.587 0 2.116-1.054.53-2.635.53-3.688 0-1.054-.529-1.054-1.587 0-2.116 1.053-.53 2.634-.53 3.688 0z"/><path d="m169.117 370.587c1.054-.529 2.635-.529 3.688 0 1.054.529 1.054 1.588 0 2.117-1.053.529-2.634.529-3.688 0-1.053-.529-1.053-1.588 0-2.117z"/><path d="m183.343 364.765c1.053.529 1.053 1.588 0 2.117-1.054.529-2.635.529-3.688 0-1.054-.529-1.054-1.588 0-2.117.526-.529 2.634-.529 3.688 0z"/><path d="m191.248 362.119c1.454 0 2.634-.711 2.634-1.588 0-.876-1.18-1.587-2.634-1.587-1.455 0-2.635.711-2.635 1.587 0 .877 1.18 1.588 2.635 1.588z"/><path d="m202.837 353.122c1.053.529 1.053 1.588 0 2.117-1.054.529-2.635.529-3.688 0-1.054-.529-1.054-1.588 0-2.117 1.053-.529 2.634-.529 3.688 0z"/><path d="m212.849 347.83c1.054.529 1.054 1.588 0 2.117-1.053.529-2.634.529-3.688 0-1.053-.529-1.053-1.588 0-2.117 1.054-1.058 2.635-1.058 3.688 0z"/><path d="m222.857 342.008c1.054.53 1.054 1.588 0 2.117-1.054.53-2.634.53-3.688 0-1.054-.529-1.054-1.587 0-2.117 1.054-1.058 2.634-1.058 3.688 0z"/><path d="m232.869 336.187c1.054.529 1.054 1.588 0 2.117s-2.634.529-3.688 0-1.054-1.588 0-2.117 2.634-.529 3.688 0z"/><path d="m242.881 330.365c1.053.53 1.053 1.588 0 2.117-1.054.53-2.635.53-3.688 0-1.054-.529-1.054-1.587 0-2.117 1.053-.529 2.634-.529 3.688 0z"/><path d="m252.888 324.545c1.054.529 1.054 1.587 0 2.116-1.053.53-2.634.53-3.688 0-1.053-.529-1.053-1.587 0-2.116 1.054-.53 2.635-.53 3.688 0z"/><path d="m262.9 318.723c1.054.529 1.054 1.587 0 2.116-1.054.53-2.634.53-3.688 0-1.054-.529-1.054-1.587 0-2.116 1.054-.53 2.634-.53 3.688 0z"/><path d="m159.11 364.765c1.053-.529 2.634-.529 3.688 0 1.053.529 1.053 1.588 0 2.117-1.054.529-2.635.529-3.688 0-1.054-.529-1.054-1.058 0-2.117z"/><path d="m173.335 358.944c1.053.529 1.053 1.588 0 2.117-1.054.529-2.635.529-3.688 0-1.054-.529-1.054-1.588 0-2.117.527-.529 2.634-.529 3.688 0z"/><path d="m183.343 353.122c1.053.529 1.053 1.588 0 2.117-1.054.529-2.635.529-3.688 0-1.054-.529-1.054-1.588 0-2.117.526-.529 2.634-.529 3.688 0z"/><path d="m192.83 347.83c1.054.529 1.054 1.588 0 2.117s-2.634.529-3.688 0-1.054-1.588 0-2.117c1.054-1.058 2.634-1.058 3.688 0z"/><path d="m202.837 342.008c1.053.53 1.053 1.588 0 2.117-1.054.53-2.635.53-3.688 0-1.054-.529-1.054-1.587 0-2.117 1.053-1.058 2.634-1.058 3.688 0z"/><path d="m212.849 336.187c1.054.529 1.054 1.588 0 2.117-1.053.529-2.634.529-3.688 0-1.053-.529-1.053-1.588 0-2.117 1.054-.529 2.635-.529 3.688 0z"/><path d="m222.857 330.365c1.054.53 1.054 1.588 0 2.117-1.054.53-2.634.53-3.688 0-1.054-.529-1.054-1.587 0-2.117 1.054-.529 2.634-.529 3.688 0z"/><path d="m232.869 324.545c1.054.529 1.054 1.587 0 2.116-1.054.53-2.634.53-3.688 0-1.054-.529-1.054-1.587 0-2.116 1.054-.53 2.634-.53 3.688 0z"/><path d="m242.881 318.723c1.053.529 1.053 1.587 0 2.116-1.054.53-2.635.53-3.688 0-1.054-.529-1.054-1.587 0-2.116 1.053-.53 2.634-.53 3.688 0z"/><path d="m149.098 358.944c1.054-.529 2.634-.529 3.688 0s1.054 1.588 0 2.117-2.634.529-3.688 0-1.054-1.059 0-2.117z"/><path d="m163.323 353.122c1.054.529 1.054 1.588 0 2.117s-2.634.529-3.688 0-1.054-1.588 0-2.117c.527-.529 2.634-.529 3.688 0z"/><path d="m173.335 347.83c1.053.529 1.053 1.588 0 2.117-1.054.529-2.635.529-3.688 0-1.054-.529-1.054-1.588 0-2.117.527-1.058 2.634-1.058 3.688 0z"/><path d="m183.343 342.008c1.053.53 1.053 1.588 0 2.117-1.054.53-2.635.53-3.688 0-1.054-.529-1.054-1.587 0-2.117.526-1.058 2.634-1.058 3.688 0z"/><path d="m192.83 336.187c1.054.529 1.054 1.588 0 2.117s-2.634.529-3.688 0-1.054-1.588 0-2.117 2.634-.529 3.688 0z"/><path d="m202.837 330.365c1.053.53 1.053 1.588 0 2.117-1.054.53-2.635.53-3.688 0-1.054-.529-1.054-1.587 0-2.117 1.053-.529 2.634-.529 3.688 0z"/><path d="m212.849 324.545c1.054.529 1.054 1.587 0 2.116-1.053.53-2.634.53-3.688 0-1.053-.529-1.053-1.587 0-2.116 1.054-.53 2.635-.53 3.688 0z"/><path d="m222.857 318.723c1.054.529 1.054 1.587 0 2.116-1.054.53-2.634.53-3.688 0-1.054-.529-1.054-1.587 0-2.116 1.054-.53 2.634-.53 3.688 0z"/><path d="m139.09 353.652c1.054-.529 2.634-.529 3.688 0s1.054 1.587 0 2.117c-1.054.529-2.634.529-3.688 0-1.054-.53-1.054-1.588 0-2.117z"/><path d="m151.205 350.477c1.454 0 2.634-.711 2.634-1.588s-1.18-1.588-2.634-1.588c-1.455 0-2.635.711-2.635 1.588s1.18 1.588 2.635 1.588z"/><path d="m163.323 342.008c1.054.53 1.054 1.588 0 2.117-1.054.53-2.634.53-3.688 0-1.054-.529-1.054-1.587 0-2.117.527-1.058 2.634-1.058 3.688 0z"/><path d="m173.335 336.187c1.053.529 1.053 1.588 0 2.117-1.054.529-2.635.529-3.688 0-1.054-.529-1.054-1.588 0-2.117.527-.529 2.634-.529 3.688 0z"/><path d="m183.343 330.365c1.053.53 1.053 1.588 0 2.117-1.054.53-2.635.53-3.688 0-1.054-.529-1.054-1.587 0-2.117.526-.529 2.634-.529 3.688 0z"/><path d="m192.83 324.545c1.054.529 1.054 1.587 0 2.116-1.054.53-2.634.53-3.688 0-1.054-.529-1.054-1.587 0-2.116 1.054-.53 2.634-.53 3.688 0z"/><path d="m202.837 318.723c1.053.529 1.053 1.587 0 2.116-1.054.53-2.635.53-3.688 0-1.054-.529-1.054-1.587 0-2.116 1.053-.53 2.634-.53 3.688 0z"/><path d="m129.603 347.83c1.053-.529 2.634-.529 3.688 0 1.053.529 1.053 1.588 0 2.117-1.054.529-2.635.529-3.688 0-1.054-.529-1.054-1.588 0-2.117z"/><path d="m143.303 342.008c1.054.53 1.054 1.588 0 2.117-1.053.53-2.634.53-3.688 0-1.053-.529-1.053-1.587 0-2.117.527-1.058 2.635-1.058 3.688 0z"/><path d="m151.205 338.834c1.454 0 2.634-.711 2.634-1.588s-1.18-1.588-2.634-1.588c-1.455 0-2.635.711-2.635 1.588s1.18 1.588 2.635 1.588z"/><path d="m163.323 330.365c1.054.53 1.054 1.588 0 2.117-1.054.53-2.634.53-3.688 0-1.054-.529-1.054-1.587 0-2.117.527-.529 2.634-.529 3.688 0z"/><path d="m173.335 324.545c1.053.529 1.053 1.587 0 2.116-1.054.53-2.635.53-3.688 0-1.054-.529-1.054-1.587 0-2.116.527-.53 2.634-.53 3.688 0z"/><path d="m183.343 318.723c1.053.529 1.053 1.587 0 2.116-1.054.53-2.635.53-3.688 0-1.054-.529-1.054-1.587 0-2.116.526-.53 2.634-.53 3.688 0z"/><path d="m119.595 342.009c1.054-.529 2.634-.529 3.688 0s1.054 1.588 0 2.117-2.634.529-3.688 0-1.054-1.588 0-2.117z"/><path d="m133.291 336.187c1.053.529 1.053 1.588 0 2.117-1.054.529-2.635.529-3.688 0-1.054-.529-1.054-1.588 0-2.117 1.053-.529 2.634-.529 3.688 0z"/><path d="m143.303 330.365c1.054.53 1.054 1.588 0 2.117-1.053.53-2.634.53-3.688 0-1.053-.529-1.053-1.587 0-2.117.527-.529 2.635-.529 3.688 0z"/><path d="m153.315 324.545c1.054.529 1.054 1.587 0 2.116-1.054.53-2.634.53-3.688 0-1.054-.529-1.054-1.587 0-2.116.527-.53 2.634-.53 3.688 0z"/><path d="m163.323 318.723c1.054.529 1.054 1.587 0 2.116-1.054.53-2.634.53-3.688 0-1.054-.529-1.054-1.587 0-2.116.527-.53 2.634-.53 3.688 0z"/><path d="m109.583 336.187c1.054-.529 2.635-.529 3.688 0 1.054.529 1.054 1.588 0 2.117-1.053.529-2.634.529-3.688 0-1.053-.529-1.053-1.588 0-2.117z"/><path d="m123.283 330.365c1.054.53 1.054 1.588 0 2.117-1.054.53-2.634.53-3.688 0-1.054-.529-1.054-1.587 0-2.117 1.054-.529 2.634-.529 3.688 0z"/><path d="m133.291 324.545c1.053.529 1.053 1.587 0 2.116-1.054.53-2.635.53-3.688 0-1.054-.529-1.054-1.587 0-2.116 1.053-.53 2.634-.53 3.688 0z"/><path d="m143.303 318.723c1.054.529 1.054 1.587 0 2.116-1.053.53-2.634.53-3.688 0-1.053-.529-1.053-1.587 0-2.116.527-.53 2.635-.53 3.688 0z"/><path d="m99.5754 330.365c1.0536-.529 2.6346-.529 3.6876 0 1.054.53 1.054 1.588 0 2.117-1.053.53-2.634.53-3.6876 0-1.0537-.529-1.0537-1.587 0-2.117z"/><path d="m113.271 324.545c1.054.529 1.054 1.587 0 2.116-1.053.53-2.634.53-3.688 0-1.053-.529-1.053-1.587 0-2.116 1.054-.53 2.635-.53 3.688 0z"/><path d="m123.283 318.723c1.054.529 1.054 1.587 0 2.116-1.054.53-2.634.53-3.688 0-1.054-.529-1.054-1.587 0-2.116 1.054-.53 2.634-.53 3.688 0z"/><path d="m131.185 315.547c1.455 0 2.634-.71 2.634-1.587s-1.179-1.588-2.634-1.588-2.634.711-2.634 1.588 1.179 1.587 2.634 1.587z"/><path d="m89.5637 324.545c1.0537-.53 2.6343-.53 3.688 0 1.0537.529 1.0537 1.587 0 2.116-1.0537.53-2.6343.53-3.688 0-1.0537-.529-1.0537-1.587 0-2.116z"/><path d="m101.153 321.369c1.455 0 2.634-.71 2.634-1.587s-1.179-1.588-2.634-1.588-2.6344.711-2.6344 1.588 1.1794 1.587 2.6344 1.587z"/><path d="m113.271 312.902c1.054.529 1.054 1.587 0 2.117-1.053.529-2.634.529-3.688 0-1.053-.53-1.053-1.588 0-2.117.527-.529 2.635-.529 3.688 0z"/><path d="m93.2517 312.902c1.0537.529 1.0537 1.587 0 2.117-1.0537.529-2.6343.529-3.688 0-1.0537-.53-1.0537-1.588 0-2.117s2.6343-.529 3.688 0z"/><path d="m103.263 307.08c1.054.529 1.054 1.588 0 2.117-1.053.529-2.634.529-3.6876 0-1.0537-.529-1.0537-1.588 0-2.117 1.0536-.529 2.6346-.529 3.6876 0 1.054.529-1.053-.529 0 0z"/><path d="m239.718 410.279c1.054-.53 2.634-.53 3.688 0 1.054.529 1.054 1.587 0 2.116-1.054.53-2.634.53-3.688 0-1.054-.529-1.054-1.587 0-2.116z"/><path d="m253.418 404.456c1.053.53 1.053 1.588 0 2.117-1.054.53-2.635.53-3.688 0-1.054-.529-1.054-1.587 0-2.117 1.053-.529 2.634-.529 3.688 0z"/><path d="m263.426 398.636c1.053.529 1.053 1.587 0 2.117-1.054.529-2.635.529-3.688 0-1.054-.53-1.054-1.588 0-2.117 1.053-.53 2.634-.53 3.688 0z"/><path d="m273.437 392.814c1.054.529 1.054 1.588 0 2.117-1.053.529-2.634.529-3.688 0-1.053-.529-1.053-1.588 0-2.117 1.054-.529 2.635-.529 3.688 0z"/><path d="m283.445 387.522c1.054.529 1.054 1.588 0 2.117s-2.634.529-3.688 0-1.054-1.588 0-2.117c1.054-1.059 2.634-1.059 3.688 0z"/><path d="m293.458 381.7c1.054.529 1.054 1.588 0 2.117s-2.634.529-3.688 0-1.054-1.588 0-2.117c1.054-1.058 2.634-1.058 3.688 0z"/><path d="m303.469 375.879c1.054.53 1.054 1.588 0 2.117-1.053.529-2.634.529-3.688 0-1.053-.529-1.053-1.587 0-2.117 1.054-1.058 2.635-1.058 3.688 0z"/><path d="m313.477 370.057c1.054.529 1.054 1.588 0 2.117-1.053.529-2.634.529-3.688 0-1.053-.529-1.053-1.588 0-2.117 1.054-.529 2.635-.529 3.688 0z"/><path d="m323.489 364.236c1.054.529 1.054 1.588 0 2.117s-2.634.529-3.688 0-1.054-1.588 0-2.117 2.634-.529 3.688 0z"/><path d="m333.497 358.414c1.054.53 1.054 1.588 0 2.117-1.054.53-2.634.53-3.688 0-1.054-.529-1.054-1.587 0-2.117.527-.529 2.634-.529 3.688 0z"/><path d="m343.509 352.594c1.053.529 1.053 1.587 0 2.117-1.054.529-2.635.529-3.688 0-1.054-.53-1.054-1.588 0-2.117.526-.53 2.634-.53 3.688 0z"/><path d="m353.521 346.772c1.054.529 1.054 1.587 0 2.117-1.053.529-2.634.529-3.688 0-1.053-.53-1.053-1.588 0-2.117.527-.53 2.635-.53 3.688 0z"/><path d="m363.529 340.95c1.054.529 1.054 1.588 0 2.117s-2.634.529-3.688 0-1.054-1.588 0-2.117c.527-.529 2.634-.529 3.688 0z"/><path d="m373.541 335.129c1.054.529 1.054 1.588 0 2.117s-2.634.529-3.688 0-1.054-1.588 0-2.117c.527-.529 2.634-.529 3.688 0z"/><path d="m383.023 329.307c1.054.53 1.054 1.588 0 2.117s-2.634.529-3.688 0-1.054-1.587 0-2.117c1.054-.529 2.634-.529 3.688 0z"/><path d="m229.706 404.456c1.054-.529 2.635-.529 3.688 0 1.054.53 1.054 1.588 0 2.117-1.053.53-2.634.53-3.688 0-1.053-.529-1.053-1.058 0-2.117z"/><path d="m243.406 398.636c1.054.529 1.054 1.587 0 2.117-1.054.529-2.634.529-3.688 0-1.054-.53-1.054-1.588 0-2.117 1.054-.53 2.634-.53 3.688 0z"/><path d="m253.418 392.814c1.053.529 1.053 1.588 0 2.117-1.054.529-2.635.529-3.688 0-1.054-.529-1.054-1.588 0-2.117 1.053-.529 2.634-.529 3.688 0z"/><path d="m263.426 387.522c1.053.529 1.053 1.588 0 2.117-1.054.529-2.635.529-3.688 0-1.054-.529-1.054-1.588 0-2.117 1.053-1.059 2.634-1.059 3.688 0z"/><path d="m273.437 381.7c1.054.529 1.054 1.588 0 2.117-1.053.529-2.634.529-3.688 0-1.053-.529-1.053-1.588 0-2.117 1.054-1.058 2.635-1.058 3.688 0z"/><path d="m283.445 375.879c1.054.53 1.054 1.588 0 2.117s-2.634.529-3.688 0-1.054-1.587 0-2.117c1.054-1.058 2.634-1.058 3.688 0z"/><path d="m293.458 370.057c1.054.529 1.054 1.588 0 2.117s-2.634.529-3.688 0-1.054-1.588 0-2.117 2.634-.529 3.688 0z"/><path d="m303.469 364.236c1.054.529 1.054 1.588 0 2.117-1.053.529-2.634.529-3.688 0-1.053-.529-1.053-1.588 0-2.117 1.054-.529 2.635-.529 3.688 0z"/><path d="m313.477 358.414c1.054.53 1.054 1.588 0 2.117-1.053.53-2.634.53-3.688 0-1.053-.529-1.053-1.587 0-2.117 1.054-.529 2.635-.529 3.688 0z"/><path d="m323.489 352.594c1.054.529 1.054 1.587 0 2.117-1.054.529-2.634.529-3.688 0-1.054-.53-1.054-1.588 0-2.117 1.054-.53 2.634-.53 3.688 0z"/><path d="m333.497 346.772c1.054.529 1.054 1.587 0 2.117-1.054.529-2.634.529-3.688 0-1.054-.53-1.054-1.588 0-2.117.527-.53 2.634-.53 3.688 0z"/><path d="m341.402 343.596c1.455 0 2.634-.71 2.634-1.587s-1.179-1.588-2.634-1.588-2.634.711-2.634 1.588 1.179 1.587 2.634 1.587z"/><path d="m353.521 335.129c1.054.529 1.054 1.588 0 2.117-1.053.529-2.634.529-3.688 0-1.053-.529-1.053-1.588 0-2.117.527-.529 2.635-.529 3.688 0z"/><path d="m363.529 329.307c1.054.53 1.054 1.588 0 2.117s-2.634.529-3.688 0-1.054-1.587 0-2.117c.527-.529 2.634-.529 3.688 0z"/><path d="m373.541 323.486c1.054.529 1.054 1.588 0 2.117s-2.634.529-3.688 0-1.054-1.588 0-2.117c.527-.529 2.634-.529 3.688 0z"/><path d="m383.023 317.664c1.054.53 1.054 1.588 0 2.117-1.054.53-2.634.53-3.688 0-1.054-.529-1.054-1.587 0-2.117 1.054-.529 2.634-.529 3.688 0z"/></g><path d="m94.8332 162.073-53.7394-82.5588 134.8752-78.32499 53.74 82.55869z" fill="#a5cfd4"/><path d="m94.3053 163.131-54.2662-83.6168 136.4559-79.383341 54.793 83.617141zm-52.1588-83.0875 52.6857 80.4415 133.2948-77.2662-52.686-80.44183z" fill="#013a51"/><path d="m365.64 162.073 53.739-82.0293-135.402-78.32495-53.74 82.02955z" fill="#a5cfd4"/><path d="m365.639 163.661-136.456-79.3834 54.793-83.6172 136.456 79.3834-.527 1.0584zm-133.822-79.9126 133.295 77.2666 52.685-80.442-133.294-77.79571z" fill="#013a51"/><path d="m95.3633 162.073v145.008l134.8757 78.324v-145.007z" fill="#a5cfd4"/><path d="m230.238 239.34-135.9294-78.854v147.123l135.9294 78.855 135.402-78.855h.527v-147.123zm-133.822 67.211v-142.89l133.295 77.266v142.891z" fill="#013a51"/><path d="m365.642 162.073-135.402 78.325-134.8757-78.325 134.8757-78.325z" fill="#a5cfd4"/><path d="m230.238 241.457-136.9831-79.384 136.9831-79.3831.527.5293 136.456 79.3838zm-132.7683-79.384 133.2953 77.267 132.768-77.267-133.295-77.2662z" fill="#013a51"/><path d="m259.213 349.418v-25.932l-12.645 7.409 22.655-49.747 22.655 23.286-12.118 6.88v25.932zm2.634-30.166v25.932l15.806-8.996v-25.932l10.537-6.351-17.913-19.052-17.913 39.692z" fill="#a5cfd4"/><path d="m230.235 83.7483-136.4557 78.3247 136.4557 79.384 1.054-1.059-1.054 1.059z" fill="#013a51"/><path d="m230.235 240.397-89.039 3.176-138.03682-78.325 92.20002-3.175z" fill="#a5cfd4"/><path d="m140.671 244.631-140.671-80.442 95.888-3.175 138.037 79.913zm-134.34871-78.854 134.87571 76.737 85.877-2.646-131.7139-76.737z" fill="#013a51"/><path d="m344.039 320.84-2.107 1.059v-78.855l2.107-1.587z" fill="#a5cfd4"/><path d="m230.238 240.398 89.566 3.176 138.037-78.325-92.2-3.176z" fill="#a5cfd4"/><path d="m320.33 244.632-92.726-3.176 138.036-79.912 95.361 2.646zm-86.404-4.763 85.878 2.646 134.875-76.738-88.512-2.646z" fill="#013a51"/><path d="m158.587 199.119 71.126-40.221 69.018 40.75-69.018 41.279z" fill="#a5cfd4"/><path d="m168.069 204.94 65.331-37.046 59.534 34.929-63.222 37.575z" fill="#b0e0e6"/><path d="m229.712 241.985-72.18-43.396 72.18-41.279.526.529 70.599 41.809zm-69.019-42.867 69.019 40.221 67.437-39.691-67.437-39.692z" fill="#013a51"/></g></svg>