<svg fill="none" height="430" viewBox="0 0 492 430" width="492" xmlns="http://www.w3.org/2000/svg" xmlns:xlink="http://www.w3.org/1999/xlink"><clipPath id="a"><path d="m0 0h492v430h-492z"/></clipPath><g clip-path="url(#a)"><g fill="#013a51" opacity=".3"><path d="m28.2447 335.073c1.1298.565 1.1298 1.695 0 2.26-1.1297.565-2.8243.565-3.954 0-1.1298-.565-1.1298-1.695 0-2.26 1.1297-.565 2.8243-.565 3.954 0z"/><path d="m38.9767 328.857c1.1297.565 1.1297 1.695 0 2.26-1.1298.565-2.8244.565-3.9541 0s-1.1297-1.695 0-2.26 2.8243-.565 3.9541 0z"/><path d="m49.7091 322.641c1.1297.565 1.1297 1.695 0 2.26s-2.8243.565-3.9541 0c-1.1297-.565-1.1297-1.695 0-2.26 1.1298-.565 2.8244-.565 3.9541 0z"/><path d="m60.441 316.426c1.1298.565 1.1298 1.695 0 2.26-1.1297.565-2.8243.565-3.954 0-1.1298-.565-1.1298-1.695 0-2.26 1.1297-.565 2.8243-.565 3.954 0z"/><path d="m71.173 310.21c1.1297.565 1.1297 1.695 0 2.26-1.1298.565-2.8244.565-3.9541 0-1.1298-.565-1.1298-1.695 0-2.26 1.1297-.565 2.8243-.565 3.9541 0z"/><path d="m81.9073 304.56c1.1298.565 1.1298 1.695 0 2.26-1.1297.565-2.8243.565-3.954 0-1.1298-.565-1.1298-1.695 0-2.26 1.1297-1.13 2.8243-1.13 3.954 0z"/><path d="m92.6393 298.344c1.1297.565 1.1297 1.695 0 2.26-1.1298.565-2.8244.565-3.9541 0s-1.1297-1.695 0-2.26c1.1297-1.13 2.8243-1.13 3.9541 0z"/><path d="m103.371 292.129c1.13.565 1.13 1.695 0 2.26s-2.824.565-3.9539 0c-1.1297-.565-1.1297-1.695 0-2.26 1.1299-.565 2.8239-.565 3.9539 0z"/><path d="m114.104 285.913c1.129.565 1.129 1.695 0 2.26-1.13.565-2.825.565-3.954 0-1.13-.565-1.13-1.695 0-2.26 1.129-.565 2.824-.565 3.954 0z"/><path d="m124.836 279.698c1.129.565 1.129 1.695 0 2.26-1.13.565-2.825.565-3.955 0-1.129-.565-1.129-1.695 0-2.26 1.13-.565 2.825-.565 3.955 0z"/><path d="m135.57 273.482c1.13.565 1.13 1.695 0 2.26s-2.824.565-3.954 0-1.13-1.695 0-2.26 2.824-.565 3.954 0z"/><path d="m146.302 267.267c1.13.565 1.13 1.695 0 2.26s-2.824.565-3.954 0-1.13-1.695 0-2.26 2.824-.565 3.954 0z"/><path d="m157.034 261.051c1.13.565 1.13 1.695 0 2.26s-2.825.565-3.954 0c-1.13-.565-1.13-1.695 0-2.26 1.129-.565 2.824-.565 3.954 0z"/><path d="m165.507 257.661c1.56 0 2.825-.759 2.825-1.695 0-.937-1.265-1.695-2.825-1.695-1.559 0-2.824.758-2.824 1.695 0 .936 1.265 1.695 2.824 1.695z"/><path d="m178.498 248.621c1.13.565 1.13 1.695 0 2.26s-2.824.565-3.954 0-1.13-1.695 0-2.26c.565-.565 2.824-.565 3.954 0z"/><path d="m189.232 242.404c1.13.566 1.13 1.696 0 2.261s-2.824.565-3.954 0-1.13-1.695 0-2.261c.565-.565 2.824-.565 3.954 0z"/><path d="m199.964 236.19c1.13.565 1.13 1.695 0 2.26s-2.824.565-3.954 0-1.13-1.695 0-2.26c.565-.565 2.824-.565 3.954 0z"/><path d="m210.696 229.974c1.13.565 1.13 1.695 0 2.26-1.129.565-2.824.565-3.954 0-1.129-.565-1.129-1.695 0-2.26.565-.565 2.825-.565 3.954 0z"/><path d="m146.302 254.835c1.13.565 1.13 1.696 0 2.261s-2.824.565-3.954 0-1.13-1.696 0-2.261 2.824-.565 3.954 0z"/><path d="m157.034 248.621c1.13.565 1.13 1.695 0 2.26s-2.825.565-3.954 0c-1.13-.565-1.13-1.695 0-2.26 1.129-.565 2.824-.565 3.954 0z"/><path d="m167.766 242.404c1.129.566 1.129 1.696 0 2.261-1.13.565-2.825.565-3.954 0-1.13-.565-1.13-1.695 0-2.261 1.129-.565 2.824-.565 3.954 0z"/><path d="m178.498 236.19c1.13.565 1.13 1.695 0 2.26s-2.824.565-3.954 0-1.13-1.695 0-2.26c.565-.565 2.824-.565 3.954 0z"/><path d="m189.232 229.974c1.13.565 1.13 1.695 0 2.26s-2.824.565-3.954 0-1.13-1.695 0-2.26c.565-.565 2.824-.565 3.954 0s-1.13-.565 0 0z"/><path d="m135.57 248.621c1.13.565 1.13 1.695 0 2.26s-2.824.565-3.954 0-1.13-1.695 0-2.26 2.824-.565 3.954 0z"/><path d="m146.302 242.404c1.13.566 1.13 1.696 0 2.261s-2.824.565-3.954 0-1.13-1.695 0-2.261c1.13-.565 2.824-.565 3.954 0z"/><path d="m157.034 236.19c1.13.565 1.13 1.695 0 2.26s-2.825.565-3.954 0c-1.13-.565-1.13-1.695 0-2.26 1.129-.565 2.824-.565 3.954 0z"/><path d="m167.766 229.974c1.129.565 1.129 1.695 0 2.26-1.13.565-2.825.565-3.954 0-1.13-.565-1.13-1.695 0-2.26 1.129-.565 2.824-.565 3.954 0z"/><path d="m124.836 242.404c1.129.566 1.129 1.696 0 2.261-1.13.565-2.825.565-3.955 0-1.129-.565-1.129-1.695 0-2.261 1.13-.565 2.825-.565 3.955 0z"/><path d="m135.57 236.19c1.13.565 1.13 1.695 0 2.26s-2.824.565-3.954 0-1.13-1.695 0-2.26 2.824-.565 3.954 0z"/><path d="m144.041 232.799c1.56 0 2.824-.758 2.824-1.695 0-.936-1.264-1.695-2.824-1.695s-2.824.759-2.824 1.695c0 .937 1.264 1.695 2.824 1.695z"/><path d="m154.775 226.583c1.56 0 2.824-.759 2.824-1.695s-1.264-1.695-2.824-1.695-2.824.759-2.824 1.695 1.264 1.695 2.824 1.695z"/><path d="m114.104 236.19c1.129.565 1.129 1.695 0 2.26-1.13.565-2.825.565-3.954 0-1.13-.565-1.13-1.695 0-2.26 1.129-.565 2.824-.565 3.954 0z"/><path d="m122.577 232.799c1.56 0 2.824-.758 2.824-1.695 0-.936-1.264-1.695-2.824-1.695s-2.825.759-2.825 1.695c0 .937 1.265 1.695 2.825 1.695z"/><path d="m135.57 223.758c1.13.565 1.13 1.695 0 2.26s-2.824.565-3.954 0-1.13-1.695 0-2.26 2.824-.565 3.954 0z"/><path d="m146.302 217.543c1.13.565 1.13 1.695 0 2.26s-2.824.565-3.954 0-1.13-1.695 0-2.26 2.824-.565 3.954 0c1.13 1.13-1.13-.565 0 0z"/><path d="m103.371 229.974c1.13.565 1.13 1.695 0 2.26s-2.824.565-3.9539 0c-1.1297-.565-1.1297-1.695 0-2.26 1.1299-.565 2.8239-.565 3.9539 0z"/><path d="m114.104 223.758c1.129.565 1.129 1.695 0 2.26-1.13.565-2.825.565-3.954 0-1.13-.565-1.13-1.695 0-2.26 1.129-.565 2.824-.565 3.954 0z"/><path d="m124.836 217.543c1.129.565 1.129 1.695 0 2.26-1.13.565-2.825.565-3.955 0-1.129-.565-1.129-1.695 0-2.26 1.13-.565 2.825-.565 3.955 0z"/><path d="m135.57 211.327c1.13.565 1.13 1.695 0 2.26s-2.824.565-3.954 0-1.13-1.695 0-2.26c.565-.565 2.824-.565 3.954 0z"/><path d="m103.371 217.543c1.13.565 1.13 1.695 0 2.26s-2.824.565-3.9539 0c-1.1297-.565-1.1297-1.695 0-2.26 1.1299-.565 2.8239-.565 3.9539 0z"/><path d="m114.104 211.327c1.129.565 1.129 1.695 0 2.26-1.13.565-2.825.565-3.954 0-1.13-.565-1.13-1.695 0-2.26 1.129-.565 2.824-.565 3.954 0z"/><path d="m124.836 205.112c1.129.565 1.129 1.695 0 2.26-1.13.565-2.825.565-3.955 0-1.129-.565-1.129-1.695 0-2.26 1.13-.565 2.825-.565 3.955 0 1.129 1.13-1.13-.565 0 0z"/><path d="m103.371 205.112c1.13.565 1.13 1.695 0 2.26s-2.824.565-3.9539 0c-1.1297-.565-1.1297-1.695 0-2.26 1.1299-.565 2.8239-.565 3.9539 0z"/><path d="m114.104 198.896c1.129.565 1.129 1.695 0 2.26-1.13.565-2.825.565-3.954 0-1.13-.565-1.13-1.695 0-2.26 1.129-.565 2.824-.565 3.954 0z"/><path d="m240.634 424.349c1.56 0 2.824-.758 2.824-1.695 0-.936-1.264-1.695-2.824-1.695s-2.824.759-2.824 1.695c0 .937 1.264 1.695 2.824 1.695z"/><path d="m253.627 415.309c1.129.565 1.129 1.695 0 2.26-1.13.565-2.825.565-3.955 0-1.129-.565-1.129-1.695 0-2.26 1.13-.565 2.825-.565 3.955 0z"/><path d="m221.428 421.524c1.13.565 1.13 1.695 0 2.26-1.129.565-2.824.565-3.954 0-1.129-.565-1.129-1.695 0-2.26 1.13-.565 2.825-.565 3.954 0z"/><path d="m232.161 415.309c1.129.565 1.129 1.695 0 2.26-1.13.565-2.825.565-3.954 0-1.13-.565-1.13-1.695 0-2.26 1.129-.565 2.824-.565 3.954 0z"/><path d="m242.895 409.093c1.129.565 1.129 1.695 0 2.26-1.13.565-2.825.565-3.954 0-1.13-.565-1.13-1.695 0-2.26 1.129-.565 2.824-.565 3.954 0z"/><path d="m210.696 415.309c1.13.565 1.13 1.695 0 2.26-1.129.565-2.824.565-3.954 0-1.129-.565-1.129-1.695 0-2.26 1.13-.565 2.825-.565 3.954 0z"/><path d="m221.428 409.093c1.13.565 1.13 1.695 0 2.26-1.129.565-2.824.565-3.954 0-1.129-.565-1.129-1.695 0-2.26 1.13-.565 2.825-.565 3.954 0z"/><path d="m232.161 402.878c1.129.565 1.129 1.695 0 2.26-1.13.565-2.825.565-3.954 0-1.13-.565-1.13-1.695 0-2.26 1.129-.565 2.824-.565 3.954 0z"/><path d="m199.964 409.093c1.13.565 1.13 1.695 0 2.26s-2.824.565-3.954 0-1.13-1.695 0-2.26 2.824-.565 3.954 0z"/><path d="m210.696 402.878c1.13.565 1.13 1.695 0 2.26-1.129.565-2.824.565-3.954 0-1.129-.565-1.129-1.695 0-2.26 1.13-.565 2.825-.565 3.954 0z"/><path d="m221.428 396.662c1.13.565 1.13 1.695 0 2.26-1.129.566-2.824.566-3.954 0-1.129-.565-1.129-1.695 0-2.26 1.13-.565 2.825-.565 3.954 0z"/><path d="m197.704 399.488c1.56 0 2.824-.759 2.824-1.695s-1.264-1.695-2.824-1.695-2.825.759-2.825 1.695 1.265 1.695 2.825 1.695z"/><path d="m210.696 390.446c1.13.566 1.13 1.696 0 2.261-1.129.565-2.824.565-3.954 0-1.129-.565-1.129-1.695 0-2.261 1.13-.565 2.825-.565 3.954 0z"/><path d="m199.964 384.232c1.129.565 1.129 1.695 0 2.26-1.13.565-2.825.565-3.955 0-1.129-.565 2.825-2.826 3.955-2.26z"/><path d="m92.6393 396.662c1.1297.565 1.1297 1.695 0 2.26-1.1298.566-2.8244.566-3.9541 0-1.1297-.565-1.1297-1.695 0-2.26s2.8243-.565 3.9541 0z"/><path d="m103.371 390.446c1.13.566 1.13 1.696 0 2.261s-2.824.565-3.9539 0c-1.1297-.565-1.1297-1.695 0-2.261 1.1299-.565 2.8239-.565 3.9539 0z"/><path d="m114.104 384.232c1.129.565 1.129 1.695 0 2.26-1.13.565-2.825.565-3.954 0-1.13-.565-1.13-1.695 0-2.26 1.129-.565 2.824-.565 3.954 0z"/><path d="m124.836 378.016c1.129.565 1.129 1.695 0 2.26-1.13.565-2.825.565-3.955 0-1.129-.565-1.129-1.695 0-2.26 1.13-.565 2.825-.565 3.955 0z"/><path d="m135.57 371.801c1.13.565 1.13 1.695 0 2.26s-2.824.565-3.954 0-1.13-1.695 0-2.26 2.824-.565 3.954 0z"/><path d="m146.302 365.585c1.13.565 1.13 1.695 0 2.26s-2.824.565-3.954 0-1.13-1.695 0-2.26 2.824-.565 3.954 0z"/><path d="m157.034 359.934c1.13.566 1.13 1.696 0 2.261s-2.825.565-3.954 0c-1.13-.565-1.13-1.695 0-2.261 1.129-1.13 2.824-1.13 3.954 0z"/><path d="m71.173 396.662c1.1297.565 1.1297 1.695 0 2.26-1.1298.566-2.8244.566-3.9541 0-1.1298-.565-1.1298-1.695 0-2.26 1.1297-.565 2.8243-.565 3.9541 0z"/><path d="m81.9073 390.446c1.1298.566 1.1298 1.696 0 2.261-1.1297.565-2.8243.565-3.954 0-1.1298-.565-1.1298-1.695 0-2.261 1.1297-.565 2.8243-.565 3.954 0z"/><path d="m92.6393 384.232c1.1297.565 1.1297 1.695 0 2.26-1.1298.565-2.8244.565-3.9541 0s-1.1297-1.695 0-2.26 2.8243-.565 3.9541 0z"/><path d="m103.371 378.016c1.13.565 1.13 1.695 0 2.26s-2.824.565-3.9539 0c-1.1297-.565-1.1297-1.695 0-2.26 1.1299-.565 2.8239-.565 3.9539 0z"/><path d="m114.104 371.801c1.129.565 1.129 1.695 0 2.26-1.13.565-2.825.565-3.954 0-1.13-.565-1.13-1.695 0-2.26 1.129-.565 2.824-.565 3.954 0z"/><path d="m123.142 368.975c1.56 0 2.825-.759 2.825-1.695s-1.265-1.695-2.825-1.695-2.824.759-2.824 1.695 1.264 1.695 2.824 1.695z"/><path d="m135.57 359.934c1.13.566 1.13 1.696 0 2.261s-2.824.565-3.954 0-1.13-1.695 0-2.261c1.13-1.13 2.824-1.13 3.954 0z"/><path d="m146.302 353.719c1.13.565 1.13 1.695 0 2.26s-2.824.565-3.954 0-1.13-1.695 0-2.26c1.13-1.13 2.824-1.13 3.954 0z"/><path d="m50.274 396.662c1.1298.565 1.1298 1.695 0 2.26-1.1297.566-2.8243.566-3.954 0-1.1298-.565-1.1298-1.695 0-2.26.5648-.565 2.8243-.565 3.954 0z"/><path d="m58.7477 393.272c1.5598 0 2.8243-.759 2.8243-1.695s-1.2645-1.695-2.8243-1.695c-1.5599 0-2.8244.759-2.8244 1.695s1.2645 1.695 2.8244 1.695z"/><path d="m71.173 384.232c1.1297.565 1.1297 1.695 0 2.26-1.1298.565-2.8244.565-3.9541 0-1.1298-.565-1.1298-1.695 0-2.26 1.1297-.565 2.8243-.565 3.9541 0z"/><path d="m39.5421 390.446c1.1297.566 1.1297 1.696 0 2.261s-2.8243.565-3.9541 0c-1.1297-.565-1.1297-1.695 0-2.261.5649-.565 2.8244-.565 3.9541 0z"/><path d="m50.274 384.232c1.1298.565 1.1298 1.695 0 2.26-1.1297.565-2.8243.565-3.954 0-1.1298-.565-1.1298-1.695 0-2.26.5648-.565 2.8243-.565 3.954 0z"/><path d="m28.8082 384.232c1.1297.565 1.1297 1.695 0 2.26s-2.8243.565-3.9541 0c-1.1297-.565-1.1297-1.695 0-2.26 1.1298-.565 2.8244-.565 3.9541 0z"/><path d="m38.9767 378.016c1.1297.565 1.1297 1.695 0 2.26-1.1298.565-2.8244.565-3.9541 0s-1.1297-1.695 0-2.26 2.8243-.565 3.9541 0z"/><path d="m18.0758 378.016c1.1297.565 1.1297 1.695 0 2.26s-2.8243.565-3.9541 0c-1.1297-.565-1.1297-1.695 0-2.26.5649-.565 2.8244-.565 3.9541 0z"/><path d="m28.8082 371.801c1.1297.565 1.1297 1.695 0 2.26s-2.8243.565-3.9541 0c-1.1297-.565-1.1297-1.695 0-2.26.5649-.565 2.8244-.565 3.9541 0z"/><path d="m7.34386 371.801c1.12973.565 1.12973 1.695 0 2.26-1.12974.565-2.82434.565-3.95408 0-1.12973-.565-1.12973-1.695 0-2.26.56487-.565 2.82434-.565 3.95408 0z"/><path d="m18.0758 365.585c1.1297.565 1.1297 1.695 0 2.26s-2.8243.565-3.9541 0c-1.1297-.565-1.1297-1.695 0-2.26.5649-.565 2.8244-.565 3.9541 0z"/><path d="m7.34386 359.369c1.12973.565 1.12973 1.695 0 2.26-1.12974.565-2.82434.565-3.95408 0-1.12973-.565-1.12973-1.695 0-2.26.56487-.565 2.82434-.565 3.95408 0z"/><path d="m24.2889 347.504c1.1298-.565 2.8244-.565 3.9541 0 1.1298.565 1.1298 1.695 0 2.26-.5648.565-5.0838-1.695-3.9541-2.26z"/><path d="m38.9767 341.288c1.1297.565 1.1297 1.695 0 2.26-1.1298.565-2.8244.565-3.9541 0s-1.1297-1.695 0-2.26c1.1297-1.13 2.8243-1.13 3.9541 0z"/><path d="m49.7091 335.072c1.1297.565 1.1297 1.695 0 2.26s-2.8243.565-3.9541 0c-1.1297-.565-1.1297-1.695 0-2.26 1.1298-1.13 2.8244-1.13 3.9541 0z"/><path d="m60.441 328.857c1.1298.565 1.1298 1.695 0 2.26-1.1297.565-2.8243.565-3.954 0-1.1298-.565-1.1298-1.695 0-2.26 1.1297-.565 2.8243-.565 3.954 0z"/><path d="m71.173 322.641c1.1297.565 1.1297 1.695 0 2.26-1.1298.565-2.8244.565-3.9541 0-1.1298-.565-1.1298-1.695 0-2.26 1.1297-.565 2.8243-.565 3.9541 0z"/><path d="m81.9073 316.426c1.1298.565 1.1298 1.695 0 2.26-1.1297.565-2.8243.565-3.954 0-1.1298-.565-1.1298-1.695 0-2.26 1.1297-.565 2.8243-.565 3.954 0z"/><path d="m264.359 411.353c-1.13.565-2.825.565-3.955 0-1.129-.565-1.129-1.695 0-2.26 1.13-.565 2.825-.565 3.955 0 1.129.565 1.129 1.695 0 2.26-1.13 1.13 1.129-.565 0 0z"/><path d="m275.091 402.878c1.13.565 1.13 1.695 0 2.26s-2.824.565-3.954 0-1.13-1.695 0-2.26 2.824-.565 3.954 0z"/><path d="m285.823 396.662c1.13.565 1.13 1.695 0 2.26-1.13.566-2.824.566-3.954 0-1.13-.565-1.13-1.695 0-2.26s2.824-.565 3.954 0z"/><path d="m296.557 390.446c1.13.566 1.13 1.696 0 2.261-1.129.565-2.824.565-3.954 0s-1.13-1.695 0-2.261c.565-.565 2.825-.565 3.954 0z"/><path d="m307.289 384.796c1.13.565 1.13 1.695 0 2.26s-2.824.565-3.954 0-1.13-1.695 0-2.26c.565-1.13 2.824-1.13 3.954 0z"/><path d="m318.021 378.581c1.13.565 1.13 1.695 0 2.26s-2.824.565-3.954 0-1.13-1.695 0-2.26c.565-1.13 2.824-1.13 3.954 0z"/><path d="m328.754 372.365c1.129.565 1.129 1.696 0 2.261-1.13.565-2.825.565-3.955 0-1.129-.565-1.129-1.696 0-2.261.565-1.13 2.825-1.13 3.955 0z"/><path d="m339.485 366.15c1.13.565 1.13 1.695 0 2.261-1.129.565-2.824.565-3.954 0-1.129-.566-1.129-1.696 0-2.261.565-.565 2.825-.565 3.954 0z"/><path d="m349.654 359.934c1.13.565 1.13 1.695 0 2.26s-2.824.565-3.954 0-1.13-1.695 0-2.26 2.824-.565 3.954 0z"/><path d="m360.386 353.718c1.13.566 1.13 1.696 0 2.261-1.129.565-2.824.565-3.954 0-1.129-.565-1.129-1.695 0-2.261 1.13-.565 2.825-.565 3.954 0z"/><path d="m249.672 402.878c1.13-.565 2.825-.565 3.955 0 1.129.565 1.129 1.695 0 2.26-1.13.565-2.825.565-3.955 0-1.129-.565-1.129-1.13 0-2.26z"/><path d="m264.359 396.662c1.129.565 1.129 1.695 0 2.26-1.13.566-2.825.566-3.955 0-1.129-.565-1.129-1.695 0-2.26 1.13-.565 2.825-.565 3.955 0z"/><path d="m275.091 390.446c1.13.566 1.13 1.696 0 2.261s-2.824.565-3.954 0-1.13-1.695 0-2.261c1.13-.565 2.824-.565 3.954 0z"/><path d="m285.823 384.796c1.13.565 1.13 1.695 0 2.26s-2.824.565-3.954 0-1.13-1.695 0-2.26c1.13-1.13 2.824-1.13 3.954 0z"/><path d="m296.557 378.581c1.13.565 1.13 1.695 0 2.26-1.129.565-2.824.565-3.954 0s-1.13-1.695 0-2.26c.565-1.13 2.825-1.13 3.954 0z"/><path d="m307.289 372.365c1.13.565 1.13 1.696 0 2.261s-2.824.565-3.954 0-1.13-1.696 0-2.261c.565-1.13 2.824-1.13 3.954 0z"/><path d="m318.021 366.15c1.13.565 1.13 1.695 0 2.261-1.13.565-2.824.565-3.954 0-1.13-.566-1.13-1.696 0-2.261.565-.565 2.824-.565 3.954 0z"/><path d="m326.495 362.76c1.56 0 2.824-.759 2.824-1.695s-1.264-1.695-2.824-1.695-2.825.759-2.825 1.695 1.265 1.695 2.825 1.695z"/><path d="m339.485 353.718c1.13.566 1.13 1.696 0 2.261-1.129.565-2.824.565-3.954 0-1.129-.565-1.129-1.695 0-2.261.565-.565 2.825-.565 3.954 0z"/><path d="m349.654 347.504c1.13.565 1.13 1.695 0 2.26s-2.824.565-3.954 0-1.13-1.695 0-2.26 2.824-.565 3.954 0z"/><path d="m238.941 396.662c1.129-.565 2.824-.565 3.954 0 1.129.565 1.129 1.695 0 2.26-1.13.566-2.825.566-3.954 0-1.13-.565-1.13-1.13 0-2.26z"/><path d="m253.627 390.446c1.129.566 1.129 1.696 0 2.261-1.13.565-2.825.565-3.955 0-1.129-.565-1.129-1.695 0-2.261 1.13-.565 2.825-.565 3.955 0z"/><path d="m264.359 384.796c1.129.565 1.129 1.695 0 2.26-1.13.565-2.825.565-3.955 0-1.129-.565-1.129-1.695 0-2.26 1.13-1.13 2.825-1.13 3.955 0z"/><path d="m275.091 378.581c1.13.565 1.13 1.695 0 2.26s-2.824.565-3.954 0-1.13-1.695 0-2.26c1.13-1.13 2.824-1.13 3.954 0z"/><path d="m285.823 372.365c1.13.565 1.13 1.696 0 2.261s-2.824.565-3.954 0-1.13-1.696 0-2.261c1.13-1.13 2.824-1.13 3.954 0z"/><path d="m292.038 366.15c1.129-.565 2.824-.565 3.954 0s1.13 1.695 0 2.261c-1.13.565-2.825.565-3.954 0-1.13-.566-1.13-1.696 0-2.261 1.129-.565-1.13.565 0 0z"/><path d="m307.289 359.934c1.13.565 1.13 1.695 0 2.26s-2.824.565-3.954 0-1.13-1.695 0-2.26c.565-.565 2.824-.565 3.954 0z"/><path d="m318.021 353.718c1.13.566 1.13 1.696 0 2.261s-2.824.565-3.954 0-1.13-1.695 0-2.261c.565-.565 2.824-.565 3.954 0z"/><path d="m328.754 347.504c1.129.565 1.129 1.695 0 2.26-1.13.565-2.825.565-3.955 0-1.129-.565-1.129-1.695 0-2.26.565-.565 2.825-.565 3.955 0z"/><path d="m228.207 390.446c1.129-.565 2.824-.565 3.954 0 1.129.566 1.129 1.696 0 2.261-1.13.565-2.825.565-3.954 0-1.13 0-1.13-1.13 0-2.261z"/><path d="m221.428 387.056c-1.129.565-2.824.565-3.954 0-1.129-.565-1.129-1.695 0-2.26 1.13-.565 5.084 1.695 3.954 2.26z"/><path d="m221.428 372.365c1.13.565 1.13 1.696 0 2.261-1.129.565-2.824.565-3.954 0-1.129-.565-1.129-1.696 0-2.261 1.13-1.13 2.825-1.13 3.954 0z"/><path d="m232.161 366.149c1.129.565 1.129 1.695 0 2.26-1.13.566-2.825.566-3.954 0-1.13-.565-1.13-1.695 0-2.26 1.129-1.13 2.824-1.13 3.954 0z"/><path d="m242.895 359.934c1.129.566 1.129 1.696 0 2.261-1.13.565-2.825.565-3.954 0-1.13-.565-1.13-1.695 0-2.261 1.129-1.13 2.824-1.13 3.954 0z"/><path d="m253.627 353.718c1.129.566 1.129 1.696 0 2.261-1.13.565-2.825.565-3.955 0-1.129-.565-1.129-1.695 0-2.261.565-.565 2.825-.565 3.955 0z"/><path d="m262.1 350.328c1.56 0 2.825-.759 2.825-1.695s-1.265-1.695-2.825-1.695-2.824.759-2.824 1.695 1.264 1.695 2.824 1.695z"/><path d="m275.091 341.288c1.13.565 1.13 1.695 0 2.26s-2.824.565-3.954 0-1.13-1.695 0-2.26c.565-.565 2.824-.565 3.954 0z"/><path d="m285.823 335.073c1.13.565 1.13 1.695 0 2.26s-2.824.565-3.954 0-1.13-1.695 0-2.26c.565-.565 2.824-.565 3.954 0z"/><path d="m296.557 328.857c1.13.565 1.13 1.695 0 2.26-1.129.565-2.824.565-3.954 0s-1.13-1.695 0-2.26c.565-.565 2.825-.565 3.954 0z"/><path d="m210.696 366.149c1.13.565 1.13 1.695 0 2.26-1.129.566-2.824.566-3.954 0-1.129-.565-1.129-1.695 0-2.26 1.13-1.13 2.825-1.13 3.954 0z"/><path d="m221.428 359.934c1.13.566 1.13 1.696 0 2.261-1.129.565-2.824.565-3.954 0-1.129-.565-1.129-1.695 0-2.261 1.13-1.13 2.825-1.13 3.954 0z"/><path d="m232.161 353.718c1.129.566 1.129 1.696 0 2.261-1.13.565-2.825.565-3.954 0-1.13-.565-1.13-1.695 0-2.261 1.129-.565 2.824-.565 3.954 0z"/><path d="m242.895 347.504c1.129.565 1.129 1.695 0 2.26-1.13.565-2.825.565-3.954 0-1.13-.565-1.13-1.695 0-2.26 1.129-.565 2.824-.565 3.954 0z"/><path d="m253.627 341.288c1.129.565 1.129 1.695 0 2.26-1.13.565-2.825.565-3.955 0-1.129-.565-1.129-1.695 0-2.26.565-.565 2.825-.565 3.955 0z"/><path d="m264.359 335.073c1.129.565 1.129 1.695 0 2.26-1.13.565-2.825.565-3.955 0-1.129-.565-1.129-1.695 0-2.26.565-.565 2.825-.565 3.955 0z"/><path d="m275.091 328.857c1.13.565 1.13 1.695 0 2.26s-2.824.565-3.954 0-1.13-1.695 0-2.26c.565-.565 2.824-.565 3.954 0z"/><path d="m285.823 322.641c1.13.565 1.13 1.695 0 2.26s-2.824.565-3.954 0-1.13-1.695 0-2.26c.565-.565 2.824-.565 3.954 0z"/><path d="m296.557 316.426c1.13.565 1.13 1.695 0 2.26-1.129.565-2.824.565-3.954 0s-1.13-1.695 0-2.26c.565-.565 2.825-.565 3.954 0z"/><path d="m196.01 359.934c1.13-.565 2.824-.565 3.954 0s1.13 1.695 0 2.26-2.824.565-3.954 0-1.13-1.695 0-2.26z"/><path d="m210.696 353.718c1.13.566 1.13 1.696 0 2.261-1.129.565-2.824.565-3.954 0-1.129-.565-1.129-1.695 0-2.261 1.13-.565 2.825-.565 3.954 0z"/><path d="m217.474 347.504c1.13-.565 2.825-.565 3.954 0 1.13.565 1.13 1.695 0 2.26-1.129.565-2.824.565-3.954 0-1.129-.565-1.129-1.695 0-2.26 1.13-.565-1.129.565 0 0z"/><path d="m232.162 341.288c1.129.565 1.129 1.695 0 2.26-1.13.565-2.825.565-3.954 0-1.13-.565 2.824-2.825 3.954-2.26z"/><path d="m242.894 335.073c1.129.565 1.129 1.695 0 2.26-1.13.565-2.825.565-3.954 0-1.13-.565 2.824-2.825 3.954-2.26z"/><path d="m270.571 318.686c-1.129-.565-1.129-1.695 0-2.26 1.13-.565 2.825-.565 3.954 0 1.695.565-2.824 2.825-3.954 2.26z"/><path d="m264.359 310.21c1.129.565 1.129 1.695 0 2.26-1.13.565-2.825.565-3.955 0-1.129-.565-1.129-1.695 0-2.26.565-.565 2.825-.565 3.955 0z"/><path d="m275.091 303.995c1.13.565 1.13 1.695 0 2.26s-2.824.565-3.954 0-1.13-1.695 0-2.26c.565-.565 2.824-.565 3.954 0z"/><path d="m163.812 353.718c1.129-.565 2.824-.565 3.954 0 1.129.566 1.129 1.696 0 2.261-1.13.565-2.825.565-3.954 0-1.13-.565-1.13-1.695 0-2.261z"/><path d="m178.498 347.504c1.13.565 1.13 1.695 0 2.26s-2.824.565-3.954 0-1.13-1.695 0-2.26 2.824-.565 3.954 0z"/><path d="m189.232 341.288c1.13.565 1.13 1.695 0 2.26s-2.824.565-3.954 0-1.13-1.695 0-2.26 2.824-.565 3.954 0z"/><path d="m199.964 335.073c1.13.565 1.13 1.695 0 2.26s-2.824.565-3.954 0-1.13-1.695 0-2.26 2.824-.565 3.954 0z"/><path d="m210.696 328.857c1.13.565 1.13 1.695 0 2.26-1.129.565-2.824.565-3.954 0-1.129-.565-1.129-1.695 0-2.26 1.13-.565 2.825-.565 3.954 0z"/><path d="m221.428 322.641c1.13.565 1.13 1.695 0 2.26-1.129.565-2.824.565-3.954 0-1.129-.565-1.129-1.695 0-2.26 1.13-.565 2.825-.565 3.954 0z"/><path d="m232.161 316.426c1.129.565 1.129 1.695 0 2.26-1.13.565-2.825.565-3.954 0-1.13-.565-1.13-1.695 0-2.26 1.129-.565 2.824-.565 3.954 0z"/><path d="m242.895 310.21c1.129.565 1.129 1.695 0 2.26-1.13.565-2.825.565-3.954 0-1.13-.565-1.13-1.695 0-2.26 1.129-.565 2.824-.565 3.954 0z"/><path d="m253.627 303.995c1.129.565 1.129 1.695 0 2.26-1.13.565-2.825.565-3.955 0-1.129-.565-1.129-1.695 0-2.26.565-.565 2.825-.565 3.955 0z"/><path d="m264.359 297.779c1.129.565 1.129 1.695 0 2.26-1.13.565-2.825.565-3.955 0-1.129-.565-1.129-1.695 0-2.26.565-.565 2.825-.565 3.955 0z"/><path d="m153.08 347.504c1.129-.565 2.824-.565 3.954 0s1.13 1.695 0 2.26-2.825.565-3.954 0c-1.13-.565-1.13-1.695 0-2.26z"/><path d="m167.766 341.288c1.129.565 1.129 1.695 0 2.26-1.13.565-2.825.565-3.954 0-1.13-.565-1.13-1.695 0-2.26 1.129-.565 2.824-.565 3.954 0z"/><path d="m178.498 335.073c1.13.565 1.13 1.695 0 2.26s-2.824.565-3.954 0-1.13-1.695 0-2.26 2.824-.565 3.954 0z"/><path d="m189.232 328.857c1.13.565 1.13 1.695 0 2.26s-2.824.565-3.954 0-1.13-1.695 0-2.26 2.824-.565 3.954 0z"/><path d="m199.964 322.641c1.13.565 1.13 1.695 0 2.26s-2.824.565-3.954 0-1.13-1.695 0-2.26 2.824-.565 3.954 0z"/><path d="m210.696 316.426c1.13.565 1.13 1.695 0 2.26-1.129.565-2.824.565-3.954 0-1.129-.565-1.129-1.695 0-2.26 1.13-.565 2.825-.565 3.954 0z"/><path d="m221.428 310.21c1.13.565 1.13 1.695 0 2.26-1.129.565-2.824.565-3.954 0-1.129-.565-1.129-1.695 0-2.26 1.13-.565 2.825-.565 3.954 0z"/><path d="m232.161 303.995c1.129.565 1.129 1.695 0 2.26-1.13.565-2.825.565-3.954 0-1.13-.565-1.13-1.695 0-2.26 1.129-.565 2.824-.565 3.954 0z"/><path d="m242.895 297.779c1.129.565 1.129 1.695 0 2.26-1.13.565-2.825.565-3.954 0-1.13-.565-1.13-1.695 0-2.26 1.129-.565 2.824-.565 3.954 0z"/><path d="m253.627 291.563c1.129.565 1.129 1.696 0 2.261-1.13.565-2.825.565-3.955 0-1.129-.565-1.129-1.696 0-2.261.565-.565 2.825-.565 3.955 0z"/><path d="m253.627 279.133c1.129.565 1.129 1.695 0 2.26-1.13.565-2.825.565-3.955 0-1.129-.565-1.129-1.695 0-2.26.565-.566 2.825-.566 3.955 0z"/><path d="m264.359 272.918c1.129.565 1.129 1.695 0 2.26-1.13.565-2.825.565-3.955 0-1.129-.565-1.129-1.695 0-2.26.565-.565 2.825-.565 3.955 0z"/><path d="m275.091 267.266c1.13.565 1.13 1.695 0 2.26-1.13.566-2.824.566-3.954 0-1.13-.565-1.13-1.695 0-2.26.565-1.13 2.824-1.13 3.954 0z"/><path d="m285.823 261.051c1.13.565 1.13 1.696 0 2.261s-2.824.565-3.954 0-1.13-1.696 0-2.261c.565-1.13 2.824-1.13 3.954 0z"/><path d="m296.557 254.836c1.13.565 1.13 1.695 0 2.26-1.129.565-2.824.565-3.954 0s-1.13-1.695 0-2.26c.565-1.13 2.825-1.13 3.954 0z"/><path d="m307.289 248.621c1.13.565 1.13 1.695 0 2.26s-2.824.565-3.954 0-1.13-1.695 0-2.26c.565-.565 2.26-.565 3.954 0z"/><path d="m317.456 242.404c1.129.566 1.129 1.696 0 2.261-1.13.565-2.825.565-3.954 0-1.13-.565-1.13-1.695 0-2.261 1.129-.565 2.824-.565 3.954 0z"/><path d="m206.742 293.824c-1.129-.565-1.129-1.696 0-2.261 1.13-.565 2.825-.565 3.954 0 1.13.565 1.13 1.696 0 2.261-1.129 1.13-2.824 1.13-3.954 0z"/><path d="m221.428 285.349c1.13.565 1.13 1.695 0 2.26-1.129.565-2.824.565-3.954 0-1.129-.565-1.129-1.695 0-2.26 1.13-.565 2.825-.565 3.954 0z"/><path d="m232.161 279.133c1.129.565 1.129 1.695 0 2.26-1.13.565-2.825.565-3.954 0-1.13-.565-1.13-1.695 0-2.26 1.129-.566 2.824-.566 3.954 0z"/><path d="m242.895 272.918c1.129.565 1.129 1.695 0 2.26-1.13.565-2.825.565-3.954 0-1.13-.565-1.13-1.695 0-2.26 1.129-.565 2.824-.565 3.954 0z"/><path d="m253.627 267.266c1.129.565 1.129 1.695 0 2.26-1.13.566-2.825.566-3.955 0-1.129-.565-1.129-1.695 0-2.26.565-1.13 2.825-1.13 3.955 0z"/><path d="m264.359 261.051c1.129.565 1.129 1.696 0 2.261-1.13.565-2.825.565-3.955 0-1.129-.565-1.129-1.696 0-2.261.565-1.13 2.825-1.13 3.955 0z"/><path d="m275.091 254.836c1.13.565 1.13 1.695 0 2.26s-2.824.565-3.954 0-1.13-1.695 0-2.26c.565-1.13 2.824-1.13 3.954 0z"/><path d="m285.823 248.621c1.13.565 1.13 1.695 0 2.26s-2.824.565-3.954 0-1.13-1.695 0-2.26c.565-.565 2.824-.565 3.954 0z"/><path d="m296.557 242.404c1.13.566 1.13 1.696 0 2.261-1.129.565-2.824.565-3.954 0s-1.13-1.695 0-2.261c.565-.565 2.825-.565 3.954 0z"/><path d="m307.289 236.19c1.13.565 1.13 1.695 0 2.26s-2.824.565-3.954 0-1.13-1.695 0-2.26c.565-.565 2.26-.565 3.954 0z"/><path d="m199.964 285.349c1.13.565 1.13 1.695 0 2.26s-2.824.565-3.954 0-1.13-1.695 0-2.26 2.824-.565 3.954 0z"/><path d="m210.696 279.133c1.13.565 1.13 1.695 0 2.26-1.129.565-2.824.565-3.954 0-1.129-.565-1.129-1.695 0-2.26 1.13-.566 2.825-.566 3.954 0z"/><path d="m221.428 272.918c1.13.565 1.13 1.695 0 2.26-1.129.565-2.824.565-3.954 0-1.129-.565-1.129-1.695 0-2.26.565-.565 2.825-.565 3.954 0z"/><path d="m232.161 266.702c1.129.565 1.129 1.695 0 2.26-1.13.565-2.825.565-3.954 0-1.13-.565-1.13-1.695 0-2.26.565-.565 2.824-.565 3.954 0z"/><path d="m240.634 263.877c1.56 0 2.824-.759 2.824-1.695s-1.264-1.695-2.824-1.695-2.824.759-2.824 1.695 1.264 1.695 2.824 1.695z"/><path d="m253.627 254.836c1.129.565 1.129 1.695 0 2.26-1.13.565-2.825.565-3.955 0-1.129-.565-1.129-1.695 0-2.26.565-1.13 2.825-1.13 3.955 0z"/><path d="m264.359 248.621c1.129.565 1.129 1.695 0 2.26-1.13.565-2.825.565-3.955 0-1.129-.565-1.129-1.695 0-2.26.565-1.131 2.825-1.131 3.955 0z"/><path d="m274.525 242.405c1.13.565 1.13 1.695 0 2.26-1.129.565-2.824.565-3.954 0-1.129-.565-1.129-1.695 0-2.26 1.13-1.13 2.825-1.13 3.954 0z"/><path d="m283.565 239.014c1.559 0 2.824-.759 2.824-1.695s-1.265-1.695-2.824-1.695c-1.56 0-2.825.759-2.825 1.695s1.265 1.695 2.825 1.695z"/><path d="m295.992 229.974c1.13.565 1.13 1.695 0 2.26s-2.825.565-3.954 0c-1.13-.565-1.13-1.695 0-2.26 1.129-.565 2.824-.565 3.954 0z"/><path d="m189.232 279.133c1.13.565 1.13 1.695 0 2.26s-2.824.565-3.954 0-1.13-1.695 0-2.26c1.13-.566 2.824-.566 3.954 0z"/><path d="m199.964 272.918c1.13.565 1.13 1.695 0 2.26s-2.824.565-3.954 0-1.13-1.695 0-2.26 2.824-.565 3.954 0z"/><path d="m208.438 270.092c1.559 0 2.824-.759 2.824-1.695s-1.265-1.695-2.824-1.695c-1.56 0-2.825.759-2.825 1.695s1.265 1.695 2.825 1.695z"/><path d="m221.428 260.486c1.13.565 1.13 1.695 0 2.26-1.129.565-2.824.565-3.954 0-1.129-.565-1.129-1.695 0-2.26.565-.565 2.825-.565 3.954 0z"/><path d="m232.161 254.836c1.129.565 1.129 1.695 0 2.26-1.13.565-2.825.565-3.954 0-1.13-.565-1.13-1.695 0-2.26.565-1.13 2.824-1.13 3.954 0z"/><path d="m240.634 251.445c1.56 0 2.824-.759 2.824-1.695s-1.264-1.695-2.824-1.695-2.824.759-2.824 1.695 1.264 1.695 2.824 1.695z"/><path d="m253.627 242.405c1.129.565 1.129 1.695 0 2.26-1.13.565-2.825.565-3.955 0-1.129-.565-1.129-1.695 0-2.26.565-1.13 2.825-1.13 3.955 0z"/><path d="m264.359 236.19c1.129.565 1.129 1.695 0 2.26-1.13.565-2.825.565-3.955 0-1.129-.565-1.129-1.695 0-2.26.565-.565 2.825-.565 3.955 0z"/><path d="m274.525 229.974c1.13.565 1.13 1.695 0 2.26-1.129.565-2.824.565-3.954 0-1.129-.565-1.129-1.695 0-2.26 1.13-.565 2.825-.565 3.954 0z"/><path d="m285.26 223.758c1.13.565 1.13 1.695 0 2.26s-2.824.565-3.954 0-1.13-1.695 0-2.26 2.824-.565 3.954 0z"/><path d="m178.498 272.918c1.13.565 1.13 1.695 0 2.26s-2.824.565-3.954 0-1.13-1.695 0-2.26 2.824-.565 3.954 0z"/><path d="m189.232 266.702c1.13.565 1.13 1.695 0 2.26s-2.824.565-3.954 0-1.13-1.695 0-2.26 2.824-.565 3.954 0z"/><path d="m199.964 260.486c1.13.565 1.13 1.695 0 2.26s-2.824.565-3.954 0-1.13-1.695 0-2.26 2.824-.565 3.954 0z"/><path d="m210.696 254.836c1.13.565 1.13 1.695 0 2.26-1.129.565-2.824.565-3.954 0-1.129-.565-1.129-1.695 0-2.26 1.13-1.13 2.825-1.13 3.954 0z"/><path d="m221.428 248.621c1.13.565 1.13 1.695 0 2.26-1.129.565-2.824.565-3.954 0-1.129-.565-1.129-1.695 0-2.26.565-1.131 2.825-1.131 3.954 0z"/><path d="m232.161 242.405c1.129.565 1.129 1.695 0 2.26-1.13.565-2.825.565-3.954 0-1.13-.565-1.13-1.695 0-2.26.565-1.13 2.824-1.13 3.954 0z"/><path d="m242.895 236.19c1.129.565 1.129 1.695 0 2.26-1.13.565-2.825.565-3.954 0-1.13-.565-1.13-1.695 0-2.26.564-.565 2.824-.565 3.954 0z"/><path d="m253.627 229.974c1.129.565 1.129 1.695 0 2.26-1.13.565-2.825.565-3.955 0-1.129-.565-1.129-1.695 0-2.26.565-.565 2.825-.565 3.955 0z"/><path d="m264.359 223.758c1.129.565 1.129 1.695 0 2.26-1.13.565-2.825.565-3.955 0-1.129-.565-1.129-1.695 0-2.26.565-.565 2.825-.565 3.955 0z"/><path d="m88.6852 310.21c1.1297-.565 2.8243-.565 3.9541 0 1.1297.565 1.1297 1.695 0 2.26-1.1298.565-2.8244.565-3.9541 0s-1.1297-1.695 0-2.26z"/><path d="m103.371 303.995c1.13.565 1.13 1.695 0 2.26s-2.824.565-3.9539 0c-1.1297-.565-1.1297-1.695 0-2.26 1.1299-.565 2.8239-.565 3.9539 0z"/><path d="m114.104 297.779c1.129.565 1.129 1.695 0 2.26-1.13.565-2.825.565-3.954 0-1.13-.565-1.13-1.695 0-2.26 1.129-.565 2.824-.565 3.954 0z"/><path d="m124.836 291.563c1.129.565 1.129 1.696 0 2.261-1.13.565-2.825.565-3.955 0-1.129-.565-1.129-1.696 0-2.261 1.13-.565 2.825-.565 3.955 0z"/><path d="m133.309 288.173c1.56 0 2.825-.759 2.825-1.695s-1.265-1.695-2.825-1.695-2.824.759-2.824 1.695 1.264 1.695 2.824 1.695z"/><path d="m146.302 279.133c1.13.565 1.13 1.695 0 2.26s-2.824.565-3.954 0-1.13-1.695 0-2.26c1.13-.566 2.824-.566 3.954 0z"/><path d="m157.034 272.918c1.13.565 1.13 1.695 0 2.26s-2.825.565-3.954 0c-1.13-.565-1.13-1.695 0-2.26 1.129-.565 2.824-.565 3.954 0z"/><path d="m167.766 266.702c1.129.565 1.129 1.695 0 2.26-1.13.565-2.825.565-3.954 0-1.13-.565-1.13-1.695 0-2.26 1.129-.565 2.824-.565 3.954 0z"/><path d="m178.498 260.486c1.13.565 1.13 1.695 0 2.26s-2.824.565-3.954 0-1.13-1.695 0-2.26 2.824-.565 3.954 0z"/><path d="m189.232 254.836c1.13.565 1.13 1.695 0 2.26s-2.824.565-3.954 0-1.13-1.695 0-2.26c1.13-1.13 2.824-1.13 3.954 0z"/><path d="m199.964 248.621c1.13.565 1.13 1.695 0 2.26s-2.824.565-3.954 0-1.13-1.695 0-2.26c1.13-1.131 2.824-1.131 3.954 0z"/><path d="m210.696 242.405c1.13.565 1.13 1.695 0 2.26-1.129.565-2.824.565-3.954 0-1.129-.565-1.129-1.695 0-2.26 1.13-1.13 2.825-1.13 3.954 0z"/><path d="m221.428 236.19c1.13.565 1.13 1.695 0 2.26-1.129.565-2.824.565-3.954 0-1.129-.565-1.129-1.695 0-2.26.565-.565 2.825-.565 3.954 0z"/><path d="m232.161 229.974c1.129.565 1.129 1.695 0 2.26-1.13.565-2.825.565-3.954 0-1.13-.565-1.13-1.695 0-2.26.565-.565 2.824-.565 3.954 0z"/><path d="m446.81 426.61c1.13.565 1.13 1.695 0 2.26-1.129.565-2.824.565-3.954 0-1.129-.565-1.129-1.695 0-2.26 1.13-.565 2.825-.565 3.954 0z"/><path d="m457.544 420.96c1.13.565 1.13 1.695 0 2.26-1.129.565-2.824.565-3.954 0s-1.13-1.695 0-2.26c1.13-1.13 2.825-1.13 3.954 0z"/><path d="m468.277 414.744c1.129.565 1.129 1.695 0 2.26-1.13.565-2.825.565-3.955 0-1.129-.565-1.129-1.695 0-2.26 1.13-1.13 2.825-1.13 3.955 0z"/><path d="m479.008 408.529c1.13.565 1.13 1.695 0 2.26-1.129.565-2.824.565-3.954 0-1.129-.565-1.129-1.695 0-2.26 1.13-.565 2.825-.565 3.954 0z"/><path d="m425.346 426.61c1.13.565 1.13 1.695 0 2.26-1.129.565-2.824.565-3.954 0s-1.13-1.695 0-2.26 2.825-.565 3.954 0z"/><path d="m436.078 420.96c1.13.565 1.13 1.695 0 2.26-1.129.565-2.824.565-3.954 0s-1.13-1.695 0-2.26c1.13-1.13 2.825-1.13 3.954 0z"/><path d="m446.81 414.744c1.13.565 1.13 1.695 0 2.26-1.129.565-2.824.565-3.954 0-1.129-.565-1.129-1.695 0-2.26 1.13-1.13 2.825-1.13 3.954 0z"/><path d="m457.544 408.529c1.13.565 1.13 1.695 0 2.26-1.129.565-2.824.565-3.954 0s-1.13-1.695 0-2.26 2.825-.565 3.954 0z"/><path d="m468.277 402.313c1.129.565 1.129 1.695 0 2.26-1.13.565-2.825.565-3.955 0-1.129-.565-1.129-1.695 0-2.26 1.13-.565 2.825-.565 3.955 0z"/><path d="m479.008 396.097c1.13.565 1.13 1.695 0 2.26-1.129.565-2.824.565-3.954 0-1.129-.565-1.129-1.695 0-2.26 1.13-.565 2.825-.565 3.954 0z"/><path d="m403.882 426.61c1.13.565 1.13 1.695 0 2.26s-2.824.565-3.954 0-1.13-1.695 0-2.26 2.824-.565 3.954 0z"/><path d="m414.614 420.96c1.13.565 1.13 1.695 0 2.26s-2.824.565-3.954 0-1.13-1.695 0-2.26c1.13-1.13 2.824-1.13 3.954 0z"/><path d="m425.346 414.744c1.13.565 1.13 1.695 0 2.26-1.129.565-2.824.565-3.954 0s-1.13-1.695 0-2.26c1.13-1.13 2.825-1.13 3.954 0z"/><path d="m436.078 408.529c1.13.565 1.13 1.695 0 2.26-1.129.565-2.824.565-3.954 0s-1.13-1.695 0-2.26 2.825-.565 3.954 0z"/><path d="m446.81 402.313c1.13.565 1.13 1.695 0 2.26-1.129.565-2.824.565-3.954 0-1.129-.565-1.129-1.695 0-2.26 1.13-.565 2.825-.565 3.954 0z"/><path d="m457.544 396.097c1.13.565 1.13 1.695 0 2.26-1.129.565-2.824.565-3.954 0s-1.13-1.695 0-2.26 2.825-.565 3.954 0z"/><path d="m468.277 389.882c1.129.565 1.129 1.695 0 2.26-1.13.565-2.825.565-3.955 0-1.129-.565-1.129-1.695 0-2.26 1.13-.565 2.825-.565 3.955 0z"/><path d="m393.148 420.96c1.13.565 1.13 1.695 0 2.26s-2.825.565-3.954 0c-1.13-.565-1.13-1.695 0-2.26 1.129-1.13 2.824-1.13 3.954 0z"/><path d="m403.882 414.744c1.13.565 1.13 1.695 0 2.26s-2.824.565-3.954 0-1.13-1.695 0-2.26c1.13-1.13 2.824-1.13 3.954 0z"/><path d="m414.614 408.529c1.13.565 1.13 1.695 0 2.26s-2.824.565-3.954 0-1.13-1.695 0-2.26 2.824-.565 3.954 0z"/><path d="m425.346 402.313c1.13.565 1.13 1.695 0 2.26-1.129.565-2.824.565-3.954 0s-1.13-1.695 0-2.26 2.825-.565 3.954 0z"/><path d="m382.416 414.744c1.13.565 1.13 1.695 0 2.26s-2.824.565-3.954 0-1.13-1.695 0-2.26c1.13-1.13 2.824-1.13 3.954 0z"/><path d="m393.148 408.529c1.13.565 1.13 1.695 0 2.26s-2.825.565-3.954 0c-1.13-.565-1.13-1.695 0-2.26 1.129-.565 2.824-.565 3.954 0z"/><path d="m403.882 402.313c1.13.565 1.13 1.695 0 2.26s-2.824.565-3.954 0-1.13-1.695 0-2.26 2.824-.565 3.954 0z"/><path d="m382.416 402.313c1.13.565 1.13 1.695 0 2.26s-2.824.565-3.954 0-1.13-1.695 0-2.26 2.824-.565 3.954 0z"/><path d="m391.454 398.922c1.56 0 2.825-.758 2.825-1.695 0-.936-1.265-1.695-2.825-1.695-1.559 0-2.824.759-2.824 1.695 0 .937 1.265 1.695 2.824 1.695z"/><path d="m382.416 389.882c1.13.565 1.13 1.695 0 2.26s-2.824.565-3.954 0-1.13-1.695 0-2.26 2.824-.565 3.954 0z"/><path d="m371.684 383.666c1.129.565 1.129 1.695 0 2.26-1.13.565-2.825.565-3.954 0-1.13-.565-1.13-1.695 0-2.26 1.129-.565 2.824-.565 3.954 0z"/><path d="m382.416 377.451c1.13.565 1.13 1.695 0 2.26s-2.824.565-3.954 0-1.13-1.695 0-2.26 2.824-.565 3.954 0z"/><path d="m360.952 377.451c1.13.565 1.13 1.695 0 2.26s-2.825.565-3.954 0c-1.13-.565-1.13-1.695 0-2.26 1.129-.565 2.824-.565 3.954 0z"/><path d="m371.684 371.235c1.129.565 1.129 1.695 0 2.26-1.13.566-2.825.566-3.954 0-1.13-.565-1.13-1.695 0-2.26 1.129-.565 2.824-.565 3.954 0z"/><path d="m382.416 365.019c1.13.566 1.13 1.696 0 2.261s-2.824.565-3.954 0-1.13-1.695 0-2.261c1.13-.565 2.824-.565 3.954 0z"/><path d="m350.22 371.235c1.129.565 1.129 1.695 0 2.26-1.13.566-2.825.566-3.954 0-1.13-.565-1.13-1.695 0-2.26 1.129-.565 2.824-.565 3.954 0z"/><path d="m360.952 365.019c1.13.566 1.13 1.696 0 2.261s-2.825.565-3.954 0c-1.13-.565-1.13-1.695 0-2.261 1.129-.565 2.824-.565 3.954 0z"/><path d="m371.684 358.804c1.129.565 1.129 1.696 0 2.261-1.13.565-2.825.565-3.954 0-1.13-.565-1.13-1.696 0-2.261 1.129-.565 2.824-.565 3.954 0z"/><path d="m324.234 236.19c1.13-.565 2.824-.565 3.954 0s1.13 1.695 0 2.26-2.824.565-3.954 0-1.13-1.695 0-2.26z"/><path d="m339.485 229.974c1.13.565 1.13 1.695 0 2.26-1.129.565-2.824.565-3.954 0-1.129-.565-1.129-1.695 0-2.26.565-.565 2.825-.565 3.954 0z"/><path d="m349.654 223.758c1.13.565 1.13 1.695 0 2.26s-2.824.565-3.954 0-1.13-1.695 0-2.26 2.824-.565 3.954 0z"/><path d="m313.502 229.974c1.129-.565 2.824-.565 3.954 0 1.129.565 1.129 1.695 0 2.26-1.13.565-2.825.565-3.954 0-1.13-.565-1.13-1.695 0-2.26z"/><path d="m328.754 223.758c1.129.565 1.129 1.695 0 2.26-1.13.565-2.825.565-3.955 0-1.129-.565-1.129-1.695 0-2.26.565-.565 2.825-.565 3.955 0z"/><path d="m339.485 217.543c1.13.565 1.13 1.695 0 2.26-1.129.565-2.824.565-3.954 0-1.129-.565-1.129-1.695 0-2.26.565-.565 2.825-.565 3.954 0z"/><path d="m349.654 211.327c1.13.565 1.13 1.695 0 2.26s-2.824.565-3.954 0-1.13-1.695 0-2.26 2.824-.565 3.954 0z"/><path d="m302.77 223.758c1.129-.565 2.824-.565 3.954 0s1.13 1.695 0 2.26-2.825.565-3.954 0c-1.13-.565-1.13-1.695 0-2.26z"/><path d="m317.456 217.543c1.129.565 1.129 1.695 0 2.26-1.13.565-2.825.565-3.954 0-1.13-.565-1.13-1.695 0-2.26 1.129-.565 2.824-.565 3.954 0z"/><path d="m328.188 211.327c1.13.565 1.13 1.695 0 2.26s-2.824.565-3.954 0-1.13-1.695 0-2.26 2.824-.565 3.954 0z"/><path d="m338.922 205.112c1.13.565 1.13 1.695 0 2.26s-2.824.565-3.954 0-1.13-1.695 0-2.26 2.824-.565 3.954 0z"/><path d="m292.038 217.543c1.129-.565 2.824-.565 3.954 0s1.13 1.695 0 2.26-2.825.565-3.954 0c-1.13-.565-1.13-1.695 0-2.26z"/><path d="m306.724 211.327c1.13.565 1.13 1.695 0 2.26s-2.825.565-3.954 0c-1.13-.565-1.13-1.695 0-2.26 1.129-.565 2.824-.565 3.954 0z"/><path d="m317.456 205.112c1.129.565 1.129 1.695 0 2.26-1.13.565-2.825.565-3.954 0-1.13-.565-1.13-1.695 0-2.26 1.129-.565 2.824-.565 3.954 0z"/><path d="m328.188 198.896c1.13.565 1.13 1.695 0 2.26s-2.824.565-3.954 0-1.13-1.695 0-2.26 2.824-.565 3.954 0z"/></g><path d="m369.424 352.024c-15.817-9.041-40.106-9.041-55.357 0l-59.876 34.468c-12.428 7.345-33.328 7.345-45.19 0-5.084-2.825-7.908-6.781-7.908-10.171s2.824-7.346 7.908-10.171l68.914-39.553c8.473-5.085 12.992-11.301 12.992-19.212 0-7.345-4.519-14.126-12.992-18.646l-1.695-1.13c-15.816-9.041-40.105-9.041-55.357 0l-133.3085 76.846c-12.4271 7.346-33.3272 7.346-45.1894 0l-24.2893-14.126c-5.0838-2.825-7.9082-6.781-7.9082-10.171s2.8244-7.346 7.9082-10.171l208.4362-119.79c7.908 3.391 19.206 2.826 25.984-1.13 7.908-4.52 7.908-11.866 0-16.386s-20.335-4.52-28.243 0c-5.084 2.825-6.779 6.781-5.649 10.171l-205.612 118.094c-8.47306 5.086-12.992 11.301-12.992 19.212 0 7.346 4.51894 14.126 12.992 19.212l24.2893 13.561c15.8163 9.04 40.1056 9.04 55.357 0l133.3087-76.847c12.427-7.345 33.327-7.345 45.19 0l1.694 1.131c5.084 2.825 7.908 6.78 7.908 10.17 0 3.391-2.824 7.346-7.908 10.171l-68.914 39.553c-8.473 5.086-12.992 11.301-12.992 19.212 0 7.346 4.519 14.126 12.992 19.212 15.817 9.04 40.106 9.04 55.357 0l59.876-34.468c12.428-7.346 33.328-7.346 45.19 0l27.114 16.951 4.518-13.561z" fill="#013a51"/><path d="m370.554 343.549c-15.816-9.041-40.106-9.041-55.357 0l-59.876 34.467c-12.427 7.346-33.327 7.346-45.189 0-5.084-2.825-7.909-6.78-7.909-10.17 0-3.391 2.825-7.346 7.909-10.171l68.913-39.553c8.473-5.086 12.992-11.301 12.992-19.212 0-7.346-4.519-14.126-12.992-18.647l-1.694-1.13c-15.817-9.04-40.106-9.04-55.357 0l-133.3091 76.847c-12.4271 7.345-33.3272 7.345-45.1894 0l-24.2894-14.126c-5.0838-2.826-7.9081-6.781-7.9081-10.171 0-3.391 2.8243-7.346 7.9081-10.171l210.6959-120.92c7.343 2.26 16.381 1.13 22.595-2.26 7.908-4.521 7.908-11.866 0-16.387-7.909-4.52-20.336-4.52-28.244 0-6.213 3.391-7.343 8.476-4.519 12.997l-205.6117 117.529c-8.47299 5.086-12.99193 11.301-12.99193 19.212 0 7.345 4.51894 14.126 12.99193 18.646l24.2894 14.126c15.8163 9.041 40.1056 9.041 55.357 0l133.3093-76.846c12.427-7.346 33.327-7.346 45.189 0l1.695 1.13c5.083 2.825 7.908 6.781 7.908 10.171s-2.825 7.346-7.908 10.171l-68.914 39.553c-8.473 5.085-12.992 11.301-12.992 19.212 0 7.345 4.519 14.126 12.992 19.211 15.816 9.041 40.105 9.041 55.357 0l59.876-34.468c12.427-7.345 33.327-7.345 45.189 0l27.114 16.952 11.297-5.086z" fill="#a5cfd4"/><path d="m436.078 378.016c-5.084-2.826-14.122-2.826-19.205 0-5.084 2.825-5.084 7.91 0 11.301 5.083 2.825 14.121 2.825 19.205 0 5.649-3.391 5.649-7.911 0-11.301z" fill="#013a51"/><path d="m456.979 363.89c-16.946-9.606-44.06-9.606-61.006 0-9.038 5.085-13.556 11.866-13.556 19.777 0 7.345 5.083 14.691 13.556 19.776 8.473 5.086 19.771 7.346 30.503 7.346 10.733 0 22.03-2.26 30.503-7.346 9.038-5.085 13.557-11.866 13.557-19.776 0-7.346-4.519-14.692-13.557-19.777zm-3.389 33.338c-14.687 8.475-38.976 8.475-53.663 0-6.213-3.956-10.167-8.476-10.167-13.561 0-5.086 3.389-9.606 10.167-13.562 7.344-4.52 16.946-6.215 27.114-6.215 9.603 0 19.206 2.26 27.114 6.215 6.213 3.956 10.167 8.476 10.167 13.562-.565 5.085-4.519 9.605-10.732 13.561z" fill="#013a51"/><path d="m436.078 370.67c-5.084-2.826-14.122-2.826-19.205 0-5.084 2.825-5.084 7.91 0 11.301 5.083 2.825 14.121 2.825 19.205 0 5.649-2.826 5.649-7.911 0-11.301z" fill="#a5cfd4"/><path d="m456.979 356.544c-16.946-9.606-44.06-9.606-61.006 0-9.038 5.085-13.556 11.866-13.556 19.777 0 7.345 5.083 14.691 13.556 19.776 8.473 5.086 19.771 7.346 30.503 7.346 10.733 0 22.03-2.26 30.503-7.346 9.038-5.085 13.557-11.866 13.557-19.776 0-7.346-4.519-14.692-13.557-19.777zm-3.389 33.338c-14.687 8.475-38.976 8.475-53.663 0-6.213-3.956-10.167-8.476-10.167-13.561 0-5.086 3.389-9.606 10.167-13.562 7.344-4.52 16.946-6.215 27.114-6.215 9.603 0 19.206 2.26 27.114 6.215 6.213 3.956 10.167 8.476 10.167 13.562-.565 5.085-4.519 9.605-10.732 13.561z" fill="#a5cfd4"/><path d="m420.827 155.388c-28.808 12.996-54.227 53.114-56.487 89.842-1.129 14.691 1.695 26.557 7.909 35.033l41.235 77.976 19.77 9.606c1.695-3.955 30.503-141.261 32.198-145.782 2.824-9.605 24.289-15.821 24.289-24.862 0-33.902-40.67-54.809-68.914-41.813zm-3.389 88.147c-11.297 5.651-19.77-1.13-19.205-15.256.564-14.126 10.167-29.383 21.465-34.468 10.732-5.085 19.205 1.695 18.64 14.691-.565 13.561-10.167 29.383-20.9 35.033z" fill="#a5cfd4"/><path d="m424.217 162.168c-28.808 12.996-54.227 53.114-56.487 89.842-.565 6.781 0 13.561 1.13 19.212 32.762 19.777 57.052 18.646 82.471 36.163 7.908-36.728 16.381-75.716 16.946-77.411 2.824-9.606 18.64-16.952 19.205-26.558.565-34.467-35.022-53.679-63.265-41.248zm-3.389 88.147c-11.298 5.651-19.771-1.13-19.206-15.256s10.168-29.382 21.465-34.468c10.733-5.085 19.206 1.695 18.641 14.691-.565 14.127-9.603 29.383-20.9 35.033z" fill="#d9e8ed"/><g fill="#013a51"><path d="m433.819 371.235-22.594-10.736-.565-.565-41.236-77.976c-6.213-8.476-9.038-20.907-7.908-36.163 2.26-37.293 28.244-78.541 58.182-92.102 14.686-6.781 34.457-5.086 49.708 5.085 14.122 9.041 22.03 23.732 22.03 38.988 0 6.216-6.779 10.736-12.992 14.691-5.084 3.391-10.168 6.781-11.297 10.736-.565 1.695-5.649 26.557-11.863 53.115-11.297 52.549-19.205 89.842-20.335 92.667zm-19.205-14.691 16.946 8.476c2.824-10.736 12.427-55.94 19.77-89.277 6.779-32.208 11.298-51.985 11.862-53.68 1.695-5.085 7.344-9.041 12.992-12.996 5.649-3.955 10.733-7.345 11.298-11.301 0-14.126-6.779-27.122-19.771-35.598-14.121-9.04-31.632-10.736-45.189-4.52-28.243 12.996-53.098 52.549-55.357 88.147-1.13 14.126 1.695 25.427 7.343 33.338zm-5.084-109.054c-2.824 0-5.084-.565-6.778-2.26-4.519-3.39-7.344-9.606-6.779-17.516.565-14.692 10.733-30.513 22.595-36.163 5.649-2.826 10.732-2.826 15.251 0 4.519 2.825 7.344 9.04 6.779 16.951-.565 14.691-10.168 31.078-22.03 36.728-3.389 1.695-6.214 2.26-9.038 2.26zm16.946-53.679c-1.695 0-3.954.565-6.214 1.695-10.167 5.085-19.205 19.777-19.77 32.773-.565 6.215 1.695 11.301 5.084 13.561 2.824 1.695 6.778 1.695 11.297-.565 10.168-5.086 19.206-19.777 19.771-32.773 0-6.215-1.695-10.736-5.084-12.996-1.695-1.13-3.389-1.695-5.084-1.695z"/><path d="m489.741 203.418c.565-34.468-20.9-51.42-49.143-38.424-28.808 12.997-54.227 53.115-56.487 89.843-1.13 14.691 1.695 26.557 7.908 35.033l41.236 77.976 46.884-123.18c1.694-3.955 3.389-7.911 4.519-12.431 2.824-9.606 5.083-19.777 5.083-28.817z"/><path d="m433.819 371.236-2.824-1.13-41.8-79.107c-6.214-8.475-9.038-20.906-7.908-36.163 2.259-37.293 28.243-78.541 58.181-92.102 12.992-6.216 25.984-6.216 35.587 0 11.297 7.345 16.946 21.472 16.946 40.118 0 9.606-1.695 19.212-5.084 29.383-1.13 3.955-2.824 8.475-4.519 12.431zm24.855-208.502c-5.084 0-11.298 1.13-16.946 3.955-28.244 12.996-53.098 52.55-55.357 88.147-1.13 14.127 1.694 25.427 7.343 33.338l38.976 74.021 45.189-119.225c1.695-3.955 3.389-7.91 4.519-12.431 3.389-9.605 4.519-19.211 5.084-28.252.565-16.951-5.084-29.947-14.687-36.163-3.954-1.695-9.038-3.39-14.121-3.39z"/></g><path d="m434.384 279.698-20.9-14.126c-2.824-2.26-2.824-7.911.565-12.996s7.908-7.911 11.298-5.65l10.732 7.345 19.77-39.553c2.825-5.65 7.909-9.041 11.298-7.911s3.954 6.781 1.13 12.431l-29.374 58.765c-1.694 1.695-3.389 2.825-4.519 1.695z" fill="#a5cfd4"/><path d="m332.707 67.8055-112.974-64.9803-113.538 64.9803v131.0905l113.538 65.545v-130.525z" fill="#d9e8ed"/><path d="m106.195 198.331 113.538 65.545v-130.525l-113.538-65.5456z" fill="#a5cfd4"/><path d="m334.967 66.6754-115.234-66.6754-115.233 66.6754h-.564v2.8253 131.0903l113.538 64.981 2.259 1.13 2.26-1.13 112.409-64.981 1.129-.565v-130.5253zm-115.234-61.58999 53.098 30.51249-109.019 63.2852-53.098-31.0776zm-2.259 255.40059-109.02-62.72v-126.0052l109.02 62.7202zm48.014-156.518-46.319 26.558-53.098-30.513 109.02-62.72 53.097 30.5125z" fill="#013a51"/><path d="m174.544 133.351-20.9-11.866c-2.26-1.13-4.519-1.695-6.779-.565-2.259 1.13-3.389 3.955-3.389 7.346 0 5.65 3.389 12.431 7.908 14.691l20.9 11.866c1.13.565 2.825 1.13 3.954 1.13 1.13 0 1.695 0 2.825-.565 2.259-1.13 3.389-3.956 3.389-7.346 0-5.65-3.389-11.866-7.908-14.691zm2.259 18.646c-.565.566-1.694 0-2.259-.565l-20.9-11.866c-2.825-1.695-5.649-6.78-5.649-10.735 0-2.261.565-3.391 1.13-3.391.565-.565 1.694 0 2.259.565l1.695.565c.565 5.086 3.389 10.171 7.343 12.431l18.076 10.171c-1.13 1.13-1.13 2.26-1.695 2.825z" fill="#013a51"/></g></svg>