<svg fill="none" height="421" viewBox="0 0 481 421" width="481" xmlns="http://www.w3.org/2000/svg" xmlns:xlink="http://www.w3.org/1999/xlink"><clipPath id="a"><path d="m0 0h481v421h-481z"/></clipPath><g clip-path="url(#a)"><g fill="#013a51" opacity=".3"><path d="m153.705 418.195c1.12.673 1.12 1.683 0 2.356s-2.913.673-4.033 0-1.12-1.683 0-2.356 2.913-.673 4.033 0z"/><path d="m164.348 412.024c1.12.673 1.12 1.683 0 2.356-1.121.674-2.913.674-4.034 0-1.12-.673-1.12-1.683 0-2.356 1.065-.617 2.913-.617 4.034 0z"/><path d="m172.919 408.771c1.577 0 2.856-.753 2.856-1.683 0-.929-1.279-1.682-2.856-1.682-1.578 0-2.857.753-2.857 1.682 0 .93 1.279 1.683 2.857 1.683z"/><path d="m185.577 399.74c1.121.673 1.121 1.683 0 2.356-1.12.673-2.912.673-4.033 0-1.12-.673-1.12-1.683 0-2.356 1.065-.617 2.913-.617 4.033 0z"/><path d="m196.164 393.626c1.12.673 1.12 1.683 0 2.356-1.121.673-2.913.673-4.033 0-1.121-.673-1.121-1.683 0-2.356 1.12-.673 2.912-.673 4.033 0z"/><path d="m204.735 390.315c1.577 0 2.856-.753 2.856-1.682 0-.93-1.279-1.683-2.856-1.683-1.578 0-2.857.753-2.857 1.683 0 .929 1.279 1.682 2.857 1.682z"/><path d="m217.394 381.34c1.12.673 1.12 1.683 0 2.356-1.121.673-2.913.673-4.034 0-1.12-.673-1.12-1.683 0-2.356 1.121-.617 2.913-.617 4.034 0z"/><path d="m228.037 375.226c1.12.673 1.12 1.683 0 2.356s-2.913.673-4.033 0-1.12-1.683 0-2.356c1.064-.673 2.913-.673 4.033 0z"/><path d="m238.623 369.055c1.121.673 1.121 1.683 0 2.356-1.12.673-2.912.673-4.033 0-1.12-.673-1.12-1.683 0-2.356 1.121-.617 2.913-.617 4.033 0z"/><path d="m249.266 362.94c1.12.673 1.12 1.683 0 2.356-1.121.673-2.913.673-4.033 0-1.121-.673-1.121-1.683 0-2.356 1.064-.673 2.912-.673 4.033 0z"/><path d="m132.475 418.195c1.121.673 1.121 1.683 0 2.356-1.12.673-2.912.673-4.033 0-1.12-.673-1.12-1.683 0-2.356 1.121-.673 2.913-.673 4.033 0z"/><path d="m143.118 412.024c1.12.673 1.12 1.683 0 2.356-1.121.674-2.913.674-4.033 0-1.121-.673-1.121-1.683 0-2.356 1.064-.617 2.912-.617 4.033 0z"/><path d="m153.705 405.91c1.12.674 1.12 1.683 0 2.356-1.12.674-2.913.674-4.033 0-1.12-.673-1.12-1.682 0-2.356 1.12-.673 2.913-.673 4.033 0z"/><path d="m164.348 399.74c1.12.673 1.12 1.683 0 2.356-1.121.673-2.913.673-4.034 0-1.12-.673-1.12-1.683 0-2.356 1.065-.617 2.913-.617 4.034 0z"/><path d="m172.919 396.487c1.577 0 2.856-.754 2.856-1.683 0-.93-1.279-1.683-2.856-1.683-1.578 0-2.857.753-2.857 1.683 0 .929 1.279 1.683 2.857 1.683z"/><path d="m185.577 387.511c1.121.673 1.121 1.683 0 2.356-1.12.673-2.912.673-4.033 0-1.12-.673-1.12-1.683 0-2.356 1.065-.673 2.913-.673 4.033 0z"/><path d="m196.164 381.34c1.12.673 1.12 1.683 0 2.356-1.121.673-2.913.673-4.033 0-1.121-.673-1.121-1.683 0-2.356 1.12-.617 2.912-.617 4.033 0z"/><path d="m206.807 375.226c1.121.673 1.121 1.683 0 2.356-1.12.673-2.913.673-4.033 0s-1.12-1.683 0-2.356c1.064-.673 2.913-.673 4.033 0z"/><path d="m217.394 369.055c1.12.673 1.12 1.683 0 2.356-1.121.673-2.913.673-4.034 0-1.12-.673-1.12-1.683 0-2.356 1.121-.617 2.913-.617 4.034 0z"/><path d="m228.037 362.94c1.12.673 1.12 1.683 0 2.356s-2.913.673-4.033 0-1.12-1.683 0-2.356c1.064-.673 2.913-.673 4.033 0z"/><path d="m238.623 356.771c1.121.673 1.121 1.683 0 2.356-1.12.673-2.912.673-4.033 0-1.12-.673-1.12-1.683 0-2.356 1.121-.617 2.913-.617 4.033 0z"/><path d="m109.229 421.056c1.578 0 2.857-.753 2.857-1.683 0-.929-1.279-1.683-2.857-1.683s-2.857.754-2.857 1.683c0 .93 1.279 1.683 2.857 1.683z"/><path d="m121.832 412.024c1.12.673 1.12 1.683 0 2.356-1.12.674-2.913.674-4.033 0-1.12-.673-1.12-1.683 0-2.356 1.12-.617 2.913-.617 4.033 0z"/><path d="m132.475 405.91c1.121.674 1.121 1.683 0 2.356-1.12.674-2.912.674-4.033 0-1.12-.673-1.12-1.682 0-2.356 1.121-.673 2.913-.673 4.033 0z"/><path d="m143.118 399.74c1.12.673 1.12 1.683 0 2.356-1.121.673-2.913.673-4.033 0-1.121-.673-1.121-1.683 0-2.356 1.064-.617 2.912-.617 4.033 0z"/><path d="m153.705 393.626c1.12.673 1.12 1.683 0 2.356s-2.913.673-4.033 0-1.12-1.683 0-2.356 2.913-.673 4.033 0z"/><path d="m164.348 387.511c1.12.673 1.12 1.683 0 2.356-1.121.673-2.913.673-4.034 0-1.12-.673-1.12-1.683 0-2.356 1.065-.673 2.913-.673 4.034 0z"/><path d="m174.935 381.34c1.12.673 1.12 1.683 0 2.356s-2.913.673-4.033 0-1.12-1.683 0-2.356c1.12-.617 2.913-.617 4.033 0z"/><path d="m185.577 375.226c1.121.673 1.121 1.683 0 2.356-1.12.673-2.912.673-4.033 0-1.12-.673-1.12-1.683 0-2.356 1.065-.673 2.913-.673 4.033 0z"/><path d="m196.164 369.055c1.12.673 1.12 1.683 0 2.356-1.121.673-2.913.673-4.033 0-1.121-.673-1.121-1.683 0-2.356 1.12-.617 2.912-.617 4.033 0z"/><path d="m206.807 362.94c1.121.673 1.121 1.683 0 2.356-1.12.673-2.913.673-4.033 0s-1.12-1.683 0-2.356c1.064-.673 2.913-.673 4.033 0z"/><path d="m217.394 356.771c1.12.673 1.12 1.683 0 2.356-1.121.673-2.913.673-4.034 0-1.12-.673-1.12-1.683 0-2.356 1.121-.617 2.913-.617 4.034 0z"/><path d="m228.037 350.655c1.12.674 1.12 1.683 0 2.357-1.12.673-2.913.673-4.033 0-1.12-.674-1.12-1.683 0-2.357 1.064-.673 2.913-.673 4.033 0z"/><path d="m100.547 411.968c1.12.673 1.12 1.683 0 2.356-1.1202.673-2.9127.673-4.0329 0-1.1203-.673-1.1203-1.683 0-2.356 1.0642-.617 2.9127-.617 4.0329 0z"/><path d="m111.133 405.854c1.121.673 1.121 1.683 0 2.356-1.12.673-2.912.673-4.033 0-1.12-.673-1.12-1.683 0-2.356 1.121-.673 2.913-.673 4.033 0z"/><path d="m121.777 399.683c1.12.674 1.12 1.683 0 2.357-1.12.673-2.913.673-4.033 0-1.12-.674-1.12-1.683 0-2.357 1.064-.617 2.913-.617 4.033 0z"/><path d="m132.363 393.57c1.121.673 1.121 1.682 0 2.356-1.12.673-2.912.673-4.033 0-1.12-.674-1.12-1.683 0-2.356 1.121-.674 2.913-.674 4.033 0z"/><path d="m143.006 387.399c1.12.673 1.12 1.683 0 2.356-1.121.673-2.913.673-4.033 0-1.121-.673-1.121-1.683 0-2.356 1.064-.617 2.912-.617 4.033 0z"/><path d="m153.593 381.284c1.12.673 1.12 1.683 0 2.356s-2.913.673-4.033 0-1.12-1.683 0-2.356 2.913-.673 4.033 0z"/><path d="m164.235 375.17c1.121.673 1.121 1.683 0 2.356-1.12.673-2.912.673-4.033 0-1.12-.673-1.12-1.683 0-2.356 1.065-.673 2.913-.673 4.033 0z"/><path d="m174.823 368.999c1.12.673 1.12 1.683 0 2.356s-2.913.673-4.033 0-1.12-1.683 0-2.356c1.12-.617 2.913-.617 4.033 0z"/><path d="m185.465 362.884c1.121.673 1.121 1.683 0 2.356-1.12.673-2.912.673-4.033 0-1.12-.673-1.12-1.683 0-2.356 1.121-.673 2.913-.673 4.033 0z"/><path d="m196.052 356.715c1.12.673 1.12 1.682 0 2.356-1.121.673-2.913.673-4.033 0-1.121-.674-1.121-1.683 0-2.356 1.12-.618 2.912-.618 4.033 0z"/><path d="m206.695 350.599c1.12.674 1.12 1.683 0 2.356-1.12.674-2.913.674-4.033 0-1.12-.673-1.12-1.682 0-2.356 1.12-.673 2.913-.673 4.033 0z"/><path d="m217.337 344.429c1.121.673 1.121 1.682 0 2.356-1.12.673-2.912.673-4.033 0-1.12-.674-1.12-1.683 0-2.356 1.065-.617 2.913-.617 4.033 0z"/><path d="m89.9036 405.854c1.1203.673 1.1203 1.683 0 2.356s-2.9128.673-4.0331 0-1.1203-1.683 0-2.356 2.9128-.673 4.0331 0z"/><path d="m100.547 399.683c1.12.674 1.12 1.683 0 2.357-1.1202.673-2.9127.673-4.0329 0-1.1203-.674-1.1203-1.683 0-2.357 1.0642-.617 2.9127-.617 4.0329 0z"/><path d="m111.133 393.57c1.121.673 1.121 1.682 0 2.356-1.12.673-2.912.673-4.033 0-1.12-.674-1.12-1.683 0-2.356 1.121-.674 2.913-.674 4.033 0z"/><path d="m121.777 387.399c1.12.673 1.12 1.683 0 2.356s-2.913.673-4.033 0-1.12-1.683 0-2.356c1.064-.617 2.913-.617 4.033 0z"/><path d="m132.363 381.284c1.121.673 1.121 1.683 0 2.356-1.12.673-2.912.673-4.033 0-1.12-.673-1.12-1.683 0-2.356 1.121-.673 2.913-.673 4.033 0z"/><path d="m143.006 375.17c1.12.673 1.12 1.683 0 2.356-1.121.673-2.913.673-4.033 0-1.121-.673-1.121-1.683 0-2.356 1.064-.673 2.912-.673 4.033 0z"/><path d="m153.593 368.999c1.12.673 1.12 1.683 0 2.356s-2.913.673-4.033 0-1.12-1.683 0-2.356c1.12-.617 2.913-.617 4.033 0z"/><path d="m164.235 362.884c1.121.673 1.121 1.683 0 2.356-1.12.673-2.912.673-4.033 0-1.12-.673-1.12-1.683 0-2.356 1.065-.673 2.913-.673 4.033 0z"/><path d="m174.823 356.715c1.12.673 1.12 1.682 0 2.356-1.12.673-2.913.673-4.033 0-1.12-.674-1.12-1.683 0-2.356 1.12-.618 2.913-.618 4.033 0z"/><path d="m185.465 350.599c1.121.674 1.121 1.683 0 2.356-1.12.674-2.912.674-4.033 0-1.12-.673-1.12-1.682 0-2.356 1.121-.673 2.913-.673 4.033 0z"/><path d="m196.052 344.429c1.12.673 1.12 1.682 0 2.356-1.121.673-2.913.673-4.033 0-1.121-.674-1.121-1.683 0-2.356 1.12-.617 2.912-.617 4.033 0z"/><path d="m206.695 338.314c1.12.674 1.12 1.683 0 2.356-1.12.674-2.913.674-4.033 0-1.12-.673-1.12-1.682 0-2.356 1.12-.673 2.913-.673 4.033 0z"/><path d="m79.3173 399.683c1.1203.674 1.1203 1.683 0 2.357-1.1203.673-2.9128.673-4.0331 0-1.1203-.674-1.1203-1.683 0-2.357 1.0643-.617 2.9128-.617 4.0331 0z"/><path d="m89.9036 393.57c1.1203.673 1.1203 1.682 0 2.356-1.1203.673-2.9128.673-4.0331 0-1.1203-.674-1.1203-1.683 0-2.356 1.1203-.674 2.9128-.674 4.0331 0z"/><path d="m100.547 387.399c1.12.673 1.12 1.683 0 2.356-1.1202.673-2.9127.673-4.0329 0-1.1203-.673-1.1203-1.683 0-2.356 1.0642-.617 2.9127-.617 4.0329 0z"/><path d="m111.133 381.284c1.121.673 1.121 1.683 0 2.356-1.12.673-2.912.673-4.033 0-1.12-.673-1.12-1.683 0-2.356 1.121-.673 2.913-.673 4.033 0z"/><path d="m121.777 375.17c1.12.673 1.12 1.683 0 2.356s-2.913.673-4.033 0-1.12-1.683 0-2.356c1.064-.673 2.913-.673 4.033 0z"/><path d="m132.363 368.999c1.121.673 1.121 1.683 0 2.356-1.12.673-2.912.673-4.033 0-1.12-.673-1.12-1.683 0-2.356 1.121-.617 2.913-.617 4.033 0z"/><path d="m143.006 362.884c1.12.673 1.12 1.683 0 2.356-1.121.673-2.913.673-4.033 0-1.121-.673-1.121-1.683 0-2.356 1.064-.673 2.912-.673 4.033 0z"/><path d="m153.593 356.715c1.12.673 1.12 1.682 0 2.356-1.12.673-2.913.673-4.033 0-1.12-.674-1.12-1.683 0-2.356 1.12-.618 2.913-.618 4.033 0z"/><path d="m164.235 350.599c1.121.674 1.121 1.683 0 2.356-1.12.674-2.912.674-4.033 0-1.12-.673-1.12-1.682 0-2.356 1.065-.673 2.913-.673 4.033 0z"/><path d="m174.823 344.429c1.12.673 1.12 1.682 0 2.356-1.12.673-2.913.673-4.033 0-1.12-.674-1.12-1.683 0-2.356 1.12-.617 2.913-.617 4.033 0z"/><path d="m185.465 338.314c1.121.674 1.121 1.683 0 2.356-1.12.674-2.912.674-4.033 0-1.12-.673-1.12-1.682 0-2.356 1.121-.673 2.913-.673 4.033 0z"/><path d="m196.052 332.2c1.12.673 1.12 1.683 0 2.356-1.121.673-2.913.673-4.033 0-1.121-.673-1.121-1.683 0-2.356 1.12-.673 2.912-.673 4.033 0z"/><path d="m68.6737 393.57c1.1203.673 1.1203 1.682 0 2.356-1.1203.673-2.9128.673-4.0331 0-1.1203-.674-1.1203-1.683 0-2.356 1.1203-.674 2.9128-.674 4.0331 0z"/><path d="m79.3173 387.399c1.1203.673 1.1203 1.683 0 2.356s-2.9128.673-4.0331 0-1.1203-1.683 0-2.356c1.0643-.617 2.9128-.617 4.0331 0z"/><path d="m89.9036 381.284c1.1203.673 1.1203 1.683 0 2.356s-2.9128.673-4.0331 0-1.1203-1.683 0-2.356 2.9128-.673 4.0331 0z"/><path d="m100.547 375.17c1.12.673 1.12 1.683 0 2.356-1.1202.673-2.9127.673-4.0329 0-1.1203-.673-1.1203-1.683 0-2.356 1.0642-.673 2.9127-.673 4.0329 0z"/><path d="m111.133 368.999c1.121.673 1.121 1.683 0 2.356-1.12.673-2.912.673-4.033 0-1.12-.673-1.12-1.683 0-2.356 1.121-.617 2.913-.617 4.033 0z"/><path d="m121.777 362.884c1.12.673 1.12 1.683 0 2.356s-2.913.673-4.033 0-1.12-1.683 0-2.356c1.064-.673 2.913-.673 4.033 0z"/><path d="m132.363 356.715c1.121.673 1.121 1.682 0 2.356-1.12.673-2.912.673-4.033 0-1.12-.674-1.12-1.683 0-2.356 1.121-.618 2.913-.618 4.033 0z"/><path d="m143.006 350.599c1.12.674 1.12 1.683 0 2.356-1.121.674-2.913.674-4.033 0-1.121-.673-1.121-1.682 0-2.356 1.064-.673 2.912-.673 4.033 0z"/><path d="m153.593 344.429c1.12.673 1.12 1.682 0 2.356-1.12.673-2.913.673-4.033 0-1.12-.674-1.12-1.683 0-2.356 1.12-.617 2.913-.617 4.033 0z"/><path d="m164.235 338.314c1.121.674 1.121 1.683 0 2.356-1.12.674-2.912.674-4.033 0-1.12-.673-1.12-1.682 0-2.356 1.065-.673 2.913-.673 4.033 0z"/><path d="m174.823 332.2c1.12.673 1.12 1.683 0 2.356s-2.913.673-4.033 0-1.12-1.683 0-2.356 2.913-.673 4.033 0z"/><path d="m185.465 326.029c1.121.673 1.121 1.683 0 2.356-1.12.673-2.912.673-4.033 0-1.12-.673-1.12-1.683 0-2.356 1.121-.617 2.913-.617 4.033 0z"/><path d="m58.0874 387.399c1.1203.673 1.1203 1.683 0 2.356s-2.9128.673-4.0331 0-1.1203-1.683 0-2.356c1.0643-.617 2.9128-.617 4.0331 0z"/><path d="m68.6737 381.284c1.1203.673 1.1203 1.683 0 2.356s-2.9128.673-4.0331 0-1.1203-1.683 0-2.356 2.9128-.673 4.0331 0z"/><path d="m79.3173 375.17c1.1203.673 1.1203 1.683 0 2.356s-2.9128.673-4.0331 0-1.1203-1.683 0-2.356c1.0643-.673 2.9128-.673 4.0331 0z"/><path d="m89.9036 368.999c1.1203.673 1.1203 1.683 0 2.356s-2.9128.673-4.0331 0-1.1203-1.683 0-2.356c1.1203-.617 2.9128-.617 4.0331 0z"/><path d="m100.547 362.884c1.12.673 1.12 1.683 0 2.356-1.1202.673-2.9127.673-4.0329 0-1.1203-.673-1.1203-1.683 0-2.356 1.0642-.673 2.9127-.673 4.0329 0z"/><path d="m111.133 356.715c1.121.673 1.121 1.682 0 2.356-1.12.673-2.912.673-4.033 0-1.12-.674-1.12-1.683 0-2.356 1.121-.618 2.913-.618 4.033 0z"/><path d="m121.777 350.599c1.12.674 1.12 1.683 0 2.356-1.12.674-2.913.674-4.033 0-1.12-.673-1.12-1.682 0-2.356 1.064-.673 2.913-.673 4.033 0z"/><path d="m132.363 344.429c1.121.673 1.121 1.682 0 2.356-1.12.673-2.912.673-4.033 0-1.12-.674-1.12-1.683 0-2.356 1.121-.617 2.913-.617 4.033 0z"/><path d="m143.006 338.314c1.12.674 1.12 1.683 0 2.356-1.121.674-2.913.674-4.033 0-1.121-.673-1.121-1.682 0-2.356 1.064-.673 2.912-.673 4.033 0z"/><path d="m153.593 332.2c1.12.673 1.12 1.683 0 2.356s-2.913.673-4.033 0-1.12-1.683 0-2.356 2.913-.673 4.033 0z"/><path d="m164.235 326.029c1.121.673 1.121 1.683 0 2.356-1.12.673-2.912.673-4.033 0-1.12-.673-1.12-1.683 0-2.356 1.065-.617 2.913-.617 4.033 0z"/><path d="m174.823 319.915c1.12.673 1.12 1.683 0 2.356s-2.913.673-4.033 0-1.12-1.683 0-2.356 2.913-.673 4.033 0z"/><path d="m47.4451 381.284c1.1203.673 1.1203 1.683 0 2.356s-2.9128.673-4.0331 0-1.1203-1.683 0-2.356 2.9128-.673 4.0331 0z"/><path d="m58.0874 375.17c1.1203.673 1.1203 1.683 0 2.356s-2.9128.673-4.0331 0-1.1203-1.683 0-2.356c1.0643-.673 2.9128-.673 4.0331 0z"/><path d="m68.6737 368.999c1.1203.673 1.1203 1.683 0 2.356s-2.9128.673-4.0331 0-1.1203-1.683 0-2.356c1.1203-.617 2.9128-.617 4.0331 0z"/><path d="m79.3173 362.884c1.1203.673 1.1203 1.683 0 2.356s-2.9128.673-4.0331 0-1.1203-1.683 0-2.356c1.0643-.673 2.9128-.673 4.0331 0z"/><path d="m89.9036 356.715c1.1203.673 1.1203 1.682 0 2.356-1.1203.673-2.9128.673-4.0331 0-1.1203-.674-1.1203-1.683 0-2.356 1.1203-.618 2.9128-.618 4.0331 0z"/><path d="m100.547 350.599c1.12.674 1.12 1.683 0 2.356-1.1202.674-2.9127.674-4.0329 0-1.1203-.673-1.1203-1.682 0-2.356 1.0642-.673 2.9127-.673 4.0329 0z"/><path d="m111.133 344.429c1.121.673 1.121 1.682 0 2.356-1.12.673-2.912.673-4.033 0-1.12-.674-1.12-1.683 0-2.356 1.121-.617 2.913-.617 4.033 0z"/><path d="m121.777 338.314c1.12.674 1.12 1.683 0 2.356-1.12.674-2.913.674-4.033 0-1.12-.673-1.12-1.682 0-2.356 1.064-.673 2.913-.673 4.033 0z"/><path d="m132.363 332.2c1.121.673 1.121 1.683 0 2.356-1.12.673-2.912.673-4.033 0-1.12-.673-1.12-1.683 0-2.356 1.121-.673 2.913-.673 4.033 0z"/><path d="m143.006 326.029c1.12.673 1.12 1.683 0 2.356-1.121.673-2.913.673-4.033 0-1.121-.673-1.121-1.683 0-2.356 1.064-.617 2.912-.617 4.033 0z"/><path d="m153.593 319.915c1.12.673 1.12 1.683 0 2.356s-2.913.673-4.033 0-1.12-1.683 0-2.356 2.913-.673 4.033 0z"/><path d="m164.235 313.744c1.121.673 1.121 1.683 0 2.356-1.12.673-2.912.673-4.033 0-1.12-.673-1.12-1.683 0-2.356 1.065-.617 2.913-.617 4.033 0z"/><path d="m36.8577 375.17c1.1203.673 1.1203 1.683 0 2.356s-2.9128.673-4.0331 0-1.1203-1.683 0-2.356c1.0643-.673 2.9128-.673 4.0331 0z"/><path d="m47.4451 368.999c1.1203.673 1.1203 1.683 0 2.356s-2.9128.673-4.0331 0-1.1203-1.683 0-2.356c1.1203-.617 2.9128-.617 4.0331 0z"/><path d="m58.0874 362.884c1.1203.673 1.1203 1.683 0 2.356s-2.9128.673-4.0331 0-1.1203-1.683 0-2.356c1.0643-.673 2.9128-.673 4.0331 0z"/><path d="m68.6737 356.715c1.1203.673 1.1203 1.682 0 2.356-1.1203.673-2.9128.673-4.0331 0-1.1203-.674-1.1203-1.683 0-2.356 1.1203-.618 2.9128-.618 4.0331 0z"/><path d="m79.3173 350.599c1.1203.674 1.1203 1.683 0 2.356-1.1203.674-2.9128.674-4.0331 0-1.1203-.673-1.1203-1.682 0-2.356 1.0643-.673 2.9128-.673 4.0331 0z"/><path d="m89.9036 344.429c1.1203.673 1.1203 1.682 0 2.356-1.1203.673-2.9128.673-4.0331 0-1.1203-.674-1.1203-1.683 0-2.356 1.1203-.617 2.9128-.617 4.0331 0z"/><path d="m100.547 338.314c1.12.674 1.12 1.683 0 2.356-1.1202.674-2.9127.674-4.0329 0-1.1203-.673-1.1203-1.682 0-2.356 1.0642-.673 2.9127-.673 4.0329 0z"/><path d="m111.133 332.2c1.121.673 1.121 1.683 0 2.356-1.12.673-2.912.673-4.033 0-1.12-.673-1.12-1.683 0-2.356 1.121-.673 2.913-.673 4.033 0z"/><path d="m121.777 326.029c1.12.673 1.12 1.683 0 2.356s-2.913.673-4.033 0-1.12-1.683 0-2.356c1.064-.617 2.913-.617 4.033 0z"/><path d="m132.363 319.915c1.121.673 1.121 1.683 0 2.356-1.12.673-2.912.673-4.033 0-1.12-.673-1.12-1.683 0-2.356 1.121-.673 2.913-.673 4.033 0z"/><path d="m143.006 313.744c1.12.673 1.12 1.683 0 2.356-1.121.673-2.913.673-4.033 0-1.121-.673-1.121-1.683 0-2.356 1.064-.617 2.912-.617 4.033 0z"/><path d="m151.577 310.491c1.577 0 2.856-.753 2.856-1.683 0-.929-1.279-1.683-2.856-1.683-1.578 0-2.857.754-2.857 1.683 0 .93 1.279 1.683 2.857 1.683z"/><path d="m26.2152 368.999c1.1203.673 1.1203 1.683 0 2.356s-2.9128.673-4.0331 0-1.1203-1.683 0-2.356c1.1203-.617 2.9128-.617 4.0331 0z"/><path d="m36.8577 362.884c1.1203.673 1.1203 1.683 0 2.356s-2.9128.673-4.0331 0-1.1203-1.683 0-2.356c1.0643-.673 2.9128-.673 4.0331 0z"/><path d="m47.4451 356.715c1.1203.673 1.1203 1.682 0 2.356-1.1203.673-2.9128.673-4.0331 0-1.1203-.674-1.1203-1.683 0-2.356 1.1203-.618 2.9128-.618 4.0331 0z"/><path d="m58.0874 350.599c1.1203.674 1.1203 1.683 0 2.356-1.1203.674-2.9128.674-4.0331 0-1.1203-.673-1.1203-1.682 0-2.356 1.0643-.673 2.9128-.673 4.0331 0z"/><path d="m68.6737 344.429c1.1203.673 1.1203 1.682 0 2.356-1.1203.673-2.9128.673-4.0331 0-1.1203-.674-1.1203-1.683 0-2.356 1.1203-.617 2.9128-.617 4.0331 0z"/><path d="m79.3173 338.314c1.1203.674 1.1203 1.683 0 2.356-1.1203.674-2.9128.674-4.0331 0-1.1203-.673-1.1203-1.682 0-2.356 1.0643-.673 2.9128-.673 4.0331 0z"/><path d="m89.9036 332.2c1.1203.673 1.1203 1.683 0 2.356s-2.9128.673-4.0331 0-1.1203-1.683 0-2.356 2.9128-.673 4.0331 0z"/><path d="m100.547 326.029c1.12.673 1.12 1.683 0 2.356-1.1202.673-2.9127.673-4.0329 0-1.1203-.673-1.1203-1.683 0-2.356 1.0642-.617 2.9127-.617 4.0329 0z"/><path d="m109.117 322.776c1.578 0 2.857-.753 2.857-1.683 0-.929-1.279-1.683-2.857-1.683s-2.857.754-2.857 1.683c0 .93 1.279 1.683 2.857 1.683z"/><path d="m121.777 313.744c1.12.673 1.12 1.683 0 2.356s-2.913.673-4.033 0-1.12-1.683 0-2.356c1.064-.617 2.913-.617 4.033 0z"/><path d="m128.33 307.63c1.121-.673 2.913-.673 4.033 0 1.121.674 1.121 1.683 0 2.356-1.12.674-2.912.674-4.033 0-1.12-.673-1.12-1.739 0-2.356 1.121-.673-1.12.617 0 0z"/><path d="m143.006 301.515c1.12.673 1.12 1.683 0 2.356s-2.913.673-4.033 0c-1.176-.673 2.913-3.029 4.033-2.356z"/><path d="m15.5156 362.828c1.1203.673 1.1203 1.683 0 2.356s-2.9127.673-4.033 0-1.1203-1.683 0-2.356 2.9127-.673 4.033 0z"/><path d="m26.1592 356.658c1.1203.674 1.1203 1.683 0 2.356-1.1203.674-2.9128.674-4.0331 0-1.1203-.673-1.1203-1.682 0-2.356 1.0643-.617 2.9128-.617 4.0331 0z"/><path d="m36.7455 350.543c1.1203.673 1.1203 1.683 0 2.356s-2.9128.673-4.0331 0-1.1203-1.683 0-2.356 2.9128-.673 4.0331 0z"/><path d="m47.389 344.372c1.1203.674 1.1203 1.683 0 2.357-1.1203.673-2.9127.673-4.033 0-1.1203-.674-1.1203-1.683 0-2.357 1.0643-.617 2.9127-.617 4.033 0z"/><path d="m57.9753 338.258c1.1203.673 1.1203 1.683 0 2.356s-2.9127.673-4.033 0-1.1203-1.683 0-2.356 2.9127-.673 4.033 0z"/><path d="m68.6177 332.088c1.1203.673 1.1203 1.683 0 2.356s-2.9128.673-4.0331 0-1.1203-1.683 0-2.356c1.0643-.617 2.9128-.617 4.0331 0z"/><path d="m79.2052 325.974c1.1203.673 1.1203 1.682 0 2.356-1.1203.673-2.9128.673-4.0331 0-1.1203-.674-1.1203-1.683 0-2.356 1.1203-.674 2.9128-.674 4.0331 0z"/><path d="m89.8476 319.859c1.1202.673 1.1202 1.683 0 2.356-1.1203.673-2.9128.673-4.0331 0s-1.1203-1.683 0-2.356c1.0643-.673 2.9128-.673 4.0331 0z"/><path d="m4.8733 356.658c1.12029.674 1.12029 1.683 0 2.356-1.1203.674-2.91278.674-4.033076 0-1.120299-.673-1.120299-1.682 0-2.356 1.120296-.617 2.912776-.617 4.033076 0z"/><path d="m15.5156 350.543c1.1203.673 1.1203 1.683 0 2.356s-2.9127.673-4.033 0-1.1203-1.683 0-2.356 2.9127-.673 4.033 0z"/><path d="m26.1592 344.372c1.1203.674 1.1203 1.683 0 2.357-1.1203.673-2.9128.673-4.0331 0-1.1203-.674-1.1203-1.683 0-2.357 1.0643-.617 2.9128-.617 4.0331 0z"/><path d="m36.7455 338.258c1.1203.673 1.1203 1.683 0 2.356s-2.9128.673-4.0331 0-1.1203-1.683 0-2.356 2.9128-.673 4.0331 0z"/><path d="m47.389 332.088c1.1203.673 1.1203 1.683 0 2.356s-2.9127.673-4.033 0-1.1203-1.683 0-2.356 2.9127-.617 4.033 0z"/><path d="m57.9753 325.974c1.1203.673 1.1203 1.682 0 2.356-1.1203.673-2.9127.673-4.033 0-1.1203-.674-1.1203-1.683 0-2.356 1.1203-.674 2.9127-.674 4.033 0z"/><path d="m4.8733 344.372c1.12029.674 1.12029 1.683 0 2.357-1.1203.673-2.91278.673-4.033076 0-1.120299-.674-1.120299-1.683 0-2.357 1.120296-.617 2.912776-.617 4.033076 0z"/><path d="m15.5156 338.258c1.1203.673 1.1203 1.683 0 2.356s-2.9127.673-4.033 0-1.1203-1.683 0-2.356 2.9127-.673 4.033 0z"/><path d="m26.1592 332.088c1.1203.673 1.1203 1.683 0 2.356s-2.9128.673-4.0331 0-1.1203-1.683 0-2.356c1.0643-.617 2.9128-.617 4.0331 0z"/><path d="m36.7455 325.974c1.1203.673 1.1203 1.682 0 2.356-1.1203.673-2.9128.673-4.0331 0-1.1203-.674-1.1203-1.683 0-2.356 1.1203-.674 2.9128-.674 4.0331 0z"/><path d="m397.929 301.628c1.121.673 1.121 1.683 0 2.356-1.12.673-2.912.673-4.033 0-1.12-.673-1.12-1.683 0-2.356 1.065-.617 2.913-.617 4.033 0z"/><path d="m408.517 295.513c1.12.673 1.12 1.683 0 2.356s-2.913.673-4.033 0-1.12-1.683 0-2.356 2.913-.673 4.033 0z"/><path d="m419.159 289.343c1.121.673 1.121 1.683 0 2.356-1.12.673-2.912.673-4.033 0-1.12-.673-1.12-1.683 0-2.356 1.065-.617 2.913-.617 4.033 0z"/><path d="m429.747 283.228c1.12.673 1.12 1.683 0 2.356s-2.913.673-4.033 0c-1.121-.673-1.121-1.683 0-2.356 1.12-.673 2.913-.673 4.033 0z"/><path d="m440.389 277.057c1.12.673 1.12 1.683 0 2.356s-2.913.673-4.033 0-1.12-1.683 0-2.356c1.064-.617 2.913-.617 4.033 0z"/><path d="m450.976 270.943c1.12.673 1.12 1.683 0 2.356-1.121.674-2.913.674-4.033 0-1.121-.673-1.121-1.683 0-2.356 1.12-.673 2.912-.673 4.033 0z"/><path d="m376.7 301.628c1.12.673 1.12 1.683 0 2.356-1.121.673-2.913.673-4.033 0-1.121-.673-1.121-1.683 0-2.356 1.064-.617 2.912-.617 4.033 0z"/><path d="m387.287 295.513c1.12.673 1.12 1.683 0 2.356s-2.913.673-4.033 0-1.12-1.683 0-2.356 2.913-.673 4.033 0z"/><path d="m397.929 289.343c1.121.673 1.121 1.683 0 2.356-1.12.673-2.912.673-4.033 0-1.12-.673-1.12-1.683 0-2.356 1.065-.617 2.913-.617 4.033 0z"/><path d="m408.517 283.228c1.12.673 1.12 1.683 0 2.356s-2.913.673-4.033 0-1.12-1.683 0-2.356 2.913-.673 4.033 0z"/><path d="m417.087 279.919c1.578 0 2.857-.753 2.857-1.683 0-.929-1.279-1.683-2.857-1.683s-2.857.754-2.857 1.683c0 .93 1.279 1.683 2.857 1.683z"/><path d="m429.747 270.943c1.12.673 1.12 1.683 0 2.356-1.12.674-2.913.674-4.033 0-1.121-.673-1.121-1.683 0-2.356 1.12-.673 2.913-.673 4.033 0z"/><path d="m440.389 264.828c1.12.674 1.12 1.683 0 2.356-1.12.674-2.913.674-4.033 0-1.12-.673-1.12-1.682 0-2.356 1.064-.673 2.913-.673 4.033 0z"/><path d="m255.82 356.883c1.12-.674 2.913-.674 4.033 0 1.121.673 1.121 1.682 0 2.356-1.12.673-2.913.673-4.033 0-1.12-.674-1.12-1.683 0-2.356z"/><path d="m270.496 350.712c1.12.673 1.12 1.683 0 2.356-1.121.673-2.913.673-4.033 0-1.121-.673-1.121-1.683 0-2.356 1.12-.617 2.912-.617 4.033 0z"/><path d="m281.139 344.597c1.12.673 1.12 1.683 0 2.356s-2.913.673-4.033 0-1.12-1.683 0-2.356c1.064-.673 2.913-.673 4.033 0z"/><path d="m291.725 338.483c1.121.673 1.121 1.683 0 2.356-1.12.673-2.912.673-4.033 0-1.12-.673-1.12-1.683 0-2.356 1.121-.673 2.913-.673 4.033 0z"/><path d="m302.369 332.312c1.12.674 1.12 1.683 0 2.356-1.12.674-2.913.674-4.033 0-1.12-.673-1.12-1.682 0-2.356 1.064-.617 2.913-.617 4.033 0z"/><path d="m312.955 326.198c1.121.673 1.121 1.683 0 2.356-1.12.673-2.912.673-4.033 0-1.12-.673-1.12-1.683 0-2.356 1.121-.673 2.913-.673 4.033 0z"/><path d="m323.598 320.027c1.12.674 1.12 1.683 0 2.357-1.121.673-2.913.673-4.033 0-1.121-.674-1.121-1.683 0-2.357 1.064-.617 2.912-.617 4.033 0z"/><path d="m334.185 313.912c1.12.673 1.12 1.683 0 2.356-1.12.674-2.913.674-4.033 0-1.12-.673-1.12-1.683 0-2.356s2.913-.673 4.033 0z"/><path d="m344.827 307.742c1.121.673 1.121 1.682 0 2.356-1.12.673-2.912.673-4.033 0-1.12-.674-1.12-1.683 0-2.356 1.121-.617 2.913-.617 4.033 0z"/><path d="m353.398 304.489c1.578 0 2.857-.754 2.857-1.683 0-.93-1.279-1.683-2.857-1.683-1.577 0-2.856.753-2.856 1.683 0 .929 1.279 1.683 2.856 1.683z"/><path d="m366.057 295.513c1.121.673 1.121 1.683 0 2.356-1.12.673-2.912.673-4.033 0-1.12-.673-1.12-1.683 0-2.356 1.121-.673 2.913-.673 4.033 0z"/><path d="m376.7 289.343c1.12.673 1.12 1.683 0 2.356-1.121.673-2.913.673-4.033 0-1.121-.673-1.121-1.683 0-2.356 1.064-.617 2.912-.617 4.033 0z"/><path d="m387.287 283.228c1.12.673 1.12 1.683 0 2.356s-2.913.673-4.033 0-1.12-1.683 0-2.356 2.913-.673 4.033 0z"/><path d="m397.929 277.057c1.121.673 1.121 1.683 0 2.356-1.12.673-2.912.673-4.033 0-1.12-.673-1.12-1.683 0-2.356 1.065-.617 2.913-.617 4.033 0z"/><path d="m408.517 270.943c1.12.673 1.12 1.683 0 2.356-1.12.674-2.913.674-4.033 0-1.12-.673-1.12-1.683 0-2.356s2.913-.673 4.033 0z"/><path d="m417.087 267.633c1.578 0 2.857-.753 2.857-1.683 0-.929-1.279-1.683-2.857-1.683s-2.857.754-2.857 1.683c0 .93 1.279 1.683 2.857 1.683z"/><path d="m429.747 258.658c1.12.673 1.12 1.682 0 2.356-1.12.673-2.913.673-4.033 0-1.121-.674-1.121-1.683 0-2.356 1.12-.617 2.913-.617 4.033 0z"/><path d="m245.233 350.768c1.12-.673 2.912-.673 4.033 0 1.12.673 1.12 1.683 0 2.356-1.121.673-2.913.673-4.033 0-1.121-.673-1.121-1.739 0-2.356z"/><path d="m259.909 344.597c1.121.673 1.121 1.683 0 2.356-1.12.673-2.912.673-4.033 0-1.12-.673-1.12-1.683 0-2.356 1.065-.673 2.913-.673 4.033 0z"/><path d="m270.496 338.483c1.12.673 1.12 1.683 0 2.356-1.121.673-2.913.673-4.033 0-1.121-.673-1.121-1.683 0-2.356 1.12-.673 2.912-.673 4.033 0z"/><path d="m281.139 332.312c1.12.674 1.12 1.683 0 2.356-1.12.674-2.913.674-4.033 0-1.12-.673-1.12-1.682 0-2.356 1.064-.617 2.913-.617 4.033 0z"/><path d="m291.725 326.198c1.121.673 1.121 1.683 0 2.356-1.12.673-2.912.673-4.033 0-1.12-.673-1.12-1.683 0-2.356 1.121-.673 2.913-.673 4.033 0z"/><path d="m302.369 320.027c1.12.674 1.12 1.683 0 2.357-1.12.673-2.913.673-4.033 0-1.12-.674-1.12-1.683 0-2.357 1.064-.617 2.913-.617 4.033 0z"/><path d="m312.955 313.912c1.121.673 1.121 1.683 0 2.356-1.12.674-2.912.674-4.033 0-1.12-.673-1.12-1.683 0-2.356 1.121-.673 2.913-.673 4.033 0z"/><path d="m323.598 307.799c1.12.673 1.12 1.682 0 2.356-1.121.673-2.913.673-4.033 0-1.121-.674-1.121-1.683 0-2.356 1.064-.674 2.912-.674 4.033 0z"/><path d="m334.185 301.628c1.12.673 1.12 1.683 0 2.356s-2.913.673-4.033 0-1.12-1.683 0-2.356c1.12-.617 2.913-.617 4.033 0z"/><path d="m344.827 295.513c1.121.673 1.121 1.683 0 2.356-1.12.673-2.912.673-4.033 0-1.12-.673-1.12-1.683 0-2.356 1.121-.673 2.913-.673 4.033 0z"/><path d="m355.471 289.343c1.12.673 1.12 1.683 0 2.356s-2.913.673-4.033 0-1.12-1.683 0-2.356c1.064-.617 2.913-.617 4.033 0z"/><path d="m366.057 283.228c1.121.673 1.121 1.683 0 2.356-1.12.673-2.912.673-4.033 0-1.12-.673-1.12-1.683 0-2.356 1.121-.673 2.913-.673 4.033 0z"/><path d="m376.7 277.057c1.12.673 1.12 1.683 0 2.356-1.121.673-2.913.673-4.033 0-1.121-.673-1.121-1.683 0-2.356 1.064-.617 2.912-.617 4.033 0z"/><path d="m387.287 270.943c1.12.673 1.12 1.683 0 2.356-1.12.674-2.913.674-4.033 0-1.12-.673-1.12-1.683 0-2.356s2.913-.673 4.033 0z"/><path d="m397.929 264.828c1.121.674 1.121 1.683 0 2.356-1.12.674-2.912.674-4.033 0-1.12-.673-1.12-1.682 0-2.356 1.065-.673 2.913-.673 4.033 0z"/><path d="m408.517 258.658c1.12.673 1.12 1.682 0 2.356-1.12.673-2.913.673-4.033 0-1.12-.674-1.12-1.683 0-2.356 1.12-.617 2.913-.617 4.033 0z"/><path d="m419.159 252.544c1.121.673 1.121 1.683 0 2.356-1.12.673-2.912.673-4.033 0-1.12-.673-1.12-1.683 0-2.356 1.065-.673 2.913-.673 4.033 0z"/><path d="m234.59 344.597c1.121-.673 2.913-.673 4.033 0 1.121.673 1.121 1.683 0 2.356-1.12.673-2.912.673-4.033 0-1.12-.673-1.12-1.683 0-2.356z"/><path d="m249.266 338.483c1.12.673 1.12 1.683 0 2.356-1.121.673-2.913.673-4.033 0-1.121-.673-1.121-1.683 0-2.356 1.12-.673 2.912-.673 4.033 0z"/><path d="m257.893 335.173c1.578 0 2.857-.754 2.857-1.683s-1.279-1.683-2.857-1.683-2.857.754-2.857 1.683 1.279 1.683 2.857 1.683z"/><path d="m270.496 326.198c1.12.673 1.12 1.683 0 2.356-1.121.673-2.913.673-4.033 0-1.121-.673-1.121-1.683 0-2.356 1.12-.673 2.912-.673 4.033 0z"/><path d="m281.139 320.027c1.12.674 1.12 1.683 0 2.357-1.12.673-2.913.673-4.033 0-1.12-.674-1.12-1.683 0-2.357 1.064-.617 2.913-.617 4.033 0z"/><path d="m291.725 313.912c1.121.673 1.121 1.683 0 2.356-1.12.674-2.912.674-4.033 0-1.12-.673-1.12-1.683 0-2.356 1.121-.673 2.913-.673 4.033 0z"/><path d="m302.369 307.799c1.12.673 1.12 1.682 0 2.356-1.12.673-2.913.673-4.033 0-1.12-.674-1.12-1.683 0-2.356 1.064-.674 2.913-.674 4.033 0z"/><path d="m312.955 301.628c1.121.673 1.121 1.683 0 2.356-1.12.673-2.912.673-4.033 0-1.12-.673-1.12-1.683 0-2.356 1.121-.617 2.913-.617 4.033 0z"/><path d="m323.598 295.513c1.12.673 1.12 1.683 0 2.356-1.121.673-2.913.673-4.033 0-1.121-.673-1.121-1.683 0-2.356 1.064-.673 2.912-.673 4.033 0z"/><path d="m334.185 289.343c1.12.673 1.12 1.683 0 2.356s-2.913.673-4.033 0-1.12-1.683 0-2.356c1.12-.617 2.913-.617 4.033 0z"/><path d="m344.827 283.228c1.121.673 1.121 1.683 0 2.356-1.12.673-2.912.673-4.033 0-1.12-.673-1.12-1.683 0-2.356 1.121-.673 2.913-.673 4.033 0z"/><path d="m355.471 277.057c1.12.673 1.12 1.683 0 2.356s-2.913.673-4.033 0-1.12-1.683 0-2.356c1.064-.617 2.913-.617 4.033 0z"/><path d="m366.057 270.943c1.121.673 1.121 1.683 0 2.356-1.12.674-2.912.674-4.033 0-1.12-.673-1.12-1.683 0-2.356 1.121-.673 2.913-.673 4.033 0z"/><path d="m376.7 264.828c1.12.674 1.12 1.683 0 2.356-1.121.674-2.913.674-4.033 0-1.121-.673-1.121-1.682 0-2.356 1.064-.673 2.912-.673 4.033 0z"/><path d="m387.287 258.658c1.12.673 1.12 1.682 0 2.356-1.12.673-2.913.673-4.033 0-1.12-.674-1.12-1.683 0-2.356 1.12-.617 2.913-.617 4.033 0z"/><path d="m397.929 252.544c1.121.673 1.121 1.683 0 2.356-1.12.673-2.912.673-4.033 0-1.12-.673-1.12-1.683 0-2.356 1.065-.673 2.913-.673 4.033 0z"/><path d="m408.517 246.373c1.12.673 1.12 1.683 0 2.356s-2.913.673-4.033 0-1.12-1.683 0-2.356c1.12-.617 2.913-.617 4.033 0z"/><path d="m223.892 338.427c1.12-.673 2.913-.673 4.033 0s1.12 1.683 0 2.356-2.913.673-4.033 0-1.12-1.739 0-2.356z"/><path d="m238.567 332.256c1.121.673 1.121 1.683 0 2.356-1.12.673-2.912.673-4.033 0-1.12-.673-1.12-1.683 0-2.356 1.121-.673 2.913-.673 4.033 0z"/><path d="m249.211 326.142c1.12.673 1.12 1.683 0 2.356s-2.913.673-4.033 0c-1.121-.673-1.121-1.683 0-2.356 1.064-.673 2.913-.673 4.033 0z"/><path d="m259.797 319.971c1.12.674 1.12 1.683 0 2.356-1.12.674-2.913.674-4.033 0-1.12-.673-1.12-1.682 0-2.356 1.12-.617 2.913-.617 4.033 0z"/><path d="m270.44 313.856c1.12.673 1.12 1.683 0 2.356-1.121.673-2.913.673-4.033 0-1.121-.673-1.121-1.683 0-2.356 1.064-.673 2.912-.673 4.033 0z"/><path d="m281.027 307.687c1.12.673 1.12 1.683 0 2.356s-2.913.673-4.033 0-1.12-1.683 0-2.356c1.12-.617 2.913-.617 4.033 0z"/><path d="m289.653 304.432c1.578 0 2.857-.753 2.857-1.682 0-.93-1.279-1.683-2.857-1.683s-2.857.753-2.857 1.683c0 .929 1.279 1.682 2.857 1.682z"/><path d="m302.257 295.458c1.12.673 1.12 1.683 0 2.356s-2.913.673-4.033 0c-1.121-.673-1.121-1.683 0-2.356 1.12-.673 2.913-.673 4.033 0z"/><path d="m312.899 289.287c1.12.673 1.12 1.683 0 2.356s-2.913.673-4.033 0-1.12-1.683 0-2.356c1.064-.617 2.913-.617 4.033 0z"/><path d="m323.485 283.172c1.121.673 1.121 1.683 0 2.356-1.12.673-2.912.673-4.033 0-1.12-.673-1.12-1.683 0-2.356 1.121-.673 2.913-.673 4.033 0z"/><path d="m334.129 277.001c1.12.673 1.12 1.683 0 2.356s-2.913.673-4.033 0-1.12-1.683 0-2.356c1.064-.617 2.913-.617 4.033 0z"/><path d="m344.715 270.887c1.121.673 1.121 1.683 0 2.356-1.12.673-2.912.673-4.033 0-1.12-.673-1.12-1.683 0-2.356 1.121-.673 2.913-.673 4.033 0z"/><path d="m355.359 264.716c1.12.674 1.12 1.683 0 2.356-1.12.674-2.913.674-4.033 0-1.12-.673-1.12-1.682 0-2.356 1.064-.617 2.913-.617 4.033 0z"/><path d="m365.945 258.603c1.12.673 1.12 1.682 0 2.356-1.12.673-2.913.673-4.033 0-1.12-.674-1.12-1.683 0-2.356 1.12-.674 2.913-.674 4.033 0z"/><path d="m376.589 252.488c1.12.673 1.12 1.682 0 2.356-1.121.673-2.913.673-4.033 0-1.121-.674-1.121-1.683 0-2.356 1.064-.674 2.912-.674 4.033 0z"/><path d="m387.175 246.317c1.12.673 1.12 1.683 0 2.356s-2.913.673-4.033 0-1.12-1.683 0-2.356c1.12-.617 2.913-.617 4.033 0z"/><path d="m397.817 240.203c1.121.673 1.121 1.683 0 2.356-1.12.673-2.912.673-4.033 0-1.12-.673-1.12-1.683 0-2.356 1.065-.673 2.913-.673 4.033 0z"/><path d="m213.248 332.256c1.121-.673 2.913-.673 4.033 0 1.121.673 1.121 1.683 0 2.356-1.12.673-2.912.673-4.033 0-1.12-.673-1.12-1.683 0-2.356z"/><path d="m227.981 326.142c1.12.673 1.12 1.683 0 2.356s-2.913.673-4.033 0-1.12-1.683 0-2.356c1.064-.673 2.913-.673 4.033 0z"/><path d="m238.567 319.971c1.121.674 1.121 1.683 0 2.356-1.12.674-2.912.674-4.033 0-1.12-.673-1.12-1.682 0-2.356 1.121-.617 2.913-.617 4.033 0z"/><path d="m249.211 313.856c1.12.673 1.12 1.683 0 2.356s-2.913.673-4.033 0c-1.121-.673-1.121-1.683 0-2.356 1.064-.673 2.913-.673 4.033 0z"/><path d="m259.797 307.687c1.12.673 1.12 1.683 0 2.356s-2.913.673-4.033 0-1.12-1.683 0-2.356c1.12-.617 2.913-.617 4.033 0z"/><path d="m270.44 301.572c1.12.673 1.12 1.682 0 2.356-1.121.673-2.913.673-4.033 0-1.121-.674-1.121-1.683 0-2.356 1.064-.674 2.912-.674 4.033 0z"/><path d="m281.027 295.458c1.12.673 1.12 1.683 0 2.356s-2.913.673-4.033 0-1.12-1.683 0-2.356 2.913-.673 4.033 0z"/><path d="m291.669 289.287c1.121.673 1.121 1.683 0 2.356-1.12.673-2.912.673-4.033 0-1.12-.673-1.12-1.683 0-2.356 1.065-.617 2.913-.617 4.033 0z"/><path d="m302.257 283.172c1.12.673 1.12 1.683 0 2.356s-2.913.673-4.033 0c-1.121-.673-1.121-1.683 0-2.356 1.12-.673 2.913-.673 4.033 0z"/><path d="m312.899 277.001c1.12.673 1.12 1.683 0 2.356s-2.913.673-4.033 0-1.12-1.683 0-2.356c1.064-.617 2.913-.617 4.033 0z"/><path d="m323.485 270.887c1.121.673 1.121 1.683 0 2.356-1.12.673-2.912.673-4.033 0-1.12-.673-1.12-1.683 0-2.356 1.121-.673 2.913-.673 4.033 0z"/><path d="m334.129 264.716c1.12.674 1.12 1.683 0 2.356-1.12.674-2.913.674-4.033 0-1.12-.673-1.12-1.682 0-2.356 1.064-.617 2.913-.617 4.033 0z"/><path d="m344.715 258.603c1.121.673 1.121 1.682 0 2.356-1.12.673-2.912.673-4.033 0-1.12-.674-1.12-1.683 0-2.356 1.121-.674 2.913-.674 4.033 0z"/><path d="m355.359 252.488c1.12.673 1.12 1.682 0 2.356-1.12.673-2.913.673-4.033 0-1.12-.674-1.12-1.683 0-2.356 1.064-.674 2.913-.674 4.033 0z"/><path d="m365.945 246.317c1.12.673 1.12 1.683 0 2.356s-2.913.673-4.033 0-1.12-1.683 0-2.356c1.12-.617 2.913-.617 4.033 0z"/><path d="m376.589 240.203c1.12.673 1.12 1.683 0 2.356-1.121.673-2.913.673-4.033 0-1.121-.673-1.121-1.683 0-2.356 1.064-.673 2.912-.673 4.033 0z"/><path d="m387.175 234.032c1.12.673 1.12 1.683 0 2.356s-2.913.673-4.033 0-1.12-1.683 0-2.356c1.12-.617 2.913-.617 4.033 0z"/><path d="m202.662 326.142c1.12-.673 2.913-.673 4.033 0s1.12 1.683 0 2.356-2.913.673-4.033 0-1.12-1.739 0-2.356z"/><path d="m217.337 319.971c1.121.674 1.121 1.683 0 2.356-1.12.674-2.912.674-4.033 0-1.12-.673-1.12-1.682 0-2.356 1.121-.617 2.913-.617 4.033 0z"/><path d="m227.981 313.856c1.12.673 1.12 1.683 0 2.356s-2.913.673-4.033 0-1.12-1.683 0-2.356c1.064-.673 2.913-.673 4.033 0z"/><path d="m238.567 307.687c1.121.673 1.121 1.683 0 2.356-1.12.673-2.912.673-4.033 0-1.12-.673-1.12-1.683 0-2.356 1.121-.617 2.913-.617 4.033 0z"/><path d="m249.211 301.572c1.12.673 1.12 1.682 0 2.356-1.12.673-2.913.673-4.033 0-1.121-.674-1.121-1.683 0-2.356 1.064-.674 2.913-.674 4.033 0z"/><path d="m259.797 295.458c1.12.673 1.12 1.683 0 2.356s-2.913.673-4.033 0-1.12-1.683 0-2.356 2.913-.673 4.033 0z"/><path d="m270.44 289.287c1.12.673 1.12 1.683 0 2.356-1.121.673-2.913.673-4.033 0-1.121-.673-1.121-1.683 0-2.356 1.064-.617 2.912-.617 4.033 0z"/><path d="m281.027 283.172c1.12.673 1.12 1.683 0 2.356s-2.913.673-4.033 0-1.12-1.683 0-2.356 2.913-.673 4.033 0z"/><path d="m291.669 277.001c1.121.673 1.121 1.683 0 2.356-1.12.673-2.912.673-4.033 0-1.12-.673-1.12-1.683 0-2.356 1.065-.617 2.913-.617 4.033 0z"/><path d="m302.257 270.887c1.12.673 1.12 1.683 0 2.356s-2.913.673-4.033 0c-1.121-.673-1.121-1.683 0-2.356 1.12-.673 2.913-.673 4.033 0z"/><path d="m312.899 264.716c1.12.674 1.12 1.683 0 2.356-1.12.674-2.913.674-4.033 0-1.12-.673-1.12-1.682 0-2.356 1.064-.617 2.913-.617 4.033 0z"/><path d="m323.485 258.603c1.121.673 1.121 1.682 0 2.356-1.12.673-2.912.673-4.033 0-1.12-.674-1.12-1.683 0-2.356 1.121-.674 2.913-.674 4.033 0z"/><path d="m334.129 252.488c1.12.673 1.12 1.682 0 2.356-1.12.673-2.913.673-4.033 0-1.12-.674-1.12-1.683 0-2.356 1.064-.674 2.913-.674 4.033 0z"/><path d="m344.715 246.317c1.121.673 1.121 1.683 0 2.356-1.12.673-2.912.673-4.033 0-1.12-.673-1.12-1.683 0-2.356 1.121-.617 2.913-.617 4.033 0z"/><path d="m355.359 240.203c1.12.673 1.12 1.683 0 2.356s-2.913.673-4.033 0-1.12-1.683 0-2.356c1.064-.673 2.913-.673 4.033 0z"/><path d="m365.945 234.032c1.12.673 1.12 1.683 0 2.356s-2.913.673-4.033 0-1.12-1.683 0-2.356c1.12-.617 2.913-.617 4.033 0z"/><path d="m376.589 227.918c1.12.673 1.12 1.683 0 2.356-1.121.673-2.913.673-4.033 0-1.121-.673-1.121-1.683 0-2.356 1.064-.673 2.912-.673 4.033 0z"/><path d="m192.019 319.971c1.12-.673 2.912-.673 4.033 0 1.12.673 1.12 1.683 0 2.356-1.121.673-2.913.673-4.033 0-1.121-.617-1.121-1.683 0-2.356z"/><path d="m206.751 313.856c1.121.673 1.121 1.683 0 2.356-1.12.673-2.913.673-4.033 0s-1.12-1.683 0-2.356c1.064-.673 2.913-.673 4.033 0z"/><path d="m217.337 307.687c1.121.673 1.121 1.683 0 2.356-1.12.673-2.912.673-4.033 0-1.12-.673-1.12-1.683 0-2.356 1.121-.617 2.913-.617 4.033 0z"/><path d="m227.981 301.572c1.12.673 1.12 1.682 0 2.356-1.12.673-2.913.673-4.033 0-1.12-.674-1.12-1.683 0-2.356 1.064-.674 2.913-.674 4.033 0z"/><path d="m238.567 295.458c1.121.673 1.121 1.683 0 2.356-1.12.673-2.912.673-4.033 0-1.12-.673-1.12-1.683 0-2.356 1.121-.673 2.913-.673 4.033 0z"/><path d="m249.211 289.287c1.12.673 1.12 1.683 0 2.356s-2.913.673-4.033 0c-1.121-.673-1.121-1.683 0-2.356 1.064-.617 2.913-.617 4.033 0z"/><path d="m259.797 283.172c1.12.673 1.12 1.683 0 2.356s-2.913.673-4.033 0-1.12-1.683 0-2.356 2.913-.673 4.033 0z"/><path d="m270.44 277.001c1.12.673 1.12 1.683 0 2.356-1.121.673-2.913.673-4.033 0-1.121-.673-1.121-1.683 0-2.356 1.064-.617 2.912-.617 4.033 0z"/><path d="m279.01 273.748c1.578 0 2.857-.753 2.857-1.683 0-.929-1.279-1.683-2.857-1.683-1.577 0-2.856.754-2.856 1.683 0 .93 1.279 1.683 2.856 1.683z"/><path d="m291.669 264.716c1.121.674 1.121 1.683 0 2.356-1.12.674-2.912.674-4.033 0-1.12-.673-1.12-1.682 0-2.356 1.065-.617 2.913-.617 4.033 0z"/><path d="m302.257 258.603c1.12.673 1.12 1.682 0 2.356-1.12.673-2.913.673-4.033 0-1.121-.674-1.121-1.683 0-2.356 1.12-.674 2.913-.674 4.033 0z"/><path d="m310.883 255.348c1.577 0 2.856-.753 2.856-1.682 0-.93-1.279-1.683-2.856-1.683-1.578 0-2.857.753-2.857 1.683 0 .929 1.279 1.682 2.857 1.682z"/><path d="m323.485 246.317c1.121.673 1.121 1.683 0 2.356-1.12.673-2.912.673-4.033 0-1.12-.673-1.12-1.683 0-2.356 1.121-.617 2.913-.617 4.033 0z"/><path d="m334.129 240.203c1.12.673 1.12 1.683 0 2.356s-2.913.673-4.033 0-1.12-1.683 0-2.356c1.064-.673 2.913-.673 4.033 0z"/><path d="m344.715 234.032c1.121.673 1.121 1.683 0 2.356-1.12.673-2.912.673-4.033 0-1.12-.673-1.12-1.683 0-2.356 1.121-.617 2.913-.617 4.033 0z"/><path d="m355.359 227.918c1.12.673 1.12 1.683 0 2.356s-2.913.673-4.033 0-1.12-1.683 0-2.356c1.064-.673 2.913-.673 4.033 0z"/><path d="m365.945 221.747c1.12.674 1.12 1.683 0 2.357-1.12.673-2.913.673-4.033 0-1.12-.674-1.12-1.683 0-2.357 1.12-.617 2.913-.617 4.033 0z"/><path d="m181.432 313.856c1.121-.673 2.913-.673 4.033 0 1.121.673 1.121 1.683 0 2.356-1.12.673-2.912.673-4.033 0-1.12-.673-1.12-1.739 0-2.356z"/><path d="m196.108 307.687c1.12.673 1.12 1.683 0 2.356-1.121.673-2.913.673-4.033 0-1.121-.673-1.121-1.683 0-2.356 1.12-.617 2.912-.617 4.033 0z"/><path d="m206.751 301.572c1.121.673 1.121 1.682 0 2.356-1.12.673-2.913.673-4.033 0-1.12-.674-1.12-1.683 0-2.356 1.064-.674 2.913-.674 4.033 0z"/><path d="m217.337 295.458c1.121.673 1.121 1.683 0 2.356-1.12.673-2.912.673-4.033 0-1.12-.673-1.12-1.683 0-2.356 1.121-.673 2.913-.673 4.033 0z"/><path d="m227.981 289.287c1.12.673 1.12 1.683 0 2.356s-2.913.673-4.033 0-1.12-1.683 0-2.356c1.064-.617 2.913-.617 4.033 0z"/><path d="m238.567 283.172c1.121.673 1.121 1.683 0 2.356-1.12.673-2.912.673-4.033 0-1.12-.673-1.12-1.683 0-2.356 1.121-.673 2.913-.673 4.033 0z"/><path d="m249.211 277.001c1.12.673 1.12 1.683 0 2.356s-2.913.673-4.033 0c-1.121-.673-1.121-1.683 0-2.356 1.064-.617 2.913-.617 4.033 0z"/><path d="m259.797 270.887c1.12.673 1.12 1.683 0 2.356s-2.913.673-4.033 0-1.12-1.683 0-2.356 2.913-.673 4.033 0z"/><path d="m270.44 264.716c1.12.674 1.12 1.683 0 2.356-1.121.674-2.913.674-4.033 0-1.121-.673-1.121-1.682 0-2.356 1.064-.617 2.912-.617 4.033 0z"/><path d="m281.027 258.603c1.12.673 1.12 1.682 0 2.356-1.12.673-2.913.673-4.033 0-1.12-.674-1.12-1.683 0-2.356 1.12-.674 2.913-.674 4.033 0z"/><path d="m291.669 252.488c1.121.673 1.121 1.682 0 2.356-1.12.673-2.912.673-4.033 0-1.12-.674-1.12-1.683 0-2.356 1.065-.674 2.913-.674 4.033 0z"/><path d="m302.257 246.317c1.12.673 1.12 1.683 0 2.356s-2.913.673-4.033 0c-1.121-.673-1.121-1.683 0-2.356 1.12-.617 2.913-.617 4.033 0z"/><path d="m310.883 243.064c1.577 0 2.856-.754 2.856-1.683 0-.93-1.279-1.683-2.856-1.683-1.578 0-2.857.753-2.857 1.683 0 .929 1.279 1.683 2.857 1.683z"/><path d="m323.485 234.032c1.121.673 1.121 1.683 0 2.356-1.12.673-2.912.673-4.033 0-1.12-.673-1.12-1.683 0-2.356 1.121-.617 2.913-.617 4.033 0z"/><path d="m334.129 227.918c1.12.673 1.12 1.683 0 2.356s-2.913.673-4.033 0-1.12-1.683 0-2.356c1.064-.673 2.913-.673 4.033 0z"/><path d="m344.715 221.747c1.121.674 1.121 1.683 0 2.357-1.12.673-2.912.673-4.033 0-1.12-.674-1.12-1.683 0-2.357 1.121-.617 2.913-.617 4.033 0z"/><path d="m355.359 215.632c1.12.674 1.12 1.683 0 2.356-1.12.674-2.913.674-4.033 0-1.12-.673-1.12-1.682 0-2.356 1.064-.617 2.913-.617 4.033 0z"/><path d="m170.79 307.687c1.12-.674 2.913-.674 4.033 0 1.12.673 1.12 1.682 0 2.356-1.12.673-2.913.673-4.033 0-1.12-.618-1.12-1.683 0-2.356z"/><path d="m185.521 301.572c1.121.673 1.121 1.682 0 2.356-1.12.673-2.912.673-4.033 0-1.12-.674-1.12-1.683 0-2.356 1.065-.674 2.913-.674 4.033 0z"/><path d="m196.108 295.458c1.12.673 1.12 1.683 0 2.356-1.121.673-2.913.673-4.033 0-1.121-.673-1.121-1.683 0-2.356 1.12-.673 2.912-.673 4.033 0z"/><path d="m206.751 289.287c1.121.673 1.121 1.683 0 2.356-1.12.673-2.913.673-4.033 0s-1.12-1.683 0-2.356c1.064-.617 2.913-.617 4.033 0z"/><path d="m217.337 283.172c1.121.673 1.121 1.683 0 2.356-1.12.673-2.912.673-4.033 0-1.12-.673-1.12-1.683 0-2.356 1.121-.673 2.913-.673 4.033 0z"/><path d="m227.981 277.001c1.12.673 1.12 1.683 0 2.356s-2.913.673-4.033 0-1.12-1.683 0-2.356c1.064-.617 2.913-.617 4.033 0z"/><path d="m238.567 270.887c1.121.673 1.121 1.683 0 2.356-1.12.673-2.912.673-4.033 0-1.12-.673-1.12-1.683 0-2.356 1.121-.673 2.913-.673 4.033 0z"/><path d="m249.211 264.716c1.12.674 1.12 1.683 0 2.356-1.12.674-2.913.674-4.033 0-1.121-.673-1.121-1.682 0-2.356 1.064-.617 2.913-.617 4.033 0z"/><path d="m259.797 258.603c1.12.673 1.12 1.682 0 2.356-1.12.673-2.913.673-4.033 0-1.12-.674-1.12-1.683 0-2.356 1.12-.674 2.913-.674 4.033 0z"/><path d="m270.44 252.488c1.12.673 1.12 1.682 0 2.356-1.121.673-2.913.673-4.033 0-1.121-.674-1.121-1.683 0-2.356 1.064-.674 2.912-.674 4.033 0z"/><path d="m281.027 246.317c1.12.673 1.12 1.683 0 2.356s-2.913.673-4.033 0-1.12-1.683 0-2.356c1.12-.617 2.913-.617 4.033 0z"/><path d="m291.669 240.203c1.121.673 1.121 1.683 0 2.356-1.12.673-2.912.673-4.033 0-1.12-.673-1.12-1.683 0-2.356 1.065-.673 2.913-.673 4.033 0z"/><path d="m302.257 234.032c1.12.673 1.12 1.683 0 2.356s-2.913.673-4.033 0c-1.121-.673-1.121-1.683 0-2.356 1.12-.617 2.913-.617 4.033 0z"/><path d="m312.899 227.918c1.12.673 1.12 1.683 0 2.356s-2.913.673-4.033 0-1.12-1.683 0-2.356c1.064-.673 2.913-.673 4.033 0z"/><path d="m323.485 221.747c1.121.674 1.121 1.683 0 2.357-1.12.673-2.912.673-4.033 0-1.12-.674-1.12-1.683 0-2.357 1.121-.617 2.913-.617 4.033 0z"/><path d="m334.129 215.632c1.12.674 1.12 1.683 0 2.356-1.12.674-2.913.674-4.033 0-1.12-.673-1.12-1.682 0-2.356 1.064-.617 2.913-.617 4.033 0z"/><path d="m344.715 209.519c1.121.673 1.121 1.682 0 2.356-1.12.673-2.912.673-4.033 0-1.12-.674-1.12-1.683 0-2.356 1.121-.674 2.913-.674 4.033 0z"/><path d="m160.202 301.572c1.121-.674 2.913-.674 4.033 0 1.121.673 1.121 1.682 0 2.356-1.12.673-2.912.673-4.033 0-1.12-.674-1.12-1.683 0-2.356z"/><path d="m172.863 298.262c1.577 0 2.856-.753 2.856-1.682 0-.93-1.279-1.683-2.856-1.683-1.578 0-2.857.753-2.857 1.683 0 .929 1.279 1.682 2.857 1.682z"/><path d="m183.449 292.148c1.578 0 2.857-.754 2.857-1.683 0-.93-1.279-1.683-2.857-1.683s-2.857.753-2.857 1.683c0 .929 1.279 1.683 2.857 1.683z"/><path d="m196.108 283.172c1.12.673 1.12 1.683 0 2.356-1.121.673-2.913.673-4.033 0-1.121-.673-1.121-1.683 0-2.356 1.12-.673 2.912-.673 4.033 0z"/><path d="m206.751 277.002c1.121.673 1.121 1.683 0 2.356-1.12.673-2.913.673-4.033 0s-1.12-1.683 0-2.356 2.913-.617 4.033 0z"/><path d="m217.337 270.887c1.121.673 1.121 1.683 0 2.356-1.12.673-2.912.673-4.033 0-1.12-.673-1.12-1.683 0-2.356 1.121-.673 2.913-.673 4.033 0z"/><path d="m227.981 264.716c1.12.674 1.12 1.683 0 2.356-1.12.674-2.913.674-4.033 0-1.12-.673-1.12-1.682 0-2.356 1.064-.617 2.913-.617 4.033 0z"/><path d="m238.567 258.603c1.121.673 1.121 1.682 0 2.356-1.12.673-2.912.673-4.033 0-1.12-.674-1.12-1.683 0-2.356 1.121-.674 2.913-.674 4.033 0z"/><path d="m249.211 252.488c1.12.673 1.12 1.682 0 2.356-1.12.673-2.913.673-4.033 0-1.121-.674-1.121-1.683 0-2.356 1.064-.674 2.913-.674 4.033 0z"/><path d="m257.781 249.178c1.577 0 2.856-.753 2.856-1.682 0-.93-1.279-1.683-2.856-1.683-1.578 0-2.857.753-2.857 1.683 0 .929 1.279 1.682 2.857 1.682z"/><path d="m270.44 240.203c1.12.673 1.12 1.683 0 2.356-1.121.673-2.913.673-4.033 0-1.121-.673-1.121-1.683 0-2.356 1.064-.673 2.912-.673 4.033 0z"/><path d="m281.027 234.032c1.12.673 1.12 1.683 0 2.356s-2.913.673-4.033 0-1.12-1.683 0-2.356c1.12-.617 2.913-.617 4.033 0z"/><path d="m291.669 227.918c1.121.673 1.121 1.683 0 2.356-1.12.673-2.912.673-4.033 0-1.12-.673-1.12-1.683 0-2.356 1.065-.673 2.913-.673 4.033 0z"/><path d="m302.257 221.747c1.12.674 1.12 1.683 0 2.357-1.12.673-2.913.673-4.033 0-1.121-.674-1.121-1.683 0-2.357 1.12-.617 2.913-.617 4.033 0z"/><path d="m312.899 215.632c1.12.674 1.12 1.683 0 2.356-1.12.674-2.913.674-4.033 0-1.12-.673-1.12-1.682 0-2.356 1.064-.617 2.913-.617 4.033 0z"/><path d="m323.485 209.519c1.121.673 1.121 1.682 0 2.356-1.12.673-2.912.673-4.033 0-1.12-.674-1.12-1.683 0-2.356 1.121-.674 2.913-.674 4.033 0z"/><path d="m332.112 206.208c1.578 0 2.857-.753 2.857-1.683 0-.929-1.279-1.682-2.857-1.682-1.577 0-2.856.753-2.856 1.682 0 .93 1.279 1.683 2.856 1.683z"/><path d="m153.649 295.458c1.12.673 1.12 1.682 0 2.356-1.121.673-2.913.673-4.034 0-1.176-.674 2.913-3.03 4.034-2.356z"/><path d="m206.751 264.717c1.12.673 1.12 1.683 0 2.356-1.121.674-2.913.674-4.034 0-1.176-.617 2.913-2.973 4.034-2.356z"/><path d="m213.304 258.603c1.121-.674 2.913-.674 4.033 0 1.121.673 1.121 1.682 0 2.356-1.12.673-2.912.673-4.033 0-1.12-.674-1.12-1.683 0-2.356z"/><path d="m227.981 252.488c1.12.673 1.12 1.682 0 2.356-1.12.673-2.913.673-4.033 0-1.12-.674-1.12-1.683 0-2.356 1.064-.674 2.913-.674 4.033 0z"/><path d="m238.567 246.317c1.121.673 1.121 1.683 0 2.356-1.12.673-2.912.673-4.033 0-1.12-.673-1.12-1.683 0-2.356 1.121-.617 2.913-.617 4.033 0z"/><path d="m249.211 240.203c1.12.673 1.12 1.683 0 2.356s-2.913.673-4.033 0c-1.121-.673-1.121-1.683 0-2.356 1.064-.673 2.913-.673 4.033 0z"/><path d="m259.797 234.032c1.12.673 1.12 1.683 0 2.356s-2.913.673-4.033 0-1.12-1.683 0-2.356c1.12-.617 2.913-.617 4.033 0z"/><path d="m270.44 227.918c1.12.673 1.12 1.683 0 2.356-1.121.673-2.913.673-4.033 0-1.121-.673-1.121-1.683 0-2.356 1.064-.673 2.912-.673 4.033 0z"/><path d="m281.027 221.747c1.12.674 1.12 1.683 0 2.357-1.12.673-2.913.673-4.033 0-1.12-.674-1.12-1.683 0-2.357 1.12-.617 2.913-.617 4.033 0z"/><path d="m291.669 215.632c1.121.674 1.121 1.683 0 2.356-1.12.674-2.912.674-4.033 0-1.12-.673-1.12-1.682 0-2.356 1.065-.617 2.913-.617 4.033 0z"/><path d="m302.257 209.519c1.12.673 1.12 1.682 0 2.356-1.12.673-2.913.673-4.033 0-1.121-.674-1.121-1.683 0-2.356 1.12-.674 2.913-.674 4.033 0z"/><path d="m312.899 203.347c1.12.673 1.12 1.683 0 2.356-1.12.674-2.913.674-4.033 0-1.12-.673-1.12-1.683 0-2.356s2.913-.617 4.033 0z"/><path d="m323.485 197.234c1.121.673 1.121 1.683 0 2.356-1.12.673-2.912.673-4.033 0-1.12-.673-1.12-1.683 0-2.356 1.121-.674 2.913-.674 4.033 0z"/><path d="m223.836 240.147c1.12-.673 2.913-.673 4.033 0s1.12 1.683 0 2.356-2.913.673-4.033 0-1.12-1.739 0-2.356z"/><path d="m238.511 233.976c1.121.673 1.121 1.683 0 2.356-1.12.673-2.913.673-4.033 0s-1.12-1.683 0-2.356c1.064-.617 2.913-.617 4.033 0z"/><path d="m249.099 227.862c1.12.673 1.12 1.683 0 2.356-1.121.673-2.913.673-4.033 0-1.121-.673-1.121-1.683 0-2.356 1.12-.673 2.912-.673 4.033 0z"/><path d="m259.741 221.691c1.12.673 1.12 1.683 0 2.356s-2.913.673-4.033 0-1.12-1.683 0-2.356c1.064-.617 2.913-.617 4.033 0z"/><path d="m270.327 215.576c1.121.673 1.121 1.683 0 2.356-1.12.673-2.912.673-4.033 0-1.12-.673-1.12-1.683 0-2.356 1.121-.673 2.913-.673 4.033 0z"/><path d="m280.971 209.406c1.12.674 1.12 1.683 0 2.356-1.12.674-2.913.674-4.033 0-1.12-.673-1.12-1.682 0-2.356 1.064-.617 2.913-.617 4.033 0z"/><path d="m291.557 203.292c1.12.673 1.12 1.682 0 2.356-1.12.673-2.913.673-4.033 0-1.12-.674-1.12-1.683 0-2.356 1.12-.617 2.913-.617 4.033 0z"/><path d="m302.201 197.177c1.12.674 1.12 1.683 0 2.357-1.121.673-2.913.673-4.033 0-1.121-.674-1.121-1.683 0-2.357 1.064-.673 2.912-.673 4.033 0z"/><path d="m312.787 191.007c1.12.673 1.12 1.683 0 2.356s-2.913.673-4.033 0-1.12-1.683 0-2.356c1.12-.617 2.913-.617 4.033 0z"/><path d="m223.836 227.862c1.12-.673 2.913-.673 4.033 0s1.12 1.683 0 2.356-2.913.673-4.033 0-1.12-1.739 0-2.356z"/><path d="m238.511 221.691c1.121.673 1.121 1.683 0 2.356-1.12.673-2.913.673-4.033 0s-1.12-1.683 0-2.356c1.064-.617 2.913-.617 4.033 0z"/><path d="m249.099 215.576c1.12.673 1.12 1.683 0 2.356-1.121.673-2.913.673-4.033 0-1.121-.673-1.121-1.683 0-2.356 1.12-.673 2.912-.673 4.033 0z"/><path d="m259.741 209.406c1.12.673 1.12 1.683 0 2.356s-2.913.673-4.033 0-1.12-1.683 0-2.356 2.913-.617 4.033 0z"/><path d="m270.327 203.292c1.121.673 1.121 1.682 0 2.356-1.12.673-2.912.673-4.033 0-1.12-.674-1.12-1.683 0-2.356 1.121-.617 2.913-.617 4.033 0z"/><path d="m280.971 197.177c1.12.674 1.12 1.683 0 2.357-1.12.673-2.913.673-4.033 0-1.12-.674-1.12-1.683 0-2.357 1.064-.673 2.913-.673 4.033 0z"/><path d="m291.557 191.007c1.12.673 1.12 1.683 0 2.356s-2.913.673-4.033 0-1.12-1.683 0-2.356c1.12-.617 2.913-.617 4.033 0z"/><path d="m238.511 209.406c1.121.674 1.121 1.683 0 2.356-1.12.674-2.913.674-4.033 0-1.12-.673-1.12-1.682 0-2.356 1.064-.617 2.913-.617 4.033 0z"/><path d="m249.099 203.292c1.12.673 1.12 1.682 0 2.356-1.121.673-2.913.673-4.033 0-1.121-.674-1.121-1.683 0-2.356 1.12-.617 2.912-.617 4.033 0z"/><path d="m259.741 197.177c1.12.674 1.12 1.683 0 2.357-1.12.673-2.913.673-4.033 0-1.12-.674-1.12-1.683 0-2.357 1.064-.673 2.913-.673 4.033 0z"/><path d="m268.311 193.867c1.578 0 2.857-.753 2.857-1.682 0-.93-1.279-1.683-2.857-1.683s-2.857.753-2.857 1.683c0 .929 1.279 1.682 2.857 1.682z"/><path d="m459.659 267.689c1.577 0 2.856-.753 2.856-1.683 0-.929-1.279-1.683-2.856-1.683-1.578 0-2.857.754-2.857 1.683 0 .93 1.279 1.683 2.857 1.683z"/><path d="m472.317 258.714c1.121.673 1.121 1.683 0 2.356-1.12.673-2.912.673-4.033 0-1.12-.673-1.12-1.683 0-2.356 1.065-.617 2.913-.617 4.033 0z"/><path d="m446.998 258.715c1.121-.674 2.913-.674 4.033 0 1.121.673 1.121 1.682 0 2.356-1.12.673-2.912.673-4.033 0-1.12-.617-1.12-1.683 0-2.356z"/><path d="m459.659 255.461c1.577 0 2.856-.754 2.856-1.683 0-.93-1.279-1.683-2.856-1.683-1.578 0-2.857.753-2.857 1.683 0 .929 1.279 1.683 2.857 1.683z"/><path d="m472.317 246.429c1.121.673 1.121 1.683 0 2.356-1.12.673-2.912.673-4.033 0-1.12-.673-1.12-1.683 0-2.356 1.065-.617 2.913-.617 4.033 0z"/><path d="m436.357 252.6c1.12-.673 2.912-.673 4.033 0 1.12.673 1.12 1.683 0 2.356-1.121.673-2.913.673-4.033 0-1.065-.673-1.065-1.739 0-2.356z"/><path d="m451.088 246.429c1.12.673 1.12 1.683 0 2.356-1.121.673-2.913.673-4.033 0-1.121-.673-1.121-1.683 0-2.356 1.064-.617 2.912-.617 4.033 0z"/><path d="m461.675 240.315c1.12.673 1.12 1.683 0 2.356s-2.913.673-4.033 0-1.12-1.683 0-2.356 2.913-.673 4.033 0z"/><path d="m425.77 246.429c1.12-.673 2.913-.673 4.033 0s1.12 1.683 0 2.356-2.913.673-4.033 0c-1.12-.617-1.12-1.683 0-2.356z"/><path d="m440.445 240.315c1.121.673 1.121 1.683 0 2.356-1.12.673-2.912.673-4.033 0-1.12-.673-1.12-1.683 0-2.356 1.121-.673 2.913-.673 4.033 0z"/><path d="m451.088 234.144c1.12.674 1.12 1.683 0 2.356-1.121.674-2.913.674-4.033 0-1.121-.673-1.121-1.682 0-2.356 1.064-.617 2.912-.617 4.033 0z"/><path d="m415.126 240.315c1.12-.673 2.913-.673 4.033 0s1.12 1.683 0 2.356-2.913.673-4.033 0c-1.064-.673-1.12-1.683 0-2.356z"/><path d="m429.859 234.144c1.12.674 1.12 1.683 0 2.356-1.12.674-2.913.674-4.033 0-1.12-.673-1.12-1.682 0-2.356 1.064-.617 2.913-.617 4.033 0z"/><path d="m440.445 228.03c1.121.673 1.121 1.683 0 2.356-1.12.673-2.912.673-4.033 0-1.12-.673-1.12-1.683 0-2.356 1.121-.673 2.913-.673 4.033 0z"/><path d="m451.088 224.215c-1.121.674-2.913.674-4.033 0-1.121-.673-1.121-1.683 0-2.356 1.12-.673 2.912-.673 4.033 0 1.12.673 1.12 1.739 0 2.356z"/><path d="m404.428 234.088c1.12-.673 2.913-.673 4.033 0s1.12 1.683 0 2.356-2.913.673-4.033 0c-1.12-.617-1.12-1.683 0-2.356z"/><path d="m419.159 227.974c1.121.673 1.121 1.683 0 2.356-1.12.674-2.912.674-4.033 0-1.12-.673-1.12-1.683 0-2.356 1.065-.673 2.913-.673 4.033 0z"/><path d="m429.747 221.804c1.12.673 1.12 1.682 0 2.356-1.12.673-2.913.673-4.033 0-1.121-.674-1.121-1.683 0-2.356 1.12-.617 2.913-.617 4.033 0z"/><path d="m440.389 215.688c1.12.673 1.12 1.683 0 2.356s-2.913.673-4.033 0-1.12-1.683 0-2.356c1.064-.673 2.913-.673 4.033 0s-1.12-.673 0 0z"/><path d="m393.84 227.974c1.121-.673 2.913-.673 4.034 0 1.12.673 1.12 1.683 0 2.356-1.121.674-2.913.674-4.034 0-1.12-.673-1.12-1.683 0-2.356z"/><path d="m408.517 221.804c1.12.673 1.12 1.682 0 2.356-1.12.673-2.913.673-4.033 0-1.12-.674-1.12-1.683 0-2.356 1.12-.617 2.913-.617 4.033 0z"/><path d="m417.087 218.549c1.578 0 2.857-.753 2.857-1.683 0-.929-1.279-1.683-2.857-1.683s-2.857.754-2.857 1.683c0 .93 1.279 1.683 2.857 1.683z"/><path d="m429.747 209.575c1.12.673 1.12 1.683 0 2.356s-2.913.673-4.033 0c-1.121-.673-1.121-1.683 0-2.356 1.12-.673 2.913-.673 4.033 0 1.12.617-1.12-.673 0 0z"/><path d="m383.198 221.859c1.12-.673 2.913-.673 4.033 0s1.12 1.683 0 2.356c-1.12.674-2.913.674-4.033 0-1.12-.673-1.12-1.739 0-2.356z"/><path d="m397.929 215.688c1.121.673 1.121 1.683 0 2.356-1.12.673-2.912.673-4.033 0-1.12-.673-1.12-1.683 0-2.356 1.065-.673 2.857-.673 4.033 0z"/><path d="m408.517 209.575c1.12.673 1.12 1.683 0 2.356s-2.913.673-4.033 0-1.12-1.683 0-2.356 2.913-.673 4.033 0z"/><path d="m372.612 215.688c1.12-.673 2.913-.673 4.033 0s1.12 1.683 0 2.356-2.913.673-4.033 0c-1.121-.673-1.121-1.683 0-2.356z"/><path d="m387.287 209.575c1.12.673 1.12 1.683 0 2.356s-2.913.673-4.033 0-1.12-1.683 0-2.356 2.913-.673 4.033 0z"/><path d="m361.968 209.575c1.12-.673 2.913-.673 4.033 0 1.121.673 1.121 1.683 0 2.356-1.12.673-2.913.673-4.033 0s-1.12-1.739 0-2.356z"/><path d="m376.645 203.404c1.12.673 1.12 1.683 0 2.356s-2.913.673-4.033 0c-1.121-.673-1.121-1.683 0-2.356 1.12-.617 2.913-.617 4.033 0z"/><path d="m351.382 203.404c1.12-.674 2.913-.674 4.033 0 1.12.673 1.12 1.682 0 2.356-1.12.673-2.913.673-4.033 0-1.121-.617-1.121-1.683 0-2.356z"/><path d="m366.057 199.646c-1.12.673-2.912.673-4.033 0-1.12-.674-1.12-1.683 0-2.356 1.065-.674 5.154 1.682 4.033 2.356z"/><path d="m340.738 197.29c1.12-.673 2.913-.673 4.033 0 1.121.673 1.121 1.683 0 2.356-1.12.673-2.913.673-4.033 0s-1.12-1.739 0-2.356z"/><path d="m334.185 191.119c1.12.673 1.12 1.683 0 2.356s-2.913.673-4.033 0-1.12-1.683 0-2.356c1.12-.617 2.913-.617 4.033 0z"/></g><path d="m212.577 259.108-5.601-2.861 95.337-52.338 1.177 1.795-20.614 14.529z" fill="#013a51"/><path d="m209.272 256.246-14.62-8.302 93.769-51.496 14.452 8.414z" fill="#d9e8ed"/><path d="m209.272 257.481-16.86-9.537 96.009-52.73 16.581 9.705zm-12.435-9.537 12.435 7.068 91.36-50.149-12.267-7.181z" fill="#013a51"/><path d="m280.858 200.543 7.562-4.095 14.452 8.414-7.338 4.039z" fill="#a5cfd4"/><path d="m295.535 210.136-16.917-9.593 9.803-5.329 16.58 9.705zm-12.492-9.593 12.492 7.068 5.097-2.804-12.267-7.181z" fill="#013a51"/><path d="m274.585 204.021 6.274-3.478 14.676 8.358-6.554 3.59z" fill="#a5cfd4"/><path d="m288.981 213.726-16.58-9.705 8.458-4.712 16.861 9.592z" fill="#013a51"/><path d="m285.509 301.853-5.602-2.861 95.338-52.337 1.176 1.795-20.613 14.529z" fill="#013a51"/><path d="m282.203 298.992-14.62-8.302 93.769-51.496 14.452 8.414z" fill="#d9e8ed"/><path d="m282.204 300.226-16.861-9.536 96.01-52.73 16.58 9.704zm-12.436-9.48 12.436 7.068 91.36-50.15-12.267-7.18z" fill="#013a51"/><path d="m353.79 243.289 7.562-4.095 14.452 8.414-7.338 4.039z" fill="#a5cfd4"/><path d="m368.466 252.881-16.916-9.592 9.802-5.329 16.581 9.704zm-12.491-9.536 12.491 7.068 5.097-2.805-12.267-7.18z" fill="#013a51"/><path d="m347.517 246.823 6.273-3.534 14.676 8.358-6.554 3.59z" fill="#a5cfd4"/><path d="m361.913 256.471-16.58-9.704 8.458-4.712 16.86 9.592z" fill="#013a51"/><path d="m284.051 113.818v9.704l174.767 100.749v-9.424z" fill="#a5cfd4"/><path d="m458.818 214.847-174.767-101.029 20.95-12.117 174.71 101.085z" fill="#a5cfd4"/><path d="m458.818 214.847-171.237-99.01 17.421-10.097 171.685 99.29z" fill="#d9e8ed"/><path d="m481 203.516v-1.459l-1.288-.729-174.095-100.692-.616-.393-20.893 12.061-1.289.729v1.458 9.705l174.767 100.748 1.288.729 1.288-.729 20.894-12.06v-9.368zm-3.809-.73-5.041 2.917-13.332 7.685-62.065-35.845-110.125-63.725 18.317-10.602zm-191.851-79.993v-6.731l172.19 99.57v6.451z" fill="#013a51"/><path d="m255.539 129.132v9.705l174.767 100.748v-9.424z" fill="#a5cfd4"/><path d="m430.306 230.161-174.767-101.029 20.894-12.06 174.766 101.029z" fill="#a5cfd4"/><path d="m430.306 230.161-171.293-99.009 17.42-10.098 171.742 99.29z" fill="#d9e8ed"/><path d="m452.488 218.83v-1.459l-1.288-.729-174.095-100.692-.616-.393-20.894 12.061-1.288.729v1.458 9.705l174.767 100.748 1.288.73 1.288-.73 20.894-12.06v-9.368zm-3.865-.729-5.041 2.917-13.332 7.685-62.065-35.846-110.069-63.725 18.317-10.602zm-191.795-79.993v-6.732l172.19 99.57v6.452z" fill="#013a51"/><path d="m227.029 145.68v9.649l174.71 100.804v-9.424z" fill="#a5cfd4"/><path d="m401.739 246.709-174.71-101.029 20.893-12.116 174.711 101.028z" fill="#a5cfd4"/><path d="m401.74 246.709-171.238-99.065 17.421-10.041 171.741 99.289z" fill="#d9e8ed"/><path d="m423.921 235.378v-1.459l-1.288-.729-174.095-100.748-.616-.393-20.893 12.061-1.289.729v1.458 9.705l174.767 100.748 1.288.73 1.288-.73 20.894-12.06v-9.312zm-3.809-.786-5.041 2.917-13.332 7.686-62.064-35.846-110.126-63.669 18.317-10.602zm-191.851-79.992v-6.732l172.19 99.57v6.451z" fill="#013a51"/><path d="m198.46 162.228v9.705l174.767 100.748v-9.424z" fill="#a5cfd4"/><path d="m373.227 263.257-174.767-101.029 20.894-12.06 174.766 101.028z" fill="#a5cfd4"/><path d="m373.228 263.257-171.294-99.009 17.421-10.098 171.741 99.29z" fill="#d9e8ed"/><path d="m395.409 251.926v-1.459l-1.288-.729-174.095-100.692-.616-.393-20.893 12.061-1.289.729v1.458 9.705l174.767 100.748 1.288.73 1.289-.73 20.893-12.06v-9.368zm-3.865-.73-5.041 2.917-13.332 7.686-62.064-35.846-110.07-63.725 18.317-10.602zm-191.795-79.992v-6.732l172.19 99.514v6.451z" fill="#013a51"/><path d="m284.051 83.302v9.7046l174.767 100.7484v-9.424z" fill="#a5cfd4"/><path d="m458.818 184.331-174.767-101.0287 20.95-12.0606 174.71 101.0283z" fill="#a5cfd4"/><path d="m458.818 184.331-171.237-99.0094 17.421-10.0972 171.685 99.3456z" fill="#d9e8ed"/><path d="m481 173v-1.459l-1.288-.729-174.095-100.6923-.616-.3926-20.893 12.0606-1.289.7292v1.4585 9.7046l174.767 100.748 1.288.73 1.288-.73 20.894-12.06v-9.368zm-3.809-.73-5.041 2.917-13.332 7.686-62.009-35.902-110.181-63.6687 18.317-10.6022zm-191.851-79.9924v-6.7315l172.19 99.5699v6.451z" fill="#013a51"/><path d="m255.539 98.6162v9.7048l174.767 100.748v-9.368z" fill="#a5cfd4"/><path d="m430.306 199.701-174.767-101.0845 20.894-12.0606 174.766 101.0291z" fill="#a5cfd4"/><path d="m430.306 199.701-171.293-99.065 17.42-10.0413 171.742 99.2903z" fill="#d9e8ed"/><path d="m452.488 188.314v-1.459l-1.288-.729-174.095-100.6921-.616-.3926-20.894 12.0606-1.288.7292v1.4585 9.7044l174.767 100.749 1.288.729 1.288-.729 20.894-12.061v-9.368zm-3.865-.729-5.041 2.917-13.332 7.685-62.065-35.846-110.069-63.7245 18.317-10.6022zm-191.795-79.993v-6.732l172.19 99.571v6.451z" fill="#013a51"/><path d="m227.029 115.164v9.705l174.71 100.748v-9.424z" fill="#a5cfd4"/><path d="m401.739 216.193-174.71-101.028 20.893-12.061 174.711 101.029z" fill="#a5cfd4"/><path d="m401.74 216.193-171.238-99.009 17.421-10.097 171.741 99.289z" fill="#d9e8ed"/><path d="m423.921 204.862v-1.459l-1.288-.729-174.095-100.692-.616-.393-20.893 12.061-1.289.785v1.459 9.704l174.767 100.749 1.288.729 1.288-.729 20.894-12.061v-9.424zm-3.809-.729-5.041 2.917-13.332 7.685-62.064-35.845-110.126-63.725 18.317-10.603zm-191.851-79.993v-6.732l172.19 99.571v6.451z" fill="#013a51"/><path d="m198.46 131.712v9.705l174.767 100.748v-9.368z" fill="#a5cfd4"/><path d="m373.227 232.797-174.767-101.085 20.894-12.06 174.766 101.029z" fill="#a5cfd4"/><path d="m373.228 232.797-171.294-99.065 17.421-10.041 171.741 99.289z" fill="#d9e8ed"/><path d="m395.409 221.41v-1.459l-1.288-.729-174.095-100.692-.616-.393-20.893 12.061-1.289.729v1.459 9.704l174.711 100.805 1.288.729 1.288-.729 20.894-12.061zm-3.865-.729-5.041 2.917-13.332 7.685-62.064-35.846-110.07-63.725 18.317-10.602zm-191.795-79.993v-6.732l172.19 99.571v6.451z" fill="#013a51"/><path d="m325.95 236.108v-21.26l26.439 15.314v21.092z" fill="#a5cfd4"/><path d="m370.651 240.707-16.973-9.816v-1.459l-29.016-16.829v24.178l29.016 16.604v-2.973zm-19.55 8.302-23.918-13.687v-18.231l23.918 13.856z" fill="#013a51"/><path d="m217.002 172.831v-20.699l26.495 15.482v20.644z" fill="#a5cfd4"/><path d="m261.758 177.712-16.973-9.817v-1.066l-29.015-16.997v23.673l29.015 16.885v-2.973zm-19.549 8.302-23.919-13.912v-17.726l23.919 13.968z" fill="#013a51"/><path d="m270.216 203.516v-20.7l26.439 15.483v20.643z" fill="#a5cfd4"/><path d="m314.916 208.396-16.973-9.816v-1.066l-29.015-16.997v23.672l29.015 16.885v-2.861zm-19.549 8.303-23.919-13.912v-17.727l23.919 13.968z" fill="#013a51"/><path d="m393.616 47.4015-78.813-45.54994-78.813 45.54994v91.0995l78.813 45.55v-90.8752z" fill="#d9e8ed"/><path d="m235.99 138.22 78.813 45.55v-90.8757l-78.813-45.8303z" fill="#a5cfd4"/><path d="m395.184 46.4474-80.381-46.4474-80.157 46.3352-.224.1122v1.7951 91.0995l78.813 45.55 1.568.898 1.568-.898 77.973-45.101.784-.449v-91.0434zm-80.381-42.80116 37.026 21.42866-75.62 43.7548-37.026-21.4286zm-1.568 177.65576-75.621-43.755v-87.4533l75.621 43.7548zm33.609-108.7139-32.097 18.5678-37.026-21.4287 75.62-43.7548 37.026 21.4287z" fill="#013a51"/><path d="m283.49 93.0625-14.62-8.4705c-1.624-.9536-3.248-1.0097-4.593-.2243-1.512.8975-2.408 2.7487-2.408 5.1047 0 3.9828 2.408 8.4705 5.433 10.2094l14.62 8.4702c.896.505 1.792.786 2.633.786.728 0 1.344-.169 1.96-.505 1.512-.898 2.409-2.749 2.409-5.105 0-4.0388-2.409-8.5265-5.434-10.2655zm1.457 12.6215c-.448.224-1.121-.056-1.457-.224l-14.62-8.4708c-2.072-1.178-3.865-4.6559-3.865-7.5168 0-1.4024.448-2.1878.785-2.356.448-.2805 1.12.056 1.456.2243l1.008.561c.336 3.4219 2.409 7.012 4.93 8.4705l12.491 7.2368c0 1.178-.336 1.851-.728 2.075z" fill="#013a51"/><path d="m400.451 199.702-48.509-28.048v-56.096l48.509 28.048z" fill="#a5cfd4"/><path d="m449.016 115.558-48.565 28.048-48.509-28.048 48.509-28.0477z" fill="#a5cfd4"/><path d="m449.016 125.263-39.658 22.719-48.565-28.048 39.658-22.7192z" fill="#d9e8ed"/><path d="m400.451 85.8271-48.509 28.0479-1.456.898v57.722l48.509 28.048 1.4.842 1.4-.842 48.509-28.048v-56.096-1.626zm0 3.3097 45.652 26.4212-22.91 13.239-22.742 13.126-7.17-4.151-38.482-22.27zm-47.053 81.6762v-52.787l45.652 26.421v52.787z" fill="#013a51"/><path d="m388.799 182.873-7.394-4.264c-1.176-.673-2.128-2.524-2.128-4.095v-7.797c0-1.571.952-2.3 2.128-1.627l7.394 4.264c1.177.673 2.129 2.524 2.129 4.095v7.797c0 1.627-.952 2.356-2.129 1.627z" fill="#013a51"/><path d="m180.145 14.2484 3.529-3.0853 13.443 6.6754-4.201 3.1975z" fill="#d9e8ed"/><path d="m180.144 14.2488 39.154 173.3922h13.556l-39.939-166.6046z" fill="#a5cfd4"/><path d="m237.391 189.548-39.322-172.4386-14.564-7.23635-4.538 3.98285 39.267 173.4481.224.337h15.796l-.168-.168zm-53.55-177.0945 11.203 5.5535-1.177.8975-1.12.8414-3.641-1.9633-7.058-3.7585zm-2.073 4.3754 7.058 3.478 3.137 1.5146.672 2.7487 38.706 162.2298.056.785h-11.203z" fill="#013a51"/><path d="m119.368 248.674-38.4266 21.092 113.3186 56.096 30.36-16.212z" fill="#a5cfd4"/><path d="m194.26 327.04-115.6149-57.218 40.7229-22.382 107.437 62.266zm-110.9656-57.33 110.9656 54.918 28.175-15.034-103.067-59.742z" fill="#013a51"/><path d="m125.194 182.873-5.826 65.801 105.252 60.976 5.602-66.698z" fill="#a5cfd4"/><path d="m225.572 311.445-107.38-62.154.056-.674 5.881-66.193 1.065-1.066 106.148 60.977-.056.673zm-105.083-63.332 103.179 59.798 5.377-64.342-102.955-58.901z" fill="#013a51"/><path d="m93.0975 198.86-45.9322 26.084 45.6521 25.58 1.4004-51.047z" fill="#013a51"/><path d="m75.732 274.814s-6.4977-2.749-5.6575-10.771.7282-50.879.7282-50.879 6.6098-3.253 11.5951-3.927c4.9293-.673 9.0184 1.683 9.0184 1.683l37.4178 21.148s5.322 3.591 7.282 12.117c2.017 8.751-.56 26.421-.56 26.421l-40.8349 15.988z" fill="#a5cfd4"/><path d="m74.612 277.45s-6.4977-2.749-5.6575-10.771c.8402-8.021.7282-50.879.7282-50.879s6.6098-3.253 11.5951-3.926c4.9293-.674 9.0184 1.683 9.0184 1.683l37.4738 21.148s5.322 3.59 7.282 12.116c2.017 8.751-.56 26.422-.56 26.422l-40.8349 15.987z" fill="#d9e8ed"/><path d="m94.6094 287.828-19.4372-12.061c-.8402-.393-7.1139-3.646-6.2176-11.78.8402-7.853.7282-50.318.7282-50.767v-.673l.6161-.28c.2801-.113 6.8338-3.31 11.9312-4.039 5.2654-.73 9.5786 1.683 9.7466 1.795l37.4743 21.148c.28.224 5.769 3.983 7.842 12.79 2.072 8.863-.448 26.084-.56 26.814l-.112.617zm-22.7421-73.935c0 5.666.0561 42.802-.7281 50.318-.7843 7.125 4.9853 9.649 5.0413 9.649l.168.056 18.541 11.5 39.7145-15.539c.448-3.141 2.241-17.838.504-25.411-1.848-7.966-6.834-11.444-6.89-11.444l-37.4176-21.092c-.056 0-3.865-2.132-8.3462-1.515-3.8651.449-8.9064 2.693-10.5869 3.478z" fill="#013a51"/><path d="m66.9376 277.731s-3.4729-3.927-2.6327-11.949c.8403-8.022 2.0166-47.401 2.0166-47.401s2.2406-5.553 7.1699-6.227c4.9293-.673 9.0184 1.683 9.0184 1.683l37.4742 21.148s4.817 3.422 6.441 12.005c1.681 9.031.056 24.514.056 24.514l-36.9694 18.063z" fill="#a5cfd4"/><path d="m89.512 290.801-23.4702-12.341c-.1681-.168-3.753-4.376-2.8568-12.734.8402-7.853 2.0165-46.896 2.0165-47.289l.056-.336c.1121-.225 2.5207-6.115 8.0662-6.9 5.2654-.729 9.5785 1.683 9.7466 1.795l37.4737 21.148c.336.224 5.266 3.871 6.946 12.79 1.737 9.087.112 24.177.056 24.794l-.056.561zm-21.8458-13.912 21.9018 11.5 35.906-17.502c.28-2.861 1.4-15.819-.112-23.617-1.513-8.021-5.938-11.331-5.994-11.387l-37.362-21.092c-.056 0-3.865-2.132-8.3462-1.515-3.865.561-5.8816 4.544-6.2177 5.386-.112 3.365-1.2323 39.547-2.0165 47.288-.7282 6.564 1.6804 10.21 2.2406 10.939z" fill="#013a51"/><path d="m165.748 358.34-34.953-18.511 24.479-17.558 14.396 12.621z" fill="#a5cfd4"/><path d="m166.588 360.023-37.81-20.026 26.607-19.072 15.516 13.575zm-33.777-20.306 32.097 16.997 3.585-21.429-13.276-11.612z" fill="#013a51"/><path d="m286.852 294.224-43.243-18.231 26.551-32.648 20.557 14.585z" fill="#a5cfd4"/><path d="m287.804 295.794-45.932-19.353 28.064-34.555 21.957 15.539zm-42.459-20.25 40.555 17.109 3.641-34.218-19.269-13.576z" fill="#013a51"/><path d="m21.2865 227.638-17.53272 68.605 109.45322 62.435 15.796-70.344z" fill="#a5cfd4"/><path d="m113.991 360.305-110.18174-62.772-.67218-3.141 17.19662-67.427.9522-.561 108.9491 61.369zm-108.94941-64.567 107.43641 61.257 15.292-68.156-105.8119-59.574z" fill="#013a51"/><path d="m172.526 246.598-41.731 23.897-81.4456-45.55 43.7476-24.851-11.8752-6.675-59.9359 34.218 107.7171 60.696 58.031-33.994z" fill="#d9e8ed"/><path d="m129.003 289.567-109.0053-61.425.3361-1.234 60.8882-34.723 13.0515 7.292v1.291l-42.7394 24.177 79.2609 44.316 41.731-23.897 15.516 8.302.112 1.234zm-105.5324-61.93 105.5324 59.462 55.791-32.704-12.268-6.563-41.787 23.897-83.5741-46.784 43.7477-24.851-9.6906-5.441z" fill="#013a51"/><path d="m138.413 337.08-1.232-.673c-.448-.168-.896-.337-1.344-.449-6.666-1.29-14.284 7.685-16.749 19.97-2.296 11.388 0 21.653 5.826 24.121l13.163 7.573 13.612-42.745z" fill="#a5cfd4"/><g fill="#013a51"><path d="m139.141 387.903c-.224.673-1.064 1.009-1.68.617l-13.108-7.573c-6.161-2.581-8.794-13.014-6.385-25.243 1.232-6.115 3.697-11.612 7.058-15.539 3.473-4.095 7.338-5.946 10.979-5.273.504.112 1.008.281 1.568.505l1.4.729 14.004 8.302zm-4.593-50.991c-2.52 0-5.321 1.626-7.842 4.599-3.081 3.647-5.433 8.864-6.61 14.585-2.24 11.051 0 20.7 5.21 22.944l12.099 6.955 12.939-40.669-13.723-8.078c-.336-.112-.672-.224-1.065-.336-.28.056-.616 0-1.008 0z"/><path d="m156.729 368.381c-2.465 12.285-9.859 21.26-16.468 19.97-6.666-1.29-10.027-12.285-7.562-24.57 2.464-12.285 9.858-21.26 16.468-19.97 6.61 1.234 10.027 12.285 7.562 24.57z"/><path d="m141.494 389.53c-.505 0-1.009-.056-1.513-.112-3.641-.674-6.498-3.871-8.01-8.92-1.456-4.824-1.624-10.826-.392-16.941 1.232-6.114 3.697-11.611 6.89-15.538 3.361-4.095 7.226-6.002 10.867-5.273 3.641.673 6.497 3.87 8.01 8.919 1.456 4.824 1.624 10.827.392 16.941s-3.697 11.612-6.89 15.539c-2.857 3.534-6.162 5.385-9.354 5.385zm6.385-44.765c-2.52 0-5.209 1.627-7.674 4.6-3.025 3.646-5.321 8.807-6.442 14.585-1.176 5.778-1.064 11.444.337 15.931 1.288 4.264 3.585 6.9 6.329 7.405 2.801.561 5.882-1.066 8.739-4.544 3.024-3.646 5.321-8.807 6.441-14.585 1.177-5.778 1.065-11.443-.336-15.931-1.288-4.263-3.585-6.9-6.329-7.405-.337-.056-.673-.056-1.065-.056z"/></g><path d="m143.007 379.152c-.28 0-.616-.056-.896-.056-4.201-.786-6.386-7.124-4.93-14.417 1.457-7.292 5.882-12.341 10.139-11.556 4.201.786 6.386 7.125 4.929 14.417-1.4 6.732-5.321 11.612-9.242 11.612zm3.417-24.009c-2.521 0-5.882 3.758-7.114 9.929-1.288 6.507.616 11.443 3.193 11.948 2.576.505 6.217-3.366 7.562-9.873 1.288-6.507-.616-11.443-3.193-11.948-.112-.056-.28-.056-.448-.056z" fill="#a5cfd4"/><path d="m143.006 379.152c-.28 0-.616-.056-.896-.056-.336-.056-.561-.168-.785-.28l-1.512-1.403 1.4-.617c2.577-1.009 5.042-4.936 5.994-9.648 1.232-6.059-.392-10.715-2.689-11.724l-1.568-.673 1.568-1.347c1.009-.392 1.961-.505 2.801-.336 4.201.785 6.386 7.124 4.929 14.416-1.4 6.788-5.321 11.668-9.242 11.668z" fill="#a5cfd4"/><path d="m273.969 199.982-1.064-.617-43.412 42.801-.28.281-5.602 66.53-28.399 15.146-7.114-70.457-1.008-.561-58.424 34.499-15.348 71.018v29.113l.56.617 11.651-6.114-.168-.673c0-.337-1.288-32.816 17.085-44.765 4.369-2.861 8.234-3.59 11.539-2.131 8.178 3.478 10.755 18.511 10.811 18.68l.224 1.458 84.358-44.26.617-.336-.057-.673c0-.281-2.072-29.843 19.214-42.409 3.977-2.356 7.282-2.805 9.746-1.346 8.234 4.88 6.946 28.048 6.946 28.272l1.681.954 5.153-3.59 3.361-29.675v-.224z" fill="#013a51"/><path d="m3.75378 296.243.78421 28.441 108.66901 62.49v-28.496z" fill="#a5cfd4"/><path d="m114.215 387.903-1.009.505-109.78886-63.108-.33609-30.909 111.18995 63.669zm-108.61327-63.837 106.54027 61.257v-26.029l-107.21245-61.144z" fill="#013a51"/><path d="m273.073 200.711-107.324-58.957-40.555 41.119 105.028 60.078z" fill="#a5cfd4"/><path d="m274.081 207.667-107.269-58.957-40.61 41.119 105.084 60.078z" fill="#d9e8ed"/><path d="m230.39 244.298-106.372-60.864.112-1.066 41.395-41.96.728.393 107.66 59.181.337 1.01zm-103.46-61.706 103.124 58.957 41.227-40.613-105.308-57.891z" fill="#013a51"/><path d="m182.497 175.805 5.433 3.366s12.828 8.695 15.796 17.67c2.969 9.031-13.387 22.831-13.387 22.831l-1.176 15.539-5.322 3.87 1.008-22.494s-10.642-29.226-9.97-30.18c.616-.954 7.618-10.602 7.618-10.602z" fill="#a5cfd4"/><path d="m183.841 240.428-1.176-.674 1.064-22.999c-10.755-29.506-10.139-30.404-9.803-30.909.673-.953 7.394-10.209 7.675-10.602l.616-.841 6.273 3.87c.561.393 13.22 9.032 16.245 18.287 2.912 8.92-10.923 21.541-13.332 23.673l-1.176 15.595zm-7.898-53.684c.336 2.58 6.218 19.241 9.915 29.45l.056.224-.953 20.532 3.081-2.244 1.177-15.483.336-.28c.168-.112 15.74-13.463 13.051-21.709-2.801-8.583-15.236-17.054-15.348-17.166l-4.481-2.805c-1.569 2.188-5.826 8.078-6.834 9.481z" fill="#013a51"/><path d="m184.85 216.586s17.308-28.497 3.08-37.416c-14.227-8.919-25.15-15.651-32.992-5.722-7.842 9.985-12.94 18.568-12.94 18.568z" fill="#a5cfd4"/><path d="m185.242 218.044-44.756-25.579.56-.898c.056-.112 5.209-8.807 13.051-18.68 8.515-10.826 20.502-3.253 34.45 5.441 14.955 9.368-1.961 37.641-2.689 38.875zm-41.787-26.365 40.946 23.448c2.745-4.88 14.676-27.655 2.857-35.06-15.516-9.704-24.59-14.753-31.536-5.946-6.162 7.966-10.699 15.09-12.267 17.558z" fill="#013a51"/><path d="m141.997 192.073-1.008 22.382 42.796 24.682 1.064-22.551z" fill="#a5cfd4"/><path d="m184.849 239.698-1.008.729-43.972-25.411 1.008-23.112c.056-.785.897-1.234 1.569-.841l43.523 24.906zm-42.739-25.86 40.666 23.448.953-20.139-40.723-23.28z" fill="#013a51"/><path d="m178.072 166.829c-10.195-4.095-22.238 1.683-27.224 12.846-5.041 11.219-1.288 24.121 8.627 29.002 10.306 5.048 23.19-.505 28.511-12.454 5.21-11.892.616-25.131-9.914-29.394zm3.641 26.646c-3.585 8.077-12.268 11.836-19.27 8.526-6.833-3.253-9.466-12.06-5.993-19.802 3.417-7.685 11.707-11.612 18.653-8.695 7.114 2.917 10.138 11.893 6.61 19.971z" fill="#a5cfd4"/><path d="m179.249 169.746c-10.195-4.095-22.238 1.683-27.223 12.846-5.042 11.219-1.289 24.121 8.626 29.002 10.307 5.048 23.19-.505 28.511-12.454 5.21-11.948.617-25.131-9.914-29.394zm3.641 26.589c-3.585 8.078-12.267 11.837-19.269 8.527-6.834-3.254-9.467-12.061-5.994-19.802 3.417-7.685 11.707-11.612 18.653-8.695 7.114 2.973 10.139 11.949 6.61 19.97z" fill="#d9e8ed"/><path d="m167.541 211.65c-2.969 0-5.881-.674-8.57-1.964-10.475-5.104-14.508-18.455-9.13-30.348 5.321-11.836 17.868-17.726 28.623-13.407 4.929 1.964 8.851 5.891 10.979 11.051 2.521 6.115 2.353 13.295-.504 19.746-2.857 6.507-8.066 11.5-14.34 13.744-2.296.729-4.705 1.178-7.058 1.178zm3.585-45.045c-7.786 0-15.516 5.104-19.325 13.519-4.761 10.658-1.12 23.055 8.122 27.599 4.257 2.075 9.187 2.3 13.948.617 5.657-2.019 10.475-6.619 13.051-12.566 2.633-5.946 2.801-12.509.449-18.062-1.905-4.6-5.378-8.134-9.747-9.873-2.073-.842-4.313-1.234-6.498-1.234zm-3.305 37.64c-2.016 0-4.033-.449-5.825-1.29-7.282-3.478-10.195-12.958-6.554-21.204 3.641-8.19 12.659-12.342 20.109-9.256 3.417 1.402 6.106 4.151 7.562 7.741 1.737 4.207 1.569 9.2-.392 13.631-1.96 4.488-5.601 7.91-9.858 9.48-1.681.618-3.361.898-5.042.898zm2.521-30.628c-5.209 0-10.419 3.421-12.939 9.031-3.193 7.18-.729 15.426 5.489 18.4 2.801 1.346 6.05 1.458 9.13.336 3.753-1.346 6.89-4.375 8.627-8.302 1.736-3.927 1.848-8.302.336-12.005-1.232-3.029-3.529-5.385-6.386-6.563-1.288-.617-2.745-.897-4.257-.897z" fill="#013a51"/><path d="m172.862 179.563c-4.089-1.626-8.906.674-10.923 5.161-2.017 4.488-.504 9.705 3.473 11.612 4.145 2.019 9.298-.168 11.427-4.992 2.073-4.825.224-10.098-3.977-11.781z" fill="#a5cfd4"/><path d="m173.703 182.256c-4.089-1.627-8.906.673-10.923 5.161-2.017 4.487-.504 9.648 3.473 11.611 4.145 2.02 9.298-.168 11.427-4.992 2.128-4.768.28-10.097-3.977-11.78z" fill="#d9e8ed"/><path d="m168.661 198.131c-1.288 0-2.576-.281-3.753-.842-4.537-2.188-6.273-7.909-3.977-13.014 2.297-5.049 7.73-7.573 12.324-5.722 2.128.842 3.809 2.581 4.761 4.768 1.064 2.581 1.008 5.666-.224 8.415-1.233 2.748-3.473 4.88-6.106 5.834-1.008.392-2.016.561-3.025.561zm1.457-18.063c-2.857 0-5.826 1.907-7.226 5.048-1.793 3.983-.448 8.583 2.969 10.266 1.568.785 3.36.841 5.041.224 2.128-.729 3.865-2.468 4.873-4.712s1.064-4.712.168-6.731c-.728-1.683-1.96-2.973-3.585-3.59-.672-.337-1.456-.505-2.24-.505z" fill="#013a51"/><path d="m219.578 277.619-22.35-13.687 2.241-26.534 22.126 13.351zm-20.109-14.809 18.149 11.107 1.624-22.046-17.981-10.826z" fill="#013a51"/><path d="m205.294 259.949 1.513-18.119-7.394-4.488-2.241 26.59 22.406 13.687.616-8.583z" fill="#013a51"/><path d="m212.408 302.581-19.269 9.592 1.121 13.688 30.36-16.212z" fill="#a5cfd4"/><path d="m193.251 327.6-1.288-16.043 20.446-10.154 13.219 8.976zm1.065-14.809.896 11.331 27.223-14.473-10.026-5.834z" fill="#013a51"/><path d="m15.8526 253.274 103.0674 57.33-3.137 25.804-104.1315-58.564z" fill="#a5cfd4"/><path d="m19.9976 260.342 97.7464 54.806-3.137 25.804-98.8105-55.984z" fill="#d9e8ed"/><path d="m116.68 338.147-106.2607-59.742 4.5932-26.87 105.0835 58.452zm-103.852-60.808 102.059 57.386 2.857-23.504-101.107-56.264z" fill="#013a51"/><path d="m280.691 251.983-1.904-1.01c-.672-.281-1.345-.505-2.073-.673-10.194-1.964-22.35 11.78-26.103 30.684-3.529 17.502-.112 33.265 8.627 37.08l20.613 11.668 21.062-65.689z" fill="#a5cfd4"/><path d="m281.587 327.993c-.56 1.683-2.576 2.468-4.145 1.57l-18.709-10.602c-9.074-4.095-12.827-19.745-9.13-38.201 3.865-19.185 16.412-33.658 27.391-31.526.728.168 1.513.393 2.297.729l2.072 1.066 20.95 12.51zm-21.229-10.546 18.877 10.714 20.389-63.613-21.341-12.677c-.561-.225-1.177-.449-1.737-.561-9.69-1.851-21.286 12.116-24.814 29.843-3.473 17.277-.113 32.367 8.01 35.901z" fill="#013a51"/><path d="m309.315 274.534c-2.296-7.517-6.554-12.229-11.875-13.295-10.811-2.075-22.742 12.117-26.607 31.526-1.849 9.312-1.681 18.456.56 25.748 2.297 7.517 6.554 12.229 11.875 13.295.728.112 1.457.224 2.185.224 4.705 0 9.578-2.805 13.947-8.134 4.874-5.946 8.627-14.304 10.475-23.616 1.905-9.312 1.681-18.456-.56-25.748z" fill="#013a51"/><path d="m287.749 316.1c-.448 0-.84-.056-1.288-.112-6.162-1.178-9.243-10.602-7.114-21.484 1.008-5.049 3.025-9.649 5.714-12.902 2.856-3.422 6.049-4.993 9.13-4.432 6.162 1.178 9.242 10.602 7.114 21.485-1.008 5.048-3.025 9.648-5.714 12.902-2.408 2.917-5.153 4.543-7.842 4.543zm5.266-36.911c-2.017 0-4.145 1.291-6.162 3.759-2.465 2.973-4.313 7.236-5.265 11.948-1.905 9.368.56 18.063 5.377 19.017 2.241.449 4.705-.898 7.002-3.646 2.465-2.974 4.313-7.237 5.265-11.949 1.905-9.368-.56-18.063-5.377-19.016-.28-.113-.56-.113-.84-.113z" fill="#a5cfd4"/><path d="m287.749 316.1c-.448 0-.84-.056-1.288-.112s-.784-.224-1.064-.392l-1.737-1.347 1.456-.729c4.202-1.627 8.067-7.741 9.523-15.258 1.736-8.639-.224-16.829-4.481-18.624l-1.457-.449 1.513-1.514c1.456-.561 2.745-.729 3.977-.505 3.081.561 5.489 3.253 6.778 7.461 1.232 3.982 1.344 8.975.336 14.024-1.009 5.048-3.025 9.648-5.714 12.902-2.408 2.917-5.153 4.543-7.842 4.543zm5.658-36.911c3.697 3.534 5.153 11.107 3.473 19.466-1.345 6.563-4.426 12.229-8.123 15.202 1.681-.337 3.473-1.571 5.154-3.647 2.464-2.973 4.313-7.236 5.265-11.948s.84-9.368-.28-13.014c-1.064-3.422-2.857-5.554-5.097-5.946-.112-.113-.224-.113-.392-.113z" fill="#a5cfd4"/><path d="m22.91 228.199 14.0037-164.5294 99.7623-55.64714 32.433 138.89354-6.162 4.039-31.928-130.5914-86.0951 48.1864-13.8357 160.547-8.7383 3.926z" fill="#d9e8ed"/><path d="m18.6533 233.135.8402-6.675 14.0038-165.0907 101.5547-56.6569 32.881 141.0256-8.066 5.273-31.985-130.7039-84.302 47.2888-13.8357 160.5471zm16.9165-170.4755-13.9477 164.0245-.3361 2.917 6.3857-2.861 13.8357-160.4343 87.8316-49.1961 31.928 130.4794 4.201-2.749-31.872-136.81794z" fill="#013a51"/><path d="m242.432 312.734-2.688-29.338s-2.633-22.158 12.547-33.209c9.69-7.068 24.758-16.548 24.758-16.548l20.614 11.556-26.887 16.043s-8.402 7.293-9.803 17.783c-2.576 19.072 1.681 39.042 1.681 39.042z" fill="#d9e8ed"/><path d="m264.166 319.578-22.742-6.002-2.745-30.068c-.112-.897-2.521-22.887 12.996-34.162 9.634-7.012 24.702-16.492 24.814-16.604l.56-.337 22.798 12.79-28.455 16.997c.056 0-7.954 7.124-9.299 16.997-2.52 18.68 1.625 38.482 1.625 38.706zm-20.726-7.685 17.869 4.712c-.952-5.273-3.473-21.877-1.344-37.753 1.456-10.714 9.802-18.119 10.139-18.399l25.43-15.202-18.429-10.322c-2.8 1.795-15.628 9.985-24.142 16.156-14.508 10.546-12.155 32.031-12.155 32.199z" fill="#013a51"/><path d="m270.665 260.453c-.336.337-8.963 7.012-10.419 18.4h.056c-2.577 19.97 1.68 39.211 1.68 39.211l-1.008 7.124 7.282-3.029-.224-.73c-.056-.28-3.977-28.16-1.568-38.537 2.632-11.388 5.545-15.259 8.066-17.502 2.464-2.244 18.485-10.603 24.254-13.632l1.121-.28-.056-6.283z" fill="#013a51"/><path d="m165.749 353.236 83.014-43.587 13.387 7.573-81.838 44.541z" fill="#d9e8ed"/><path d="m180.312 362.997-14.732-10.546 83.182-43.98 14.116 7.854.056 2.132zm-12.379-9.705 12.379 7.293 80.662-42.802-12.268-6.843z" fill="#013a51"/><path d="m262.878 317.671-.728-1.066-84.359 45.101 2.521 6.732 82.79-44.316z" fill="#013a51"/><path d="m165.749 353.236 14.563 8.527v5.441l-14.563-8.863z" fill="#a5cfd4"/><path d="m181.433 367.821-1.12.617-15.629-9.481v-7.629l16.749 9.817zm-14.62-10.042 12.435 7.517v-2.917l-12.379-7.292v2.692z" fill="#013a51"/><path d="m143.062 124.87-109.1167-61.425 1.4564-2.4682 109.1173 61.4252z" fill="#013a51"/><path d="m239.296 67.0341-105.588-59.57393 1.457-2.46823 108.164 60.97626z" fill="#013a51"/><path d="m128.498 286.426 12.492-164.137 101.275-56.0956 32.376 138.9496-6.161 3.983-31.929-130.5354-87.551 48.5794-12.379 160.154-8.739 3.926z" fill="#a5cfd4"/><path d="m131.243 287.772 12.548-164.136 101.219-56.0403 32.432 138.8933-6.161 4.039-31.929-130.5912-87.551 48.5792-12.38 160.154-8.738 3.926z" fill="#d9e8ed"/><path d="m126.594 292.989.84-6.675 12.548-164.642.504-.28 102.507-56.7694.336 1.4024 32.545 139.623-8.066 5.273-31.985-130.7038-85.759 47.5698-12.379 160.21zm15.46-170.027-12.491 163.576-.336 2.917 6.386-2.861 12.379-160.098.504-.28 88.784-49.2523.336 1.4024 31.592 129.0769 4.201-2.749-31.928-136.8179z" fill="#013a51"/><path d="m34.1131 279.133c0 3.758-2.6327 5.273-5.8816 3.422-3.2488-1.851-5.8815-6.451-5.8815-10.21 0-3.758 2.6327-5.273 5.8815-3.422 3.2489 1.908 5.8816 6.452 5.8816 10.21z" fill="#a5cfd4"/><path d="m28.1198 281.377c-1.0083 0-2.0725-.337-3.1368-.954-3.641-2.075-6.4417-7.012-6.4417-11.163 0-2.244.7842-3.87 2.2406-4.712 1.4563-.841 3.3048-.673 5.2093.393 3.585 2.075 6.3857 6.956 6.3857 11.107 0 2.244-.7842 3.927-2.2406 4.712-.6161.393-1.2883.617-2.0165.617zm-5.2654-15.202c-.3921 0-.7282.056-1.0083.224-.7282.449-1.1763 1.515-1.1763 2.861 0 3.366 2.4647 7.573 5.3214 9.256 1.2324.729 2.2967.842 3.0809.393.7282-.449 1.1763-1.459 1.1763-2.861 0-3.366-2.4647-7.573-5.3214-9.256-.7282-.393-1.4564-.617-2.0726-.617z" fill="#013a51"/><path d="m50.9736 288.781c0 3.759-2.6327 5.273-5.8816 3.422-3.2488-1.851-5.8816-6.451-5.8816-10.209 0-3.759 2.6328-5.273 5.8816-3.422 3.2489 1.907 5.8816 6.507 5.8816 10.209z" fill="#a5cfd4"/><path d="m44.9803 291.025c-1.0083 0-2.0726-.336-3.1369-.953-3.5849-2.076-6.4417-6.956-6.4417-11.107 0-2.244.7842-3.871 2.2406-4.712 1.4564-.842 3.3049-.674 5.2094.392 3.641 2.076 6.4417 6.956 6.4417 11.107 0 2.244-.7842 3.927-2.2406 4.712-.6161.393-1.3443.561-2.0725.561zm-5.2654-15.202c-.3921 0-.7282.056-1.0083.225-.7282.448-1.1763 1.458-1.1763 2.861 0 3.365 2.4647 7.573 5.3214 9.255 1.2323.73 2.2966.842 3.0808.393.7282-.449 1.1763-1.458 1.1763-2.861 0-3.366-2.4646-7.573-5.3214-9.256-.7282-.392-1.4564-.617-2.0725-.617z" fill="#013a51"/><path d="m95.0018 313.184c0 3.758-2.6327 5.273-5.8816 3.421-3.2488-1.851-5.8816-6.451-5.8816-10.209s2.6328-5.273 5.8816-3.422c3.2489 1.908 5.8816 6.451 5.8816 10.21z" fill="#a5cfd4"/><path d="m88.9525 315.428c-1.0083 0-2.0726-.337-3.1369-.954-3.5849-2.076-6.4417-6.956-6.4417-11.107 0-2.244.7842-3.871 2.2406-4.712 1.4564-.842 3.3049-.673 5.2094.393 3.5849 2.075 6.3857 6.955 6.3857 11.107 0 2.243-.7842 3.926-2.2406 4.712-.5602.336-1.2323.561-2.0165.561zm-5.2094-15.202c-.3921 0-.7282.056-1.0083.224-.7282.449-1.1763 1.458-1.1763 2.861 0 3.366 2.4646 7.573 5.3214 9.256 1.2323.729 2.2966.841 3.0808.392.7282-.448 1.1763-1.458 1.1763-2.861 0-3.365-2.4646-7.572-5.3214-9.255-.7282-.393-1.4564-.617-2.0725-.617z" fill="#013a51"/><path d="m111.861 322.832c0 3.758-2.633 5.273-5.881 3.422-3.249-1.851-5.882-6.451-5.882-10.21 0-3.758 2.633-5.273 5.882-3.422 3.248 1.908 5.881 6.451 5.881 10.21z" fill="#a5cfd4"/><path d="m105.868 325.076c-1.008 0-2.073-.337-3.137-.954-3.5849-2.075-6.4417-6.955-6.4417-11.107 0-2.243.7842-3.87 2.2406-4.712 1.4564-.841 3.3051-.673 5.2091.393 3.585 2.076 6.386 6.956 6.386 11.107 0 2.244-.784 3.927-2.241 4.712-.56.393-1.288.561-2.016.561zm-5.266-15.202c-.392 0-.7277.056-1.0078.224-.7282.449-1.1763 1.459-1.1763 2.861 0 3.366 2.4651 7.573 5.3211 9.256 1.233.729 2.297.842 3.081.393.728-.449 1.176-1.459 1.176-2.861 0-3.366-2.464-7.573-5.321-9.256-.728-.393-1.456-.617-2.073-.617z" fill="#013a51"/></g></svg>