<svg fill="none" height="431" viewBox="0 0 397 431" width="397" xmlns="http://www.w3.org/2000/svg" xmlns:xlink="http://www.w3.org/1999/xlink"><clipPath id="a"><path d="m0 0h397v431h-397z"/></clipPath><g clip-path="url(#a)"><g fill="#013a51" opacity=".3"><path d="m139.124 384.498c1.024.613 1.024 1.534 0 2.148s-2.662.614-3.685 0c-1.024-.614-1.024-1.535 0-2.148 1.023-.614 2.661-.614 3.685 0z"/><path d="m148.849 378.87c1.024.614 1.024 1.535 0 2.148-1.023.614-2.661.614-3.685 0-1.024-.613-1.024-1.534 0-2.148.973-.563 2.662-.563 3.685 0 1.024.614-1.023-.563 0 0z"/><path d="m139.124 373.294c1.024.614 1.024 1.535 0 2.149s-2.662.614-3.685 0c-1.024-.614-1.024-1.535 0-2.149 1.023-.614 2.661-.614 3.685 0z"/><path d="m217.183 428.442c1.024.614 1.024 1.535 0 2.148-1.024.614-2.662.614-3.685 0-1.024-.613-1.024-1.534 0-2.148 1.023-.614 2.661-.614 3.685 0z"/><path d="m226.908 422.814c1.024.614 1.024 1.535 0 2.149-1.023.614-2.661.614-3.685 0s-1.024-1.535 0-2.149c.972-.562 2.662-.562 3.685 0z"/><path d="m236.583 417.238c1.023.614 1.023 1.535 0 2.149-1.024.614-2.662.614-3.686 0s-1.024-1.535 0-2.149c1.024-.613 2.662-.613 3.686 0z"/><path d="m246.308 411.611c1.024.614 1.024 1.534 0 2.148s-2.662.614-3.685 0c-1.024-.614-1.024-1.534 0-2.148 1.023-.614 2.661-.563 3.685 0z"/><path d="m256.033 406.034c1.024.614 1.024 1.535 0 2.149-1.023.614-2.661.614-3.685 0s-1.024-1.535 0-2.149c.972-.613 2.662-.613 3.685 0z"/><path d="m265.708 400.459c1.023.614 1.023 1.535 0 2.149-1.024.613-2.662.613-3.686 0-1.024-.614-1.024-1.535 0-2.149s2.662-.614 3.686 0z"/><path d="m275.433 394.831c1.024.614 1.024 1.535 0 2.149s-2.662.614-3.686 0c-1.023-.614-1.023-1.535 0-2.149.973-.562 2.662-.562 3.686 0z"/><path d="m197.783 428.442c1.024.614 1.024 1.535 0 2.148-1.023.614-2.661.614-3.685 0-1.024-.613-1.024-1.534 0-2.148s2.662-.614 3.685 0z"/><path d="m207.509 422.814c1.023.614 1.023 1.535 0 2.149-1.024.614-2.662.614-3.686 0-1.023-.614-1.023-1.535 0-2.149.973-.562 2.662-.562 3.686 0z"/><path d="m217.183 417.238c1.024.614 1.024 1.535 0 2.149s-2.662.614-3.685 0c-1.024-.614-1.024-1.535 0-2.149 1.023-.613 2.661-.613 3.685 0z"/><path d="m226.908 411.611c1.024.614 1.024 1.535 0 2.149-1.023.614-2.661.614-3.685 0s-1.024-1.535 0-2.149c.972-.562 2.662-.562 3.685 0z"/><path d="m236.583 406.034c1.023.614 1.023 1.535 0 2.149-1.024.614-2.662.614-3.686 0s-1.024-1.535 0-2.149c1.024-.613 2.662-.613 3.686 0z"/><path d="m246.308 400.459c1.024.614 1.024 1.535 0 2.149-1.024.613-2.662.613-3.685 0-1.024-.614-1.024-1.535 0-2.149 1.023-.614 2.661-.614 3.685 0z"/><path d="m256.033 394.831c1.024.614 1.024 1.535 0 2.149-1.023.614-2.661.614-3.685 0s-1.024-1.535 0-2.149c.972-.562 2.662-.562 3.685 0z"/><path d="m265.708 389.256c1.023.613 1.023 1.534 0 2.148-1.024.614-2.662.614-3.686 0s-1.024-1.535 0-2.148c1.024-.614 2.662-.614 3.686 0z"/><path d="m275.433 383.628c1.024.614 1.024 1.535 0 2.149s-2.662.614-3.686 0c-1.023-.614-1.023-1.535 0-2.149.973-.562 2.662-.562 3.686 0z"/><path d="m178.384 428.442c1.024.614 1.024 1.535 0 2.148-1.024.614-2.662.614-3.686 0-1.023-.613-1.023-1.534 0-2.148 1.024-.614 2.662-.614 3.686 0z"/><path d="m188.109 422.814c1.024.614 1.024 1.535 0 2.149-1.023.614-2.661.614-3.685 0s-1.024-1.535 0-2.149c.972-.562 2.662-.562 3.685 0z"/><path d="m197.783 417.238c1.024.614 1.024 1.535 0 2.149-1.023.614-2.661.614-3.685 0s-1.024-1.535 0-2.149c1.024-.613 2.662-.613 3.685 0z"/><path d="m207.509 411.611c1.023.614 1.023 1.534 0 2.148-1.024.614-2.662.614-3.686 0-1.023-.614-1.023-1.534 0-2.148 1.024-.614 2.662-.563 3.686 0z"/><path d="m217.183 406.034c1.024.614 1.024 1.535 0 2.149s-2.662.614-3.685 0c-1.024-.614-1.024-1.535 0-2.149 1.023-.613 2.661-.613 3.685 0z"/><path d="m226.908 400.459c1.024.614 1.024 1.535 0 2.149-1.023.613-2.661.613-3.685 0-1.024-.614-1.024-1.535 0-2.149.972-.614 2.662-.614 3.685 0z"/><path d="m236.583 394.831c1.023.614 1.023 1.535 0 2.149-1.024.614-2.662.614-3.686 0s-1.024-1.535 0-2.149c1.024-.562 2.662-.562 3.686 0z"/><path d="m246.308 389.256c1.024.613 1.024 1.534 0 2.148s-2.662.614-3.685 0c-1.024-.614-1.024-1.535 0-2.148 1.023-.614 2.661-.614 3.685 0z"/><path d="m256.033 383.628c1.024.614 1.024 1.535 0 2.149-1.023.614-2.661.614-3.685 0s-1.024-1.535 0-2.149c.972-.562 2.662-.562 3.685 0z"/><path d="m265.708 378.051c1.023.614 1.023 1.535 0 2.149-1.024.614-2.662.614-3.686 0s-1.024-1.535 0-2.149c1.024-.613 2.662-.613 3.686 0z"/><path d="m168.71 422.814c1.023.614 1.023 1.535 0 2.149-1.024.614-2.662.614-3.686 0-1.023-.614-1.023-1.535 0-2.149.973-.562 2.662-.562 3.686 0z"/><path d="m178.384 417.238c1.024.614 1.024 1.535 0 2.149s-2.662.614-3.686 0c-1.023-.614-1.023-1.535 0-2.149 1.024-.613 2.662-.613 3.686 0z"/><path d="m188.109 411.611c1.024.614 1.024 1.535 0 2.149-1.023.614-2.661.614-3.685 0s-1.024-1.535 0-2.149c.972-.562 2.662-.562 3.685 0z"/><path d="m195.941 408.643c1.441 0 2.61-.687 2.61-1.534 0-.848-1.169-1.535-2.61-1.535-1.442 0-2.611.687-2.611 1.535 0 .847 1.169 1.534 2.611 1.534z"/><path d="m207.509 400.459c1.023.614 1.023 1.535 0 2.149-1.024.613-2.662.613-3.686 0-1.023-.614-1.023-1.535 0-2.149.973-.614 2.662-.614 3.686 0z"/><path d="m217.183 394.831c1.024.614 1.024 1.535 0 2.149s-2.662.614-3.685 0c-1.024-.614-1.024-1.535 0-2.149 1.023-.562 2.661-.562 3.685 0z"/><path d="m226.908 389.256c1.024.613 1.024 1.534 0 2.148-1.023.614-2.661.614-3.685 0s-1.024-1.535 0-2.148c.972-.614 2.662-.614 3.685 0z"/><path d="m236.583 383.628c1.023.614 1.023 1.535 0 2.149-1.024.614-2.662.614-3.686 0s-1.024-1.535 0-2.149c1.024-.562 2.662-.562 3.686 0z"/><path d="m246.308 378.051c1.024.614 1.024 1.535 0 2.149s-2.662.614-3.685 0c-1.024-.614-1.024-1.535 0-2.149 1.023-.613 2.661-.613 3.685 0z"/><path d="m158.933 417.187c1.024.614 1.024 1.535 0 2.149s-2.662.614-3.685 0c-1.024-.614-1.024-1.535 0-2.149.972-.613 2.661-.613 3.685 0z"/><path d="m168.607 411.56c1.024.614 1.024 1.535 0 2.149-1.023.614-2.661.614-3.685 0s-1.024-1.535 0-2.149c1.024-.563 2.662-.563 3.685 0z"/><path d="m178.333 405.983c1.023.614 1.023 1.535 0 2.149-1.024.614-2.662.614-3.686 0-1.023-.614-1.023-1.535 0-2.149.973-.614 2.662-.614 3.686 0z"/><path d="m188.007 400.357c1.024.614 1.024 1.535 0 2.148-1.024.614-2.662.614-3.686 0-1.023-.613-1.023-1.534 0-2.148 1.024-.563 2.662-.563 3.686 0z"/><path d="m197.732 394.78c1.024.614 1.024 1.535 0 2.149-1.023.614-2.661.614-3.685 0s-1.024-1.535 0-2.149c.972-.614 2.662-.614 3.685 0z"/><path d="m149.208 411.56c1.023.614 1.023 1.535 0 2.149-1.024.614-2.662.614-3.686 0-1.023-.614-1.023-1.535 0-2.149 1.024-.563 2.662-.563 3.686 0z"/><path d="m158.933 405.983c1.024.614 1.024 1.535 0 2.149s-2.662.614-3.685 0c-1.024-.614-1.024-1.535 0-2.149.972-.614 2.661-.614 3.685 0z"/><path d="m168.607 400.357c1.024.614 1.024 1.535 0 2.148-1.023.614-2.661.614-3.685 0-1.024-.613-1.024-1.534 0-2.148 1.024-.563 2.662-.563 3.685 0z"/><path d="m178.333 394.78c1.023.614 1.023 1.535 0 2.149-1.024.614-2.662.614-3.686 0-1.023-.614-1.023-1.535 0-2.149.973-.614 2.662-.614 3.686 0z"/><path d="m139.534 405.983c1.023.614 1.023 1.535 0 2.149-1.024.614-2.662.614-3.686 0s-1.024-1.535 0-2.149c.973-.614 2.662-.614 3.686 0z"/><path d="m149.208 400.357c1.023.614 1.023 1.535 0 2.148-1.024.614-2.662.614-3.686 0-1.023-.613-1.023-1.534 0-2.148 1.024-.563 2.662-.563 3.686 0z"/><path d="m158.933 394.78c1.024.614 1.024 1.535 0 2.149s-2.662.614-3.685 0c-1.024-.614-1.024-1.535 0-2.149.972-.614 2.661-.614 3.685 0z"/><path d="m166.765 391.814c1.441 0 2.61-.688 2.61-1.535 0-.848-1.169-1.535-2.61-1.535-1.442 0-2.611.687-2.611 1.535 0 .847 1.169 1.535 2.611 1.535z"/><path d="m137.64 397.389c1.441 0 2.61-.687 2.61-1.535 0-.847-1.169-1.534-2.61-1.534-1.442 0-2.611.687-2.611 1.534 0 .848 1.169 1.535 2.611 1.535z"/><path d="m149.208 389.205c1.023.613 1.023 1.534 0 2.148-1.024.614-2.662.614-3.686 0-1.023-.614-1.023-1.535 0-2.148 1.024-.614 2.662-.614 3.686 0z"/><path d="m158.933 383.577c1.024.614 1.024 1.535 0 2.149s-2.662.614-3.685 0c-1.024-.614-1.024-1.535 0-2.149.972-.563 2.661-.563 3.685 0 1.024.614-1.024-.563 0 0z"/></g><path d="m132.419 373.039v-75.968l64.699 37.702v75.969z" fill="#a5cfd4"/><path d="m132.419 297.07 68.64-40.056 65.621 37.345-69.562 40.414z" fill="#a5cfd4"/><path d="m132.419 301.828 68.64-40.005 65.621 37.293-69.562 40.415z" fill="#b7d7e1"/><path d="m267.755 294.973v-1.228l-1.075-.614-65.621-37.345-68.64 40.005-1.075.614v1.228 75.969l64.699 37.703 1.075.613 1.075-.613 69.562-40.415zm-133.238 2.097 66.542-38.828 63.471 36.117-67.463 39.135-36.701-21.383zm-1.023 75.355v-73.513l27.487 16.012 35.113 20.463v73.564z" fill="#013a51"/><path d="m243.646 339.02-20.833 12.022c-2.866 1.637-5.169-.103-5.169-3.888 0-3.786 2.303-8.185 5.169-9.822l20.833-12.022c2.867-1.637 5.17.102 5.17 3.888 0 3.785-2.303 8.185-5.17 9.822z" fill="#b7d7e1"/><path d="m222.813 337.382c-2.866 1.637-5.169 6.037-5.169 9.822 0 .512.409.87.46 1.279.359-.102.359-.153.717-.358l20.833-12.022c2.866-1.637 5.169-6.036 5.169-9.822 0-.511-.051-.972-.102-1.381-.358.102-.717.256-1.075.46z" fill="#a5cfd4"/><path d="m247.588 324.081c-.615-.358-1.28-.511-1.997-.46v-.051l-.204.051c-.717.051-1.485.307-2.304.767l-20.833 12.022c-3.173 1.842-5.681 6.6-5.681 10.794v.052.051.102c.051 2.302.87 4.093 2.303 4.911.563.307 1.177.512 1.843.512.819 0 1.689-.256 2.61-.768l20.833-12.022c3.174-1.841 5.682-6.599 5.682-10.794.051-2.455-.819-4.348-2.252-5.167zm-28.818 22.612c.204-3.274 2.201-6.957 4.555-8.339l20.424-11.766c-.103 3.325-2.15 7.213-4.607 8.646l-20.372 11.766c0-.102 0-.205 0-.307zm24.313-8.646-20.833 12.022c-.614.358-1.535.716-2.303.256-.358-.205-.665-.614-.87-1.125.102-.052.153-.103.307-.154l20.833-12.022c3.173-1.842 5.681-6.599 5.681-10.794 0-.205-.051-.358-.051-.512.205 0 .41.052.614.154.768.46 1.229 1.637 1.229 3.223.051 3.479-2.099 7.52-4.607 8.952z" fill="#013a51"/><path d="m227.727 273.487-69.152 40.005v19.849l15.663 9.157v-19.952l69.306-40.107z" fill="#a5cfd4"/><path d="m242.674 279.472-17.915-10.18-69.153 40.056-1.075.614v1.227 19.849l17.813 10.385v-21.179zm-17.915-7.776 13.666 7.776-67.207 38.879-13.565-7.827zm-68.129 58.115v-17.394l13.564 7.827v17.496z" fill="#013a51"/><path d="m185.755 395.191-13.206-7.623c-1.536-.869-2.764-3.274-2.764-5.269v-13.198c0-2.047 1.228-2.968 2.764-2.098l13.206 7.623c1.535.869 2.764 3.274 2.764 5.269v13.198c0 2.047-1.28 2.967-2.764 2.098z" fill="#b7d7e1"/><path d="m184.424 391.916c-.512 0-1.075-.153-1.638-.46l-13.206-7.623c-1.843-1.074-3.276-3.785-3.276-6.19v-13.198c0-1.484.563-2.609 1.484-3.172.819-.46 1.894-.409 2.867.153l13.206 7.623c1.842 1.074 3.276 3.785 3.276 6.19v13.198c0 1.484-.563 2.609-1.485 3.172-.358.205-.768.307-1.228.307zm-15.356-28.853c-.051 0-.154 0-.205.052-.205.102-.409.562-.409 1.33v13.198c0 1.637 1.023 3.684 2.252 4.4l13.206 7.622c.153.102.512.256.768.154.204-.103.409-.563.409-1.33v-13.199c0-1.637-1.024-3.683-2.252-4.4l-13.206-7.673c-.102-.051-.358-.154-.563-.154z" fill="#013a51"/><path d="m199.575 271.696c-17.352 0-30.814 13.198-30.814 24.555 0 11.664 13.82 21.128 30.814 21.128s30.814-9.464 30.814-21.128c0-11.357-13.462-24.555-30.814-24.555z" fill="#013a51"/><path d="m225.015 289.908c0 9.464-11.415 17.188-25.491 17.188s-25.491-7.673-25.491-17.188c0-9.465 11.415-17.189 25.491-17.189s25.491 7.724 25.491 17.189z" fill="#a5cfd4"/><path d="m225.014 294.512s-11.414 12.534-25.439 12.534c-14.076 0-25.491-12.534-25.491-12.534 0-9.464 11.415-17.189 25.491-17.189 14.025.052 25.439 7.725 25.439 17.189z" fill="#b7d7e1"/><path d="m199.575 308.12c-14.639 0-26.514-8.185-26.514-18.212s11.875-18.212 26.514-18.212 26.514 8.185 26.514 18.212-11.926 18.212-26.514 18.212zm0-34.327c-13.462 0-24.416 7.213-24.416 16.115 0 8.901 10.954 16.114 24.416 16.114s24.416-7.213 24.416-16.114c-.051-8.902-10.954-16.115-24.416-16.115z" fill="#013a51"/><path d="m199.575 182.375c-2.252 0-4.044 1.842-4.044 4.144v100.268c0 2.302 1.843 4.144 4.044 4.144 2.252 0 4.044-1.842 4.044-4.144v-100.268c0-2.251-1.843-4.144-4.044-4.144z" fill="#013a51"/><path d="m96.0253 86.8651 2.5593-30.6432h-34.7042l2.5593 30.6432c0 .1023-.0512.1535-.0512.2558 0 .307.1024.5627.1024.8185l.0512.6139c1.0749 4.8088 7.166 8.5433 14.6392 8.5433s13.5644-3.7345 14.6393-8.5433h.0512l.0511-.6139c.0512-.2558.1024-.5627.1024-.8185 0-.1023 0-.1535 0-.2558z" fill="#a5cfd4"/><path d="m99.7108 55.199h-35.8303c-.6654 0-1.1773.5627-1.1261 1.2277l2.5593 30.3875-.0512.3581c0 .2558.0512.4604.1024.9208l.3583 1.5859c1.6379 5.0134 7.985 8.5432 15.4582 8.5432s13.7691-3.5298 15.4582-8.5432l.3583-1.7905c.0512-.2047.1024-.4604.1024-.7162l-.0512-.307zm-4.7603 31.6152.0512.3069c0 .0512 0 .2046-.0512.307-.0512.1023-.0512.2557-.0512.4604l-.0512.5116c-.4095 1.8416-1.7403 3.4786-3.583 4.8087l1.9962-28.7504-5.9887 3.5299h-5.9888v28.1365c-6.8078 0-12.643-3.3252-13.6155-7.7247l-.0512-.1535-.0512-.3581c0-.1535-.0512-.2558-.0512-.4093 0-.1023-.0512-.2046-.0512-.2046l-.0512-.307-2.4569-29.6712h32.452z" fill="#013a51"/><path d="m98.5334 56.2211c0 6.4458-7.7803 11.715-17.3521 11.715s-17.3521-5.218-17.3521-11.715c0-6.4458 7.7803-13.7101 17.3521-13.7101 9.623 0 17.3521 7.2643 17.3521 13.7101z" fill="#a5cfd4"/><path d="m81.1813 69.0107c-10.1348 0-18.427-5.7297-18.427-12.7382 0-6.8551 8.0362-14.7845 18.427-14.7845s18.4271 7.9294 18.4271 14.7845c0 7.0085-8.241 12.7382-18.4271 12.7382zm0-25.4252c-9.0087 0-16.3284 6.9062-16.3284 12.6358 0 5.8831 7.3197 10.6407 16.3284 10.6407 9.0088 0 16.3284-4.7576 16.3284-10.6407 0-5.7296-7.2684-12.6358-16.3284-12.6358z" fill="#013a51"/><path d="m96.0252 52.5378c0 5.525-6.6542 10.0268-14.844 10.0268-8.1897 0-14.8439-4.5018-14.8439-10.0268s6.6542-10.0268 14.8439-10.0268c8.1898 0 14.844 4.5018 14.844 10.0268z" fill="#b7d7e1"/><path d="m81.1813 63.588c-8.7528 0-15.9189-4.9623-15.9189-11.05s7.1149-11.05 15.9189-11.05c8.7528 0 15.9189 4.9623 15.9189 11.05s-7.1149 11.05-15.9189 11.05zm0-20.0025c-7.6267 0-13.8203 4.0414-13.8203 8.9525 0 4.9623 6.1936 8.9525 13.8203 8.9525s13.8203-4.0414 13.8203-8.9525c0-4.9622-6.1936-8.9525-13.8203-8.9525z" fill="#013a51"/><path d="m84.8156 42.6654c-1.2797-.3581-2.0986.8185-2.7641 1.7905-.2559.3581-.7166 1.0743-.8189 1.1766-.2048-.1023-.7166-.7674-.9726-1.1255-.6654-.972-1.4844-2.0974-2.764-1.7905-3.6854.972-6.04 6.7016-6.04 8.9014 0 3.3252 4.2484 5.9342 9.7254 5.9342 5.4257 0 9.7254-2.609 9.7254-5.9342 0-2.2509-2.5594-8.0317-6.0912-8.9525z" fill="#013a51"/><path d="m3.27598 50.3895c-2.14982.1535-3.480663 1.1767-3.27591796 2.7114.46067596 3.0183 2.55930796 8.5944 11.15863796 16.3191 8.1386 7.3155 16.789 10.9989 21.7029 12.6359 2.4569.8185 4.8115.665 5.9888-.3069l39.1574-33.15c.9726-.8185-.9213-2.5067-2.7129-2.4044z" fill="#b7d7e1"/><path d="m42.2798 91.9292c-.4607 0-.9725-.0512-1.4844-.1023-4.8627-.6139-14.4345-2.4556-24.2111-8.2363-9.98128-5.8831-13.46194-11.05-14.63922-14.3241-.30711-.8185-.25593-1.6882.15356-2.4555.51186-1.0232 1.68914-1.7905 3.22473-2.1998l69.86913-18.4166c1.5356-.4093 3.5318.2046 4.2996 1.3813.4607.665.4095 1.4835-.0511 2.0974l-31.8378 40.2608c-1.075 1.2789-3.02 1.9951-5.3234 1.9951zm33.9364-43.7395c-.1535 0-.3583 0-.5118.0512l-69.86917 18.4166c-.92135.2558-1.63796.6651-1.89389 1.1255-.10237.2558-.15355.4604-.05118.7673.87016 2.4556 3.78778 7.3667 13.71794 13.1986 9.4694 5.5761 18.7341 7.4178 23.392 7.9805 2.457.307 4.2485-.3581 4.8627-1.1254l31.6331-40.0562c-.2048-.1534-.7166-.3581-1.2797-.3581z" fill="#013a51"/><path d="m157.91 42.7158c2.149-.1023 3.48-1.1254 3.275-2.6602-.409-2.9671-2.457-8.5944-10.953-16.3191-8.088-7.3667-16.636-11.05-21.601-12.7382-2.457-.8185-4.811-.7162-6.04.307l-39.874 32.7406c-.9725.8185.8702 2.5067 2.6617 2.4044z" fill="#b7d7e1"/><path d="m84.5597 46.6042c-1.3309 0-2.7129-.6139-3.2759-1.5347-.4607-.6651-.4095-1.4836.1023-2.0975l32.6059-40.00498c1.228-1.53472 3.839-2.199763 6.807-1.84166 4.863.61389 14.384 2.55786 24.109 8.38979 9.879 5.93425 13.309 11.10115 14.435 14.37515.307.8186.204 1.6882-.205 2.4556-.563 1.0231-1.689 1.7905-3.225 2.1998l-70.3808 17.9562c-.3071.0511-.6654.1023-.9725.1023zm-1.3821-2.5067c.3583.2558 1.1261.5115 1.8428.3581l70.3296-17.9562c.973-.2558 1.638-.6651 1.894-1.1255.102-.2558.154-.4604.051-.7674-.819-2.4043-3.685-7.3666-13.513-13.2497-9.367-5.62729-18.632-7.46895-23.29-8.08284-2.508-.30694-4.299.3581-4.914 1.07431z" fill="#013a51"/><path d="m87.2213 46.5019c0 1.8928-2.7129 3.3764-5.9888 3.3764-3.3271 0-5.9888-1.5348-5.9888-3.3764 0-1.8417 2.7129-3.3764 5.9888-3.3764 3.2759-.0511 5.9888 1.4836 5.9888 3.3764z" fill="#b7d7e1"/><path d="m81.1813 50.9526c-3.9413 0-7.0637-1.9439-7.0637-4.4507 0-2.5067 3.1224-4.4506 7.0637-4.4506 3.9414 0 7.0637 1.9439 7.0637 4.4506 0 2.5068-3.0711 4.4507-7.0637 4.4507zm0-6.8039c-2.8152 0-4.965 1.2278-4.965 2.3532 0 1.1255 2.0986 2.3533 4.965 2.3533 2.8153 0 4.9651-1.2278 4.9651-2.3533 0-1.1254-2.0986-2.3532-4.9651-2.3532z" fill="#013a51"/><path d="m329.588 86.3529 2.559-30.6432h-34.755l2.559 30.6432c0 .1023-.051.1535-.051.2558 0 .3069.102.5627.102.8185l.051.6139h.052c1.075 4.8088 7.166 8.5433 14.639 8.5433s13.564-3.7345 14.639-8.5433h.051l.052-.6139c.051-.2558.102-.5627.102-.8185.051-.1023 0-.1535 0-.2558z" fill="#a5cfd4"/><path d="m333.273 54.6357h-35.83c-.665 0-1.177.5628-1.126 1.2278l2.559 30.3874-.051.3581c0 .2558.051.4604.102.9209l.359 1.5858c1.638 5.0134 7.985 8.5433 15.458 8.5433s13.769-3.5299 15.458-8.5433l.358-1.7905c.052-.2046.103-.4604.103-.7162l-.051-.3069zm-4.76 31.6152.051.307c0 .0511 0 .2046-.051.3069 0 .1023-.051.2558-.051.4604l-.051.5116c-.41 1.8417-1.741 3.4787-3.583 4.8088l1.996-28.7504-5.989 3.5299h-6.04v28.1365c-6.808 0-12.643-3.3253-13.615-7.7248l-.052-.1535-.051-.3581c0-.1534-.051-.2558-.051-.4092 0-.1023-.051-.2047-.051-.2047l.051-.2557-2.457-29.6713h32.452z" fill="#013a51"/><path d="m332.147 55.7101c0 6.4459-7.78 11.7151-17.352 11.7151s-17.352-5.2181-17.352-11.7151c0-6.4458 7.78-13.7101 17.352-13.7101s17.352 7.2643 17.352 13.7101z" fill="#a5cfd4"/><path d="m314.795 68.4996c-10.135 0-18.427-5.7297-18.427-12.7382 0-6.8551 8.036-14.8356 18.427-14.8356s18.427 7.9294 18.427 14.7844c-.051 7.0597-8.292 12.7894-18.427 12.7894zm0-25.4252c-9.009 0-16.328 6.9062-16.328 12.6358 0 5.8831 7.319 10.6408 16.328 10.6408s16.328-4.7577 16.328-10.6408c-.051-5.7296-7.319-12.6358-16.328-12.6358z" fill="#013a51"/><path d="m329.639 52.0268c0 5.525-6.654 10.0269-14.844 10.0269s-14.844-4.5019-14.844-10.0269 6.654-10.0268 14.844-10.0268 14.844 4.5018 14.844 10.0268z" fill="#b7d7e1"/><path d="m314.795 63.0769c-8.753 0-15.919-4.9623-15.919-11.05 0-6.1389 7.115-11.1011 15.919-11.1011 8.753 0 15.919 4.9622 15.919 11.05-.051 6.1388-7.166 11.1011-15.919 11.1011zm0-20.0025c-7.627 0-13.82 4.0414-13.82 8.9525 0 4.9623 6.193 8.9525 13.82 8.9525s13.82-4.0414 13.82-8.9525c-.051-4.9622-6.244-8.9525-13.82-8.9525z" fill="#013a51"/><path d="m318.378 42.1019c-1.279-.3581-2.098.8185-2.764 1.7905-.256.3581-.716 1.0743-.819 1.1766-.205-.1023-.716-.7674-.972-1.1255-.666-.9719-1.485-2.0974-2.764-1.7905-3.686.972-6.04 6.7016-6.04 8.9014 0 3.3252 4.248 5.9342 9.725 5.9342 5.426 0 9.725-2.609 9.725-5.9342 0-2.1998-2.559-7.9805-6.091-8.9525z" fill="#013a51"/><path d="m274.051 9.66899c-1.177-1.02314-3.481-1.17662-5.887-.40926-4.76 1.53477-13.001 4.96227-21.907 12.53357-8.446 7.162-10.698 12.9939-11.21 16.1657-.256 1.5347 1.024 2.6601 3.225 2.8136l71.968 4.8599c1.791.1024 3.685-1.5347 2.712-2.3532z" fill="#b7d7e1"/><path d="m311.11 45.9391c-.359 0-.717-.0512-1.024-.1023l-69.767-18.4166c-1.535-.4093-2.661-1.1766-3.225-2.1998-.409-.7674-.46-1.637-.102-2.5067 1.331-3.5299 4.914-8.8502 14.537-14.27288 10.032-5.67846 18.734-7.673591 24.262-8.287478 2.918-.358101 5.426.409258 6.654 1.892818l31.889 40.31194c.512.6139.512 1.4324.103 2.0974-.666.8697-1.996 1.4836-3.327 1.4836zm-33.937-43.84178c-.358 0-.716 0-1.126.05116-4.351.51157-13.206 2.25092-23.494 8.03172-9.572 5.3715-12.592 10.5895-13.616 13.1985-.102.307-.102.5628 0 .8186.256.5115.922.9208 1.894 1.1766l69.767 18.3654c.716.2047 1.535-.1023 1.843-.3581l-31.685-40.10726c-.46-.61389-1.74-1.17662-3.583-1.17662z" fill="#013a51"/><path d="m355.232 82.2607c1.126 1.0231 3.43 1.2277 5.835.4604 4.761-1.4836 13.053-4.9111 22.01-12.4312 8.548-7.1621 10.852-12.9428 11.415-16.1146.307-1.5347-.973-2.6602-3.122-2.8136l-71.61-5.4227c-1.791-.1535-3.685 1.5347-2.764 2.3532z" fill="#b7d7e1"/><path d="m352.11 91.9296c-2.355 0-4.3-.7162-5.272-2.0463l-31.122-40.5677c-.46-.6139-.511-1.4324-.051-2.0975.768-1.1255 2.764-1.7905 4.3-1.3301l69.306 18.8259c1.536.4093 2.662 1.2278 3.173 2.2509.41.8185.41 1.6882.103 2.5579-1.382 3.5298-5.068 8.8502-14.742 14.2217-10.135 5.6273-18.836 7.5713-24.364 8.1852-.461-.0512-.922 0-1.331 0zm-3.634-3.3253c.563.7162 2.252 1.4325 4.709 1.1255 5.323-.6139 13.769-2.4555 23.597-7.9294 9.623-5.3715 12.796-10.5384 13.82-13.1474.102-.3069.102-.5627 0-.8185-.256-.4604-.922-.9208-1.843-1.1255l-69.357-18.8258c-.717-.2047-1.536.1023-1.843.3581z" fill="#013a51"/><path d="m320.784 45.9897c0 1.8928-2.713 3.3764-5.989 3.3764-3.327 0-5.989-1.5348-5.989-3.3764 0-1.8417 2.713-3.3764 5.989-3.3764 3.276-.0512 5.989 1.4836 5.989 3.3764z" fill="#b7d7e1"/><path d="m314.795 50.4404c-3.941 0-7.064-1.944-7.064-4.4507s3.123-4.4506 7.064-4.4506 7.064 1.9439 7.064 4.4506c0 2.4556-3.123 4.4507-7.064 4.4507zm0-6.8039c-2.815 0-4.965 1.2278-4.965 2.3532 0 1.1255 2.099 2.3533 4.965 2.3533 2.815 0 4.965-1.2278 4.965-2.3533-.051-1.1254-2.15-2.3532-4.965-2.3532z" fill="#013a51"/><path d="m155.401 135.977-68.2821-55.0455c-1.8427-1.4324-2.3546-3.9903-1.1261-6.0877 1.2285-2.0975 3.7366-2.916 5.9376-1.944l78.2126 36.6282-3.174 6.804-55.895-26.1411c-.153-.1023-.307.1535-.154.2558l46.733 37.7033z" fill="#013a51"/><path d="m155.811 137.306-69.1528-55.7611c-2.1498-1.6371-2.7129-4.6553-1.2797-7.0597s4.2997-3.3764 6.9102-2.251l78.9293 36.9868-3.839 8.185-52.057-24.4019 43.202 34.8889zm-65.7745-63.9975c-1.3309 0-2.6105.7163-3.3783 1.944-1.0238 1.7394-.6654 3.888.9213 5.0646l67.4125 54.3799 1.791-6.241-46.323-37.3959c-.359-.3069-.461-.8185-.205-1.2278.256-.4092.768-.5627 1.177-.3581l55.179 25.8348 2.559-5.423-77.4956-36.3217c-.563-.1534-1.1261-.2558-1.6379-.2558z" fill="#a5cfd4"/><path d="m244.824 133.982-4.71-5.832 47.552-38.3682s0-.0512-.051-.0512l-56.816 26.6534-3.174-6.804 78.059-36.5778c2.303-1.0231 4.811-.2046 6.04 1.8928 1.228 2.0975.717 4.6553-1.177 6.1389z" fill="#013a51"/><path d="m244.721 135.056-5.681-7.06.614-.46 42.791-34.5315-52.005 24.4025-3.839-8.186 78.725-36.9352c2.661-1.1766 5.579-.2558 7.012 2.1998 1.433 2.4044.87 5.4226-1.382 7.1108zm-3.532-6.804 3.737 4.655 65.058-52.5383c1.638-1.2278 2.047-3.4276 1.023-5.1669-1.075-1.7905-3.122-2.4044-5.067-1.5859l-77.342 36.2701 2.559 5.423 56.714-26.6017.768 1.0743-.512.5116z" fill="#a5cfd4"/><path d="m243.646 148.714c-7.371-11.868-24.211-19.439-43.15-19.439-20.014 0-37.57 8.492-44.173 21.23l-5.938-2.814 3.685 17.752c3.225 16.677 23.495 29.773 46.17 29.773 22.164 0 42.587-12.584 46.529-28.699.102-.409.204-.87.256-1.279l3.429-16.626z" fill="#013a51"/><path d="m248.867 140.12-.102-.358c-.102-.461-.256-.921-.41-1.33l-2.917-10.334h-3.225c-8.65-9.464-24.109-15.757-41.768-15.757s-33.168 6.293-41.768 15.757h-3.788l-2.815 11.919c-.051.205-.102.41-.153.614l-.052.256c-.307 1.484-.46 3.018-.46 4.553 0 18.263 21.959 33.099 49.087 33.099 27.078 0 49.088-14.785 49.088-33.099-.051-1.842-.307-3.632-.717-5.32z" fill="#a5cfd4"/><path d="m200.445 179.511c-27.64 0-50.111-15.296-50.111-34.122 0-1.125.102-2.302.256-3.479h-.051l.46-1.995 3.071-12.943h4.198c9.264-9.873 25.03-15.756 42.228-15.756 17.25 0 32.964 5.883 42.229 15.756h3.583l3.122 11.153c.154.409.256.921.41 1.381l.46 1.688h-.102c.256 1.433.41 2.814.41 4.246-.052 18.775-22.522 34.071-50.163 34.071zm-47.501-38.777-.051.358c-.307 1.483-.461 2.916-.461 4.348 0 17.65 21.55 32.025 48.013 32.025s48.013-14.375 48.013-32.025c0-1.688-.205-3.376-.615-5.064l-.102-.307c-.102-.461-.256-.87-.358-1.33l-2.713-9.618h-2.918l-.307-.358c-8.804-9.618-24.16-15.398-41-15.398s-32.196 5.729-41 15.398l-.307.358h-3.43z" fill="#013a51"/><path d="m200.189 163.652c25.301 0 45.812-13.834 45.812-30.899s-20.511-30.899-45.812-30.899-45.811 13.834-45.811 30.899 20.51 30.899 45.811 30.899z" fill="#a5cfd4"/><path d="m200.189 164.726c-25.849 0-46.886-14.324-46.886-31.922s21.037-31.922 46.886-31.922 46.887 14.324 46.887 31.922-21.038 31.922-46.887 31.922zm0-61.798c-24.672 0-44.788 13.404-44.788 29.825 0 16.473 20.065 29.825 44.788 29.825 24.672 0 44.788-13.403 44.788-29.825-.051-16.421-20.116-29.825-44.788-29.825z" fill="#013a51"/><path d="m200.445 94.897c-22.164 0-39.362 16.831-39.362 31.308 0 14.836 17.659 26.858 39.362 26.858s39.362-12.073 39.362-26.858c0-14.477-17.198-31.308-39.362-31.308z" fill="#013a51"/><path d="m233.204 118.02c0 12.175-14.639 22.1-32.759 22.1-18.069 0-32.759-9.874-32.759-22.1 0-12.227 14.639-22.1001 32.759-22.1001 18.12.0512 32.759 9.9241 32.759 22.1001z" fill="#a5cfd4"/><path d="m232.897 124.465s-12.029 15.603-32.452 15.603c-21.549 0-32.759-16.319-32.759-16.319 0-10.129 14.383-20.514 32.452-20.514 18.12.051 32.759 9.055 32.759 21.23z" fill="#b7d7e1"/><path d="m200.445 141.143c-18.632 0-33.834-10.385-33.834-23.123s15.151-23.123 33.834-23.123c18.632 0 33.834 10.385 33.834 23.123s-15.202 23.123-33.834 23.123zm0-44.1486c-17.454 0-31.684 9.4126-31.684 21.0256s14.23 21.026 31.684 21.026c17.455 0 31.684-9.413 31.684-21.026 0-11.561-14.178-21.0256-31.684-21.0256z" fill="#013a51"/><path d="m310.649 240.848c-1.075 0-2.099-.358-3.02-1.023l-73.708-56.068c-1.638-1.279-1.996-3.632-.717-5.269 1.28-1.637 3.634-1.996 5.272-.717l47.092 35.81-51.289-52.64c-1.433-1.484-1.382-3.888.103-5.321 1.484-1.432 3.89-1.381 5.323.103l74.322 76.377c1.843 1.893 2.201 4.911.512 6.907-1.024 1.227-2.457 1.841-3.89 1.841z" fill="#013a51"/><path d="m310.649 241.616c-1.28 0-2.457-.41-3.481-1.177l-73.708-56.068c-.972-.717-1.587-1.791-1.74-2.968-.154-1.176.153-2.404.87-3.325.717-.972 1.791-1.586 3.02-1.739 1.228-.154 2.406.153 3.327.87l38.85 29.517-44.071-45.223c-.87-.869-1.28-1.995-1.28-3.223 0-1.227.512-2.353 1.382-3.171 1.792-1.74 4.658-1.689 6.399.102l74.322 76.378c2.15 2.251 2.406 5.729.512 7.929-1.075 1.33-2.662 2.098-4.402 2.098zm-74.425-63.845c-.153 0-.256 0-.409.051-.768.103-1.485.512-1.997 1.177-.46.614-.665 1.432-.563 2.2.103.767.512 1.483 1.178 1.995l73.708 56.068c1.74 1.33 4.351 1.023 5.784-.665 1.382-1.637 1.177-4.246-.461-5.883l-74.373-76.48c-1.126-1.177-3.02-1.228-4.249-.051-.563.563-.921 1.279-.921 2.097 0 .819.307 1.535.819 2.149l51.391 52.641-1.024 1.125-47.091-35.81c-.512-.409-1.178-.614-1.792-.614z" fill="#a5cfd4"/><path d="m87.1189 240.848c-1.4333 0-2.8665-.614-3.839-1.841-1.6892-1.996-1.3309-5.065.5119-6.907l75.7042-76.429c1.485-1.483 3.839-1.483 5.323-.051 1.485 1.484 1.485 3.837.052 5.321l-52.466 52.947 48.627-36.168c1.689-1.228 3.992-.869 5.272.768 1.228 1.688.87 4.041-.768 5.269l-75.3972 56.068c-.9213.665-1.9962 1.023-3.0199 1.023z" fill="#013a51"/><path d="m87.1189 241.616c-1.6892 0-3.3271-.767-4.4532-2.097-1.8939-2.251-1.638-5.73.563-7.981l75.7043-76.429c.87-.87 1.996-1.33 3.174-1.33 1.177 0 2.354.46 3.173 1.33.87.87 1.331 1.995 1.331 3.172 0 1.228-.461 2.353-1.331 3.223l-45.248 45.683 40.437-30.08c1.996-1.484 4.862-1.075 6.347.921.716.972 1.023 2.148.87 3.376-.154 1.177-.819 2.251-1.792 2.967l-75.2944 56.068c-1.0238.768-2.2522 1.177-3.4807 1.177zm75.0391-86.302c-.768 0-1.536.307-2.099.869l-75.7042 76.429c-1.6379 1.637-1.8427 4.246-.5118 5.883 1.4332 1.689 4.0437 1.996 5.8352.665l75.3458-56.017c.666-.46 1.075-1.176 1.178-1.944.102-.767-.103-1.586-.564-2.199-.972-1.331-2.866-1.586-4.197-.614l-48.627 36.168-1.023-1.177 52.517-52.947c1.177-1.177 1.177-3.07 0-4.247-.615-.562-1.382-.869-2.15-.869z" fill="#a5cfd4"/><path d="m190.259 173.679-10.493-2.609c-1.894-.46-3.071-2.404-2.559-4.297.46-1.893 2.405-3.069 4.299-2.558l10.493 2.609c1.894.461 3.072 2.405 2.56 4.298-.512 1.892-2.406 3.018-4.3 2.557z" fill="#b7d7e1"/><path d="m191.334 160.532-6.347-1.228c-1.638-.307-2.662-1.841-2.355-3.479.307-1.637 1.843-2.66 3.481-2.353l6.347 1.228c1.638.307 2.662 1.842 2.355 3.479-.307 1.586-1.843 2.66-3.481 2.353z" fill="#b7d7e1"/><path d="m192.255 188.31-7.729-.767c-1.945-.205-3.378-1.944-3.225-3.888.205-1.944 1.946-3.377 3.891-3.223l7.729.767c1.945.205 3.378 1.944 3.224 3.888-.204 1.995-1.945 3.428-3.89 3.223z" fill="#a5cfd4"/><path d="m195.582 144.98c0 1.995-1.638 3.633-3.634 3.633s-3.634-1.638-3.634-3.633 1.638-3.632 3.634-3.632 3.634 1.637 3.634 3.632z" fill="#a5cfd4"/><g fill="#013a51"><path d="m201.366 132.14c.666.358.666 1.023 0 1.381-.665.358-1.74.358-2.405 0-.666-.358-.666-1.023 0-1.381.665-.358 1.74-.358 2.405 0z"/><path d="m207.611 128.508c.666.358.666 1.023 0 1.381-.665.358-1.74.358-2.406 0-.665-.358-.665-1.023 0-1.381.717-.359 1.792-.359 2.406 0z"/><path d="m213.907 124.927c.665.358.665 1.023 0 1.381s-1.74.358-2.406 0c-.665-.358-.665-1.023 0-1.381.666-.41 1.741-.41 2.406 0z"/><path d="m220.203 121.294c.665.358.665 1.023 0 1.381s-1.74.358-2.406 0c-.665-.358-.665-1.023 0-1.381.666-.358 1.741-.358 2.406 0z"/><path d="m195.071 128.508c.665.358.665 1.023 0 1.381-.666.358-1.741.358-2.406 0-.666-.358-.666-1.023 0-1.381.716-.359 1.791-.359 2.406 0z"/><path d="m201.366 124.927c.666.358.666 1.023 0 1.381-.665.358-1.74.358-2.405 0-.666-.358-.666-1.023 0-1.381.665-.41 1.74-.41 2.405 0z"/><path d="m207.611 121.294c.666.358.666 1.023 0 1.381-.665.358-1.74.358-2.406 0-.665-.358-.665-1.023 0-1.381.717-.358 1.792-.358 2.406 0z"/><path d="m213.907 117.662c.665.358.665 1.023 0 1.381s-1.74.358-2.406 0c-.665-.358-.665-1.023 0-1.381.666-.358 1.741-.358 2.406 0z"/><path d="m188.826 124.927c.665.358.665 1.023 0 1.381-.666.358-1.74.358-2.406 0-.665-.358-.665-1.023 0-1.381.666-.41 1.74-.41 2.406 0z"/><path d="m195.071 121.294c.665.358.665 1.023 0 1.381-.666.358-1.741.358-2.406 0-.666-.358-.666-1.023 0-1.381.716-.358 1.791-.358 2.406 0z"/><path d="m201.366 117.662c.666.358.666 1.023 0 1.381-.665.358-1.74.358-2.405 0-.666-.358-.666-1.023 0-1.381.665-.358 1.74-.358 2.405 0z"/><path d="m207.611 114.081c.666.358.666 1.023 0 1.381-.665.358-1.74.358-2.406 0-.665-.358-.665-1.023 0-1.381.717-.409 1.792-.409 2.406 0z"/><path d="m182.53 121.294c.665.358.665 1.023 0 1.381-.666.358-1.74.358-2.406 0-.665-.358-.665-1.023 0-1.381.717-.358 1.74-.358 2.406 0z"/><path d="m188.826 117.662c.665.358.665 1.023 0 1.381-.666.358-1.74.358-2.406 0-.665-.358-.665-1.023 0-1.381.666-.358 1.74-.358 2.406 0z"/><path d="m195.071 114.081c.665.358.665 1.023 0 1.381-.666.358-1.741.358-2.406 0-.666-.358-.666-1.023 0-1.381.716-.409 1.791-.409 2.406 0z"/><path d="m201.366 110.449c.666.358.666 1.023 0 1.381-.665.358-1.74.358-2.405 0-.666-.358-.666-1.023 0-1.381.665-.409 1.74-.409 2.405 0z"/></g><path d="m96.9979 257.883 2.5593-30.643h-34.7042l2.5593 30.643c0 .103-.0512.154-.0512.256 0 .307.1024.563.1024.819l.0511.614h.0512c1.0749 4.808 7.1661 8.543 14.6393 8.543s13.5643-3.735 14.6392-8.543h.0512l.0512-.614c.0512-.256.1024-.563.1024-.819 0-.102-.0512-.153-.0512-.256z" fill="#a5cfd4"/><path d="m100.683 226.166h-35.83c-.6654 0-1.1773.563-1.1261 1.228l2.5593 30.387-.0512.359c0 .255.0512.46.1536.92l.3583 1.586c1.638 5.014 7.985 8.544 15.4582 8.544s13.7691-3.53 15.4583-8.544l.3583-1.79c.0512-.205.1023-.461.1023-.716l-.0511-.307zm-4.76 31.615.0512.307c0 .052 0 .205-.0512.307-.0512.103-.0512.256-.0512.461l-.0511.511c-.4095 1.842-1.7404 3.479-3.5831 4.809l1.9963-28.75-5.9888 3.53h-5.9888v28.136c-6.8077 0-12.643-3.325-13.6155-7.725l-.0512-.153-.0512-.358c0-.154-.0512-.256-.0512-.409 0-.103-.0512-.205-.0512-.205l.0512-.256-2.4569-29.671h32.452z" fill="#013a51"/><path d="m99.5572 227.241c0 6.445-7.7803 11.715-17.3521 11.715-9.5719 0-17.3521-5.218-17.3521-11.715 0-6.446 7.7802-13.71 17.3521-13.71 9.5718 0 17.3521 7.264 17.3521 13.71z" fill="#a5cfd4"/><path d="m82.1539 239.979c-10.1349 0-18.427-5.73-18.427-12.738 0-6.855 8.0362-14.785 18.427-14.785s18.4271 7.93 18.4271 14.785c0 7.059-8.2411 12.738-18.4271 12.738zm0-25.374c-9.0088 0-16.3284 6.906-16.3284 12.636 0 5.883 7.3196 10.64 16.3284 10.64 9.0087 0 16.3284-4.757 16.3284-10.64 0-5.73-7.2685-12.636-16.3284-12.636z" fill="#013a51"/><path d="m97.049 223.557c0 5.525-6.6542 10.027-14.844 10.027s-14.844-4.502-14.844-10.027 6.6542-10.026 14.844-10.026 14.844 4.501 14.844 10.026z" fill="#b7d7e1"/><path d="m82.1538 234.607c-8.7528 0-15.9189-4.962-15.9189-11.049 0-6.088 7.1149-11.05 15.9189-11.05 8.7529 0 15.9189 4.962 15.9189 11.05 0 6.087-7.1148 11.049-15.9189 11.049zm0-20.002c-7.6267 0-13.8202 4.041-13.8202 8.953 0 4.962 6.1935 8.952 13.8202 8.952 7.6268 0 13.8203-4.041 13.8203-8.952 0-4.963-6.1935-8.953-13.8203-8.953z" fill="#013a51"/><path d="m85.7882 213.632c-1.2797-.358-2.0987.819-2.7641 1.791-.2559.358-.7166 1.074-.819 1.177-.2047-.103-.7166-.768-.9725-1.126-.6654-.972-1.4844-2.097-2.7641-1.79-3.6854.972-6.0399 6.701-6.0399 8.901 0 3.325 4.2484 5.934 9.7253 5.934 5.4258 0 9.7254-2.609 9.7254-5.934 0-2.2-2.5593-7.981-6.0911-8.953z" fill="#013a51"/><path d="m41.4609 181.2c-1.1773-1.024-3.4807-1.177-5.8864-.41-4.7604 1.535-13.0013 4.963-21.9077 12.534-8.44574 7.162-10.69793 12.994-11.20979 16.114-.25593 1.535 1.02372 2.661 3.22473 2.814l71.96776 4.86c1.7915.102 3.6854-1.535 2.7129-2.353z" fill="#b7d7e1"/><path d="m78.5197 217.47c-.3583 0-.7166-.052-1.0238-.103l-69.76671-18.416c-1.53559-.41-2.66169-1.177-3.22473-2.2-.40949-.767-.46068-1.637-.10238-2.507 1.33085-3.53 4.91388-8.85 14.53692-14.273 10.0325-5.678 18.7341-7.673 24.2622-8.287 2.9176-.358 5.4257.409 6.6542 1.893l31.889 40.312c.5119.613.5119 1.432.1024 2.097-.6654.87-1.9963 1.484-3.3271 1.484zm-33.9365-43.842c-.3583 0-.7166 0-1.1261.051-4.3508.512-13.206 2.251-23.4944 8.032-9.5718 5.371-12.59182 10.589-13.61554 13.198-.10237.307-.10237.563 0 .819.25593.46.92135.921 1.89389 1.176l69.76675 18.366c.7166.204 1.5356-.103 1.8427-.358l-31.6842-40.108c-.4607-.613-1.7915-1.176-3.5831-1.176z" fill="#013a51"/><path d="m122.642 253.791c1.126 1.023 3.43 1.228 5.835.461 4.761-1.484 13.053-4.911 22.01-12.432 8.548-7.162 10.852-12.942 11.415-16.114.307-1.535-.973-2.66-3.123-2.814l-71.609-5.422c-1.7915-.154-3.6854 1.534-2.764 2.353z" fill="#b7d7e1"/><path d="m119.52 263.46c-2.355 0-4.3-.716-5.272-2.046l-31.1216-40.568c-.4607-.614-.5119-1.432-.0512-2.097.7678-1.126 2.764-1.791 4.2996-1.33l69.3062 18.825c1.536.41 2.662 1.228 3.173 2.251.41.819.41 1.689.103 2.558-1.382 3.53-5.068 8.85-14.742 14.222-10.135 5.627-18.836 7.571-24.364 8.185-.461-.051-.922 0-1.331 0zm-3.634-3.325c.563.716 2.252 1.432 4.709 1.125 5.323-.614 13.769-2.455 23.596-7.929 9.623-5.372 12.797-10.538 13.821-13.147.102-.307.102-.563 0-.819-.256-.46-.922-.921-1.843-1.125l-69.306-18.826c-.7166-.205-1.5356.102-1.8427.358z" fill="#013a51"/><path d="m88.1939 217.469c0 1.893-2.7129 3.377-5.9888 3.377-3.3271 0-5.9888-1.535-5.9888-3.377s2.7129-3.376 5.9888-3.376 5.9888 1.534 5.9888 3.376z" fill="#b7d7e1"/><path d="m82.1539 221.92c-3.9414 0-7.0637-1.944-7.0637-4.451 0-2.506 3.1223-4.45 7.0637-4.45 3.9413 0 7.0637 1.944 7.0637 4.45 0 2.507-3.0712 4.451-7.0637 4.451zm0-6.753c-2.8153 0-4.9651 1.228-4.9651 2.353 0 1.126 2.0987 2.354 4.9651 2.354 2.8152 0 4.965-1.228 4.965-2.354 0-1.125-2.0986-2.353-4.965-2.353z" fill="#013a51"/><path d="m331.789 258.959 2.559-30.644h-34.704l2.559 30.644c0 .102-.051.153-.051.255 0 .307.102.563.102.819l.052.614h.051c1.075 4.809 7.166 8.543 14.639 8.543s13.564-3.734 14.639-8.543h.052l.051-.614c.051-.256.102-.563.102-.819 0-.102-.051-.204-.051-.255z" fill="#a5cfd4"/><path d="m335.474 227.241h-35.83c-.666 0-1.177.563-1.126 1.228l2.559 30.387-.051.359c0 .255.051.511.153.92l.359 1.586c1.638 5.014 7.985 8.544 15.458 8.544s13.769-3.53 15.458-8.544l.358-1.79c.052-.205.103-.461.103-.716l-.051-.307zm-4.709 31.615.051.307c0 .052 0 .205-.051.307-.051.103-.051.256-.051.461l-.051.511c-.41 1.842-1.741 3.479-3.583 4.809l1.996-28.75-5.989 3.53h-5.989v28.136c-6.807 0-12.643-3.325-13.615-7.725l-.051-.153-.052-.358c0-.154-.051-.256-.051-.41 0-.102-.051-.204-.051-.204l.051-.256-2.457-29.671h32.452z" fill="#013a51"/><path d="m334.348 228.315c0 6.445-7.78 11.715-17.352 11.715s-17.352-5.218-17.352-11.715c0-6.446 7.78-13.711 17.352-13.711s17.352 7.214 17.352 13.711z" fill="#a5cfd4"/><path d="m316.996 241.053c-10.186 0-18.427-5.73-18.427-12.738 0-6.855 8.036-14.785 18.427-14.785s18.427 7.93 18.427 14.785c0 7.008-8.292 12.738-18.427 12.738zm0-25.425c-9.06 0-16.328 6.906-16.328 12.636 0 5.883 7.319 10.64 16.328 10.64s16.329-4.757 16.329-10.64c-.052-5.679-7.32-12.636-16.329-12.636z" fill="#013a51"/><path d="m331.84 224.58c0 5.525-6.654 10.027-14.844 10.027s-14.844-4.502-14.844-10.027 6.654-10.027 14.844-10.027 14.844 4.502 14.844 10.027z" fill="#b7d7e1"/><path d="m316.996 235.681c-8.753 0-15.919-4.962-15.919-11.049 0-6.088 7.115-11.05 15.919-11.05 8.753 0 15.919 4.962 15.919 11.05 0 6.087-7.166 11.049-15.919 11.049zm0-20.053c-7.627 0-13.82 4.041-13.82 8.952 0 4.963 6.193 8.953 13.82 8.953s13.82-4.042 13.82-8.953c-.051-4.911-6.244-8.952-13.82-8.952z" fill="#013a51"/><path d="m320.579 214.708c-1.279-.359-2.098.818-2.764 1.79-.256.358-.716 1.074-.819 1.177-.205-.103-.716-.768-.972-1.126-.666-.972-1.485-2.097-2.764-1.79-3.686.972-6.04 6.701-6.04 8.901 0 3.325 4.248 5.934 9.725 5.934 5.426 0 9.725-2.609 9.725-5.934 0-2.2-2.559-7.98-6.091-8.952z" fill="#013a51"/><path d="m239.039 222.483c-2.149.102-3.48 1.177-3.224 2.711.46 3.019 2.559 8.595 11.158 16.32 8.139 7.315 16.789 10.998 21.754 12.635 2.457.819 4.812.665 5.989-.307l39.158-33.149c.972-.819-.922-2.507-2.713-2.405z" fill="#b7d7e1"/><path d="m278.043 264.023c-.46 0-.972-.051-1.484-.103-4.863-.613-14.435-2.455-24.211-8.236-9.981-5.883-13.462-11.05-14.639-14.324-.308-.87-.256-1.688.153-2.455.512-1.024 1.689-1.791 3.225-2.2l69.869-18.366c1.536-.409 3.532.205 4.3 1.382.46.665.409 1.483-.051 2.097l-31.838 40.261c-1.024 1.228-2.969 1.944-5.324 1.944zm33.937-43.74c-.154 0-.359 0-.512.052l-69.869 18.365c-.922.256-1.638.665-1.894 1.125-.102.256-.154.461-.051.768.87 2.455 3.787 7.366 13.718 13.198 9.469 5.576 18.734 7.418 23.392 7.981 2.457.307 4.248-.358 4.862-1.126l31.633-40.056c-.204-.102-.716-.307-1.279-.307z" fill="#013a51"/><path d="m393.673 214.81c2.15-.103 3.481-1.126 3.276-2.661-.41-2.967-2.457-8.594-10.954-16.319-8.087-7.366-16.636-11.05-21.601-12.738-2.457-.818-4.811-.716-6.04.307l-39.874 32.741c-.972.818.871 2.506 2.662 2.404z" fill="#b7d7e1"/><path d="m320.323 218.698c-1.331 0-2.713-.614-3.276-1.535-.461-.665-.409-1.484.103-2.097l32.605-40.005c1.229-1.535 3.839-2.2 6.808-1.842 4.863.614 14.383 2.558 24.109 8.39 9.879 5.934 13.308 11.101 14.434 14.375.307.818.205 1.688-.205 2.455-.563 1.024-1.689 1.791-3.224 2.2l-70.33 17.956c-.358.052-.666.103-1.024.103zm-1.331-2.507c.359.256 1.126.512 1.843.358l70.33-17.956c.972-.256 1.638-.665 1.894-1.126.153-.255.153-.46.051-.767-.819-2.404-3.686-7.367-13.513-13.25-9.367-5.627-18.632-7.469-23.29-8.083-2.508-.306-4.3.359-4.914 1.075z" fill="#013a51"/><path d="m322.985 218.544c0 1.893-2.713 3.376-5.989 3.376s-5.989-1.534-5.989-3.376c0-1.893 2.713-3.376 5.989-3.376s5.989 1.534 5.989 3.376z" fill="#b7d7e1"/><path d="m316.996 222.995c-3.941 0-7.064-1.944-7.064-4.451s3.123-4.45 7.064-4.45 7.064 1.943 7.064 4.45-3.123 4.451-7.064 4.451zm0-6.804c-2.815 0-4.965 1.228-4.965 2.353 0 1.126 2.099 2.353 4.965 2.353 2.815 0 4.965-1.227 4.965-2.353-.051-1.074-2.15-2.353-4.965-2.353z" fill="#013a51"/></g></svg>