<svg fill="none" height="44" viewBox="0 0 44 44" width="44" xmlns="http://www.w3.org/2000/svg"><g fill="#013a51" opacity=".5"><path d="m22 0c-12.15028 0-22 9.84972-22 22 0 12.1502 9.84972 21.9999 22 21.9999 12.1502 0 21.9999-9.8497 21.9999-21.9999-.0129-12.14485-9.8551-21.9870173-21.9999-22zm0 40.8571c-10.4146 0-18.85718-8.4426-18.85718-18.8571 0-10.4146 8.44258-18.85718 18.85718-18.85718 10.4145 0 18.8571 8.44258 18.8571 18.85718-.0113 10.4099-8.4472 18.8458-18.8571 18.8571z"/><path d="m22.0003 7.85715c-.8679 0-1.5715.70355-1.5715 1.57146v10.99999h-10.99992c-.86791 0-1.57146.7036-1.57146 1.5715s.70355 1.5714 1.57146 1.5714h12.57142c.8679 0 1.5714-.7036 1.5714-1.5715v-12.57139c0-.86791-.7035-1.57146-1.5714-1.57146z"/></g></svg>