<svg fill="none" height="44" viewBox="0 0 44 44" width="44" xmlns="http://www.w3.org/2000/svg" xmlns:xlink="http://www.w3.org/1999/xlink"><clipPath id="a"><path d="m0 0h44v44h-44z"/></clipPath><g clip-path="url(#a)" opacity=".5"><path d="m38.3676 7.23544c-6.3423-7.024386-16.7917-9.22385-25.4285-5.31571-8.17509 3.69968-13.376326 12.26627-12.9090414 21.22257.4689634 8.9892 6.6024114 17.0099 15.1709414 19.7878 9.0701 2.9403 19.2359-.4197 24.7625-8.1772 5.225-7.3346 5.3939-17.4195.4169-24.92456-.6053-.91275-1.279-1.78019-2.0128-2.5929 3.658 4.05146-2.9723-3.29181 0 0zm-10.8963 23.44756c-3.8188-.6207-7.7646-.5862-11.5703.1151-.2887-2.4788-.4421-4.9733-.4824-7.4682h13.2028c-.0403 2.4949-.1934 4.9894-.4824 7.4682-.2219-.041-.4448-.0789-.6677-.1151.1994.0325-.0386-.0064 0 0zm-10.8983-17.3903c3.8172.6217 7.7623.5844 11.566-.1158.2887 2.4787.4418 4.9729.4824 7.4678h-13.2028c.0406-2.4949.1937-4.9891.4824-7.4678.2235.0413.4478.0792.672.1158.0366.0057-.2031-.0332 0 0zm14.7336 7.352c-.044-2.6969-.2108-5.3939-.5348-8.0724 2.2129-.617 4.3691-1.4844 6.3389-2.67246 2.4654 3.07396 3.9263 6.81556 4.1982 10.74526h-10.0023zm3.936-12.76473c-1.5287.86139-3.1683 1.51566-4.8504 2.00745-.3257-1.99134-.7466-3.97126-1.317-5.90787 2.2811.89194 4.3688 2.21121 6.1674 3.90042-.0346.01947-1.7986-1.68921 0 0zm-9.2923-4.8266c.8677 2.41095 1.419 4.93335 1.8225 7.46013-3.787.7086-7.7183.7086-11.5056 0 .4035-2.52678.9547-5.04918 1.8225-7.46013 2.5791-.53241 5.2818-.53241 7.8606 0 .0241.06714-2.5788-.53241 0 0zm-11.0151 1.0289c-.5549 1.90405-.9675 3.84873-1.2874 5.80515-1.6822-.49078-3.322-1.14639-4.8501-2.00745 1.7983-1.68921 3.886-3.00848 6.167-3.90042-.0101.0339-.0198.06848-.0295.10272zm-8.00597 5.81757c1.9685 1.18706 4.12637 2.05986 6.33887 2.67246-.3239 2.6785-.4908 5.3755-.5347 8.0724h-10.00202c.27191-3.9293 1.73252-7.6709 4.19785-10.74486.11682.07016-2.46533 3.07396 0 0zm5.80417 13.43006c.0436 2.6973.2111 5.3943.5347 8.0728-2.2129.617-4.36903 1.4844-6.33887 2.6724-2.46533-3.0739-3.92594-6.8155-4.19785-10.7452zm-3.9357 12.7651c1.5284-.8614 3.1679-1.5156 4.8504-2.0074.3253 1.9913.7459 3.9716 1.3166 5.9078-2.281-.8919-4.3687-2.2112-6.167-3.9004.03424-.0195 1.7983 1.6892 0 0zm9.292 4.8263c-.8678-2.411-1.4183-4.9334-1.8225-7.4598 3.7839-.7113 7.7216-.7113 11.5056 0-.4042 2.5264-.9548 5.0488-1.8225 7.4598-2.5788.5327-5.2815.5327-7.8606 0-.0242-.0668 2.5791.5327 0 0zm11.0151-1.0286c.5552-1.9037.9675-3.8487 1.2874-5.8051 1.6821.4918 3.3217 1.146 4.8504 2.0074-1.799 1.6892-3.8863 3.0085-6.1674 3.9004.0101-.0339.0199-.0684.0296-.1027-.0097.0343.0094-.0322 0 0zm8.0059-5.8176c-1.9698-1.188-4.126-2.0554-6.3389-2.6724.3236-2.6785.4912-5.3751.5348-8.0728h10.0023c-.2719 3.9297-1.7328 7.6713-4.1982 10.7452 2.4654-3.0739-.1171-.0705 0 0z" fill="#013a51"/></g></svg>