<svg fill="none" height="58" viewBox="0 0 60 58" width="60" xmlns="http://www.w3.org/2000/svg"><g fill="#5fa7bd"><path d="m59.5706 23.0142-6.6303-9.3367c-.322-.4536-.8437-.723-1.3995-.723h-11.5446v-2.6051c0-.948-.7686-1.71659-1.7166-1.71659h-21.6753c-.948 0-1.7166.76859-1.7166 1.71659v30.0352c0 .948.7686 1.7166 1.7166 1.7166h3.2919c.5519 3.1327 3.3332 5.538 6.5291 5.538 3.1958 0 5.9767-2.4053 6.5286-5.538h8.7427c.5519 3.1327 3.3332 5.538 6.529 5.538 3.1959 0 5.9768-2.4053 6.5286-5.538h3.417c.948 0 1.7166-.7686 1.7166-1.7166v-16.3768c0-.3562-.111-.7032-.3172-.9936zm-3.116 4.0697h-8.4746v-4.8954h6.6729c.0395 0 .0781-.003.1167-.0057l1.685 2.3725zm-38.1337-15.0183h18.2426v26.6028h-3.8838c-1.0388-2.9875-4.132-4.876-7.2634-4.3944-2.4295.3738-4.4396 2.0759-5.2459 4.3944h-1.8495zm8.1044 32.1404c-1.9777 0-3.453-1.8741-3.1634-3.7934.2342-1.5499 1.5836-2.783 3.1634-2.783 1.5788 0 2.9278 1.2323 3.1625 2.7813.2913 1.9193-1.184 3.7951-3.1625 3.7951zm21.8003 0c-1.978 0-3.4538-1.8758-3.1629-3.7951.2351-1.549 1.5841-2.7813 3.1629-2.7813 1.5789 0 2.9279 1.2327 3.1626 2.7813.2913 1.9193-1.1841 3.7951-3.1626 3.7951zm6.2549-5.5376c-.9169-2.637-3.4573-4.472-6.2549-4.472-2.7975 0-5.338 1.835-6.2548 4.472h-1.9746v-22.2807h10.6585l1.6815 2.3681h-6.0724c-.948 0-1.7166.7681-1.7166 1.7161v8.3286c0 .948.7686 1.7166 1.7166 1.7166h10.1912v8.1513z"/><path d="m9.20105 18.75h-3.46687c-.9068 0-1.64238.7352-1.64238 1.642 0 .9072.73558 1.6423 1.64238 1.6423h3.46687c.90725 0 1.64235-.7351 1.64235-1.6423 0-.9068-.7351-1.642-1.64235-1.642z"/><path d="m9.20105 29.1736h-3.46687c-.9068 0-1.64238.7352-1.64238 1.6419 0 .9073.73558 1.6424 1.64238 1.6424h3.46687c.90725 0 1.64235-.7351 1.64235-1.6424 0-.9067-.7351-1.6419-1.64235-1.6419z"/><path d="m9.20177 23.9614h-7.55939c-.907212 0-1.64238.7356-1.64238 1.6424 0 .9072.735168 1.6424 1.64238 1.6424h7.55939c.90723 0 1.64243-.7352 1.64243-1.6424 0-.9068-.7352-1.6424-1.64243-1.6424z"/></g></svg>