<svg fill="none" height="44" viewBox="0 0 48 44" width="48" xmlns="http://www.w3.org/2000/svg" xmlns:xlink="http://www.w3.org/1999/xlink"><clipPath id="a"><path d="m0 0h44v44h-44z"/></clipPath><g clip-path="url(#a)" fill="#587483" opacity=".8"><path d="m43.7784 35.6741c-.4028-.6032-1.2189-.7657-1.8221-.3625-.6261.4179-1.177.6845-1.7372.8295l3.6963-11.4901c.1286-.3998.0584-.8369-.189-1.1763-.2471-.3394-.6419-.5401-1.0618-.5401h-7.7891v-6.0442c0-.7254-.5881-1.3139-1.3139-1.3139h-3.5493v-4.9884c0-.72543-.5881-1.31356-1.3139-1.31356h-2.4026v-2.80439c0-.72577-.5881-1.3139-1.3139-1.3139-.7254 0-1.3135.58813-1.3135 1.3139v2.80439h-2.4026c-.7258 0-1.3139.58813-1.3139 1.31386v4.9884h-2.2052c-.7257 0-1.3139.5882-1.3139 1.3136v6.0445h-3.4959c-.3857 0-.7519.1695-1.0017.4636-.2497.2944-.3575.6831-.2947 1.0638l1.9252 11.6701c-.5485-.1471-1.09-.4109-1.7033-.8208-.6036-.4032-1.4193-.2407-1.8225.3625-.40317.6036-.2407 1.4193.3625 1.8225 1.459.9742 2.788 1.4089 4.3093 1.4089 1.6728 0 3.1697-.7697 4.1569-1.9749.9846 1.0833 2.4019 1.7638 3.9746 1.7638 1.5731 0 2.9904-.6805 3.9747-1.7634.9876 1.2048 2.4844 1.9745 4.1572 1.9745 1.622 0 3.0786-.7237 4.0656-1.8664.9872 1.1427 2.4438 1.8664 4.0659 1.8664 1.5213 0 2.8503-.4344 4.3093-1.4089.6032-.4032.7657-1.2192.3625-1.8225zm-21.1987-23.7721h4.8051v3.6745h-4.8051zm-3.5191 6.3023h13.1871v4.7303h-13.1871zm17.294 15.3046c0-.7254-.5882-1.3139-1.3136-1.3139-.7258 0-1.3139.5885-1.3139 1.3139 0 1.5267-1.2347 2.7691-2.752 2.7691-1.5174 0-2.752-1.2424-2.752-2.7691v-.2111c0-.7258-.5882-1.3139-1.3139-1.3139-.7255 0-1.3139.5881-1.3139 1.3139 0 1.5267-1.2344 2.7688-2.7517 2.7688-1.5177 0-2.7524-1.2421-2.7524-2.7688 0-.7258-.5881-1.3139-1.3135-1.3139-.7258 0-1.3139.5881-1.3139 1.3139v.2111c0 .9829-.5123 1.8473-1.2817 2.3388l-1.6966-10.2853h26.3764l-3.2945 10.2406c-.7311-.4981-1.2128-1.3407-1.2128-2.2941z"/><path d="m34.1788 27.6011h-1.7516c-.7258 0-1.3139.5881-1.3139 1.3135 0 .7258.5881 1.3139 1.3139 1.3139h1.7516c.7258 0 1.3139-.5881 1.3139-1.3139 0-.7254-.5881-1.3135-1.3139-1.3135z"/><path d="m21.9171 27.6011h-1.7516c-.7258 0-1.3139.5881-1.3139 1.3135 0 .7258.5881 1.3139 1.3139 1.3139h1.7516c.7258 0 1.3139-.5881 1.3139-1.3139 0-.7254-.5881-1.3135-1.3139-1.3135z"/><path d="m28.048 27.6011h-1.752c-.7254 0-1.3136.5881-1.3136 1.3135 0 .7258.5882 1.3139 1.3136 1.3139h1.752c.7254 0 1.3139-.5881 1.3139-1.3139 0-.7254-.5885-1.3135-1.3139-1.3135z"/><path d="m7.36084 24.3328h-2.7735c-.72543 0-1.3139.5881-1.3139 1.3135 0 .7258.58847 1.3139 1.3139 1.3139h2.7735c.72577 0 1.3139-.5881 1.3139-1.3139 0-.7254-.58813-1.3135-1.3139-1.3135z"/><path d="m7.36084 32.6716h-2.7735c-.72543 0-1.3139.5882-1.3139 1.3136 0 .7258.58847 1.3139 1.3139 1.3139h2.7735c.72577 0 1.3139-.5881 1.3139-1.3139 0-.7254-.58813-1.3136-1.3139-1.3136z"/><path d="m7.36142 28.502h-6.04752c-.725765 0-1.3139.5884-1.3139 1.3139 0 .7257.588135 1.3139 1.3139 1.3139h6.04752c.72577 0 1.3139-.5882 1.3139-1.3139 0-.7255-.58813-1.3139-1.3139-1.3139z"/></g></svg>
