<svg fill="none" height="60" viewBox="0 0 60 60" width="60" xmlns="http://www.w3.org/2000/svg" xmlns:xlink="http://www.w3.org/1999/xlink"><clipPath id="a"><path d="m0 0h60v60h-60z"/></clipPath><g clip-path="url(#a)" fill="#5fa7bd"><path d="m59.6978 48.6465c-.5493-.8226-1.6621-1.0441-2.4847-.4943-.8537.5699-1.6049.9333-2.3689 1.1311l5.0404-15.6683c.1753-.5452.0797-1.1412-.2577-1.604-.3369-.4628-.8752-.7366-1.4479-.7366h-10.6215v-8.242c0-.9892-.802-1.7917-1.7917-1.7917h-4.8399v-6.8024c0-.9892-.802-1.7912-1.7917-1.7912h-3.2762v-3.82416c0-.98969-.802-1.79169-1.7917-1.79169-.9892 0-1.7912.802-1.7912 1.79169v3.82416h-3.2763c-.9896 0-1.7916.802-1.7916 1.7917v6.8023h-3.0071c-.9897 0-1.7917.8021-1.7917 1.7913v8.2425h-4.7671c-.526 0-1.0254.2311-1.366.6321-.3406.4015-.4875.9316-.4019 1.4507l2.6253 15.9137c-.748-.2005-1.4864-.5603-2.3227-1.1192-.8231-.5498-1.9355-.3283-2.4852.4943-.5498.8231-.3283 1.9355.4944 2.4852 1.9894 1.3285 3.8017 1.9213 5.8763 1.9213 2.281 0 4.3222-1.0497 5.6685-2.693 1.3426 1.4772 3.2753 2.405 5.4199 2.405 2.1451 0 4.0777-.9278 5.4199-2.4046 1.3467 1.6429 3.3879 2.6926 5.6689 2.6926 2.212 0 4.1982-.987 5.544-2.5452 1.3463 1.5582 3.3325 2.5452 5.5445 2.5452 2.0745 0 3.8868-.5924 5.8763-1.9213.8226-.5497 1.0441-1.6626.4943-2.4852zm-28.9073-32.4165h6.5525v5.0107h-6.5525zm-4.7987 8.5941h17.9823v6.4503h-17.9823zm23.5826 20.8699c0-.9893-.802-1.7917-1.7912-1.7917-.9897 0-1.7917.8024-1.7917 1.7917 0 2.0819-1.6837 3.7761-3.7528 3.7761-2.069 0-3.7527-1.6942-3.7527-3.7761v-.288c0-.9896-.802-1.7917-1.7917-1.7917-.9892 0-1.7917.8021-1.7917 1.7917 0 2.0819-1.6832 3.7757-3.7523 3.7757-2.0695 0-3.7532-1.6938-3.7532-3.7757 0-.9896-.802-1.7917-1.7912-1.7917-.9897 0-1.7917.8021-1.7917 1.7917v.288c0 1.3403-.6985 2.519-1.7477 3.1892l-2.3136-14.0254h35.9679l-4.4925 13.9645c-.997-.6793-1.6539-1.8283-1.6539-3.1283z"/><path d="m46.608 37.6377h-2.3886c-.9897 0-1.7917.802-1.7917 1.7912 0 .9897.802 1.7917 1.7917 1.7917h2.3886c.9897 0 1.7917-.802 1.7917-1.7917 0-.9892-.802-1.7912-1.7917-1.7912z"/><path d="m29.8864 37.6377h-2.3887c-.9896 0-1.7916.802-1.7916 1.7912 0 .9897.802 1.7917 1.7916 1.7917h2.3887c.9896 0 1.7916-.802 1.7916-1.7917 0-.9892-.802-1.7912-1.7916-1.7912z"/><path d="m38.2477 37.6377h-2.3891c-.9892 0-1.7912.802-1.7912 1.7912 0 .9897.802 1.7917 1.7912 1.7917h2.3891c.9892 0 1.7917-.802 1.7917-1.7917 0-.9892-.8025-1.7912-1.7917-1.7912z"/><path d="m10.0386 33.181h-3.78207c-.98923 0-1.79169.802-1.79169 1.7913 0 .9896.80246 1.7916 1.79169 1.7916h3.78207c.9897 0 1.7917-.802 1.7917-1.7916 0-.9893-.802-1.7913-1.7917-1.7913z"/><path d="m10.0386 44.5524h-3.78207c-.98923 0-1.79169.802-1.79169 1.7912 0 .9897.80246 1.7917 1.79169 1.7917h3.78207c.9897 0 1.7917-.802 1.7917-1.7917 0-.9892-.802-1.7912-1.7917-1.7912z"/><path d="m10.0383 38.8663h-8.24661c-.989688 0-1.79169.8025-1.79169 1.7917 0 .9897.802002 1.7917 1.79169 1.7917h8.24661c.9897 0 1.7917-.802 1.7917-1.7917 0-.9892-.802-1.7917-1.7917-1.7917z"/></g></svg>