<svg fill="none" height="44" viewBox="0 0 48 44" width="48" xmlns="http://www.w3.org/2000/svg" xmlns:xlink="http://www.w3.org/1999/xlink"><clipPath id="a"><path d="m0 0h44v44h-44z"/></clipPath><g clip-path="url(#a)" fill="#587483" opacity=".8"><path d="m37.6394 8.42902c-.7903.03397-1.7171.28738-2.7548.75288-1.5393.69084-4.7026 2.9002-5.5736 3.5163l-13.2879-3.6276c-.6111-.1665-1.3482-.00457-1.8337.40186l-1.159.97214c-.383.3224-.593.7874-.5757 1.2754.0174.4879.2596.9365.6593 1.227l7.8087 5.735-3.1961 2.3-5.2695-1.3036-.0187-.0047c-.654-.1514-1.4041.0736-1.8649.5579l-.4163.4364c-.3204.3365-.48499.7928-.45114 1.2519.03353.4552.25992.8796.62104 1.1653 2.2364 1.7906 4.7203 3.8238 5.2665 4.3368.3128.6807 1.4519 3.682 2.4392 6.3711.1563.4334.4863.7828.9078.9593.4246.1779.9096.1668 1.3309-.0305l.5435-.2551c.6076-.2838 1.0592-.9235 1.1234-1.5917l.4392-5.43 3.1959-2.3002 2.9559 9.2202c.1504.4773.4988.8495.956 1.0209.4574.1713.9648.12 1.3942-.1418l1.2882-.7893c.0369-.0228.0733-.047.109-.0727.4826-.3472.8207-.9491.8546-1.5389l.7808-13.7512c.8607-.6298 3.9606-2.9279 5.1048-4.1683.7708-.8358 1.3055-1.6342 1.589-2.373.5539-1.4429.0702-2.4364-.2905-2.91922-.3433-.4949-1.1317-1.26966-2.6761-1.20256zm.6046 2.74868c.1015.1313-.0412.8158-1.1274 1.9937-.9183.9958-3.8553 3.1995-4.9091 3.9645-.4828.3503-.8296.9862-.8629 1.5808l-.7704 13.5594-2.9629-9.2433c-.1563-.4959-.5203-.8712-.9981-1.0299-.4777-.1587-.9939-.0755-1.416.2282l-4.4975 3.237c-.4709.3388-.8242.9541-.8794 1.5315l-.2772 3.4279c-1.5325-4.0939-1.7429-4.3862-1.8411-4.5227s-.3086-.4289-3.7035-3.1821l3.3198.8212.0185.0045c.565.1311 1.2609-.0082 1.7317-.3471l4.4977-3.2366c.4224-.304.665-.7668.6665-1.2704.0013-.5034-.2393-.9676-.6549-1.2699l-7.8283-5.749 13.1009 3.5764c.5755.1578 1.2884.0307 1.774-.3159 1.06-.7562 4.0817-2.8405 5.3187-3.3957 1.4617-.6556 2.1561-.5735 2.2485-.4352l.0247.0372z"/><path d="m7.88411 25.1716-2.71985 1.9573c-.57928.4168-.71098 1.2246-.29412 1.8039.41706.5796 1.22466.711 1.80394.2941l2.71985-1.9572c.57928-.4169.71117-1.2244.29412-1.804-.41687-.5792-1.22465-.711-1.80394-.2941z"/><path d="m13.7689 33.3489-2.7199 1.9572c-.5793.4169-.711 1.2247-.2941 1.804.4171.5795 1.2249.7112 1.8041.2944l2.7199-1.9573c.5793-.4169.711-1.2247.2939-1.8042-.4169-.5793-1.2246-.711-1.8039-.2941z"/><path d="m10.8274 29.2599-5.93071 4.2679c-.57929.4169-.71099 1.2247-.29413 1.8039.41706.5796 1.22485.7113 1.80414.2944l5.9307-4.2678c.5793-.4169.711-1.2247.2939-1.8042-.4168-.5793-1.2246-.711-1.8039-.2942z"/></g></svg>
