<svg fill="none" height="44" viewBox="0 0 48 44" width="48" xmlns="http://www.w3.org/2000/svg"><g fill="#587483" opacity=".8"><path d="m29.8387 21.2564-3.5305-1.3182c-.1524-.0568-.3092-.084-.4643-.084-.4666 0-.9141.2471-1.1558.6738l-1.857 3.279c-.1175.2068-.1729.4317-.1729.654.0003.4626.2424.9117.6737 1.1558.6379.3615 1.4486.1373 1.8098-.5009l.4518-.7976 1.3599 3.7363c.2511.6892 1.0128 1.0447 1.7023.7936.5391-.1961.8738-.7053.8738-1.2475.0004-.151-.0258-.3044-.0802-.4545l-1.3482-3.7034.8087.3018c.6869.2561 1.4519-.0926 1.7084-.7798.057-.1531.0842-.3099.0842-.4639 0-.5385-.3296-1.0451-.8637-1.2445z"/><path d="m43.9195 26.783c-.2508-.6892-1.0132-1.0447-1.702-.7936l-2.0669.7523c.0259-.2031.0061-.4152-.0688-.6207l-6.1778-16.97264c-.2977-.81909-.8969-1.47269-1.6868-1.84094-.7902-.36859-1.6761-.4072-2.4949-.1091l-16.9727 6.17748c-.1933.0704-.3773.1584-.5505.2608l-3.48819-9.58306c-.12018-.33099-.36725-.60056-.68649-.7496-.31925-.14872-.68448-.16449-1.01548-.04432l-6.134798 2.23304c-.689179.2511-1.044678 1.01279-.7935796 1.70197.2507636.68917 1.0127876 1.04434 1.7019676.79391l4.88703-1.77884 9.19394 25.2606c.0443.1209.1044.2306.1769.3297-.717.4968-1.2937 1.1756-1.672 1.9873-.5627 1.2068-.6217 2.5606-.1662 3.8121.4552 1.2515 1.371 2.2505 2.5778 2.8131.67.3126 1.3857.47 2.1041.47.5747 0 1.1514-.1011 1.708-.3035 2.1511-.7828 3.4365-2.9017 3.264-5.0804l19.2698-7.0136c.6892-.2508 1.0443-1.0128.7936-1.702zm-19.2823-11.9792-3.1028 1.1293-.9413-2.5855 3.1028-1.1297zm-11.3414 1.8463c0-.0003-.0003-.0007-.0003-.001-.0749-.2054-.0195-.3787.0205-.4636.0396-.0853.1366-.239.3424-.3139l4.4392-1.6157 1.3951 3.8333c.1964.5395.7056.8742 1.2478.8742.1511 0 .3045-.0259.4542-.0803l5.5983-2.038c.6892-.2507 1.0447-1.0127.794-1.7019l-1.3952-3.8336 4.4392-1.61574c.2058-.07485.3787-.01947.464.02015.0849.03961.2386.13696.3135.34239l6.1774 16.9727c.0749.2058.1954.381.3458.52l-14.984 5.4537c-1.0242-1.4375-2.7517-2.2334-4.5117-2.074-.0081-.1225-.0326-.2457-.0766-.3669zm6.3879 21.433c-.5847.2132-1.2172.1853-1.7812-.0775-.5643-.2632-.9919-.7298-1.2048-1.3149-.2128-.5848-.1853-1.2172.0779-1.7812.2629-.564.7298-.992 1.3146-1.2048.2622-.0953.5304-.1407.7942-.1407.9521 0 1.848.5882 2.1918 1.5331.4394 1.2072-.1853 2.547-1.3925 2.986z"/><path d="m6.30072 21.5237-2.58493 1.0052c-.67612.263-1.01142 1.0244-.74851 1.7005.26304.6764 1.02466 1.0113 1.70077.7484l2.58494-1.0052c.67642-.2631 1.01141-1.0244.74838-1.7008-.26292-.6761-1.02422-1.0111-1.70065-.7481z"/><path d="m9.32221 29.2957-2.58494 1.0052c-.67611.2629-1.01142 1.0243-.7485 1.7005.26303.6764 1.02465 1.0113 1.70076.7483l2.58497-1.0051c.6764-.2631 1.0114-1.0244.7484-1.7008-.263-.6761-1.02427-1.0111-1.70069-.7481z"/><path d="m7.81113 25.4092-5.63636 2.1918c-.67643.263-1.0113 1.0246-.74838 1.7007.26304.6764 1.02434 1.0114 1.70077.7484l5.63636-2.1918c.67642-.263 1.01142-1.0243.74838-1.7007-.26292-.6762-1.02434-1.0115-1.70077-.7484z"/></g></svg>
