<svg fill="none" height="44" viewBox="0 0 44 44" width="44" xmlns="http://www.w3.org/2000/svg" xmlns:xlink="http://www.w3.org/1999/xlink"><clipPath id="a"><path d="m0 0h44v44h-44z"/></clipPath><g clip-path="url(#a)" opacity=".5"><path d="m43.6667 18.2792-5.0757-7.0224c-.2453-.3397-.6391-.5408-1.0584-.5408h-10.151c-.7215 0-1.3062.5848-1.3062 1.3059v9.3208h-3.4003v-7.1717c0-.7211-.5848-1.3059-1.3058-1.3059h-5.9082v-4.34016c0-.72141-.5848-1.30619-1.3062-1.30619h-9.41054c-.72107 0-1.30585.58478-1.30585 1.30619v12.81776h-2.21826c-.721408 0-1.3061875.5848-1.3061875 1.3062v8.723c0 .7211.5847795 1.3062 1.3061875 1.3062h2.53784c.4307 2.3788 2.57109 4.165 4.98775 4.165 2.41696 0 4.55706-1.7862 4.98776-4.165h16.2734c.4307 2.3788 2.5711 4.165 4.9878 4.165 2.4166 0 4.5567-1.7862 4.9877-4.165h2.6255c.7214 0 1.3062-.5851 1.3062-1.3062v-12.3277c0-.2746-.0867-.5424-.2475-.765zm-2.3649 3.0635h-6.5031v-3.6516h5.116c.0339 0 .0668-.0027.1-.0051l1.2871 1.7809zm-21.2387-5.8655v5.8571h-4.602v-5.8571zm-14.01255-5.64641h6.79845v11.50351h-6.79845zm-3.52412 14.12401h23.54897v6.111h-12.5526c-.7094-1.9998-2.6581-3.3634-4.77696-3.3634-2.1189 0-4.06761 1.3636-4.77693 3.3634h-1.44248zm6.21941 10.2759c-1.48411 0-2.65601-1.3679-2.42909-2.8349.18296-1.1813 1.23737-2.0813 2.42909-2.0813 1.19171 0 2.24646.9 2.42906 2.0813.2273 1.4666-.9443 2.8349-2.42906 2.8349zm26.24896 0c-1.4841 0-2.6561-1.3679-2.4291-2.8349.1826-1.1813 1.2373-2.081 2.4291-2.081 1.1917 0 2.2461.9 2.429 2.081.2273 1.4666-.9446 2.8349-2.429 2.8349zm4.7769-4.1649c-.7093-1.9994-2.658-3.3634-4.7769-3.3634s-4.0676 1.3636-4.777 3.3634h-1.5301v-16.7378h8.1772l1.2656 1.7507h-4.6376c-.7214 0-1.3062.5848-1.3062 1.3062v6.264c0 .7211.5848 1.3059 1.3062 1.3059h7.8092v6.111z" fill="#013a51"/></g></svg>