<svg fill="none" height="60" viewBox="0 0 60 60" width="60" xmlns="http://www.w3.org/2000/svg" xmlns:xlink="http://www.w3.org/1999/xlink"><clipPath id="a"><path d="m0 0h60v60h-60z"/></clipPath><g clip-path="url(#a)" fill="#5fa7bd"><path d="m51.3268 11.4941c-1.0777.0463-2.3416.3918-3.7566 1.0266-2.0991.9421-6.4127 3.9549-7.6004 4.7949l-18.1198-4.9467c-.8334-.227-1.8385-.0062-2.5005.548l-1.5805 1.3257c-.5223.4396-.8087 1.0738-.785 1.7391.0237.6654.3539 1.2771.899 1.6733l10.6483 7.8204-4.3584 3.1364-7.1857-1.7777-.0255-.0064c-.8919-.2064-1.9146.1004-2.5431.7608l-.5676.5951c-.4369.4588-.6614 1.0811-.6152 1.7071.0457.6208.3544 1.1995.8468 1.589 3.0498 2.4417 6.4368 5.2143 7.1817 5.9139.4265.9282 1.9798 5.0209 3.3261 8.6879.2132.591.6632 1.0674 1.238 1.308.5789.2427 1.2403.2275 1.8148-.0415l.7411-.3479c.8286-.387 1.4444-1.2593 1.532-2.1705l.5989-7.4045 4.3581-3.1367 4.0307 12.573c.2051.651.6802 1.1584 1.3036 1.3922.6238.2335 1.3157.1637 1.9013-.1934l1.7565-1.0763c.0504-.0312.1-.0641.1487-.0991.658-.4735 1.1192-1.2943 1.1653-2.0985l1.0647-18.7517c1.1738-.8588 5.4008-3.9926 6.9612-5.684 1.051-1.1398 1.7802-2.2285 2.1668-3.2359.7553-1.9676.0957-3.3224-.3962-3.9808-.4681-.6749-1.5431-1.7313-3.6491-1.6398zm.8243 3.7482c.1384.179-.0561 1.1124-1.5373 2.7187-1.2522 1.3579-5.2572 4.3629-6.6942 5.4061-.6584.4777-1.1314 1.3448-1.1767 2.1557l-1.0505 18.49-4.0404-12.6044c-.2131-.6763-.7095-1.1881-1.3609-1.4046-.6515-.2164-1.3555-.1029-1.931.3113l-6.133 4.414c-.6421.462-1.1239 1.3011-1.1991 2.0884l-.3781 4.6745c-2.0897-5.5826-2.3766-5.9812-2.5105-6.1674-.134-.1861-.4209-.5848-5.0502-4.3391l4.5269 1.1198.0252.0061c.7705.1787 1.7194-.0112 2.3615-.4733l6.1332-4.4136c.5759-.4145.9068-1.0456.9089-1.7324.0017-.6864-.3263-1.3194-.8931-1.7316l-10.675-7.8396 17.8649 4.8769c.7848.2152 1.7569.0419 2.419-.4307 1.4456-1.0312 5.5661-3.8735 7.2529-4.6305 1.9932-.8941 2.9401-.782 3.0662-.5935l.0337.0507z"/><path d="m10.7507 34.3248-3.70888 2.669c-.78993.5684-.96953 1.67-.40107 2.4599.56872.7903 1.66998.9695 2.45991.4011l3.70884-2.669c.79-.5685.9698-1.6696.4011-2.4599-.5684-.79-1.67-.9696-2.4599-.4011z"/><path d="m18.7761 45.4757-3.7089 2.669c-.7899.5684-.9695 1.6699-.4011 2.4599.5688.7903 1.6703.9699 2.4602.4014l3.7089-2.669c.7899-.5684.9695-1.67.4008-2.4603-.5684-.7899-1.67-.9695-2.4599-.401z"/><path d="m14.7649 39.8998-8.08733 5.8198c-.78994.5685-.96953 1.67-.40108 2.4599.56872.7903 1.67025.9699 2.46018.4015l8.08733-5.8199c.7899-.5684.9695-1.6699.4008-2.4602-.5685-.79-1.67-.9696-2.4599-.4011z"/></g></svg>