<svg fill="none" height="44" viewBox="0 0 44 44" width="44" xmlns="http://www.w3.org/2000/svg" xmlns:xlink="http://www.w3.org/1999/xlink"><clipPath id="a"><path d="m0 0h44v44h-44z"/></clipPath><g clip-path="url(#a)" opacity=".5"><path d="m43.745 26.0642-4.4288-6.0401c-.248-.3384-.6425-.5381-1.0621-.5381h-8.8572c-.7275 0-1.3169.5895-1.3169 1.3169v7.8233h-4.0005l-.247-7.3963c1.4552-3.0182-.5711-6.6689-3.9149-6.9951l-12.16614-9.39473c-.25244-1.90438-1.88591-3.37907-3.8581-3.37907-2.14675.00033-3.89336 1.7466-3.89336 3.89335 0 1.68081 1.07052 3.1159 2.56569 3.66006v3.15449c0 .6361.45453 1.1813 1.08026 1.2954.36121.0662.62372.3817.62372.7506 0 .4207-.34241.7627-.76303.7627s-.76303-.342-.76303-.7627c0-.7274-.58947-1.3169-1.31692-1.3169-.727108 0-1.316919.5895-1.316919 1.3169 0 1.8729 1.523709 3.3969 3.396869 3.3969s3.39687-1.524 3.39687-3.3969c0-1.2457-.67407-2.3552-1.70398-2.9467v-.9832l9.33527 8.6353c-.0336.8413.1554 1.6365.5069 2.3388l-.2461 7.3671h-8.22577c-.72745 0-1.31692.5898-1.31692 1.3169v7.6316c0 .7275.58947 1.3173 1.31692 1.3173h1.89464c.45117 2.0457 2.29443 3.5822 4.49463 3.5822 2.2004 0 4.0437-1.5365 4.4949-3.5822h14.091c.4515 2.0457 2.2948 3.5822 4.4949 3.5822s4.0437-1.5365 4.4949-3.5822h2.1481c.7274 0 1.3173-.5898 1.3173-1.3173v-10.732c-.0004-.28-.0897-.5529-.2552-.7785zm-3.4069-.192 1.0279 1.4018v1.3522h-5.3197v-2.7537h4.2868c.0016 0 .0033-.0003.005-.0003zm-20.9005-9.0271c1.2256 0 2.2736 1.0477 2.2736 2.2736 0 1.2256-1.048 2.274-2.2736 2.2737-1.2256 0-2.2737-1.0481-2.2737-2.2737 0-1.2259 1.0481-2.2736 2.2737-2.2736zm-15.54424-12.74993c.69421 0 1.25918.56497 1.25918 1.25918 0 .69455-.56497 1.25952-1.25918 1.25952-.69455 0-1.25952-.56497-1.25952-1.25952 0-.69454.56497-1.25918 1.25952-1.25918zm2.78792 3.97258c.13394-.13729.25747-.28466.36993-.44076l9.62829 7.43491c-.4575.3119-.8647.7046-1.194 1.1497zm10.91502 15.60495c1.1685.47 2.514.47 3.6825 0l.1655 4.9535h-4.0135zm-9.70955 7.5873h20.19325v4.9978h-10.8338c-.6727-1.71-2.3472-2.8926-4.2871-2.8926-1.9397 0-3.61411 1.1826-4.28683 2.8926h-.78552zm5.07235 8.5807c-1.085 0-1.9675-.8617-1.9675-1.9209 0-1.0591.8825-1.9208 1.9675-1.9208 1.0849 0 1.9674.8617 1.9674 1.9208 0 1.0592-.8825 1.9209-1.9674 1.9209zm23.0808 0c-1.085 0-1.9675-.8617-1.9675-1.9209 0-1.0591.8825-1.9208 1.9675-1.9208 1.0849 0 1.9675.8617 1.9675 1.9208 0 1.0592-.8826 1.9209-1.9675 1.9209zm4.2868-3.5825c-.6724-1.7104-2.3472-2.893-4.2868-2.893s-3.6144 1.1826-4.2868 2.893h-1.0393v-14.1384h6.873l.8204 1.1185h-3.6778c-.7272 0-1.317.5899-1.317 1.317v5.3878c0 .7275.5898 1.3169 1.317 1.3169h6.6366v4.9978h-1.0393z" fill="#013a51"/></g></svg>