<svg fill="none" height="60" viewBox="0 0 60 60" width="60" xmlns="http://www.w3.org/2000/svg"><g fill="#5fa7bd"><path d="m40.689 28.9861-4.8143-1.7976c-.2078-.0774-.4216-.1145-.6331-.1145-.6362 0-1.2464.337-1.576.9188l-2.5324 4.4714c-.1602.282-.2357.5887-.2357.8917.0004.6308.3305 1.2433.9187 1.5761.8697.493 1.9752.1872 2.4678-.683l.6162-1.0876 1.8544 5.0949c.3424.9398 1.381 1.4246 2.3213 1.0822.7351-.2674 1.1915-.9618 1.1915-1.7011.0005-.206-.0352-.4152-.1094-.6198l-1.8384-5.0501 1.1028.4116c.9366.3492 1.9798-.1264 2.3296-1.0634.0778-.2088.1149-.4225.1149-.6326 0-.7343-.4496-1.4251-1.1779-1.697z"/><path d="m59.8902 36.5223c-.342-.9398-1.3815-1.4246-2.3209-1.0822l-2.8184 1.0259c.0352-.277.0082-.5663-.0939-.8464l-8.4242-23.1446c-.406-1.1169-1.2231-2.0082-2.3003-2.51034-1.0775-.50262-2.2856-.55527-3.4021-.14877l-23.1445 8.42381c-.2637.0961-.5146.216-.7508.3556l-4.7566-13.06775c-.1639-.45135-.5008-.81894-.9361-1.02218-.4353-.20279-.9334-.22431-1.38475-.06043l-8.36564 3.04505c-.939787.34241-1.42456 1.38107-1.082152 2.32086.34195.93975 1.381072 1.42415 2.320862 1.08265l6.66413-2.42573 12.53725 34.44633c.0604.1647.1424.3144.2412.4495-.9777.6775-1.7642 1.6031-2.2801 2.7099-.7672 1.6457-.8478 3.4919-.2266 5.1984.6208 1.7066 1.8695 3.0689 3.5152 3.8361.9137.4261 1.8896.6408 2.8693.6408.7836 0 1.5701-.1377 2.3291-.4138 2.9333-1.0675 4.6861-3.9569 4.4508-6.9278l26.277-9.564c.9398-.342 1.4241-1.3811 1.0822-2.3209zm-26.294-16.3353-4.2311 1.5399-1.2836-3.5257 4.2311-1.5404zm-15.4655 2.5177c0-.0005-.0005-.0009-.0005-.0014-.1021-.2801-.0265-.5163.0279-.6322.054-.1162.1863-.3259.4669-.428l6.0535-2.2032 1.9025 5.2272c.2678.7357.9622 1.192 1.7015 1.192.206 0 .4152-.0352.6193-.1094l7.6342-2.779c.9398-.342 1.4245-1.3811 1.0826-2.3209l-1.9025-5.2277 6.0535-2.2032c.2806-.1021.5164-.0265.6326.0275.1158.054.3255.1867.4276.4669l8.4238 23.1445c.102.2806.2664.5196.4715.7091l-20.4328 7.4368c-1.3966-1.9601-3.7523-3.0455-6.1524-2.828-.0109-.1671-.0444-.3351-.1043-.5004zm8.7108 29.2268c-.7975.2907-1.6599.2527-2.4289-.1057-.7695-.3589-1.3527-.9952-1.643-1.7931-.2902-.7974-.2526-1.6598.1062-2.4289.3585-.769.9952-1.3526 1.7926-1.6429.3576-.13.7233-.1918 1.0831-.1918 1.2982 0 2.52.802 2.9888 2.0906.5992 1.6462-.2527 3.4731-1.8988 4.0718z"/><path d="m8.59127 29.3505-3.52491 1.3707c-.92197.3585-1.37921 1.3968-1.02069 2.3188.35869.9224 1.39726 1.379 2.31923 1.0205l3.52491-1.3707c.92239-.3587 1.37919-1.3968 1.02049-2.3192-.3585-.922-1.39663-1.3788-2.31903-1.0201z"/><path d="m12.7114 39.9486-3.52492 1.3707c-.92198.3585-1.37921 1.3968-1.02069 2.3188.35869.9224 1.39726 1.379 2.31921 1.0205l3.5249-1.3707c.9224-.3587 1.3792-1.3968 1.0206-2.3192-.3586-.922-1.3967-1.3788-2.3191-1.0201z"/><path d="m10.6517 34.649-7.68593 2.9888c-.9224.3586-1.37904 1.3972-1.02052 2.3192.35869.9224 1.39683 1.3792 2.31923 1.0205l7.68592-2.9888c.9224-.3587 1.3792-1.3968 1.0205-2.3192-.3585-.922-1.3968-1.3792-2.3192-1.0205z"/></g></svg>