<svg fill="none" height="44" viewBox="0 0 48 44" width="48" xmlns="http://www.w3.org/2000/svg"><g fill="#587483" opacity=".8"><path d="m47.6565 18.4113-5.3043-7.4693c-.2576-.3629-.6749-.5784-1.1195-.5784h-9.2357v-2.08407c0-.75841-.6149-1.37328-1.3733-1.37328h-17.3403c-.7584 0-1.3732.61487-1.3732 1.37328v24.02817c0 .7584.6148 1.3732 1.3732 1.3732h2.6336c.4415 2.5062 2.6665 4.4305 5.2232 4.4305s4.7814-1.9243 5.2229-4.4305h6.9942c.4415 2.5062 2.6665 4.4305 5.2232 4.4305s4.7814-1.9243 5.2229-4.4305h2.7336c.7584 0 1.3732-.6148 1.3732-1.3732v-13.1015c0-.2849-.0888-.5625-.2537-.7949zm-2.4928 3.2558h-6.7797v-3.9163h5.3383c.0316 0 .0625-.0024.0934-.0045l1.348 1.8979zm-30.507-12.01464h14.5941v21.28224h-3.1071c-.831-2.39-3.3056-3.9008-5.8107-3.5155-1.9436.299-3.5516 1.6607-4.1967 3.5155h-1.4796zm6.4835 25.71234c-1.5821 0-2.7623-1.4993-2.5307-3.0347.1874-1.2399 1.2669-2.2264 2.5307-2.2264 1.2631 0 2.3423.9858 2.53 2.225.2331 1.5354-.9472 3.0361-2.53 3.0361zm17.4403 0c-1.5824 0-2.763-1.5007-2.5304-3.0361.1882-1.2392 1.2673-2.225 2.5304-2.225s2.3423.9862 2.53 2.225c.2331 1.5354-.9472 3.0361-2.53 3.0361zm5.0039-4.4301c-.7335-2.1095-2.7659-3.5776-5.0039-3.5776s-4.2704 1.4681-5.0039 3.5776h-1.5796v-17.8245h8.5267l1.3452 1.8944h-4.8578c-.7585 0-1.3733.6145-1.3733 1.373v6.6628c0 .7584.6148 1.3733 1.3733 1.3733h8.1529v6.521z"/><path d="m7.36084 15h-2.7735c-.72543 0-1.3139.5881-1.3139 1.3136 0 .7257.58847 1.3139 1.3139 1.3139h2.7735c.72577 0 1.3139-.5882 1.3139-1.3139 0-.7255-.58813-1.3136-1.3139-1.3136z"/><path d="m7.36084 23.3389h-2.7735c-.72543 0-1.3139.5881-1.3139 1.3135 0 .7258.58847 1.3139 1.3139 1.3139h2.7735c.72577 0 1.3139-.5881 1.3139-1.3139 0-.7254-.58813-1.3135-1.3139-1.3135z"/><path d="m7.36142 19.1692h-6.04752c-.725765 0-1.3139.5885-1.3139 1.3139 0 .7258.588135 1.3139 1.3139 1.3139h6.04752c.72577 0 1.3139-.5881 1.3139-1.3139 0-.7254-.58813-1.3139-1.3139-1.3139z"/></g></svg>
